<svg width="461" height="474" viewBox="0 0 461 474" fill="none" xmlns="http://www.w3.org/2000/svg">
<path d="M214.132 158.913C214.132 151.841 212.312 142.841 200.801 142.841H14.3416C2.83355 142.841 1.01367 151.841 1.01367 158.913V164.591H214.125V158.913H214.132Z" fill="white"/>
<mask id="mask0_2743_12411" style="mask-type:luminance" maskUnits="userSpaceOnUse" x="0" y="141" width="216" height="26">
<path d="M0 141.013H215.93V166.022H0V141.013Z" fill="white"/>
</mask>
<g mask="url(#mask0_2743_12411)">
<path d="M214.131 165.622H1.01298C0.446239 165.622 -0.0166016 165.159 -0.0166016 164.591V158.913C-0.0166016 147.565 4.81647 141.811 14.3409 141.811H200.797C210.321 141.811 215.154 147.565 215.154 158.913V164.591C215.154 165.159 214.691 165.622 214.125 165.622H214.131ZM2.03942 163.564H213.098V158.913C213.098 148.791 209.071 143.872 200.797 143.872H14.3409C6.06331 143.872 2.03942 148.791 2.03942 158.913V163.564Z" fill="#231F20"/>
</g>
<path d="M1.01367 164.591V265.285C1.01367 272.357 2.83355 281.357 14.3416 281.357H200.797C212.305 281.357 214.125 272.357 214.125 265.285V164.591H1.01367Z" fill="white"/>
<mask id="mask1_2743_12411" style="mask-type:luminance" maskUnits="userSpaceOnUse" x="0" y="162" width="216" height="121">
<path d="M0 162.795H215.93V282.999H0V162.795Z" fill="white"/>
</mask>
<g mask="url(#mask1_2743_12411)">
<path d="M200.8 282.384H14.3409C4.81647 282.384 -0.0166016 276.633 -0.0166016 265.285V164.591C-0.0166016 164.027 0.446239 163.564 1.01298 163.564H214.125C214.691 163.564 215.154 164.027 215.154 164.591V265.285C215.154 276.633 210.321 282.384 200.797 282.384H200.8ZM2.03942 165.622V265.285C2.03942 275.407 6.06331 280.326 14.3409 280.326H200.797C209.071 280.326 213.098 275.407 213.098 265.285V165.622H2.03942Z" fill="#231F20"/>
</g>
<path d="M180.08 229.852C173.071 216.632 133.242 207.519 133.242 207.519H88.6861C88.6861 207.519 48.8597 216.632 41.8478 229.852C34.836 243.072 26.0703 281.357 26.0703 281.357H195.858C195.858 281.357 187.092 243.072 180.08 229.852Z" fill="#819EFF"/>
<path d="M76.4886 149.591C76.4886 149.591 61.8635 123.517 77.6127 112.815C77.6127 112.815 66.7375 111.687 71.1896 105.492C75.6448 99.2962 81.8286 105.492 81.8286 105.492C81.8286 105.492 93.9255 81.5606 126.831 88.0397C159.74 94.5125 190.681 102.961 166.623 153.193L100.956 175.243L80.4244 160.958L76.4886 149.588V149.591Z" fill="#231F20"/>
<path d="M92.2119 171.997V212.249C92.2119 212.249 95.6344 217.234 100.477 222.236C108.871 230.908 123.644 228.009 127.788 216.667C127.885 216.396 127.983 216.119 128.071 215.838C128.071 215.838 127.712 195.374 128.071 185.687C128.43 175.99 92.2119 172.004 92.2119 172.004V171.997Z" fill="white"/>
<path d="M112.383 228.314C107.653 228.314 103.11 226.423 99.7441 222.944C94.9016 217.943 91.5138 213.037 91.3689 212.825C91.2524 212.655 91.1895 212.447 91.1895 212.242V171.991C91.1895 171.698 91.3122 171.42 91.5326 171.225C91.7499 171.03 92.0427 170.938 92.3292 170.966C96.1359 171.386 129.489 175.363 129.105 185.711C128.749 195.266 129.105 215.608 129.105 215.81C129.105 215.923 129.089 216.033 129.054 216.144C128.96 216.437 128.859 216.724 128.755 217.013C126.715 222.591 121.995 226.666 116.126 227.917C114.876 228.185 113.623 228.314 112.379 228.314H112.383ZM93.2392 211.918C94.0074 212.992 97.1119 217.275 101.215 221.517C104.971 225.396 110.383 227.038 115.695 225.903C120.865 224.804 125.027 221.217 126.822 216.308C126.901 216.103 126.973 215.892 127.042 215.68C127.008 213.667 126.709 194.778 127.042 185.639C127.275 179.453 106.898 174.78 93.236 173.15V211.918H93.2392Z" fill="#231F20"/>
<path d="M159.283 149.932C159.283 149.932 172.064 147.19 171.724 157.23C171.383 167.273 158.619 169.552 158.619 169.552L159.283 149.932Z" fill="white"/>
<path d="M158.619 170.582C158.373 170.582 158.137 170.494 157.945 170.33C157.709 170.125 157.583 169.826 157.592 169.517L158.253 149.897C158.269 149.425 158.603 149.021 159.066 148.923C159.359 148.864 166.273 147.42 170.187 150.698C171.978 152.201 172.844 154.41 172.746 157.259C172.381 168.011 158.934 170.535 158.795 170.564C158.732 170.573 158.675 170.576 158.616 170.576L158.619 170.582ZM160.281 150.808L159.689 168.235C162.762 167.371 170.442 164.494 170.69 157.199C170.766 154.987 170.171 153.379 168.864 152.289C166.393 150.215 162.048 150.565 160.275 150.811L160.281 150.808Z" fill="#231F20"/>
<path d="M161.544 126.621C161.544 126.621 170.593 207.78 125.912 207.78C91.1386 207.78 83.1444 167.803 83.1444 167.803C83.1444 167.803 72.0425 164.144 71.2302 154.507C70.5406 146.327 77.6659 142.769 82.2344 146.327C82.2344 146.327 82.5273 163.322 87.3068 160.744C87.3068 160.744 87.1809 136.45 87.7854 127.4C88.3931 118.346 100.159 130.192 111.359 132.524C126.267 135.622 117.133 119.005 123.912 124.141C146.843 141.499 138.512 118.784 142.86 123.36C157.205 138.442 161.541 126.628 161.541 126.628L161.544 126.621Z" fill="white"/>
<path d="M125.911 208.817C111.324 208.817 99.1198 201.739 90.6187 188.349C85.0299 179.551 82.785 170.875 82.2592 168.581C79.8852 167.661 70.9621 163.624 70.2064 154.596C69.8412 150.225 71.5257 146.579 74.7246 144.842C77.3726 143.408 80.4865 143.664 82.8669 145.517C83.1125 145.709 83.2573 146.002 83.2636 146.311C83.3486 151.315 84.2837 158.844 86.0942 159.906C86.1351 159.931 86.1918 159.962 86.2736 159.978C86.2579 155.746 86.217 135.404 86.7585 127.33C86.8908 125.367 87.5142 124.094 88.6634 123.448C91.028 122.115 94.7622 124.053 99.4788 126.514C103.216 128.459 107.457 130.661 111.566 131.515C114.557 132.139 116.714 131.969 117.986 131.011C119.501 129.867 119.677 127.627 119.815 125.815C119.945 124.189 120.052 122.783 121.191 122.269C122.268 121.784 123.48 122.525 124.523 123.312C132.904 129.653 136.525 130.192 138.093 129.524C139.645 128.865 139.919 126.596 140.14 124.775C140.319 123.281 140.464 122.102 141.481 121.765C142.457 121.441 143.285 122.31 143.594 122.635C148.735 128.043 153.19 130.542 156.478 129.874C159.396 129.281 160.558 126.278 160.568 126.246C160.738 125.799 161.185 125.525 161.657 125.588C162.129 125.648 162.501 126.019 162.551 126.492C162.567 126.615 163.946 139.264 162.942 154.372C161.591 174.77 156.78 189.723 148.653 198.818C142.731 205.439 135.077 208.801 125.895 208.801L125.911 208.817ZM78.2983 145.986C77.4167 145.986 76.5351 146.207 75.7101 146.654C73.2542 147.987 71.9633 150.896 72.2624 154.425C73.0024 163.259 83.3706 166.794 83.4745 166.832C83.824 166.949 84.0854 167.242 84.1578 167.607C84.1767 167.705 86.2075 177.581 92.3913 187.3C100.612 200.211 111.887 206.762 125.917 206.762C134.485 206.762 141.626 203.633 147.136 197.469C163.168 179.532 161.591 140.695 160.778 129.7C159.9 130.639 158.647 131.556 156.928 131.912C152.894 132.751 147.97 130.173 142.293 124.261C142.259 124.516 142.221 124.8 142.192 125.043C141.941 127.141 141.553 130.312 138.905 131.437C135.817 132.751 130.851 130.696 123.291 124.976C122.652 124.491 122.284 124.305 122.092 124.233C121.979 124.605 121.919 125.392 121.871 125.988C121.708 128.093 121.481 130.97 119.224 132.669C117.435 134.011 114.793 134.298 111.147 133.542C106.758 132.631 102.388 130.359 98.5342 128.351C94.863 126.442 91.0721 124.466 89.6709 125.254C89.1829 125.531 88.8901 126.278 88.8082 127.482C88.2132 136.387 88.3297 160.507 88.3297 160.75C88.3297 161.128 88.125 161.478 87.7912 161.661C86.5948 162.307 85.6376 162.03 85.052 161.686C81.8215 159.792 81.2989 149.922 81.2107 146.872C80.3165 146.289 79.3058 145.989 78.2857 145.989L78.2983 145.986Z" fill="#231F20"/>
<path d="M149.316 152.289C155.05 151.986 154.432 163.394 149.316 163.573C144.203 163.753 142.408 152.654 149.316 152.289Z" fill="#231F20"/>
<path d="M112.98 152.289C118.71 151.986 118.093 163.394 112.98 163.573C107.863 163.753 106.068 152.654 112.98 152.289Z" fill="#231F20"/>
<path d="M130.347 181.312C129.783 181.312 129.32 180.849 129.32 180.282V174.852C129.32 174.297 129.761 173.84 130.315 173.825C130.58 173.812 136.773 173.525 137.22 167.396C137.327 165.909 137.009 164.866 136.269 164.289C134.774 163.132 131.726 163.791 130.677 164.144C130.362 164.254 130.019 164.197 129.745 164.005C129.478 163.81 129.32 163.501 129.32 163.173V152.2C129.32 151.636 129.783 151.173 130.347 151.173C130.913 151.173 131.376 151.636 131.376 152.2V161.843C133.001 161.516 135.715 161.257 137.529 162.663C138.848 163.687 139.44 165.332 139.276 167.55C138.854 173.267 134.377 175.356 131.379 175.794V180.282C131.379 180.849 130.917 181.312 130.353 181.312H130.347Z" fill="#231F20"/>
<path d="M150.363 141.751C155.259 143.326 155.942 146.216 153.231 146.377C150.523 146.534 142.236 147.335 142.079 144.061C141.918 140.786 147.425 140.799 150.363 141.744V141.751Z" fill="#231F20"/>
<path d="M111.739 140.761C106.846 142.337 106.163 145.23 108.871 145.387C111.582 145.548 119.866 146.345 120.026 143.074C120.184 139.8 114.68 139.81 111.739 140.758V140.761Z" fill="#231F20"/>
<path d="M123.711 195.802C122.385 195.802 121.009 195.468 119.596 194.81C115.008 192.654 112.845 188.135 112.77 184.845C112.729 183.093 113.302 181.776 114.347 181.224C115.008 180.874 116.126 180.689 117.653 181.788C122.149 185.037 131.699 187.779 131.797 187.804C132.08 187.886 132.316 188.085 132.445 188.349C132.574 188.617 132.58 188.926 132.467 189.194C132.388 189.38 130.502 193.748 126.513 195.282C125.61 195.626 124.674 195.802 123.717 195.802H123.711ZM115.452 183.014C115.389 183.014 115.339 183.024 115.304 183.046C115.096 183.153 114.8 183.711 114.826 184.801C114.876 187.032 116.419 191.041 120.468 192.947C122.37 193.842 124.149 193.981 125.764 193.369C127.88 192.56 129.306 190.631 130.024 189.427C127.222 188.557 120.295 186.235 116.45 183.462C115.987 183.128 115.654 183.014 115.452 183.014Z" fill="#231F20"/>
<path d="M200.801 282.384H20.469C19.9023 282.384 19.4395 281.921 19.4395 281.357C19.4395 280.79 19.9023 280.326 20.469 280.326H200.801C201.368 280.326 201.83 280.79 201.83 281.357C201.83 281.921 201.368 282.384 200.801 282.384Z" fill="#231F20"/>
<path d="M21.0031 153.905C21.0031 154.17 20.9779 154.432 20.9244 154.69C20.874 154.952 20.7984 155.2 20.6945 155.446C20.5938 155.692 20.471 155.922 20.323 156.143C20.1781 156.363 20.0113 156.565 19.8224 156.754C19.6366 156.94 19.4319 157.107 19.2147 157.255C18.9943 157.403 18.7613 157.526 18.5188 157.627C18.2732 157.728 18.0214 157.803 17.7632 157.857C17.5018 157.907 17.2405 157.933 16.976 157.933C16.7116 157.933 16.4502 157.907 16.192 157.857C15.9339 157.803 15.682 157.728 15.4364 157.627C15.1939 157.526 14.9609 157.403 14.7405 157.255C14.5201 157.107 14.3186 156.94 14.1297 156.754C13.944 156.565 13.7771 156.363 13.6322 156.143C13.4843 155.922 13.3583 155.692 13.2576 155.446C13.1568 155.2 13.0812 154.952 13.0309 154.69C12.9773 154.432 12.9521 154.17 12.9521 153.905C12.9521 153.641 12.9773 153.379 13.0309 153.117C13.0812 152.859 13.1568 152.607 13.2576 152.361C13.3583 152.118 13.4843 151.885 13.6322 151.665C13.7771 151.447 13.944 151.242 14.1297 151.056C14.3186 150.867 14.5201 150.7 14.7405 150.555C14.9609 150.407 15.1939 150.284 15.4364 150.184C15.682 150.08 15.9339 150.004 16.192 149.954C16.4502 149.9 16.7116 149.875 16.976 149.875C17.2405 149.875 17.5018 149.9 17.7632 149.954C18.0214 150.004 18.2732 150.08 18.5188 150.184C18.7613 150.284 18.9943 150.407 19.2147 150.555C19.4319 150.7 19.6366 150.867 19.8224 151.056C20.0113 151.242 20.1781 151.447 20.323 151.665C20.471 151.885 20.5938 152.118 20.6945 152.361C20.7984 152.607 20.874 152.859 20.9244 153.117C20.9779 153.379 21.0031 153.641 21.0031 153.905Z" fill="#231F20"/>
<path d="M32.4081 153.905C32.4081 154.17 32.3829 154.432 32.3326 154.69C32.279 154.952 32.2035 155.2 32.1027 155.446C32.002 155.692 31.8792 155.922 31.7312 156.143C31.5832 156.363 31.4163 156.565 31.2306 156.754C31.0448 156.94 30.8401 157.107 30.6197 157.255C30.4025 157.403 30.1695 157.526 29.9239 157.627C29.6815 157.728 29.4296 157.803 29.1682 157.857C28.9101 157.907 28.6487 157.933 28.3842 157.933C28.1198 157.933 27.8584 157.907 27.6002 157.857C27.3389 157.803 27.087 157.728 26.8446 157.627C26.599 157.526 26.3691 157.403 26.1487 157.255C25.9283 157.107 25.7268 156.94 25.5379 156.754C25.3522 156.565 25.1853 156.363 25.0373 156.143C24.8925 155.922 24.7665 155.692 24.6658 155.446C24.565 155.2 24.4894 154.952 24.4359 154.69C24.3855 154.432 24.3604 154.17 24.3604 153.905C24.3604 153.641 24.3855 153.379 24.4359 153.117C24.4894 152.859 24.565 152.607 24.6658 152.361C24.7665 152.118 24.8925 151.885 25.0373 151.665C25.1853 151.447 25.3522 151.242 25.5379 151.056C25.7268 150.867 25.9283 150.7 26.1487 150.555C26.3691 150.407 26.599 150.284 26.8446 150.184C27.087 150.08 27.3389 150.004 27.6002 149.954C27.8584 149.9 28.1198 149.875 28.3842 149.875C28.6487 149.875 28.9101 149.9 29.1682 149.954C29.4296 150.004 29.6815 150.08 29.9239 150.184C30.1695 150.284 30.4025 150.407 30.6197 150.555C30.8401 150.7 31.0448 150.867 31.2306 151.056C31.4163 151.242 31.5832 151.447 31.7312 151.665C31.8792 151.885 32.002 152.118 32.1027 152.361C32.2035 152.607 32.279 152.859 32.3326 153.117C32.3829 153.379 32.4081 153.641 32.4081 153.905Z" fill="#231F20"/>
<path d="M43.8214 153.905C43.8214 154.17 43.7962 154.432 43.7427 154.69C43.6923 154.952 43.6168 155.2 43.5129 155.446C43.4121 155.692 43.2893 155.922 43.1413 156.143C42.9965 156.363 42.8296 156.565 42.6407 156.754C42.4549 156.94 42.2503 157.107 42.033 157.255C41.8126 157.403 41.5796 157.526 41.3372 157.627C41.0916 157.728 40.8397 157.803 40.5815 157.857C40.3234 157.907 40.0589 157.933 39.7944 157.933C39.5331 157.933 39.2686 157.907 39.0104 157.857C38.7522 157.803 38.5003 157.728 38.2547 157.627C38.0123 157.526 37.7793 157.403 37.5589 157.255C37.3385 157.107 37.137 156.94 36.9512 156.754C36.7623 156.565 36.5954 156.363 36.4506 156.143C36.3026 155.922 36.1798 155.692 36.0759 155.446C35.9752 155.2 35.8996 154.952 35.8492 154.69C35.7957 154.432 35.7705 154.17 35.7705 153.905C35.7705 153.641 35.7957 153.379 35.8492 153.117C35.8996 152.859 35.9752 152.607 36.0759 152.361C36.1798 152.118 36.3026 151.885 36.4506 151.665C36.5954 151.447 36.7623 151.242 36.9512 151.056C37.137 150.867 37.3385 150.7 37.5589 150.555C37.7793 150.407 38.0123 150.284 38.2547 150.184C38.5003 150.08 38.7522 150.004 39.0104 149.954C39.2686 149.9 39.5331 149.875 39.7944 149.875C40.0589 149.875 40.3234 149.9 40.5815 149.954C40.8397 150.004 41.0916 150.08 41.3372 150.184C41.5796 150.284 41.8126 150.407 42.033 150.555C42.2503 150.7 42.4549 150.867 42.6407 151.056C42.8296 151.242 42.9965 151.447 43.1413 151.665C43.2893 151.885 43.4121 152.118 43.5129 152.361C43.6168 152.607 43.6923 152.859 43.7427 153.117C43.7962 153.379 43.8214 153.641 43.8214 153.905Z" fill="#231F20"/>
<path d="M63.0162 282.384C62.4493 282.384 61.9863 281.921 61.9863 281.357V258.409C61.9863 257.845 62.4493 257.382 63.0162 257.382C63.58 257.382 64.043 257.845 64.043 258.409V281.357C64.043 281.921 63.58 282.384 63.0162 282.384Z" fill="#231F20"/>
<path d="M163.915 282.384C163.348 282.384 162.885 281.921 162.885 281.357V258.409C162.885 257.845 163.348 257.382 163.915 257.382C164.478 257.382 164.941 257.845 164.941 258.409V281.357C164.941 281.921 164.478 282.384 163.915 282.384Z" fill="#231F20"/>
<path d="M460.989 384.89C460.142 348.59 410.234 278.203 399.186 261.201C388.14 244.194 355.011 247.717 348.216 252.343L306.23 250.896C306.23 250.896 272.641 244.676 254.225 262.188C235.812 279.693 202.091 362.475 202.091 362.475H260.393V421.748H370.688C411.704 421.748 461.836 421.187 460.989 384.89Z" fill="#FF6A00"/>
<path d="M194.364 248.861C181.411 253.805 181.427 269.162 183.407 277.424C185.391 285.69 202.645 362.355 202.645 362.355L256.467 349.022C256.467 349.022 235.324 284.679 229.288 269.18C223.253 253.682 210.387 242.741 194.364 248.861Z" fill="#FF6A00"/>
<path d="M173.673 227.712C175.763 228.16 193.861 232.31 193.861 232.31C193.861 232.31 191.528 227.47 190.414 219.484C189.299 211.496 195.102 208.136 198.058 213.446C201.012 218.756 206.761 230.88 210.398 239.788C214.037 248.697 215.791 264.384 205.782 268.869C199.189 271.821 171.107 263.555 168.191 262.487C165.279 261.416 153.418 253.106 151.988 248.136C150.559 243.163 155.886 241.682 159.233 244.537C159.233 244.537 150.159 237.683 148.166 232.603C146.167 227.53 151.368 225.144 153.944 227.738C153.944 227.738 146.264 221.608 149.995 217.95C153.726 214.291 157.162 217.77 157.162 217.77C157.162 217.77 153.849 209.917 160.549 208.984C165.25 208.326 173.673 227.716 173.673 227.716V227.712Z" fill="white"/>
<path d="M201.439 270.529C190.177 270.529 168.077 263.54 167.837 263.455C165.004 262.415 152.604 253.991 151.002 248.416C150.319 246.04 150.939 243.957 152.661 242.845C153.272 242.448 153.971 242.205 154.717 242.114C151.906 239.599 148.417 236.038 147.214 232.981C145.939 229.745 147.192 227.47 148.795 226.42C149.314 226.08 149.875 225.853 150.457 225.74C149.229 224.274 148.052 222.412 147.954 220.553C147.888 219.283 148.348 218.123 149.28 217.212C151.606 214.927 153.87 214.997 155.489 215.577C155.227 214.07 155.186 212.167 156.071 210.607C156.902 209.135 158.363 208.243 160.413 207.96C161.972 207.746 164.638 208.508 169.774 217.593C171.968 221.479 173.798 225.462 174.405 226.82C177.242 227.448 187.755 229.855 192.16 230.87C191.357 228.724 190.129 224.845 189.405 219.632C188.876 215.826 189.859 211.209 193.265 210.065C194.931 209.504 197.305 209.974 198.961 212.952C201.788 218.038 207.576 230.151 211.354 239.404C213.492 244.635 214.572 250.862 214.238 256.058C213.8 262.897 211.026 267.652 206.209 269.808C205.079 270.318 203.429 270.536 201.448 270.536L201.439 270.529ZM155.479 244.127C154.812 244.127 154.21 244.291 153.773 244.575C152.825 245.186 152.545 246.349 152.976 247.846C154.267 252.327 165.712 260.48 168.546 261.52C171.937 262.764 199.32 270.627 205.365 267.926C214.354 263.902 213.164 249.277 209.446 240.179C205.696 230.993 199.959 218.983 197.16 213.951C196.272 212.356 195.06 211.631 193.914 212.012C192.251 212.567 190.866 215.265 191.436 219.342C192.51 227.054 194.77 231.822 194.792 231.869C194.962 232.225 194.915 232.65 194.67 232.959C194.421 233.268 194.021 233.407 193.637 233.318C193.454 233.278 175.52 229.162 173.461 228.721C173.136 228.651 172.862 228.428 172.73 228.122C168.829 219.144 163.118 209.658 160.69 210.005C159.289 210.2 158.363 210.73 157.853 211.625C156.836 213.421 157.693 216.38 158.111 217.367C158.3 217.82 158.146 218.35 157.737 218.624C157.324 218.895 156.78 218.845 156.433 218.488C156.156 218.217 153.609 215.851 150.718 218.684C150.199 219.194 149.972 219.755 150.01 220.452C150.117 222.585 152.661 225.257 154.1 226.521C154.308 226.666 154.497 226.83 154.676 227.016C155.064 227.403 155.076 228.024 154.714 228.428C154.349 228.834 153.732 228.885 153.303 228.544C153.222 228.484 153.052 228.339 152.812 228.131C151.874 227.511 150.7 227.64 149.916 228.153C148.719 228.935 148.426 230.46 149.125 232.234C150.75 236.356 157.582 241.934 159.412 243.374C159.582 243.494 159.745 243.623 159.903 243.762C160.325 244.121 160.388 244.755 160.038 245.186C159.689 245.618 159.062 245.7 158.615 245.36C158.568 245.325 158.404 245.202 158.137 244.997C157.261 244.392 156.317 244.131 155.479 244.131V244.127Z" fill="#231F20"/>
<path d="M159.232 244.537L170.287 252.406L173.779 253.616" fill="white"/>
<path d="M173.78 254.643C173.667 254.643 173.554 254.624 173.447 254.587L169.961 253.383C169.867 253.351 169.782 253.307 169.7 253.25L158.642 245.375C158.179 245.047 158.072 244.405 158.399 243.941C158.73 243.478 159.372 243.371 159.835 243.699L170.773 251.486L174.12 252.642C174.652 252.828 174.942 253.414 174.756 253.95C174.608 254.375 174.212 254.643 173.783 254.643H173.78Z" fill="#231F20"/>
<path d="M153.937 227.738L171.172 242.87L175.964 244.168" fill="white"/>
<path d="M175.964 245.196C175.876 245.196 175.785 245.186 175.696 245.161L170.904 243.863C170.756 243.822 170.611 243.746 170.495 243.642L153.26 228.51C152.831 228.131 152.79 227.485 153.165 227.057C153.54 226.631 154.188 226.59 154.617 226.966L171.669 241.941L176.235 243.173C176.786 243.324 177.11 243.888 176.959 244.436C176.836 244.893 176.421 245.196 175.967 245.196H175.964Z" fill="#231F20"/>
<path d="M157.16 217.763L172.399 233.154L178.964 235.716" fill="white"/>
<path d="M178.965 236.747C178.842 236.747 178.713 236.725 178.59 236.675L172.025 234.119C171.893 234.065 171.77 233.983 171.669 233.879L156.43 218.488C156.03 218.088 156.033 217.436 156.433 217.032C156.836 216.632 157.488 216.638 157.891 217.039L172.976 232.275L179.339 234.755C179.868 234.96 180.133 235.559 179.925 236.088C179.767 236.495 179.38 236.741 178.971 236.741L178.965 236.747Z" fill="#231F20"/>
<path d="M306.266 248.417C301.367 247.399 295.344 253.43 296.166 258.091C296.987 262.755 305.511 277.84 319.062 281.953C319.062 281.953 338.105 275.669 347.009 265.125C357.818 252.327 349.049 246.51 343.889 247.128C336.518 248.007 306.273 248.417 306.273 248.417H306.266Z" fill="white"/>
<path d="M319.061 282.983C318.958 282.983 318.86 282.967 318.762 282.936C305.337 278.861 296.13 263.798 295.157 258.267C294.717 255.749 295.951 252.724 298.375 250.367C300.806 248.007 303.788 246.894 306.37 247.383C308.359 247.357 336.76 246.935 343.772 246.103C346.643 245.757 350.484 247.137 352.257 250.43C353.768 253.238 354.222 258.185 347.799 265.79C338.809 276.432 320.176 282.668 319.389 282.93C319.285 282.967 319.178 282.983 319.065 282.983H319.061ZM305.151 249.333C303.429 249.333 301.455 250.244 299.805 251.851C297.887 253.707 296.861 256.09 297.182 257.918C297.909 262.039 305.856 276.677 319.049 280.878C321.524 280.018 338.224 273.942 346.227 264.466C350.654 259.222 352.153 254.593 350.443 251.413C349.121 248.952 346.146 247.896 344.011 248.148C336.672 249.025 307.525 249.431 306.288 249.447C306.209 249.447 306.137 249.441 306.061 249.425C305.768 249.365 305.463 249.333 305.151 249.333Z" fill="#231F20"/>
<path d="M343.889 204.862V247.127C343.889 247.127 331.465 265.219 320.168 267.86C320.168 267.86 309.623 261.453 306.235 250.893C306.235 250.893 306.613 229.404 306.235 219.226C305.86 209.047 343.895 204.859 343.895 204.859L343.889 204.862Z" fill="white"/>
<path d="M320.161 268.887C319.975 268.887 319.789 268.837 319.626 268.739C319.185 268.471 308.713 262.008 305.249 251.212C305.211 251.104 305.199 250.991 305.199 250.878C305.199 250.66 305.567 229.301 305.199 219.267C304.796 208.445 339.776 204.276 343.772 203.841C344.065 203.81 344.351 203.901 344.569 204.096C344.783 204.292 344.912 204.569 344.912 204.862V247.128C344.912 247.332 344.849 247.537 344.732 247.707C344.213 248.457 331.949 266.161 320.394 268.862C320.315 268.881 320.24 268.887 320.161 268.887ZM307.258 250.742C310.192 259.641 318.527 265.547 320.34 266.757C330.293 264.088 341.313 248.974 342.856 246.806V206.025C328.489 207.739 307.012 212.658 307.255 219.201C307.607 228.806 307.289 248.681 307.255 250.748L307.258 250.742Z" fill="#231F20"/>
<path d="M264.402 182.289C264.402 182.289 253.511 167.494 254.261 151.516C255.016 135.546 263.483 154.453 268.347 142.709C274.909 126.857 306.225 104.105 338.718 127.667C338.718 127.667 332.317 120.703 337.21 119.789C342.106 118.872 345.872 127.667 345.872 127.667C345.872 127.667 354.159 123.643 357.172 127.667C360.182 131.692 350.664 133.986 350.664 133.986C350.664 133.986 383.422 142.327 365.144 182.283C365.144 182.283 361.961 196.183 338.995 198.714C316.023 201.247 298.763 192.266 284.77 191.812C270.778 191.362 264.408 182.283 264.408 182.283L264.402 182.289Z" fill="#231F20"/>
<path d="M273.46 181.697C273.46 181.697 260.044 178.817 260.4 189.361C260.752 199.902 274.159 202.297 274.159 202.297L273.46 181.691V181.697Z" fill="white"/>
<path d="M274.159 203.331C274.096 203.331 274.039 203.324 273.979 203.315C273.835 203.29 270.415 202.663 266.911 200.687C262.141 197.996 259.534 194.088 259.376 189.402C259.272 186.427 260.173 184.12 262.049 182.551C266.139 179.125 273.372 180.632 273.68 180.695C274.143 180.792 274.477 181.193 274.493 181.665L275.192 202.269C275.201 202.578 275.075 202.877 274.839 203.082C274.647 203.249 274.411 203.334 274.165 203.334L274.159 203.331ZM269.609 182.365C267.544 182.365 265.041 182.715 263.359 184.127C261.98 185.283 261.35 186.982 261.426 189.323C261.687 197.072 269.892 200.094 273.085 200.98L272.462 182.567C271.801 182.475 270.777 182.362 269.609 182.362V182.365Z" fill="#231F20"/>
<path d="M271.086 157.217C271.086 157.217 261.587 242.445 308.501 242.445C345.018 242.445 353.409 200.463 353.409 200.463C353.409 200.463 365.065 196.624 365.918 186.499C366.639 177.909 359.158 174.175 354.363 177.909C354.363 177.909 354.054 195.755 349.032 193.048C349.032 193.048 349.171 167.541 348.529 158.037C347.893 148.532 319.373 164.254 300.68 164.884C273.117 165.817 271.08 157.224 271.08 157.224L271.086 157.217Z" fill="white"/>
<path d="M308.497 243.472C298.875 243.472 290.85 239.952 284.641 233.006C276.111 223.464 271.07 207.777 269.65 186.37C268.599 170.51 270.047 157.233 270.056 157.104C270.113 156.606 270.519 156.221 271.02 156.193C271.508 156.158 271.955 156.486 272.078 156.962C272.134 157.135 274.795 164.73 300.642 163.857C308.353 163.596 317.899 160.681 326.318 158.112C336.485 155.011 344.52 152.563 347.918 154.904C348.909 155.588 349.464 156.622 349.552 157.97C350.122 166.482 350.078 187.996 350.062 192.304C350.191 192.298 350.273 192.247 350.329 192.216C352.247 191.094 353.239 183.162 353.33 177.899C353.336 177.591 353.478 177.297 353.727 177.108C356.205 175.177 359.457 174.909 362.219 176.406C365.559 178.218 367.322 182.028 366.938 186.597C366.56 191.04 364.145 195.024 359.945 198.118C357.593 199.851 355.311 200.844 354.287 201.247C353.746 203.601 351.397 212.747 345.512 222.015C336.599 236.057 323.8 243.481 308.497 243.481V243.472ZM271.861 160.104C271.023 171.184 269.162 212.602 286.177 231.642C291.977 238.13 299.486 241.42 308.497 241.42C323.245 241.42 335.103 234.535 343.743 220.959C350.241 210.745 352.373 200.371 352.395 200.267C352.467 199.902 352.729 199.609 353.084 199.492C353.192 199.454 364.111 195.729 364.892 186.421C365.203 182.689 363.837 179.623 361.242 178.214C359.35 177.19 357.146 177.288 355.377 178.454C355.288 181.624 354.75 192.014 351.372 193.996C350.764 194.349 349.785 194.633 348.544 193.965C348.21 193.785 348 193.435 348.006 193.054C348.006 192.796 348.135 167.475 347.505 158.112C347.445 157.183 347.049 156.808 346.756 156.6C344.174 154.819 335.796 157.378 326.926 160.085C318.381 162.694 308.696 165.647 300.72 165.915C289.112 166.306 280.488 165.096 275.078 162.319C273.633 161.576 272.6 160.803 271.867 160.104H271.861Z" fill="#231F20"/>
<path d="M287.616 183.906C281.596 183.585 282.245 195.566 287.616 195.755C292.988 195.947 294.87 184.29 287.616 183.906Z" fill="#231F20"/>
<path d="M325.777 183.906C319.76 183.585 320.406 195.566 325.777 195.755C331.152 195.947 333.031 184.29 325.777 183.906Z" fill="#231F20"/>
<path d="M306.224 214.332C305.661 214.332 305.198 213.869 305.198 213.302V208.549C302.056 208.105 297.32 205.934 296.879 199.934C296.709 197.63 297.32 195.916 298.693 194.851C300.61 193.363 303.504 193.656 305.201 194.012V183.818C305.201 183.251 305.664 182.787 306.231 182.787C306.794 182.787 307.257 183.251 307.257 183.818V195.339C307.257 195.667 307.1 195.982 306.832 196.171C306.564 196.37 306.215 196.42 305.9 196.313C304.785 195.935 301.546 195.241 299.952 196.477C299.162 197.094 298.819 198.204 298.935 199.779C299.414 206.265 305.982 206.567 306.265 206.577C306.819 206.599 307.263 207.049 307.263 207.607V213.302C307.263 213.869 306.801 214.332 306.234 214.332H306.224Z" fill="#231F20"/>
<path d="M306.786 223.404C304.437 223.404 302.819 222.903 302.781 222.894C302.243 222.72 301.944 222.144 302.12 221.599C302.293 221.057 302.869 220.76 303.408 220.934C303.754 221.041 311.604 223.407 317.302 216.153C317.652 215.706 318.301 215.63 318.748 215.98C319.195 216.33 319.273 216.976 318.924 217.423C315.032 222.374 310.158 223.404 306.792 223.404H306.786Z" fill="#231F20"/>
<path d="M286.517 172.842C281.376 174.493 280.658 177.534 283.504 177.698C286.347 177.868 295.053 178.703 295.22 175.271C295.39 171.836 289.606 171.849 286.517 172.842Z" fill="#231F20"/>
<path d="M327.08 171.808C332.219 173.459 332.94 176.5 330.09 176.664C327.244 176.828 318.541 177.669 318.378 174.234C318.211 170.803 323.988 170.815 327.08 171.808Z" fill="#231F20"/>
<mask id="mask2_2743_12411" style="mask-type:luminance" maskUnits="userSpaceOnUse" x="293" y="391" width="72" height="33">
<path d="M293.309 391.102H364.24V423.945H293.309V391.102Z" fill="white"/>
</mask>
<g mask="url(#mask2_2743_12411)">
<path d="M320.644 423.812H301.828C292.88 423.812 287.241 409.316 310.701 397.429C334.161 385.543 350.052 394.136 357.905 400.902C365.76 407.671 367.039 423.812 352.791 423.812H320.644Z" fill="#231F20"/>
</g>
<path d="M331.137 370.892C331.137 370.892 309.985 374.917 301.462 376.883C292.938 378.849 288.455 381.175 290.955 384.853C293.452 388.533 300.797 386.129 308.077 385.12C315.356 384.112 326.653 381.812 326.653 381.812L331.137 370.889V370.892Z" fill="white"/>
<path d="M296.01 387.849C293.444 387.849 291.344 387.257 290.104 385.429C289.222 384.134 289.011 382.874 289.477 381.682C290.412 379.3 293.929 377.56 301.234 375.874C309.678 373.924 330.739 369.915 330.95 369.874C331.319 369.808 331.7 369.941 331.936 370.234C332.172 370.527 332.235 370.93 332.09 371.274L327.61 382.199C327.481 382.517 327.197 382.748 326.863 382.817C326.75 382.836 315.447 385.136 308.221 386.135C306.712 386.346 305.185 386.614 303.715 386.876C300.982 387.364 298.315 387.837 296.017 387.837L296.01 387.849ZM329.464 372.257C324.108 373.287 308.614 376.287 301.691 377.882C295.475 379.316 292.005 380.85 291.385 382.436C291.256 382.77 291.152 383.321 291.801 384.273C293.4 386.63 298.23 385.77 303.347 384.853C304.836 384.585 306.385 384.314 307.931 384.096C314.197 383.227 323.579 381.374 325.906 380.907L329.458 372.25L329.464 372.257Z" fill="#231F20"/>
<path d="M295.847 401.072C292.956 399.875 292.613 395.907 295.22 394.171C301.244 390.159 319.445 378.03 328.529 371.897C339.508 364.482 355.985 372.332 365.396 377.043C368.267 378.484 370.956 379.738 373.305 380.787C378.724 383.211 382.203 388.599 382.203 394.536C382.203 403.347 374.675 410.419 365.909 409.552C363.699 409.338 361.407 408.828 359.13 407.895C353.129 405.446 345.393 401.378 341.863 401.378C338.331 401.378 326.045 405.957 322.515 407.526C318.983 409.095 313.756 407 316.111 402.292C316.111 402.292 310.749 406.218 307.087 404.517C303.429 402.812 303.296 400.852 304.471 398.63C304.471 398.63 300.286 402.818 295.976 401.113C295.935 401.097 295.888 401.079 295.847 401.063V401.072Z" fill="white"/>
<path d="M367.378 410.665C366.859 410.665 366.336 410.64 365.81 410.586C363.332 410.347 360.952 409.764 358.742 408.862C357.051 408.175 355.2 407.347 353.411 406.549C348.877 404.52 344.189 402.427 341.865 402.427C338.676 402.427 326.869 406.738 322.936 408.487C320.427 409.606 317.297 409.143 315.647 407.413C314.876 406.606 314.488 405.598 314.501 404.479C312.417 405.544 309.246 406.672 306.655 405.468C304.637 404.526 303.434 403.42 302.98 402.081C302.883 401.788 302.82 401.485 302.795 401.176C300.981 402.235 298.349 403.171 295.6 402.087L295.455 402.03C293.752 401.324 292.634 399.802 292.452 397.959C292.272 396.122 293.116 394.347 294.646 393.33C301.712 388.625 319.089 377.044 327.952 371.056C339.765 363.077 357.385 371.901 365.851 376.136C368.411 377.419 371.059 378.673 373.723 379.861C379.5 382.451 383.225 388.215 383.225 394.552C383.225 399.119 381.289 403.493 377.91 406.559C374.954 409.241 371.264 410.671 367.378 410.671V410.665ZM341.862 400.357C344.627 400.357 349.299 402.446 354.246 404.659C356.018 405.453 357.854 406.275 359.513 406.95C361.538 407.778 363.723 408.308 366.006 408.535C369.875 408.916 373.613 407.671 376.528 405.021C379.478 402.345 381.169 398.52 381.169 394.536C381.169 389.012 377.917 383.983 372.879 381.723C370.19 380.519 367.511 379.256 364.932 377.957C356.809 373.892 339.92 365.437 329.098 372.745C320.232 378.736 302.845 390.323 295.783 395.028C294.873 395.633 294.391 396.654 294.498 397.748C294.602 398.825 295.254 399.708 296.242 400.121L296.35 400.168C299.98 401.599 303.711 397.943 303.746 397.908C304.104 397.549 304.678 397.508 305.084 397.811C305.49 398.113 305.616 398.671 305.38 399.119C304.873 400.086 304.728 400.817 304.929 401.419C305.184 402.178 306.053 402.91 307.521 403.593C310.065 404.778 314.139 402.462 315.502 401.476C315.886 401.195 316.412 401.211 316.771 401.52C317.13 401.829 317.24 402.345 317.029 402.765C316.349 404.126 316.387 405.204 317.13 405.988C318.175 407.082 320.405 407.356 322.099 406.606C324.976 405.323 337.904 400.363 341.862 400.363V400.357Z" fill="#231F20"/>
<path d="M316.112 402.301C316.112 402.301 336.622 390.077 339.601 389.268Z" fill="white"/>
<path d="M316.111 403.338C315.761 403.338 315.415 403.158 315.226 402.834C314.937 402.345 315.097 401.712 315.585 401.422C317.698 400.161 336.306 389.104 339.335 388.281C339.883 388.13 340.443 388.454 340.594 389.006C340.742 389.557 340.418 390.121 339.867 390.266C337.783 390.834 324.826 398.309 316.634 403.193C316.47 403.291 316.29 403.338 316.111 403.338Z" fill="#231F20"/>
<path d="M304.471 398.64C304.471 398.64 330.267 380.305 333.639 379.908Z" fill="white"/>
<path d="M304.478 399.667C304.153 399.667 303.842 399.519 303.64 399.235C303.31 398.772 303.42 398.129 303.883 397.801C308.224 394.713 330.06 379.297 333.526 378.89C334.09 378.824 334.6 379.231 334.666 379.792C334.732 380.356 334.326 380.866 333.766 380.932C331.496 381.2 314.962 392.447 305.073 399.478C304.893 399.607 304.682 399.667 304.478 399.667Z" fill="#231F20"/>
<path d="M365.395 378.077C364.948 378.077 364.535 377.784 364.406 377.33C364.252 376.785 364.567 376.215 365.112 376.06L415.949 361.482C416.493 361.328 417.066 361.64 417.221 362.185C417.375 362.73 417.06 363.304 416.515 363.458L365.678 378.036C365.584 378.061 365.486 378.077 365.395 378.077Z" fill="#231F20"/>
<path d="M393.985 369.881C393.534 369.881 393.122 369.581 392.993 369.124L376.154 307.472C376.003 306.921 376.327 306.353 376.872 306.205C377.423 306.057 377.99 306.379 378.138 306.927L394.977 368.576C395.128 369.128 394.803 369.695 394.259 369.843C394.164 369.868 394.079 369.881 393.985 369.881Z" fill="#231F20"/>
<path d="M270.299 323.875C270.242 323.875 270.179 323.875 270.123 323.859C269.562 323.761 269.187 323.232 269.285 322.671L273.145 300.189C273.243 299.628 273.775 299.253 274.335 299.351C274.893 299.449 275.27 299.978 275.173 300.539L271.313 323.021C271.225 323.522 270.793 323.875 270.299 323.875Z" fill="#231F20"/>
<path d="M383.598 423.122C373.948 423.122 366.851 421.039 362.446 416.895C358.025 412.745 358.101 408.071 358.107 407.876C358.123 407.309 358.589 406.845 359.159 406.877C359.726 406.893 360.173 407.362 360.157 407.926C360.157 408.093 360.132 411.941 363.901 415.439C367.355 418.65 374.807 422.177 390.723 420.714C391.287 420.664 391.788 421.08 391.838 421.647C391.888 422.211 391.473 422.712 390.906 422.763C388.327 422.999 385.89 423.119 383.592 423.119L383.598 423.122Z" fill="#231F20"/>
<mask id="mask3_2743_12411" style="mask-type:luminance" maskUnits="userSpaceOnUse" x="143" y="275" width="174" height="149">
<path d="M143.38 275.529H316.678V423.735H143.38V275.529Z" fill="white"/>
</mask>
<g mask="url(#mask3_2743_12411)">
<path d="M316.551 377.59L301.227 282.099C300.673 278.645 297.694 276.108 294.206 276.108H150.656C146.251 276.108 142.904 280.076 143.644 284.425L159.878 379.916C160.457 383.338 163.423 385.843 166.89 385.843H215.605V413.48H188.75C184.368 413.48 183.543 423.609 188.75 423.609H271.432C276.64 423.609 275.818 413.48 271.432 413.48H244.581V385.843H309.527C313.906 385.843 317.244 381.92 316.551 377.593V377.59Z" fill="#231F20"/>
</g>
<path d="M325.288 203.772C317.851 203.772 311.8 197.743 311.8 190.325C311.8 182.91 317.851 176.882 325.288 176.882C332.728 176.882 338.777 182.91 338.777 190.325C338.777 197.743 332.728 203.772 325.288 203.772ZM325.288 178.939C318.982 178.939 313.856 184.048 313.856 190.325C313.856 196.606 318.988 201.714 325.288 201.714C331.592 201.714 336.721 196.606 336.721 190.325C336.721 184.048 331.592 178.939 325.288 178.939Z" fill="#EF6300"/>
<path d="M286.722 203.772C279.609 203.772 273.825 197.743 273.825 190.325C273.825 182.91 279.612 176.882 286.722 176.882C293.831 176.882 299.618 182.91 299.618 190.325C299.618 197.743 293.831 203.772 286.722 203.772ZM286.722 178.939C280.743 178.939 275.881 184.048 275.881 190.325C275.881 196.606 280.743 201.714 286.722 201.714C292.701 201.714 297.562 196.606 297.562 190.325C297.562 184.048 292.701 178.939 286.722 178.939Z" fill="#EF6300"/>
<path d="M337.754 191.356C337.401 191.356 337.055 191.17 336.866 190.842C336.583 190.347 336.747 189.72 337.241 189.436L354.467 179.463C354.961 179.182 355.588 179.346 355.871 179.841C356.151 180.332 355.988 180.963 355.493 181.243L338.27 191.217C338.104 191.308 337.93 191.356 337.754 191.356Z" fill="#EF6300"/>
<path d="M312.83 191.356H299.562C298.998 191.356 298.535 190.892 298.535 190.325C298.535 189.761 298.998 189.298 299.562 189.298H312.83C313.396 189.298 313.856 189.761 313.856 190.325C313.856 190.892 313.396 191.356 312.83 191.356Z" fill="#EF6300"/>
<path d="M274.852 191.356C274.493 191.356 274.143 191.167 273.957 190.833L269.584 183.08C269.307 182.589 269.48 181.958 269.974 181.678C270.469 181.398 271.095 181.568 271.379 182.069L275.752 189.818C276.029 190.313 275.856 190.94 275.362 191.223C275.201 191.315 275.028 191.356 274.858 191.356H274.852Z" fill="#EF6300"/>
<path d="M270.293 420.673C269.729 420.673 269.267 420.21 269.267 419.643C269.267 419.079 269.729 418.616 270.293 418.616C276.811 418.616 281.726 417.169 284.635 414.412C282.928 413.347 281.609 411.894 280.718 410.082C279.191 406.975 279.166 404.088 280.652 402.159C281.748 400.738 283.511 400.073 285.249 400.429C287.154 400.82 288.634 402.364 289.21 404.567C290.044 407.769 289.559 411.024 287.89 413.674C292.547 415.275 298.035 414.015 298.114 413.993C298.665 413.86 299.219 414.204 299.351 414.755C299.487 415.307 299.14 415.861 298.592 415.997C298.457 416.025 295.239 416.778 291.458 416.476C289.641 416.325 288.004 415.959 286.568 415.382C284.137 417.966 279.414 420.667 270.293 420.667V420.673ZM284.326 402.405C283.539 402.405 282.783 402.771 282.283 403.423C281.294 404.706 281.398 406.804 282.563 409.184C283.388 410.854 284.6 412.023 285.992 412.827C287.484 410.618 287.935 407.835 287.22 405.096C286.845 403.65 285.976 402.689 284.836 402.456C284.666 402.421 284.493 402.405 284.323 402.405H284.326Z" fill="#231F20"/>
<mask id="mask4_2743_12411" style="mask-type:luminance" maskUnits="userSpaceOnUse" x="186" y="50" width="76" height="63">
<path d="M186.106 50.0222H261.068V112.777H186.106V50.0222Z" fill="white"/>
</mask>
<g mask="url(#mask4_2743_12411)">
<path d="M223.368 50.1042C202.921 50.1042 186.344 63.2263 186.344 79.4146C186.344 85.796 188.929 91.6984 193.302 96.5073L186.344 112.122L202.31 103.516C208.286 106.8 215.541 108.725 223.368 108.725C243.818 108.725 260.395 95.6029 260.395 79.4146C260.395 63.2263 243.818 50.1042 223.368 50.1042Z" fill="#231F20"/>
</g>
<path d="M407.716 74.7886C387.266 74.7886 370.688 87.9106 370.688 104.099C370.688 110.48 373.277 116.383 377.65 121.192L370.688 136.806L386.655 128.2C392.634 131.484 399.885 133.409 407.716 133.409C428.163 133.409 444.74 120.287 444.74 104.099C444.74 87.9106 428.163 74.7886 407.716 74.7886Z" fill="#231F20"/>
<path d="M210.713 79.7487C210.713 80.0733 210.681 80.3979 210.618 80.7162C210.555 81.0345 210.461 81.3465 210.335 81.6458C210.212 81.9484 210.058 82.2351 209.878 82.503C209.696 82.774 209.491 83.0261 209.261 83.2562C209.031 83.4862 208.779 83.691 208.512 83.8738C208.241 84.0534 207.954 84.2078 207.652 84.3308C207.353 84.4568 207.044 84.5513 206.723 84.6144C206.405 84.6774 206.084 84.7089 205.757 84.7089C205.432 84.7089 205.108 84.6774 204.79 84.6144C204.472 84.5513 204.16 84.4568 203.861 84.3308C203.559 84.2078 203.276 84.0534 203.005 83.8738C202.734 83.691 202.482 83.4862 202.252 83.2562C202.022 83.0261 201.818 82.774 201.638 82.503C201.456 82.2351 201.305 81.9484 201.179 81.6458C201.056 81.3465 200.961 81.0345 200.898 80.7162C200.832 80.3979 200.801 80.0733 200.801 79.7487C200.801 79.4242 200.832 79.0996 200.898 78.7813C200.961 78.4599 201.056 78.151 201.179 77.8517C201.305 77.5491 201.456 77.2624 201.638 76.9913C201.818 76.7203 202.022 76.4714 202.252 76.2413C202.482 76.0113 202.734 75.8064 203.005 75.6237C203.276 75.444 203.559 75.2896 203.861 75.1667C204.16 75.0407 204.472 74.9461 204.79 74.8831C205.108 74.8201 205.432 74.7886 205.757 74.7886C206.084 74.7886 206.405 74.8201 206.723 74.8831C207.044 74.9461 207.353 75.0407 207.652 75.1667C207.954 75.2896 208.241 75.444 208.512 75.6237C208.779 75.8064 209.031 76.0113 209.261 76.2413C209.491 76.4714 209.696 76.7203 209.878 76.9913C210.058 77.2624 210.212 77.5491 210.335 77.8517C210.461 78.151 210.555 78.4599 210.618 78.7813C210.681 79.0996 210.713 79.4242 210.713 79.7487Z" fill="white"/>
<path d="M228.322 79.7487C228.322 80.0733 228.29 80.3979 228.227 80.7162C228.164 81.0345 228.07 81.3465 227.944 81.6458C227.821 81.9484 227.667 82.2351 227.487 82.503C227.308 82.774 227.1 83.0261 226.87 83.2562C226.64 83.4862 226.392 83.691 226.121 83.8738C225.85 84.0534 225.564 84.2078 225.264 84.3308C224.962 84.4568 224.654 84.5513 224.332 84.6144C224.014 84.6774 223.693 84.7089 223.366 84.7089C223.042 84.7089 222.72 84.6774 222.399 84.6144C222.081 84.5513 221.773 84.4568 221.47 84.3308C221.171 84.2078 220.885 84.0534 220.614 83.8738C220.343 83.691 220.094 83.4862 219.865 83.2562C219.632 83.0261 219.427 82.774 219.247 82.503C219.065 82.2351 218.914 81.9484 218.788 81.6458C218.665 81.3465 218.571 81.0345 218.508 80.7162C218.445 80.3979 218.413 80.0733 218.413 79.7487C218.413 79.4242 218.445 79.0996 218.508 78.7813C218.571 78.4599 218.665 78.151 218.788 77.8517C218.914 77.5491 219.065 77.2624 219.247 76.9913C219.427 76.7203 219.632 76.4714 219.865 76.2413C220.094 76.0113 220.343 75.8064 220.614 75.6237C220.885 75.444 221.171 75.2896 221.47 75.1667C221.773 75.0407 222.081 74.9461 222.399 74.8831C222.72 74.8201 223.042 74.7886 223.366 74.7886C223.693 74.7886 224.014 74.8201 224.332 74.8831C224.654 74.9461 224.962 75.0407 225.264 75.1667C225.564 75.2896 225.85 75.444 226.121 75.6237C226.392 75.8064 226.64 76.0113 226.87 76.2413C227.1 76.4714 227.308 76.7203 227.487 76.9913C227.667 77.2624 227.821 77.5491 227.944 77.8517C228.07 78.151 228.164 78.4599 228.227 78.7813C228.29 79.0996 228.322 79.4242 228.322 79.7487Z" fill="white"/>
<path d="M245.932 79.7487C245.932 80.0733 245.901 80.3979 245.838 80.7162C245.775 81.0345 245.68 81.3465 245.557 81.6458C245.431 81.9484 245.28 82.2351 245.098 82.503C244.918 82.774 244.714 83.0261 244.484 83.2562C244.251 83.4862 244.002 83.691 243.731 83.8738C243.46 84.0534 243.174 84.2078 242.875 84.3308C242.572 84.4568 242.264 84.5513 241.946 84.6144C241.625 84.6774 241.304 84.7089 240.979 84.7089C240.652 84.7089 240.331 84.6774 240.013 84.6144C239.692 84.5513 239.383 84.4568 239.081 84.3308C238.782 84.2078 238.495 84.0534 238.224 83.8738C237.954 83.691 237.705 83.4862 237.475 83.2562C237.245 83.0261 237.037 82.774 236.858 82.503C236.678 82.2351 236.524 81.9484 236.401 81.6458C236.275 81.3465 236.181 81.0345 236.118 80.7162C236.055 80.3979 236.023 80.0733 236.023 79.7487C236.023 79.4242 236.055 79.0996 236.118 78.7813C236.181 78.4599 236.275 78.151 236.401 77.8517C236.524 77.5491 236.678 77.2624 236.858 76.9913C237.037 76.7203 237.245 76.4714 237.475 76.2413C237.705 76.0113 237.954 75.8064 238.224 75.6237C238.495 75.444 238.782 75.2896 239.081 75.1667C239.383 75.0407 239.692 74.9461 240.013 74.8831C240.331 74.8201 240.652 74.7886 240.979 74.7886C241.304 74.7886 241.625 74.8201 241.946 74.8831C242.264 74.9461 242.572 75.0407 242.875 75.1667C243.174 75.2896 243.46 75.444 243.731 75.6237C244.002 75.8064 244.251 76.0113 244.484 76.2413C244.714 76.4714 244.918 76.7203 245.098 76.9913C245.28 77.2624 245.431 77.5491 245.557 77.8517C245.68 78.151 245.775 78.4599 245.838 78.7813C245.901 79.0996 245.932 79.4242 245.932 79.7487Z" fill="white"/>
<path d="M395.543 103.276C395.543 103.601 395.511 103.922 395.448 104.244C395.385 104.562 395.291 104.871 395.165 105.173C395.042 105.473 394.888 105.76 394.708 106.031C394.526 106.302 394.321 106.554 394.091 106.784C393.861 107.014 393.609 107.219 393.339 107.398C393.071 107.581 392.784 107.732 392.482 107.858C392.183 107.981 391.871 108.076 391.553 108.139C391.235 108.205 390.911 108.236 390.587 108.236C390.262 108.236 389.938 108.205 389.62 108.139C389.302 108.076 388.99 107.981 388.691 107.858C388.389 107.732 388.106 107.581 387.835 107.398C387.564 107.219 387.312 107.014 387.082 106.784C386.853 106.554 386.648 106.302 386.468 106.031C386.286 105.76 386.135 105.473 386.009 105.173C385.886 104.871 385.791 104.562 385.728 104.244C385.662 103.922 385.631 103.601 385.631 103.276C385.631 102.949 385.662 102.627 385.728 102.306C385.791 101.987 385.886 101.679 386.009 101.376C386.135 101.077 386.286 100.79 386.468 100.519C386.648 100.248 386.853 99.9989 387.082 99.7689C387.312 99.5357 387.564 99.3309 387.835 99.1512C388.106 98.9685 388.389 98.8172 388.691 98.6911C388.99 98.5682 389.302 98.4737 389.62 98.4107C389.938 98.3477 390.262 98.313 390.587 98.313C390.911 98.313 391.235 98.3477 391.553 98.4107C391.874 98.4737 392.183 98.5682 392.482 98.6911C392.784 98.8172 393.071 98.9685 393.339 99.1512C393.609 99.3309 393.861 99.5357 394.091 99.7689C394.321 99.9989 394.526 100.248 394.708 100.519C394.888 100.79 395.042 101.077 395.165 101.376C395.291 101.679 395.385 101.987 395.448 102.306C395.511 102.627 395.543 102.949 395.543 103.276Z" fill="white"/>
<path d="M413.161 103.276C413.161 103.601 413.129 103.922 413.066 104.244C413 104.562 412.909 104.871 412.783 105.173C412.657 105.473 412.506 105.76 412.326 106.031C412.144 106.302 411.939 106.554 411.709 106.784C411.479 107.014 411.228 107.219 410.957 107.398C410.686 107.581 410.403 107.732 410.1 107.858C409.801 107.981 409.49 108.076 409.172 108.139C408.853 108.205 408.529 108.236 408.205 108.236C407.881 108.236 407.556 108.205 407.238 108.139C406.92 108.076 406.609 107.981 406.309 107.858C406.007 107.732 405.724 107.581 405.453 107.398C405.182 107.219 404.93 107.014 404.701 106.784C404.471 106.554 404.266 106.302 404.083 106.031C403.904 105.76 403.753 105.473 403.627 105.173C403.501 104.871 403.41 104.562 403.343 104.244C403.281 103.922 403.249 103.601 403.249 103.276C403.249 102.949 403.281 102.627 403.343 102.306C403.41 101.987 403.501 101.679 403.627 101.376C403.753 101.077 403.904 100.79 404.083 100.519C404.266 100.248 404.471 99.9989 404.701 99.7689C404.93 99.5357 405.182 99.3309 405.453 99.1512C405.724 98.9685 406.007 98.8172 406.309 98.6911C406.609 98.5682 406.92 98.4737 407.238 98.4107C407.556 98.3477 407.881 98.313 408.205 98.313C408.529 98.313 408.853 98.3477 409.172 98.4107C409.49 98.4737 409.801 98.5682 410.1 98.6911C410.403 98.8172 410.686 98.9685 410.957 99.1512C411.228 99.3309 411.479 99.5357 411.709 99.7689C411.939 99.9989 412.144 100.248 412.326 100.519C412.506 100.79 412.657 101.077 412.783 101.376C412.909 101.679 413 101.987 413.066 102.306C413.129 102.627 413.161 102.949 413.161 103.276Z" fill="white"/>
<path d="M430.769 103.276C430.769 103.601 430.738 103.922 430.675 104.244C430.612 104.562 430.517 104.871 430.391 105.173C430.269 105.473 430.114 105.76 429.935 106.031C429.752 106.302 429.548 106.554 429.318 106.784C429.088 107.014 428.839 107.219 428.568 107.398C428.298 107.581 428.011 107.732 427.709 107.858C427.41 107.981 427.101 108.076 426.78 108.139C426.462 108.205 426.141 108.236 425.813 108.236C425.489 108.236 425.168 108.205 424.847 108.139C424.529 108.076 424.217 107.981 423.918 107.858C423.616 107.732 423.332 107.581 423.061 107.398C422.791 107.219 422.539 107.014 422.309 106.784C422.079 106.554 421.874 106.302 421.695 106.031C421.512 105.76 421.361 105.473 421.235 105.173C421.112 104.871 421.018 104.562 420.955 104.244C420.889 103.922 420.857 103.601 420.857 103.276C420.857 102.949 420.889 102.627 420.955 102.306C421.018 101.987 421.112 101.679 421.235 101.376C421.361 101.077 421.512 100.79 421.695 100.519C421.874 100.248 422.079 99.9989 422.309 99.7689C422.539 99.5357 422.791 99.3309 423.061 99.1512C423.332 98.9685 423.616 98.8172 423.918 98.6911C424.217 98.5682 424.529 98.4737 424.847 98.4107C425.168 98.3477 425.489 98.313 425.813 98.313C426.141 98.313 426.462 98.3477 426.78 98.4107C427.101 98.4737 427.41 98.5682 427.709 98.6911C428.011 98.8172 428.298 98.9685 428.568 99.1512C428.839 99.3309 429.088 99.5357 429.318 99.7689C429.548 99.9989 429.752 100.248 429.935 100.519C430.114 100.79 430.269 101.077 430.391 101.376C430.517 101.679 430.612 101.987 430.675 102.306C430.738 102.627 430.769 102.949 430.769 103.276Z" fill="white"/>
</svg>
