<svg width="461" height="474" viewBox="0 0 461 474" fill="none" xmlns="http://www.w3.org/2000/svg">
<path d="M451.65 185.396C431.359 82.4345 328.89 20.2076 242.886 12.2706C171.637 5.69657 85.2767 23.6306 45.3646 89.6256C20.9117 130.063 51.0763 147.868 34.1611 237.364C19.5187 314.824 -7.17203 342.734 9.07284 382.213C22.3536 414.487 52.574 428.636 72.4149 438.392C150.612 476.853 294.648 473.8 380.167 403.64C400.185 387.218 474.609 301.864 451.65 185.396Z" fill="#CADDFF"/>
<path d="M124.378 172.708C135.355 195.588 125.799 223.02 103.033 233.976C80.266 244.928 52.9119 235.259 41.9354 212.371C30.9554 189.488 40.5145 162.059 63.2775 151.103C86.0476 140.151 113.402 149.824 124.378 172.708Z" fill="#5479F7"/>
<path d="M116.484 170.208C129.472 192.015 122.416 220.19 100.725 233.139C79.0334 246.089 50.9182 238.905 37.9307 217.098C24.9432 195.288 32.0025 167.113 53.6938 154.163C75.385 141.214 103.497 148.398 116.484 170.208Z" fill="white"/>
<path d="M76.9635 148.527C68.986 148.527 61.1341 150.674 54.1132 154.868C32.8444 167.563 25.9002 195.292 38.6399 216.676C44.8334 227.074 54.6857 234.429 66.385 237.385C77.9934 240.32 90.0418 238.56 100.303 232.435C121.575 219.74 128.516 192.011 115.783 170.623C109.589 160.225 99.7335 152.87 88.0343 149.915C84.365 148.987 80.6503 148.527 76.9635 148.527ZM77.4558 240.411C73.6363 240.411 69.7889 239.937 65.9835 238.974C53.8583 235.911 43.6463 228.291 37.2294 217.513C24.0289 195.351 31.2279 166.618 53.2718 153.459C63.9132 147.109 76.4014 145.285 88.4358 148.325C100.561 151.389 110.773 159.009 117.19 169.787C130.39 191.949 123.191 220.685 101.148 233.84C93.8682 238.187 85.7266 240.411 77.4558 240.411Z" fill="black"/>
<path d="M102.153 207.969C102.02 207.969 101.887 207.941 101.762 207.871L78.0106 195.016C77.0575 194.5 76.3453 193.65 76.0031 192.621L69.5792 173.332C69.4361 172.903 69.67 172.439 70.0994 172.296C70.5323 172.153 70.9932 172.383 71.1363 172.812L77.5602 192.106C77.7697 192.737 78.2061 193.259 78.7927 193.573L102.544 206.432C102.942 206.645 103.092 207.143 102.875 207.544C102.725 207.816 102.446 207.969 102.153 207.969Z" fill="black"/>
<path d="M60.8118 160.891C61.6427 162.285 61.1923 164.084 59.8064 164.91C58.4204 165.736 56.626 165.279 55.7951 163.885C54.9677 162.494 55.4181 160.692 56.804 159.87C58.1865 159.04 59.9844 159.497 60.8118 160.891Z" fill="#CADDFF"/>
<path d="M46.711 173.447C48.1213 174.238 48.631 176.022 47.8456 177.434C47.0601 178.849 45.2796 179.351 43.8692 178.557C42.4588 177.765 41.9526 175.977 42.7381 174.565C43.5201 173.154 45.3006 172.652 46.711 173.447Z" fill="#CADDFF"/>
<path d="M41.0694 191.07C42.6822 191.049 44.0123 192.346 44.0403 193.963C44.0647 195.584 42.7765 196.912 41.1636 196.933C39.5473 196.951 38.2207 195.654 38.1927 194.037C38.1683 192.419 39.4565 191.091 41.0694 191.07Z" fill="#CADDFF"/>
<path d="M44.6165 209.977C45.999 209.151 47.7934 209.607 48.6243 211.002C49.4517 212.396 49.0048 214.195 47.6189 215.021C46.2329 215.847 44.4385 215.387 43.6076 213.996C42.7802 212.605 43.2306 210.806 44.6165 209.977Z" fill="#CADDFF"/>
<path d="M57.4643 223.826C58.2497 222.414 60.0302 221.912 61.4406 222.707C62.851 223.498 63.3607 225.283 62.5752 226.698C61.7897 228.11 60.0092 228.611 58.5988 227.82C57.1885 227.029 56.6823 225.241 57.4643 223.826Z" fill="#CADDFF"/>
<path d="M75.3988 229.842C75.3743 228.221 76.6591 226.893 78.2754 226.876C79.8883 226.855 81.2184 228.151 81.2428 229.769C81.2673 231.39 79.9825 232.718 78.3662 232.739C76.7533 232.756 75.4232 231.459 75.3988 229.842Z" fill="#CADDFF"/>
<path d="M93.8933 226.067C93.0624 224.672 93.5128 222.874 94.8987 222.048C96.2847 221.222 98.0791 221.678 98.91 223.073C99.7374 224.467 99.287 226.262 97.9011 227.092C96.5186 227.918 94.7207 227.458 93.8933 226.067Z" fill="#CADDFF"/>
<path d="M107.994 213.515C106.584 212.72 106.074 210.932 106.859 209.52C107.645 208.109 109.425 207.607 110.836 208.398C112.246 209.193 112.752 210.981 111.967 212.392C111.181 213.804 109.404 214.306 107.994 213.515Z" fill="#CADDFF"/>
<path d="M113.636 195.891C112.02 195.908 110.693 194.612 110.665 192.991C110.641 191.374 111.929 190.045 113.542 190.025C115.158 190.004 116.485 191.3 116.513 192.921C116.537 194.542 115.249 195.87 113.636 195.891Z" fill="#CADDFF"/>
<path d="M109.801 177.323C108.419 178.149 106.621 177.689 105.794 176.298C104.963 174.907 105.413 173.108 106.799 172.279C108.185 171.453 109.979 171.909 110.81 173.304C111.638 174.698 111.187 176.497 109.801 177.323Z" fill="#CADDFF"/>
<path d="M97.2408 163.132C96.4553 164.544 94.6749 165.046 93.2645 164.255C91.8541 163.46 91.3444 161.672 92.1299 160.26C92.9154 158.852 94.6958 158.346 96.1062 159.138C97.5166 159.932 98.0228 161.721 97.2408 163.132Z" fill="#CADDFF"/>
<path d="M79.3053 157.116C79.3298 158.737 78.045 160.065 76.4287 160.086C74.8158 160.107 73.4857 158.807 73.4613 157.189C73.4368 155.568 74.7216 154.24 76.3379 154.219C77.9508 154.198 79.2809 155.495 79.3053 157.116Z" fill="#CADDFF"/>
<path d="M240.051 81.1658C239.901 78.0042 237.37 75.4143 234.211 75.1982C232.214 75.0623 230.405 75.857 229.162 77.1886C228.851 77.5267 228.408 77.7184 227.944 77.7184C227.015 77.7184 226.268 76.969 226.268 76.0453V75.735H226.257V63.0261H213.535V63.0366H213.225C212.299 63.0366 211.549 63.7825 211.549 64.7097C211.549 65.1698 211.737 65.616 212.079 65.9262C213.41 67.1672 214.206 68.9762 214.069 70.9666C213.856 74.1246 211.262 76.6553 208.096 76.8017C204.489 76.9655 201.515 74.0933 201.515 70.5274C201.515 68.7113 202.286 67.073 203.522 65.9262C203.861 65.616 204.053 65.1698 204.053 64.7097C204.053 63.7825 203.302 63.0366 202.374 63.0366H202.066V63.0261H189.341V95.4119C189.341 97.8867 191.355 99.8945 193.834 99.8945H226.257V87.1891H226.268V86.8789C226.268 85.9517 227.015 85.2057 227.944 85.2057C228.408 85.2057 228.851 85.3939 229.162 85.7355C230.311 86.9695 231.952 87.7398 233.771 87.7398C237.339 87.7398 240.212 84.7665 240.051 81.1658Z" fill="white"/>
<path d="M190.161 63.8453V95.4119C190.161 97.4302 191.809 99.0754 193.834 99.0754H225.437V87.1891C225.437 87.1438 225.441 87.102 225.448 87.0602V86.8789C225.448 85.5055 226.568 84.3831 227.94 84.3831C228.632 84.3831 229.299 84.6759 229.766 85.1744C230.8 86.2829 232.256 86.9207 233.771 86.9207C235.279 86.9207 236.679 86.3177 237.719 85.2337C238.767 84.1391 239.297 82.7135 239.231 81.2007C239.102 78.433 236.92 76.2022 234.151 76.0174C232.493 75.9024 230.894 76.5333 229.766 77.7463C229.299 78.2483 228.632 78.5376 227.94 78.5376C226.568 78.5376 225.448 77.4187 225.448 76.0453V75.8606C225.441 75.8187 225.437 75.7769 225.437 75.7351V63.8453H213.647C213.612 63.8523 213.574 63.8523 213.535 63.8523H213.225C212.753 63.8523 212.366 64.2357 212.366 64.7063C212.366 64.9433 212.467 65.1699 212.638 65.3302C214.213 66.7942 215.037 68.8682 214.89 71.0224C214.646 74.6162 211.741 77.4535 208.134 77.6209C206.176 77.7115 204.308 77.0143 202.891 75.6619C201.477 74.3094 200.695 72.4864 200.695 70.5274C200.695 68.5615 201.522 66.6653 202.964 65.3267C203.135 65.1699 203.233 64.9433 203.233 64.7063C203.233 64.2357 202.849 63.8523 202.374 63.8523H202.067C202.028 63.8523 201.99 63.8523 201.951 63.8453H190.161ZM226.258 100.714H193.834C190.905 100.714 188.521 98.3365 188.521 95.4119V63.0262C188.521 62.573 188.891 62.207 189.344 62.207H202.067C202.105 62.207 202.143 62.2105 202.182 62.214H202.374C203.753 62.214 204.874 63.3329 204.874 64.7063C204.874 65.3999 204.584 66.0622 204.081 66.5258C202.953 67.5715 202.335 68.9937 202.335 70.5274C202.335 72.0333 202.932 73.4345 204.025 74.4733C205.114 75.5155 206.532 76.0418 208.058 75.9791C210.833 75.8536 213.064 73.675 213.253 70.9109C213.364 69.2517 212.732 67.6552 211.517 66.5293C211.015 66.0622 210.725 65.3999 210.725 64.7063C210.725 63.3329 211.846 62.214 213.225 62.214H213.42C213.459 62.2105 213.497 62.207 213.535 62.207H226.258C226.711 62.207 227.078 62.573 227.078 63.0262V75.6061C227.085 75.6479 227.089 75.6898 227.089 75.7351V76.0453C227.089 76.5159 227.469 76.8993 227.94 76.8993C228.178 76.8993 228.408 76.8017 228.565 76.6274C230.032 75.0554 232.105 74.2362 234.267 74.3791C237.863 74.6266 240.704 77.5233 240.869 81.1275C240.959 83.0899 240.265 84.9478 238.91 86.363C237.559 87.7817 235.729 88.559 233.771 88.559C231.802 88.559 229.906 87.7329 228.565 86.2933C228.408 86.1225 228.178 86.0214 227.94 86.0214C227.469 86.0214 227.089 86.4083 227.089 86.8789V87.1891C227.089 87.231 227.089 87.2763 227.078 87.3181V99.898C227.078 100.348 226.711 100.714 226.258 100.714Z" fill="black"/>
<path d="M249.725 63.0296C248.999 62.8414 248.461 62.1895 248.461 61.4053C248.461 60.9417 248.653 60.5025 248.988 60.1853C250.326 58.9513 251.118 57.1388 250.985 55.1484C250.766 51.9904 248.175 49.4597 245.012 49.3133C241.402 49.1495 238.427 52.0182 238.427 55.5876C238.427 57.4037 239.199 59.042 240.438 60.1853C240.774 60.5025 240.966 60.9417 240.966 61.4053C240.966 62.1895 240.428 62.8414 239.702 63.0296H226.257V75.735H226.264V76.0453C226.264 76.969 227.014 77.7184 227.94 77.7184C228.404 77.7184 228.851 77.5267 229.162 77.1886C230.404 75.857 232.213 75.0658 234.21 75.1982C237.37 75.4143 239.904 78.0042 240.047 81.1658C240.215 84.7665 237.338 87.7398 233.77 87.7398C231.951 87.7398 230.31 86.9695 229.162 85.7355C228.851 85.3974 228.404 85.2057 227.94 85.2057C227.014 85.2057 226.264 85.9551 226.264 86.8789V87.1891H226.257V99.898H258.68C261.159 99.898 263.17 97.8867 263.17 95.4119V63.0296H249.725Z" fill="white"/>
<path d="M227.077 99.0754H258.677C260.702 99.0754 262.35 97.4336 262.35 95.4084V63.8453H249.725C249.655 63.8453 249.586 63.8383 249.519 63.8244C248.413 63.5385 247.641 62.5486 247.641 61.4053C247.641 60.7186 247.931 60.0528 248.433 59.5857C249.648 58.4564 250.28 56.8599 250.169 55.2042C249.98 52.44 247.746 50.2615 244.974 50.1325C243.455 50.0663 242.031 50.5961 240.938 51.6383C239.848 52.6805 239.248 54.0818 239.248 55.5876C239.248 57.1004 239.887 58.5575 240.994 59.5857C241.496 60.0528 241.786 60.7186 241.786 61.4053C241.786 62.5486 241.011 63.5385 239.904 63.8244C239.838 63.8383 239.772 63.8453 239.702 63.8453H227.077V75.6061C227.081 75.6479 227.088 75.6932 227.088 75.735V76.0453C227.088 76.5158 227.468 76.8993 227.943 76.8993C228.177 76.8993 228.408 76.8017 228.565 76.6309C230.031 75.0553 232.101 74.2362 234.262 74.3826C237.862 74.6266 240.7 77.5267 240.868 81.1309C240.959 83.0899 240.26 84.9478 238.906 86.363C237.555 87.7817 235.729 88.559 233.767 88.559C231.801 88.559 229.905 87.7364 228.565 86.2933C228.408 86.1225 228.177 86.0249 227.943 86.0249C227.468 86.0249 227.088 86.4083 227.088 86.8789V87.1891C227.088 87.2344 227.081 87.2762 227.077 87.3181V99.0754ZM258.677 100.717H226.257C225.803 100.717 225.437 100.351 225.437 99.8945V87.1891C225.437 87.1473 225.44 87.102 225.447 87.0601V86.8789C225.447 85.502 226.568 84.3831 227.943 84.3831C228.631 84.3831 229.298 84.6759 229.766 85.1778C230.799 86.2863 232.258 86.9207 233.767 86.9207C235.278 86.9207 236.678 86.3212 237.719 85.2336C238.763 84.1426 239.297 82.7134 239.231 81.2041C239.101 78.4365 236.919 76.2021 234.151 76.0139C232.492 75.9058 230.893 76.5368 229.766 77.7463C229.298 78.2482 228.631 78.5376 227.943 78.5376C226.568 78.5376 225.447 77.4186 225.447 76.0453V75.864C225.44 75.8187 225.437 75.7769 225.437 75.735V63.0261C225.437 62.573 225.803 62.207 226.257 62.207H239.583C239.918 62.085 240.145 61.7678 240.145 61.4053C240.145 61.1717 240.047 60.9452 239.876 60.7883C238.435 59.4498 237.607 57.5536 237.607 55.5876C237.607 53.6287 238.389 51.8056 239.807 50.4532C241.224 49.1007 243.081 48.4036 245.047 48.4977C248.653 48.6615 251.558 51.4954 251.803 55.0927C251.949 57.2468 251.129 59.3208 249.551 60.7883C249.376 60.9452 249.282 61.1717 249.282 61.4053C249.282 61.7678 249.509 62.085 249.844 62.207H263.17C263.624 62.207 263.991 62.573 263.991 63.0261V95.4084C263.991 98.3364 261.606 100.717 258.677 100.717Z" fill="black"/>
<path d="M258.676 26.1542H226.256V39.4801C226.113 40.2609 225.432 40.8499 224.608 40.8499C224.147 40.8499 223.704 40.6582 223.386 40.3166C222.147 38.9851 220.335 38.1938 218.345 38.3263C215.178 38.5424 212.651 41.1323 212.504 44.2938C212.336 47.8981 215.213 50.8714 218.781 50.8714C220.6 50.8714 222.238 50.0975 223.386 48.8636C223.704 48.5255 224.147 48.3373 224.608 48.3373C225.432 48.3373 226.113 48.9263 226.256 49.7037V63.026H239.701C240.427 62.8413 240.965 62.1895 240.965 61.4052C240.965 60.9416 240.776 60.5024 240.434 60.1852C239.202 59.0384 238.427 57.4036 238.427 55.5875C238.427 52.0217 241.405 49.1494 245.008 49.3133C248.174 49.4597 250.768 51.9903 250.985 55.1483C251.117 57.1387 250.325 58.9478 248.991 60.1852C248.653 60.5024 248.461 60.9416 248.461 61.4052C248.461 62.1895 248.998 62.8413 249.724 63.026H263.169V30.6438C263.169 28.1654 261.158 26.1542 258.676 26.1542Z" fill="white"/>
<path d="M249.84 62.207H262.349V30.6438C262.349 28.6221 260.701 26.9769 258.676 26.9769H227.077V39.4766C227.077 39.5289 227.073 39.5812 227.063 39.63C226.843 40.8082 225.809 41.6656 224.608 41.6656C223.917 41.6656 223.254 41.3798 222.786 40.8744C221.658 39.6649 220.059 39.0305 218.397 39.1455C215.632 39.3302 213.45 41.5611 213.325 44.3322C213.251 45.8415 213.789 47.2742 214.829 48.3617C215.87 49.4492 217.277 50.0488 218.785 50.0488C220.297 50.0488 221.756 49.4144 222.786 48.3059C223.254 47.804 223.917 47.5112 224.608 47.5112C225.809 47.5112 226.843 48.3722 227.063 49.5503C227.073 49.6026 227.077 49.6479 227.077 49.7002V62.207H239.582C239.918 62.085 240.144 61.7678 240.144 61.4052C240.144 61.1717 240.05 60.9451 239.879 60.7848C238.434 59.4498 237.606 57.55 237.606 55.5841C237.606 53.6286 238.388 51.8056 239.806 50.4531C241.223 49.1007 243.081 48.4035 245.046 48.4942C248.653 48.6615 251.557 51.4954 251.802 55.0926C251.952 57.2433 251.128 59.3208 249.55 60.7848C249.379 60.9451 249.281 61.1717 249.281 61.4052C249.281 61.7678 249.508 62.085 249.84 62.207ZM263.169 63.8452H249.724C249.655 63.8452 249.585 63.8383 249.522 63.8208C248.415 63.542 247.64 62.5451 247.64 61.4052C247.64 60.7151 247.926 60.0528 248.433 59.5857C249.648 58.4598 250.28 56.8634 250.168 55.2042C249.979 52.44 247.741 50.2579 244.969 50.1324C243.454 50.0662 242.026 50.596 240.937 51.6383C239.848 52.677 239.247 54.0818 239.247 55.5841C239.247 57.0969 239.886 58.5539 240.993 59.5857C241.496 60.0528 241.785 60.7151 241.785 61.4052C241.785 62.5451 241.014 63.542 239.904 63.8208C239.837 63.8383 239.771 63.8452 239.701 63.8452H226.256C225.802 63.8452 225.436 63.4792 225.436 63.0261V49.7908C225.338 49.4179 224.999 49.153 224.608 49.153C224.371 49.153 224.147 49.2506 223.99 49.4214C222.65 50.861 220.75 51.6871 218.785 51.6871C216.823 51.6871 214.997 50.9098 213.642 49.4946C212.291 48.0794 211.593 46.218 211.684 44.2555C211.851 40.6548 214.69 37.7547 218.286 37.5107C220.44 37.3678 222.521 38.1834 223.99 39.759C224.147 39.9333 224.371 40.0274 224.608 40.0274C224.999 40.0274 225.338 39.7625 225.436 39.393V26.1542C225.436 25.7011 225.802 25.3351 226.256 25.3351H258.676C261.605 25.3351 263.99 27.7158 263.99 30.6438V63.0261C263.99 63.4792 263.623 63.8452 263.169 63.8452Z" fill="black"/>
<path d="M218.346 38.3263C220.336 38.1938 222.148 38.9851 223.388 40.3166C223.705 40.6582 224.149 40.8499 224.61 40.8499C225.434 40.8499 226.114 40.2609 226.257 39.4801V26.1542H193.834C191.355 26.1542 189.341 28.1654 189.341 30.6438V63.026H202.063V63.0365H202.374C203.302 63.0365 204.05 63.7824 204.05 64.7062C204.05 65.1732 203.861 65.6159 203.522 65.9262C202.286 67.073 201.515 68.7112 201.515 70.5308C201.515 74.0967 204.489 76.9654 208.096 76.7981C211.262 76.6552 213.856 74.128 214.069 70.97C214.206 68.9762 213.41 67.1671 212.079 65.9296C211.737 65.6159 211.549 65.1732 211.549 64.7062C211.549 63.7824 212.299 63.0365 213.225 63.0365H213.535V63.026H226.257V49.7037C226.114 48.9263 225.434 48.3373 224.61 48.3373C224.149 48.3373 223.705 48.5255 223.388 48.8636C222.239 50.0975 220.602 50.8714 218.783 50.8714C215.215 50.8714 212.338 47.8981 212.505 44.2938C212.652 41.1323 215.18 38.5424 218.346 38.3263Z" fill="#3361FE"/>
<path d="M202.182 62.2139H202.374C203.753 62.2139 204.874 63.3328 204.874 64.7062C204.874 65.3964 204.584 66.0587 204.081 66.5292C202.953 67.5715 202.335 68.9936 202.335 70.5308C202.335 72.0332 202.932 73.4344 204.025 74.4767C205.114 75.5154 206.532 76.0452 208.058 75.9825C210.833 75.8535 213.064 73.675 213.253 70.9108C213.364 69.2516 212.732 67.6551 211.517 66.5292C211.015 66.0587 210.725 65.3964 210.725 64.7062C210.725 63.3328 211.846 62.2139 213.225 62.2139H213.42C213.459 62.2104 213.497 62.207 213.535 62.207H225.437V49.7908C225.339 49.4179 225.001 49.153 224.61 49.153C224.372 49.153 224.149 49.2506 223.992 49.4214C222.651 50.861 220.752 51.6871 218.786 51.6871C216.824 51.6871 214.998 50.9098 213.644 49.4946C212.293 48.0794 211.594 46.218 211.685 44.2555C211.853 40.6548 214.691 37.7547 218.287 37.5107C220.441 37.3678 222.522 38.1834 223.992 39.759C224.149 39.9332 224.372 40.0274 224.61 40.0274C225.001 40.0274 225.339 39.7624 225.437 39.393V26.9769H193.834C191.809 26.9769 190.161 28.6221 190.161 30.6438V62.207H202.067C202.105 62.207 202.143 62.2104 202.182 62.2139ZM207.796 77.6243C205.956 77.6243 204.228 76.9376 202.891 75.6618C201.477 74.3094 200.691 72.4863 200.691 70.5308C200.691 68.5614 201.522 66.6652 202.964 65.3267C203.135 65.1698 203.233 64.9432 203.233 64.7062C203.233 64.2356 202.845 63.8522 202.374 63.8522H202.067C202.028 63.8522 201.986 63.8487 201.951 63.8452H189.341C188.887 63.8452 188.521 63.4792 188.521 63.0261V30.6438C188.521 27.7158 190.905 25.3351 193.834 25.3351H226.258C226.711 25.3351 227.078 25.7011 227.078 26.1542V39.4766C227.078 39.5289 227.075 39.5812 227.064 39.63C226.844 40.8082 225.811 41.6656 224.61 41.6656C223.918 41.6656 223.255 41.3798 222.787 40.8744C221.66 39.6648 220.061 39.0304 218.399 39.1455C215.634 39.3302 213.452 41.5611 213.326 44.3322C213.256 45.8415 213.79 47.2742 214.831 48.3617C215.871 49.4492 217.278 50.0488 218.786 50.0488C220.298 50.0488 221.757 49.4144 222.787 48.3059C223.255 47.804 223.918 47.5112 224.61 47.5112C225.811 47.5112 226.844 48.3722 227.064 49.5503C227.075 49.6026 227.078 49.6479 227.078 49.7002V63.0261C227.078 63.4792 226.711 63.8452 226.258 63.8452H213.647C213.612 63.8487 213.57 63.8522 213.535 63.8522H213.225C212.753 63.8522 212.366 64.2356 212.366 64.7062C212.366 64.9432 212.467 65.1698 212.635 65.3302C214.213 66.7942 215.037 68.8682 214.89 71.0223C214.646 74.6161 211.741 77.4535 208.134 77.6208C208.019 77.6208 207.908 77.6243 207.796 77.6243Z" fill="black"/>
<path d="M321.426 320.338C321.426 320.338 311.472 259.847 305.61 243.035C302.101 232.972 260.779 215.463 260.779 215.463C260.779 215.463 258.408 209.607 253.314 208.23C248.224 206.857 231.428 205.891 231.428 205.891C231.428 205.891 211.925 206.857 206.835 208.23C201.745 209.607 199.371 215.463 199.371 215.463C199.371 215.463 158.048 232.972 154.539 243.035C148.678 259.847 138.728 320.338 138.728 320.338L168.368 336.832C168.368 336.832 165.949 361.194 169.953 363.725C173.162 365.753 179.83 367.165 194.773 370.619C194.94 370.658 260.252 371.536 260.461 371.411C266.218 369.995 286.436 366.105 290.2 363.725C294.201 361.194 291.781 336.832 291.781 336.832L321.426 320.338Z" fill="#5479F7"/>
<path d="M194.881 369.804C197.031 369.849 257.699 370.693 260.331 370.598C261.745 370.253 263.997 369.762 266.598 369.197C274.241 367.538 287.033 364.756 289.759 363.031C292.224 361.473 291.948 346.819 290.967 336.913C290.932 336.588 291.096 336.275 291.379 336.114L320.517 319.899C319.491 313.705 310.305 258.993 304.835 243.304C301.486 233.697 260.869 216.394 260.461 216.22C260.262 216.136 260.101 215.972 260.021 215.774C260 215.718 257.727 210.277 253.101 209.022C248.273 207.718 232.377 206.77 231.424 206.711C230.387 206.763 211.883 207.715 207.051 209.022C202.404 210.277 200.152 215.718 200.128 215.774C200.048 215.972 199.887 216.136 199.688 216.22C199.28 216.394 158.662 233.697 155.314 243.304C149.843 258.993 140.661 313.705 139.628 319.899L168.766 336.114C169.052 336.275 169.216 336.588 169.185 336.913C168.2 346.819 167.925 361.473 170.389 363.031C173.2 364.809 179.226 366.196 191.225 368.96L194.881 369.804ZM258.202 372.23C254.759 372.23 246.719 372.139 227.59 371.899C212.658 371.707 194.807 371.466 194.591 371.418L190.855 370.557C178.294 367.663 172.557 366.346 169.513 364.418C165.456 361.853 167.01 342.441 167.499 337.285L138.326 321.053C138.025 320.885 137.861 320.544 137.917 320.202C138.015 319.595 147.947 259.453 153.764 242.767C157.231 232.822 194.689 216.572 198.745 214.839C199.346 213.536 201.846 208.732 206.622 207.439C211.736 206.055 230.589 205.111 231.389 205.072C231.417 205.072 231.448 205.072 231.476 205.076C232.164 205.114 248.416 206.055 253.527 207.439C258.303 208.732 260.803 213.536 261.403 214.839C265.46 216.572 302.921 232.822 306.385 242.767C312.201 259.453 322.134 319.595 322.235 320.202C322.287 320.544 322.127 320.885 321.823 321.053L292.65 337.285C293.139 342.441 294.696 361.853 290.636 364.418C287.664 366.297 275.689 368.901 266.947 370.801C264.318 371.372 262.046 371.864 260.66 372.205L260.653 372.177C260.387 372.212 259.78 372.23 258.202 372.23Z" fill="black"/>
<path d="M172.425 333.517C172.369 333.517 172.313 333.514 172.261 333.5C171.814 333.409 171.528 332.977 171.618 332.535L182.919 277.227C183.01 276.784 183.446 276.498 183.886 276.585C184.329 276.676 184.616 277.112 184.525 277.554L173.228 332.862C173.147 333.249 172.805 333.517 172.425 333.517Z" fill="black"/>
<path d="M287.727 333.517C287.343 333.517 287.004 333.249 286.92 332.862L275.623 277.554C275.532 277.112 275.819 276.676 276.262 276.585C276.702 276.498 277.138 276.784 277.229 277.227L288.533 332.535C288.62 332.977 288.334 333.409 287.891 333.5C287.835 333.514 287.779 333.517 287.727 333.517Z" fill="black"/>
<path d="M210.229 213.654C210.229 213.654 202.845 215.589 203.023 224.279C203.201 232.968 207.785 339.948 194.773 370.619C194.773 370.619 219.942 381.299 260.462 372.766C260.462 372.766 250.522 337.752 248.315 306.771C246.109 275.787 256.419 224.171 250.875 217.499C245.33 210.824 210.229 213.654 210.229 213.654Z" fill="#99B9FF"/>
<path d="M195.851 370.156C200.296 371.784 223.977 379.41 259.441 372.143C257.919 366.59 249.495 334.884 247.498 306.827C246.443 292.037 248.22 272.671 249.788 255.584C251.408 237.932 252.937 221.264 250.245 218.022C245.93 212.832 220.084 213.689 210.375 214.466C209.642 214.683 203.689 216.676 203.843 224.261C203.857 224.934 203.895 226.199 203.955 227.977C206.304 301.86 203.504 350.963 195.851 370.156ZM229.898 376.866C207.743 376.866 194.636 371.452 194.451 371.376C194.036 371.198 193.844 370.717 194.019 370.302C199.461 357.471 205.316 322.377 202.314 228.029C202.258 226.245 202.216 224.972 202.202 224.296C202.014 215.066 209.942 212.884 210.022 212.863C210.068 212.853 210.117 212.842 210.162 212.839C211.615 212.724 245.752 210.054 251.506 216.976C254.63 220.737 253.216 236.182 251.422 255.734C249.861 272.761 248.091 292.055 249.135 306.712C251.31 337.258 261.152 372.195 261.253 372.54C261.313 372.76 261.285 372.993 261.166 373.188C261.051 373.384 260.855 373.52 260.632 373.565C249.104 375.994 238.777 376.866 229.898 376.866Z" fill="black"/>
<path d="M213.79 189.369L211.563 215.463C208.937 216.694 207.167 218.907 206.13 221.964C205.205 224.693 205.617 227.695 207.167 230.117L223.513 255.668C225.42 258.644 229.77 258.662 231.7 255.699L248.417 230.044C250.853 226.297 250.445 221.302 247.278 218.147C246.378 217.255 245.288 216.467 243.976 215.916L242.813 189.369H213.79Z" fill="white"/>
<path d="M214.541 190.188L212.383 215.533C212.358 215.826 212.177 216.084 211.915 216.206C209.541 217.318 207.904 219.287 206.905 222.229C206.067 224.704 206.413 227.419 207.858 229.678L224.204 255.225C224.951 256.386 226.219 257.086 227.601 257.093C227.608 257.093 227.615 257.093 227.619 257.093C228.994 257.093 230.262 256.406 231.012 255.253L247.725 229.594C249.98 226.133 249.547 221.567 246.695 218.729C245.794 217.83 244.771 217.14 243.658 216.673C243.364 216.551 243.169 216.268 243.155 215.951L242.031 190.188H214.541ZM227.619 258.731C227.612 258.731 227.601 258.731 227.594 258.731C225.653 258.721 223.869 257.741 222.822 256.11L206.476 230.56C204.761 227.879 204.353 224.652 205.352 221.706C206.423 218.538 208.249 216.265 210.784 214.933L212.969 189.299C213.008 188.874 213.36 188.55 213.786 188.55H242.813C243.253 188.55 243.616 188.895 243.633 189.334L244.775 215.376C245.899 215.913 246.932 216.648 247.854 217.569C251.255 220.946 251.778 226.384 249.101 230.49L232.388 256.148C231.334 257.766 229.553 258.731 227.619 258.731Z" fill="black"/>
<path d="M246.824 176.671L246.845 162.484C246.845 162.484 245.434 152.497 234.129 152.497C222.821 152.497 211.52 159.932 211.52 159.932C211.569 161.916 210.563 176.671 210.563 176.671C210.563 176.671 208.503 175.691 206.842 176.855C205.183 178.02 206.084 186.87 211.562 188.118L215.039 198.634C215.992 201.517 218.342 203.72 221.289 204.483L222.898 204.895C225.977 205.693 229.2 205.752 232.307 205.076L236.395 204.183C239.635 203.479 242.222 201.032 243.105 197.836L245.881 187.769C245.881 187.769 249.816 187.839 250.28 183.851C250.744 179.864 251.666 174.719 246.824 176.671Z" fill="white"/>
<path d="M208.742 177.11C208.277 177.11 207.768 177.211 207.314 177.528C207.062 177.713 206.647 179.18 207.146 181.54C207.394 182.708 208.455 186.567 211.744 187.32C212.027 187.382 212.25 187.588 212.345 187.863L215.815 198.376C216.684 201.008 218.807 202.991 221.492 203.688L223.101 204.1C226.044 204.863 229.166 204.922 232.133 204.274L236.218 203.385C239.175 202.74 241.511 200.53 242.314 197.616L245.089 187.553C245.191 187.198 245.515 186.954 245.882 186.954C245.889 186.954 245.899 186.954 245.91 186.954C246.29 186.954 249.108 186.846 249.467 183.754L249.555 183.011C249.813 180.864 250.169 177.926 249.265 177.232C248.794 176.873 247.847 177.141 247.135 177.431C246.88 177.532 246.594 177.504 246.367 177.35C246.14 177.197 246.004 176.943 246.004 176.671L246.025 162.547C245.889 161.724 244.269 153.32 234.13 153.32C224.313 153.32 214.356 159.141 212.341 160.385C212.282 163.533 211.423 176.158 211.381 176.726C211.364 176.998 211.214 177.242 210.976 177.378C210.742 177.514 210.456 177.528 210.212 177.413C210.201 177.406 209.541 177.11 208.742 177.11ZM227.986 206.359C226.202 206.359 224.417 206.135 222.693 205.689L221.083 205.271C217.854 204.438 215.302 202.054 214.258 198.889L210.924 188.794C208.228 187.961 206.221 185.343 205.502 181.69C205.079 179.546 205.188 177.016 206.371 176.183C207.569 175.346 208.906 175.391 209.817 175.583C210.044 172.195 210.742 161.574 210.7 159.953C210.693 159.671 210.833 159.406 211.07 159.246C211.542 158.939 222.71 151.682 234.13 151.682C246.011 151.682 247.641 162.264 247.659 162.369C247.662 162.407 247.666 162.446 247.666 162.487L247.648 175.545C248.734 175.294 249.597 175.423 250.263 175.932C251.911 177.194 251.541 180.251 251.185 183.21L251.094 183.945C250.717 187.229 248.214 188.351 246.517 188.554L243.895 198.056C242.932 201.555 240.121 204.211 236.567 204.985L232.486 205.878C231.009 206.198 229.497 206.359 227.986 206.359Z" fill="black"/>
<path d="M216.946 158.712C216.946 158.712 209.642 168.427 210.56 176.671C210.56 176.671 201.699 164.83 213.329 154.868C213.329 154.868 204.81 146.038 210.927 142.737C217.044 139.44 219.638 148.89 224.986 147.262C230.335 145.63 235.268 145.589 239.842 146.917C244.415 148.248 244.345 154.756 246.196 156.21C248.043 157.663 255.311 161.654 246.824 176.671C246.824 176.671 243.836 170.818 243.493 165.109C243.155 159.396 245.222 157.255 239.192 158.067C233.166 158.88 218.566 161.191 216.946 158.712Z" fill="black"/>
<path d="M121.057 394.977C90.5193 366.862 106.328 348.729 106.328 348.729C106.328 348.729 119.968 326.657 167.837 355.512C215.709 384.37 262.042 373.641 272.519 369.316C283 364.99 319.609 337.801 340.246 336.275C351.725 335.424 365.464 344.048 353.415 367.35C328.481 415.547 260.778 421.044 260.778 421.044C260.778 421.044 227.96 427.203 194.248 421.235C194.248 421.235 151.592 423.09 121.057 394.977Z" fill="black"/>
<path d="M246.921 400.659C246.694 400.659 246.47 400.562 246.306 400.38L244.718 398.582C244.568 398.411 244.494 398.188 244.515 397.961C244.54 397.738 244.651 397.529 244.833 397.39L295.313 358.486C295.669 358.21 296.186 358.276 296.462 358.632C296.738 358.991 296.671 359.507 296.312 359.782L246.526 398.153L247.535 399.296C247.835 399.634 247.804 400.154 247.462 400.45C247.308 400.589 247.113 400.659 246.921 400.659Z" fill="white"/>
<path d="M200.984 398.857C200.928 398.857 200.876 398.854 200.816 398.843C200.373 398.753 200.087 398.317 200.177 397.878L200.841 394.619C198.596 392.83 186.768 383.482 168.023 369.713C147.236 354.439 142.68 351.312 142.638 351.284C142.264 351.026 142.167 350.521 142.425 350.144C142.68 349.771 143.19 349.677 143.563 349.932C143.608 349.963 148.161 353.09 168.997 368.392C189.833 383.698 202.136 393.552 202.258 393.653C202.499 393.845 202.611 394.151 202.548 394.451L201.787 398.202C201.707 398.592 201.368 398.857 200.984 398.857Z" fill="white"/>
<path d="M246.65 402.799C246.65 402.799 219.114 413.748 207.984 414.564C196.857 415.383 177.306 420.528 175.068 421.451C172.83 422.379 173.501 427.098 176.632 428.2C176.632 428.2 175.739 432.201 178.643 433.54C178.643 433.54 178.423 437.646 182.445 438.162C182.445 438.162 181.192 440.372 186.397 440.846C191.603 441.317 201.965 439.64 206.776 437.573C211.587 435.509 229.504 423.097 229.504 423.097L254.683 415.393L246.65 402.799Z" fill="white"/>
<path d="M246.321 403.81C242.045 405.487 218.363 414.623 208.047 415.383C197.021 416.188 177.4 421.375 175.382 422.211C174.593 422.536 174.562 423.644 174.572 423.975C174.607 425.254 175.351 426.879 176.905 427.423C177.296 427.562 177.523 427.973 177.432 428.378C177.404 428.51 176.723 431.755 178.985 432.798C179.293 432.937 179.478 433.251 179.464 433.585C179.446 433.927 179.404 436.946 182.55 437.346C182.819 437.381 183.056 437.549 183.178 437.793C183.301 438.037 183.294 438.326 183.161 438.563C183.154 438.577 183.084 438.748 183.192 438.939C183.304 439.135 183.87 439.793 186.474 440.027C191.495 440.484 201.755 438.838 206.451 436.824C211.129 434.812 228.855 422.55 229.033 422.424C229.106 422.379 229.179 422.34 229.26 422.316L253.409 414.926L246.321 403.81ZM188.384 441.745C187.637 441.745 186.945 441.717 186.324 441.662C183.81 441.432 182.309 440.787 181.73 439.682C181.565 439.372 181.503 439.072 181.492 438.807C178.762 438.061 177.914 435.645 177.826 434.035C175.595 432.672 175.588 429.96 175.725 428.695C173.871 427.719 172.977 425.666 172.932 424.02C172.89 422.428 173.57 421.183 174.754 420.695C176.88 419.813 196.501 414.588 207.924 413.748C218.803 412.946 246.074 402.148 246.346 402.04C246.712 401.893 247.131 402.026 247.341 402.36L255.371 414.951C255.51 415.17 255.542 415.439 255.451 415.676C255.364 415.916 255.168 416.101 254.92 416.178L229.864 423.846C228.24 424.969 211.789 436.315 207.097 438.329C202.705 440.212 194.019 441.745 188.384 441.745Z" fill="black"/>
<path d="M178.867 427.844C178.479 427.844 178.141 427.576 178.06 427.182C177.973 426.739 178.263 426.307 178.706 426.22L182.396 425.495C182.836 425.404 183.269 425.697 183.36 426.14C183.447 426.582 183.157 427.015 182.714 427.105L179.024 427.83C178.972 427.837 178.916 427.844 178.867 427.844Z" fill="black"/>
<path d="M198.993 402.799C198.993 402.799 226.529 413.748 237.656 414.564C248.786 415.383 268.337 420.528 270.575 421.451C272.813 422.379 272.142 427.098 269.011 428.2C269.011 428.2 269.904 432.201 267 433.54C267 433.54 267.22 437.646 263.198 438.162C263.198 438.162 264.451 440.372 259.246 440.846C254.04 441.317 243.682 439.64 238.867 437.573C234.056 435.509 216.142 423.097 216.142 423.097L190.96 415.393L198.993 402.799Z" fill="white"/>
<path d="M192.235 414.926L216.38 422.316C216.464 422.34 216.537 422.379 216.607 422.424C216.789 422.55 234.51 434.812 239.192 436.824C243.884 438.838 254.152 440.487 259.173 440.027C261.808 439.79 262.357 439.121 262.458 438.922C262.559 438.737 262.482 438.566 262.482 438.563C262.35 438.326 262.343 438.037 262.465 437.793C262.587 437.549 262.821 437.381 263.093 437.346C266.323 436.932 266.19 433.721 266.183 433.585C266.166 433.251 266.351 432.937 266.654 432.798C268.938 431.745 268.218 428.409 268.211 428.378C268.121 427.973 268.348 427.562 268.739 427.423C270.292 426.879 271.036 425.255 271.071 423.975C271.078 423.644 271.046 422.536 270.261 422.211C268.243 421.375 248.622 416.188 237.6 415.383C227.28 414.623 203.599 405.487 199.322 403.81L192.235 414.926ZM257.259 441.745C251.624 441.745 242.935 440.212 238.543 438.329C233.854 436.315 217.403 424.969 215.78 423.846L190.719 416.178C190.475 416.101 190.279 415.916 190.192 415.676C190.101 415.439 190.133 415.17 190.269 414.951L198.302 402.36C198.512 402.029 198.931 401.89 199.297 402.04C199.573 402.148 226.843 412.946 237.719 413.748C249.142 414.588 268.76 419.813 270.889 420.695C272.073 421.183 272.754 422.428 272.712 424.021C272.666 425.666 271.773 427.719 269.915 428.695C270.051 429.96 270.048 432.672 267.817 434.035C267.73 435.645 266.881 438.061 264.151 438.807C264.141 439.072 264.074 439.372 263.914 439.682C263.334 440.787 261.833 441.432 259.319 441.662C258.698 441.718 258.006 441.745 257.259 441.745Z" fill="black"/>
<path d="M266.78 427.844C266.724 427.844 266.671 427.837 266.619 427.83L262.929 427.105C262.486 427.015 262.196 426.582 262.283 426.14C262.37 425.697 262.803 425.404 263.247 425.495L266.933 426.22C267.38 426.307 267.67 426.739 267.579 427.182C267.506 427.576 267.16 427.844 266.78 427.844Z" fill="black"/>
<path d="M110.406 312.976L157.5 324.162C167.886 326.63 174.418 336.919 172.222 347.356C170.33 356.335 160.334 360.981 152.242 356.645L108.807 333.364C104.324 330.962 98.958 330.861 94.3879 333.092L72.7316 343.668C72.7316 343.668 72.4802 340.325 75.9121 336.836C79.3475 333.35 86.3196 330.471 86.3196 330.471C86.3196 330.471 66.4787 337.083 59.1191 328.599C59.1191 328.599 60.7321 325.455 66.3391 325.483L59.1191 320.603C59.1191 320.603 60.76 315.531 66.2413 317.347C71.7191 319.163 84.0468 316.824 84.0468 316.824C84.0468 316.824 72.3545 313.293 74.5715 301.989C76.7884 290.681 86.8747 292.337 86.8747 292.337L86.941 293.278C87.1191 295.854 86.166 298.319 84.567 300.347C84.0084 301.051 83.6872 302.177 84.0468 303.973C85.0523 308.999 86.9515 310.766 90.6732 309.895C95.7844 308.696 94.8313 305.14 93.2079 302.449C91.4448 299.521 90.2787 296.273 89.8109 292.888L89.7445 292.407C89.7445 292.407 95.76 288.119 100.086 299.162C101.297 302.258 102.198 304.596 102.868 306.364C104.132 309.679 106.953 312.157 110.406 312.976Z" fill="white"/>
<path d="M101.329 330.673C104.041 330.673 106.747 331.332 109.194 332.643L152.629 355.92C156.257 357.869 160.478 357.987 164.21 356.251C167.945 354.515 170.571 351.211 171.416 347.188C173.542 337.108 167.341 327.344 157.308 324.96L110.217 313.774C106.496 312.889 103.462 310.229 102.104 306.653C101.35 304.666 100.414 302.247 99.3246 299.462C97.8129 295.61 95.8962 293.237 93.77 292.588C92.3909 292.173 91.2249 292.56 90.6313 292.843C91.0852 296.077 92.1884 299.166 93.9096 302.027C95.2957 304.325 95.6657 306.273 95.0129 307.817C94.4194 309.219 93.0229 310.184 90.8618 310.689C89.0254 311.122 87.559 310.961 86.379 310.205C84.8742 309.236 83.8757 307.308 83.2438 304.133C82.8772 302.313 83.1077 300.867 83.9211 299.838C85.0314 298.43 86.3161 296.158 86.1241 293.338L86.1067 293.083C83.9595 292.947 77.1201 293.254 75.378 302.146C73.3251 312.607 83.8373 315.904 84.2842 316.04C84.6473 316.148 84.8847 316.49 84.8673 316.866C84.8463 317.243 84.5705 317.56 84.2004 317.63C83.6872 317.727 71.6004 319.986 65.983 318.125C64.5062 317.637 63.2214 317.661 62.1636 318.198C61.0952 318.735 60.4598 319.697 60.1456 320.303L66.8 324.803C67.0967 325.005 67.2294 325.382 67.1212 325.727C67.0164 326.068 66.6987 326.302 66.3391 326.302C66.3112 326.299 66.2867 326.302 66.2623 326.302C62.5581 326.302 60.8264 327.763 60.1735 328.526C67.4284 335.79 85.8693 329.76 86.0578 329.694C86.4767 329.554 86.9341 329.77 87.0877 330.185C87.2413 330.6 87.0388 331.06 86.6304 331.227C86.564 331.259 79.7735 334.089 76.4987 337.411C74.6413 339.297 73.9466 341.113 73.6917 342.284L94.0283 332.357C96.3291 331.234 98.8288 330.673 101.329 330.673ZM158.742 359.113C156.379 359.113 154.022 358.527 151.851 357.367L108.419 334.086C104.181 331.816 99.0697 331.719 94.751 333.828L73.0912 344.4C72.8468 344.518 72.5571 344.511 72.3231 344.375C72.0857 344.239 71.9321 343.995 71.9112 343.724C71.9007 343.574 71.6773 339.969 75.3291 336.261C76.5162 335.058 78.0907 333.932 79.6618 332.963C73.0284 334.176 63.3471 334.723 58.5012 329.136C58.2813 328.881 58.2359 328.522 58.3895 328.226C58.4523 328.101 59.8 325.577 63.9441 324.852L58.6583 321.279C58.3581 321.077 58.2254 320.697 58.3371 320.348C58.372 320.251 59.1611 317.877 61.4199 316.734C62.8828 315.991 64.59 315.939 66.4997 316.57C70.1865 317.793 77.3017 317.02 81.191 316.455C77.6962 314.576 72.1241 310.195 73.765 301.832C76.1112 289.883 86.8992 291.511 87.0074 291.529C87.3845 291.591 87.6673 291.901 87.6952 292.281L87.758 293.223C87.9431 295.868 87.0598 298.51 85.2094 300.853C84.7067 301.487 84.588 302.484 84.8533 303.812C85.384 306.482 86.1765 308.124 87.2693 308.825C88.0548 309.327 89.1091 309.417 90.4882 309.093C92.1081 308.713 93.1241 308.072 93.5012 307.183C94.0458 305.89 93.2603 304.122 92.5062 302.871C90.6558 299.8 89.4757 296.478 88.9974 293.003L88.9311 292.518C88.8892 292.215 89.0184 291.915 89.2663 291.738C89.357 291.678 91.4762 290.2 94.2134 291.009C96.8877 291.804 99.1221 294.446 100.85 298.869C101.943 301.658 102.882 304.081 103.636 306.071C104.802 309.138 107.403 311.421 110.598 312.181L157.688 323.367C168.595 325.957 175.329 336.567 173.025 347.523C172.069 352.061 169.112 355.784 164.905 357.74C162.928 358.656 160.834 359.113 158.742 359.113Z" fill="black"/>
<path d="M349.74 312.98L302.649 324.165C292.259 326.63 285.734 336.92 287.927 347.359C289.819 356.335 299.814 360.985 307.907 356.645L351.342 333.364C355.825 330.962 361.187 330.861 365.761 333.092L387.417 343.668C387.417 343.668 387.669 340.325 384.233 336.836C380.801 333.354 373.829 330.471 373.829 330.471C373.829 330.471 393.667 337.083 401.03 328.599C401.03 328.599 399.413 325.455 393.81 325.483L401.03 320.603C401.03 320.603 399.385 315.531 393.908 317.351C388.426 319.163 376.102 316.824 376.102 316.824C376.102 316.824 387.794 313.297 385.577 301.989C383.36 290.682 373.274 292.337 373.274 292.337L373.208 293.282C373.03 295.858 373.979 298.319 375.585 300.347C376.141 301.052 376.458 302.181 376.102 303.976C375.097 308.999 373.197 310.766 369.476 309.895C364.364 308.699 365.318 305.144 366.938 302.453C368.704 299.521 369.87 296.276 370.338 292.891L370.404 292.407C370.404 292.407 364.385 288.12 360.063 299.166C358.852 302.258 357.951 304.6 357.277 306.364C356.017 309.679 353.192 312.157 349.74 312.98Z" fill="white"/>
<path d="M349.932 313.771L302.842 324.96C292.812 327.344 286.611 337.108 288.737 347.185C289.582 351.211 292.204 354.515 295.94 356.251C299.676 357.984 303.893 357.865 307.524 355.92L350.955 332.642C355.662 330.119 361.328 330.011 366.125 332.353L386.461 342.284C386.207 341.113 385.519 339.3 383.651 337.411C380.376 334.082 373.589 331.259 373.523 331.227C373.111 331.06 372.912 330.6 373.065 330.185C373.219 329.77 373.676 329.554 374.092 329.694C374.28 329.756 392.735 335.783 399.976 328.526C399.33 327.762 397.599 326.302 393.887 326.302C393.866 326.302 393.845 326.305 393.814 326.302C393.454 326.302 393.137 326.068 393.032 325.723C392.92 325.378 393.056 325.005 393.357 324.803L400.018 320.296C399.456 319.163 397.836 316.911 394.174 318.124C388.553 319.986 376.462 317.724 375.953 317.629C375.579 317.556 375.307 317.243 375.289 316.866C375.265 316.49 375.506 316.148 375.865 316.04C376.316 315.904 386.821 312.575 384.775 302.146C383.033 293.257 376.204 292.954 374.047 293.08L374.029 293.334C373.834 296.157 375.118 298.43 376.232 299.838C377.046 300.867 377.272 302.31 376.909 304.129C376.274 307.305 375.279 309.232 373.771 310.201C372.594 310.958 371.128 311.118 369.291 310.689C367.13 310.184 365.734 309.215 365.14 307.817C364.487 306.27 364.858 304.325 366.24 302.024C367.965 299.169 369.064 296.077 369.518 292.843C368.932 292.56 367.762 292.17 366.38 292.588C364.257 293.233 362.337 295.61 360.829 299.462C359.75 302.226 358.811 304.642 358.05 306.653C356.688 310.229 353.654 312.889 349.932 313.771ZM301.407 359.113C299.316 359.113 297.225 358.656 295.249 357.74C291.042 355.784 288.081 352.061 287.128 347.523C284.824 336.567 291.558 325.957 302.465 323.367L349.555 312.181C352.746 311.421 355.351 309.138 356.513 306.071C357.278 304.056 358.217 301.634 359.299 298.866C361.031 294.446 363.265 291.804 365.94 291.009C368.677 290.197 370.796 291.675 370.887 291.738C371.135 291.915 371.264 292.215 371.222 292.515L371.152 292.999C370.677 296.482 369.497 299.8 367.647 302.871C366.893 304.122 366.107 305.89 366.656 307.179C367.029 308.072 368.042 308.713 369.665 309.093C371.048 309.417 372.102 309.327 372.884 308.825C373.977 308.12 374.769 306.482 375.303 303.812C375.565 302.484 375.443 301.487 374.944 300.853C373.09 298.51 372.21 295.868 372.392 293.223L372.458 292.278C372.482 291.901 372.769 291.588 373.142 291.528C373.254 291.511 384.042 289.88 386.385 301.829C388.029 310.194 382.453 314.576 378.962 316.455C382.851 317.019 389.967 317.79 393.653 316.57C395.56 315.935 397.267 315.991 398.733 316.734C400.992 317.877 401.781 320.247 401.813 320.348C401.928 320.693 401.799 321.077 401.495 321.279L396.206 324.852C400.353 325.57 401.701 328.097 401.764 328.226C401.917 328.519 401.872 328.881 401.652 329.132C396.806 334.723 387.125 334.18 380.488 332.963C382.062 333.929 383.637 335.058 384.824 336.261C388.476 339.969 388.252 343.574 388.239 343.724C388.221 343.995 388.067 344.239 387.83 344.375C387.596 344.511 387.306 344.518 387.062 344.4L365.406 333.824C361.08 331.719 355.972 331.813 351.73 334.086L308.302 357.367C306.131 358.527 303.771 359.113 301.407 359.113Z" fill="black"/>
<path d="M416.572 227.757H431.068C432.269 227.757 433.243 226.785 433.243 225.586V147.293C433.243 145.958 432.157 144.874 430.82 144.874H394.085L416.572 227.757Z" fill="#5479F7"/>
<path d="M433.244 181.575C432.79 181.575 432.423 181.209 432.423 180.753V147.293C432.423 146.411 431.704 145.693 430.821 145.693H394.086C393.635 145.693 393.269 145.327 393.269 144.874C393.269 144.421 393.635 144.052 394.086 144.052H430.821C432.612 144.052 434.064 145.505 434.064 147.293V180.753C434.064 181.209 433.697 181.575 433.244 181.575Z" fill="black"/>
<path d="M416.572 227.757H431.067C431.772 227.757 432.397 227.423 432.795 226.903L416.572 227.757Z" fill="white"/>
<path d="M431.068 228.577H416.572C416.119 228.577 415.752 228.211 415.752 227.757C415.752 227.301 416.119 226.938 416.572 226.938H431.068C431.494 226.938 431.885 226.743 432.143 226.408C432.416 226.046 432.936 225.976 433.296 226.255C433.655 226.53 433.722 227.043 433.449 227.402C432.877 228.151 432.007 228.577 431.068 228.577Z" fill="black"/>
<path d="M416.102 231.306C415.944 232.09 415.257 232.655 414.461 232.655H329.756C328.705 232.655 327.909 231.693 328.115 230.661L344.957 146.199C345.11 145.418 345.798 144.853 346.601 144.853H431.299C432.357 144.853 433.146 145.815 432.943 146.847L416.102 231.306Z" fill="white"/>
<path d="M335.146 196.229C335.094 196.229 335.038 196.229 334.986 196.215C334.539 196.128 334.253 195.696 334.34 195.253L344.157 146.035C344.384 144.874 345.414 144.031 346.601 144.031H431.306C432.053 144.031 432.755 144.362 433.233 144.94C433.708 145.519 433.897 146.272 433.75 147.004L426.876 181.492C426.785 181.938 426.349 182.231 425.909 182.136C425.465 182.049 425.176 181.617 425.263 181.174L432.141 146.687C432.193 146.436 432.127 146.178 431.963 145.979C431.802 145.78 431.558 145.669 431.306 145.669H346.601C346.193 145.669 345.844 145.958 345.767 146.356L335.953 195.574C335.873 195.964 335.53 196.229 335.146 196.229Z" fill="black"/>
<path d="M406.546 233.474H369.979C369.525 233.474 369.158 233.108 369.158 232.655C369.158 232.202 369.525 231.832 369.979 231.832H406.546C407.004 231.832 407.37 232.202 407.37 232.655C407.37 233.108 407.004 233.474 406.546 233.474Z" fill="black"/>
<path d="M341.325 198.718L343.102 189.415H352.919L351.146 198.718H341.325Z" fill="#CADDFF"/>
<path d="M352.379 198.714L354.149 189.415H363.969L362.196 198.714H352.379Z" fill="white"/>
<path d="M363.425 198.715L365.198 189.411H375.015L373.245 198.715H363.425Z" fill="#CADDFF"/>
<path d="M374.472 198.714L376.242 189.415H386.062L384.289 198.714H374.472Z" fill="#CADDFF"/>
<path d="M385.515 198.714L387.292 189.415H397.108L395.339 198.714H385.515Z" fill="#CADDFF"/>
<path d="M396.564 198.714L398.338 189.415H408.158L406.385 198.714H396.564Z" fill="#CADDFF"/>
<path d="M407.614 198.715L409.388 189.411H419.205L417.435 198.715H407.614Z" fill="#CADDFF"/>
<path d="M339.367 209.112L341.141 199.809H350.958L349.188 209.112H339.367Z" fill="#CADDFF"/>
<path d="M350.414 209.112L352.184 199.809H362.008L360.231 209.112H350.414Z" fill="#CADDFF"/>
<path d="M361.455 209.112L363.232 199.812H373.049L371.279 209.112H361.455Z" fill="#CADDFF"/>
<path d="M372.503 209.112L374.28 199.812H384.097L382.327 209.112H372.503Z" fill="#CADDFF"/>
<path d="M383.553 209.109L385.326 199.809H395.147L393.373 209.109H383.553Z" fill="#CADDFF"/>
<path d="M394.602 209.109L396.375 199.809H406.192L404.422 209.109H394.602Z" fill="#CADDFF"/>
<path d="M405.648 209.112L407.422 199.809H417.242L415.469 209.112H405.648Z" fill="#CADDFF"/>
<path d="M345.256 177.926L347.029 168.622H356.846L355.076 177.926H345.256Z" fill="#CADDFF"/>
<path d="M356.311 177.912L358.084 168.612H367.904L366.127 177.912H356.311Z" fill="white"/>
<path d="M367.353 177.922L369.126 168.619H378.943L377.173 177.922H367.353Z" fill="#5479F7"/>
<path d="M378.399 177.922L380.173 168.619H389.993L388.22 177.922H378.399Z" fill="#CADDFF"/>
<path d="M389.445 177.922L391.219 168.622H401.036L399.266 177.922H389.445Z" fill="#CADDFF"/>
<path d="M400.489 177.922L402.266 168.622H412.087L410.31 177.922H400.489Z" fill="#CADDFF"/>
<path d="M411.542 177.922L413.315 168.622H423.132L421.359 177.922H411.542Z" fill="#CADDFF"/>
<path d="M343.295 188.317L345.068 179.017H354.889L353.115 188.317H343.295Z" fill="white"/>
<path d="M354.341 188.32L356.114 179.017H365.931L364.161 188.32H354.341Z" fill="white"/>
<path d="M365.388 188.317L367.161 179.017H376.982L375.205 188.317H365.388Z" fill="#CADDFF"/>
<path d="M376.437 188.317L378.21 179.017H388.027L386.257 188.317H376.437Z" fill="#CADDFF"/>
<path d="M387.483 188.317L389.253 179.017H399.077L397.304 188.317H387.483Z" fill="#CADDFF"/>
<path d="M409.443 188.317L411.213 179.02H421.037L419.26 188.317H409.443Z" fill="#CADDFF"/>
<path d="M398.53 188.317L400.304 179.017H410.121L408.347 188.317H398.53Z" fill="#CADDFF"/>
<path d="M362.831 145.508C362.377 145.508 362.011 145.139 362.011 144.686C362.011 143.257 361.547 141.908 360.67 140.782C360.391 140.43 360.454 139.91 360.813 139.635C361.17 139.353 361.683 139.419 361.962 139.778C363.065 141.19 363.652 142.891 363.652 144.686C363.652 145.139 363.282 145.508 362.831 145.508Z" fill="black"/>
<path d="M355.65 152.679C351.237 152.679 347.648 149.092 347.648 144.686C347.648 140.276 351.237 136.69 355.65 136.69C357.322 136.69 358.925 137.199 360.283 138.168C360.653 138.429 360.736 138.938 360.478 139.307C360.213 139.677 359.7 139.764 359.33 139.503C358.254 138.736 356.977 138.331 355.65 138.331C352.141 138.331 349.286 141.179 349.286 144.686C349.286 148.189 352.141 151.04 355.65 151.04C356.1 151.04 356.47 151.41 356.47 151.863C356.47 152.313 356.1 152.679 355.65 152.679Z" fill="black"/>
<path d="M372.454 145.505C372.003 145.505 371.633 145.139 371.633 144.686C371.633 143.222 371.151 141.849 370.23 140.709C369.947 140.357 370.003 139.841 370.359 139.558C370.712 139.273 371.228 139.328 371.511 139.68C372.649 141.096 373.274 142.87 373.274 144.686C373.274 145.139 372.907 145.505 372.454 145.505Z" fill="black"/>
<path d="M365.275 152.679C360.859 152.679 357.273 149.092 357.273 144.686C357.273 140.276 360.859 136.69 365.275 136.69C366.853 136.69 368.379 137.15 369.691 138.018C370.068 138.265 370.173 138.778 369.922 139.154C369.67 139.531 369.161 139.632 368.783 139.381C367.743 138.694 366.528 138.331 365.275 138.331C361.766 138.331 358.911 141.179 358.911 144.686C358.911 148.189 361.766 151.04 365.275 151.04C365.729 151.04 366.095 151.406 366.095 151.86C366.095 152.313 365.729 152.679 365.275 152.679Z" fill="black"/>
<path d="M382.08 145.505C381.626 145.505 381.259 145.139 381.259 144.686C381.259 143.218 380.746 141.786 379.818 140.653C379.528 140.304 379.58 139.788 379.929 139.499C380.282 139.213 380.795 139.262 381.085 139.614C382.254 141.036 382.9 142.838 382.9 144.686C382.9 145.139 382.53 145.505 382.08 145.505Z" fill="black"/>
<path d="M374.894 152.682C370.481 152.682 366.889 149.095 366.889 144.689C366.889 140.276 370.481 136.693 374.894 136.693C376.538 136.693 378.119 137.188 379.463 138.126C379.841 138.384 379.931 138.896 379.669 139.266C379.408 139.639 378.898 139.726 378.528 139.468C377.46 138.725 376.203 138.331 374.894 138.331C371.385 138.331 368.533 141.183 368.533 144.689C368.533 148.192 371.385 151.04 374.894 151.04C375.348 151.04 375.714 151.41 375.714 151.863C375.714 152.313 375.348 152.682 374.894 152.682Z" fill="black"/>
<path d="M391.704 145.505C391.247 145.505 390.881 145.136 390.881 144.686C390.881 143.198 390.357 141.751 389.404 140.608C389.114 140.263 389.156 139.747 389.505 139.454C389.851 139.165 390.371 139.213 390.661 139.558C391.862 140.995 392.521 142.814 392.521 144.686C392.521 145.136 392.155 145.505 391.704 145.505Z" fill="black"/>
<path d="M384.518 152.682C380.102 152.682 376.517 149.092 376.517 144.686C376.517 140.276 380.102 136.693 384.518 136.693C386.121 136.693 387.667 137.164 388.99 138.056C389.371 138.31 389.468 138.819 389.214 139.196C388.959 139.569 388.449 139.67 388.072 139.415C387.021 138.704 385.792 138.328 384.518 138.328C381.01 138.328 378.154 141.179 378.154 144.686C378.154 148.189 381.01 151.04 384.518 151.04C384.972 151.04 385.339 151.406 385.339 151.859C385.339 152.313 384.972 152.682 384.518 152.682Z" fill="black"/>
<path d="M401.323 145.505C400.873 145.505 400.506 145.139 400.506 144.682C400.506 143.236 400.028 141.869 399.131 140.737C398.844 140.385 398.907 139.865 399.26 139.586C399.616 139.304 400.129 139.363 400.415 139.715C401.529 141.124 402.147 142.887 402.147 144.682C402.147 145.139 401.777 145.505 401.323 145.505Z" fill="black"/>
<path d="M394.141 152.682C389.728 152.682 386.136 149.095 386.136 144.686C386.136 140.276 389.728 136.693 394.141 136.693C395.74 136.693 397.279 137.164 398.599 138.049C398.976 138.3 399.077 138.809 398.826 139.185C398.571 139.562 398.061 139.659 397.684 139.408C396.637 138.704 395.412 138.331 394.141 138.331C390.632 138.331 387.777 141.183 387.777 144.686C387.777 148.189 390.632 151.04 394.141 151.04C394.595 151.04 394.961 151.41 394.961 151.863C394.961 152.316 394.595 152.682 394.141 152.682Z" fill="black"/>
<path d="M410.948 145.505C410.494 145.505 410.124 145.139 410.124 144.686C410.124 143.243 409.653 141.883 408.763 140.754C408.483 140.402 408.543 139.882 408.899 139.604C409.258 139.325 409.768 139.384 410.051 139.74C411.175 141.162 411.765 142.873 411.765 144.686C411.765 145.139 411.398 145.505 410.948 145.505Z" fill="black"/>
<path d="M403.763 152.679C399.351 152.679 395.762 149.095 395.762 144.686C395.762 140.28 399.351 136.693 403.763 136.693C405.324 136.693 406.835 137.143 408.138 137.99C408.515 138.237 408.623 138.746 408.375 139.123C408.127 139.506 407.617 139.611 407.24 139.363C406.21 138.687 405.003 138.331 403.763 138.331C400.255 138.331 397.403 141.183 397.403 144.686C397.403 148.189 400.255 151.04 403.763 151.04C404.214 151.04 404.584 151.406 404.584 151.863C404.584 152.313 404.214 152.679 403.763 152.679Z" fill="black"/>
<path d="M420.57 145.505C420.116 145.505 419.75 145.139 419.75 144.686C419.75 143.225 419.244 141.803 418.319 140.674C418.036 140.322 418.085 139.806 418.441 139.52C418.793 139.234 419.306 139.286 419.593 139.639C420.752 141.057 421.391 142.849 421.391 144.686C421.391 145.139 421.021 145.505 420.57 145.505Z" fill="black"/>
<path d="M413.388 152.679C408.979 152.679 405.387 149.095 405.387 144.686C405.387 140.276 408.979 136.693 413.388 136.693C414.942 136.693 416.453 137.136 417.749 137.979C418.126 138.227 418.237 138.732 417.989 139.112C417.738 139.492 417.228 139.6 416.855 139.353C415.822 138.683 414.624 138.331 413.388 138.331C409.88 138.331 407.028 141.179 407.028 144.686C407.028 148.189 409.88 151.04 413.388 151.04C413.842 151.04 414.209 151.406 414.209 151.859C414.209 152.313 413.842 152.679 413.388 152.679Z" fill="black"/>
<path d="M423.011 152.679C418.599 152.679 415.01 149.095 415.01 144.689C415.01 140.276 418.599 136.693 423.011 136.693C427.421 136.693 431.016 140.276 431.016 144.689C431.016 145.139 430.646 145.505 430.192 145.505C429.742 145.505 429.372 145.139 429.372 144.689C429.372 141.183 426.52 138.331 423.011 138.331C419.503 138.331 416.647 141.183 416.647 144.689C416.647 148.192 419.503 151.044 423.011 151.044C423.465 151.044 423.832 151.41 423.832 151.863C423.832 152.313 423.465 152.679 423.011 152.679Z" fill="black"/>
<path d="M355.789 153.989C355.189 153.989 354.609 153.735 354.204 153.296C353.897 152.957 353.918 152.442 354.25 152.135C354.585 151.832 355.105 151.852 355.412 152.187C355.506 152.292 355.643 152.351 355.789 152.351C356.072 152.351 356.299 152.121 356.299 151.839C356.299 151.56 356.072 151.326 355.789 151.326C355.625 151.326 355.475 151.403 355.377 151.535C355.108 151.901 354.595 151.981 354.229 151.717C353.862 151.452 353.782 150.936 354.051 150.57C354.456 150.019 355.101 149.688 355.789 149.688C356.976 149.688 357.943 150.653 357.943 151.839C357.943 153.024 356.976 153.989 355.789 153.989Z" fill="black"/>
<path d="M365.244 153.989C364.64 153.989 364.064 153.735 363.66 153.292C363.352 152.961 363.373 152.445 363.708 152.138C364.04 151.832 364.564 151.852 364.867 152.187C364.969 152.295 365.098 152.351 365.244 152.351C365.527 152.351 365.754 152.121 365.754 151.839C365.754 151.56 365.527 151.33 365.244 151.33C365.08 151.33 364.93 151.406 364.829 151.539C364.567 151.905 364.051 151.985 363.684 151.717C363.321 151.448 363.237 150.939 363.509 150.57C363.911 150.019 364.564 149.688 365.244 149.688C366.431 149.688 367.398 150.653 367.398 151.839C367.398 153.027 366.431 153.989 365.244 153.989Z" fill="black"/>
<path d="M374.702 153.989C374.102 153.989 373.522 153.735 373.114 153.296C372.81 152.961 372.831 152.442 373.17 152.138C373.501 151.832 374.018 151.852 374.325 152.187C374.423 152.292 374.556 152.351 374.702 152.351C374.989 152.351 375.215 152.124 375.215 151.842C375.215 151.56 374.989 151.326 374.702 151.326C374.538 151.326 374.385 151.406 374.287 151.539C374.022 151.905 373.505 151.985 373.142 151.717C372.775 151.452 372.695 150.936 372.964 150.57C373.369 150.019 374.018 149.688 374.702 149.688C375.889 149.688 376.856 150.653 376.856 151.842C376.856 153.027 375.889 153.989 374.702 153.989Z" fill="black"/>
<path d="M384.428 153.989C383.831 153.989 383.252 153.738 382.843 153.292C382.539 152.957 382.56 152.442 382.895 152.135C383.227 151.828 383.747 151.852 384.055 152.187C384.149 152.292 384.285 152.351 384.428 152.351C384.714 152.351 384.941 152.121 384.941 151.839C384.941 151.556 384.714 151.326 384.428 151.326C384.267 151.326 384.114 151.406 384.02 151.539C383.747 151.905 383.238 151.981 382.871 151.717C382.504 151.448 382.424 150.939 382.689 150.57C383.098 150.019 383.747 149.688 384.428 149.688C385.619 149.688 386.582 150.653 386.582 151.839C386.582 153.024 385.619 153.989 384.428 153.989Z" fill="black"/>
<path d="M393.983 153.993C393.383 153.993 392.804 153.738 392.399 153.296C392.091 152.961 392.116 152.445 392.447 152.138C392.783 151.832 393.303 151.853 393.606 152.187C393.704 152.295 393.837 152.354 393.983 152.354C394.27 152.354 394.5 152.124 394.5 151.842C394.5 151.56 394.27 151.33 393.983 151.33C393.819 151.33 393.669 151.406 393.572 151.539C393.303 151.905 392.79 151.985 392.426 151.72C392.06 151.452 391.976 150.936 392.248 150.573C392.653 150.019 393.303 149.691 393.983 149.691C395.174 149.691 396.141 150.653 396.141 151.842C396.141 153.027 395.174 153.993 393.983 153.993Z" fill="black"/>
<path d="M403.997 153.993C403.397 153.993 402.821 153.738 402.412 153.296C402.105 152.961 402.126 152.445 402.461 152.138C402.796 151.835 403.317 151.856 403.62 152.187C403.722 152.295 403.851 152.354 403.997 152.354C404.284 152.354 404.511 152.124 404.511 151.842C404.511 151.56 404.284 151.333 403.997 151.333C403.833 151.333 403.68 151.406 403.585 151.542C403.317 151.908 402.803 151.985 402.44 151.717C402.074 151.452 401.994 150.939 402.259 150.573C402.66 150.023 403.317 149.691 403.997 149.691C405.188 149.691 406.151 150.657 406.151 151.842C406.151 153.027 405.188 153.993 403.997 153.993Z" fill="black"/>
<path d="M413.455 153.993C412.855 153.993 412.272 153.738 411.87 153.296C411.563 152.964 411.587 152.445 411.919 152.138C412.251 151.835 412.771 151.856 413.081 152.187C413.176 152.295 413.312 152.354 413.455 152.354C413.738 152.354 413.968 152.124 413.968 151.842C413.968 151.56 413.738 151.33 413.455 151.33C413.291 151.33 413.137 151.406 413.04 151.539C412.778 151.905 412.261 151.985 411.898 151.717C411.528 151.452 411.448 150.939 411.716 150.573C412.121 150.023 412.771 149.691 413.455 149.691C414.645 149.691 415.609 150.653 415.609 151.842C415.609 153.027 414.645 153.993 413.455 153.993Z" fill="black"/>
<path d="M422.916 153.989C422.312 153.989 421.736 153.738 421.327 153.292C421.024 152.961 421.045 152.442 421.38 152.135C421.715 151.832 422.232 151.852 422.535 152.184C422.637 152.292 422.769 152.351 422.916 152.351C423.199 152.351 423.426 152.121 423.426 151.839C423.426 151.56 423.199 151.326 422.916 151.326C422.748 151.326 422.598 151.403 422.5 151.539C422.235 151.905 421.722 151.981 421.355 151.717C420.989 151.448 420.909 150.936 421.174 150.57C421.579 150.019 422.232 149.688 422.916 149.688C424.103 149.688 425.066 150.653 425.066 151.839C425.066 153.024 424.103 153.989 422.916 153.989Z" fill="black"/>
<path d="M61.3361 405.138C61.0463 405.138 60.7531 405.184 60.4703 405.274C59.7686 405.504 59.1961 405.996 58.8609 406.655C58.5293 407.313 58.4699 408.063 58.7003 408.767C58.9308 409.471 59.4195 410.039 60.0793 410.374C60.7391 410.709 61.4897 410.764 62.1949 410.538C62.8966 410.304 63.4691 409.816 63.8043 409.157C64.1394 408.499 64.1953 407.749 63.9649 407.045C63.7345 406.344 63.2457 405.773 62.5859 405.438C62.1914 405.239 61.7655 405.138 61.3361 405.138ZM61.3291 412.315C60.6449 412.315 59.9676 412.155 59.3392 411.838C57.1678 410.736 56.2985 408.08 57.3982 405.912C57.9323 404.863 58.84 404.086 59.9606 403.716C61.0812 403.354 62.2752 403.444 63.326 403.978C65.4974 405.072 66.3667 407.732 65.267 409.896C64.7364 410.949 63.8252 411.726 62.7046 412.092C62.2542 412.239 61.7899 412.315 61.3291 412.315Z" fill="black"/>
<path d="M428.847 268.478C427.835 268.478 426.858 269.028 426.369 269.99C425.681 271.35 426.226 273.019 427.587 273.71C428.949 274.4 430.621 273.852 431.312 272.493C432 271.13 431.455 269.464 430.09 268.774C429.692 268.568 429.266 268.478 428.847 268.478ZM428.83 275.648C428.163 275.648 427.486 275.494 426.844 275.174C424.676 274.072 423.806 271.416 424.906 269.251C426.006 267.083 428.666 266.212 430.834 267.313C433.002 268.411 433.875 271.067 432.778 273.236C431.996 274.762 430.443 275.648 428.83 275.648Z" fill="black"/>
<path d="M378.123 111.293C377.962 111.293 377.798 111.244 377.655 111.146L375.941 109.954C375.567 109.696 375.477 109.187 375.738 108.814C375.997 108.441 376.507 108.351 376.88 108.609L378.594 109.801C378.964 110.059 379.055 110.568 378.797 110.941C378.64 111.171 378.381 111.293 378.123 111.293Z" fill="black"/>
<path d="M384.121 115.465C383.964 115.465 383.8 115.42 383.654 115.315L381.939 114.123C381.569 113.865 381.479 113.353 381.737 112.987C381.995 112.614 382.508 112.52 382.879 112.781L384.593 113.973C384.963 114.231 385.057 114.74 384.795 115.113C384.638 115.34 384.38 115.465 384.121 115.465Z" fill="black"/>
<path d="M377.606 116.65C377.445 116.65 377.281 116.605 377.142 116.507C376.765 116.249 376.67 115.74 376.929 115.368L378.112 113.649C378.367 113.276 378.88 113.178 379.25 113.436C379.627 113.694 379.722 114.203 379.463 114.576L378.28 116.295C378.119 116.525 377.864 116.65 377.606 116.65Z" fill="black"/>
<path d="M381.747 110.634C381.583 110.634 381.423 110.589 381.279 110.488C380.909 110.233 380.815 109.724 381.066 109.348L382.253 107.633C382.512 107.256 383.021 107.166 383.395 107.42C383.765 107.678 383.859 108.187 383.604 108.56L382.421 110.278C382.264 110.508 382.009 110.634 381.747 110.634Z" fill="black"/>
<path d="M43.363 385.591C43.3525 385.591 43.3421 385.591 43.3316 385.591C42.8812 385.577 42.5252 385.197 42.5426 384.747L42.6404 381.864C42.6543 381.415 43.0383 381.049 43.4887 381.073C43.939 381.09 44.2951 381.47 44.2812 381.92L44.1799 384.803C44.166 385.245 43.8029 385.591 43.363 385.591Z" fill="black"/>
<path d="M43.0173 395.675C43.0068 395.675 42.9998 395.675 42.9894 395.675C42.5355 395.661 42.1794 395.281 42.1969 394.831L42.2947 391.948C42.3086 391.499 42.6857 391.133 43.143 391.157C43.5933 391.175 43.9494 391.551 43.9355 392.004L43.8377 394.883C43.8203 395.33 43.4572 395.675 43.0173 395.675Z" fill="black"/>
<path d="M39.6302 389.094C39.6232 389.094 39.6162 389.094 39.6092 389.094L36.7221 389.01C36.2718 389 35.9122 388.623 35.9262 388.17C35.9401 387.717 36.3311 387.337 36.7675 387.375L39.6546 387.455C40.1085 387.469 40.4646 387.842 40.4506 388.295C40.4401 388.742 40.0736 389.094 39.6302 389.094Z" fill="black"/>
<path d="M49.7277 389.376C49.7207 389.376 49.7137 389.376 49.7067 389.376L46.8231 389.296C46.3693 389.282 46.0132 388.905 46.0237 388.456C46.0376 387.999 46.4182 387.637 46.8685 387.657L49.7521 387.741C50.206 387.752 50.562 388.128 50.5481 388.581C50.5376 389.024 50.171 389.376 49.7277 389.376Z" fill="black"/>
<path d="M377.051 97.2592C376.828 97.2592 376.608 97.1686 376.444 96.9908C361.798 80.7718 344.048 67.0206 323.691 56.1243C323.293 55.9117 323.143 55.4167 323.356 55.0158C323.572 54.6185 324.068 54.4651 324.466 54.6812C344.994 65.6682 362.891 79.5309 377.666 95.8928C377.966 96.2309 377.938 96.7468 377.599 97.0466C377.446 97.1895 377.247 97.2592 377.051 97.2592Z" fill="black"/>
<path d="M357.592 92.6895C357.379 92.6895 357.173 92.6093 357.009 92.4525C338.038 73.525 314.667 58.9443 287.554 49.1216C287.128 48.9682 286.908 48.4976 287.062 48.0689C287.215 47.6471 287.687 47.4275 288.113 47.5809C315.453 57.4873 339.026 72.1935 358.172 91.2917C358.493 91.6124 358.493 92.1318 358.172 92.4525C358.011 92.6093 357.802 92.6895 357.592 92.6895Z" fill="black"/>
<path d="M76.3837 125.724C75.4585 125.724 74.5928 126.313 74.289 127.24C73.9155 128.394 74.5509 129.638 75.7029 130.011C76.8585 130.387 78.1013 129.753 78.4783 128.599C78.6598 128.042 78.611 127.445 78.3456 126.919C78.0768 126.4 77.623 126.009 77.0644 125.828C76.8375 125.758 76.6106 125.724 76.3837 125.724ZM76.3802 131.757C75.9892 131.757 75.5912 131.698 75.1967 131.573C73.1824 130.917 72.0757 128.746 72.7285 126.734C73.3814 124.723 75.5528 123.618 77.5706 124.27C78.5446 124.587 79.3406 125.263 79.8084 126.177C80.2727 127.09 80.353 128.132 80.0388 129.108C79.5117 130.726 78 131.757 76.3802 131.757Z" fill="black"/>
<path d="M85.9603 116.779C85.7892 116.779 85.6181 116.723 85.468 116.619C85.1049 116.343 85.0316 115.831 85.3004 115.469C102.694 92.1631 120.831 78.7849 132.984 71.6741C146.185 63.9427 155.14 61.7711 155.513 61.684C155.953 61.5794 156.397 61.8513 156.501 62.2905C156.606 62.7332 156.334 63.1724 155.894 63.2805C155.534 63.3641 119.539 72.3294 86.6166 116.448C86.456 116.664 86.2081 116.779 85.9603 116.779Z" fill="black"/>
<path d="M96.2945 89.1933C96.0851 89.1933 95.8791 89.1166 95.7185 88.9598C95.3938 88.6426 95.3938 88.1232 95.708 87.799C130.251 52.806 162.506 47.9992 162.831 47.9573C163.278 47.8981 163.69 48.2083 163.753 48.658C163.816 49.1041 163.505 49.5189 163.055 49.5817C162.737 49.6235 130.998 54.385 96.8776 88.9493C96.717 89.1131 96.5075 89.1933 96.2945 89.1933Z" fill="black"/>
<path d="M162.252 57.3619L163.889 62.1024L168.173 57.9056C166.605 57.7801 164.277 57.5815 162.252 57.3619ZM163.536 64.4134C163.474 64.4134 163.411 64.41 163.348 64.3925C163.072 64.3298 162.852 64.1311 162.761 63.8627L160.272 56.6612C160.181 56.3928 160.234 56.0965 160.412 55.8769C160.593 55.6573 160.869 55.5423 161.152 55.5807C164.615 56.0199 170.04 56.4033 170.096 56.4068C170.417 56.4312 170.697 56.6368 170.808 56.9401C170.92 57.2433 170.843 57.5815 170.613 57.808L164.109 64.1799C163.955 64.3298 163.749 64.4134 163.536 64.4134Z" fill="black"/>
</svg>
