<svg width="461" height="474" viewBox="0 0 461 474" fill="none" xmlns="http://www.w3.org/2000/svg">
<path d="M214.05 392.816C170.133 415.749 112.274 410.784 86.7101 381.696C58.5296 349.699 87.2033 271.898 76.6835 228.774C66.1628 185.645 11.259 167.028 38.4605 130.432C65.6612 93.8319 146.271 126.485 198.388 113.772C250.505 101.058 245.517 70.6562 305.298 65.3397C354.547 60.9733 406.082 87.431 387.508 162.333C374.664 214.074 449.795 259.416 359.196 286.287C228.747 314.522 275.924 361.557 214.05 392.816Z" fill="#FFF2AE"/>
<path d="M450.651 178.67C449.37 173.474 447.933 168.202 446.38 162.998C443.314 152.67 439.73 142.528 435.627 132.572C434.836 130.364 433.655 128.394 432.088 126.656C430.518 125.157 428.728 123.994 426.723 123.171C423.545 121.822 420.304 120.65 416.999 119.657C415.964 119.323 414.933 118.993 413.908 118.654C412.967 118.347 412.033 118.02 411.102 117.684L410.914 117.615L410.843 117.429C409.801 114.652 408.919 111.827 408.196 108.949C408.128 108.688 408.069 108.423 408.011 108.156L407.878 107.581L407.901 107.483C408.546 104.664 409.574 101.998 410.985 99.4801C412.179 97.4451 413.168 95.3154 413.953 93.0878L414.813 93.1727C415.105 95.5114 415.705 97.7685 416.616 99.9406C417.842 103.05 419.714 105.699 422.234 107.884C423.613 109.054 425.147 109.968 426.827 110.625L442.007 95.9752L441.962 95.8805C441.829 95.887 441.696 95.887 441.56 95.887C438.329 95.887 434.047 94.6589 431.712 91.2128C430.577 89.5176 429.759 87.6786 429.263 85.6992C428.906 84.1182 428.705 82.5177 428.656 80.8976C428.442 77.4842 427.969 73.5547 426.097 70.3112C425.163 68.7107 423.96 67.3486 422.487 66.2282C421.011 65.1111 419.383 64.3207 417.596 63.8568C416.587 63.6151 415.565 63.491 414.531 63.4943C412.925 63.4943 411.368 63.7687 409.857 64.3174C408.348 64.8629 406.973 65.6501 405.734 66.679L405.494 66.875L405.228 66.7182C403.525 65.7122 401.735 64.9119 399.85 64.3141C397.151 63.4616 394.388 63.037 391.559 63.0402C387.579 62.9978 383.817 63.8895 380.272 65.7154C378.922 66.4112 377.677 67.2572 376.532 68.2567C375.383 69.2562 374.371 70.3766 373.496 71.6178C372.617 72.8623 371.897 74.1917 371.332 75.606C370.771 77.0237 370.385 78.487 370.171 79.9993C370.083 80.7702 370.054 81.5443 370.083 82.3217C370.083 82.3577 370.1 82.3838 370.126 82.4034L373.733 82.2597L373.655 82.7921C373.178 86.4015 373.103 90.0173 373.428 93.6398C373.596 97.2753 374.32 100.793 375.601 104.197C377.573 109.126 381.796 114.404 387.732 114.434L388.121 114.437L388.293 115.907C388.39 116.73 388.484 117.546 388.588 118.363L388.643 118.794L387.819 118.922C384.777 119.389 381.627 119.875 378.585 120.591L378.54 120.594H378.491L378.442 120.617L378.394 120.63C377.459 120.852 376.593 121.084 375.747 121.332C373.703 121.91 371.741 122.698 369.863 123.691C367.91 124.775 366.185 126.15 364.689 127.813C362.36 130.498 360.265 133.356 358.4 136.384C357.943 137.083 357.485 137.778 357.028 138.468C354.569 142.162 352.117 145.856 349.668 149.554C347.2 153.297 344.728 157.04 342.253 160.784L338.961 165.781C337.793 167.362 337.012 169.116 336.613 171.043C336.295 173.02 336.512 174.93 337.271 176.779C338.04 178.481 339.13 179.944 340.534 181.166C343.129 183.599 345.818 185.879 348.351 188.006C352.435 191.429 356.73 194.908 361.478 198.635C361.543 198.684 361.611 198.736 361.673 198.785L361.78 198.84L361.828 198.889C363.097 200.222 364.579 201.222 366.285 201.891C366.687 202.041 367.099 202.139 367.524 202.188L367.998 202.254L367.897 202.724C366.866 207.699 366.227 212.722 365.974 217.798V217.923L365.935 218.001L365.958 218.076L365.954 218.151C365.63 224.664 365.987 231.138 367.015 237.573C368.588 247.278 371.864 256.842 375.082 265.805C376.318 269.264 377.618 272.69 378.835 275.878L379.023 276.375L378.51 276.476C377.592 276.695 376.752 277.077 375.987 277.629C375.221 278.178 374.589 278.854 374.086 279.654C373.557 280.451 373.068 281.3 372.597 282.123L372.5 282.29C370.301 285.991 368.299 289.799 366.499 293.713C365.552 295.672 364.796 297.704 364.229 299.808C363.564 302.581 363.535 305.361 364.141 308.147C364.848 311.351 367.252 316.888 371.754 317.306C371.897 317.319 372.033 317.325 372.169 317.325C373.817 317.325 375.341 316.372 376.707 314.493C377.862 312.814 378.89 311.057 379.795 309.228L380.317 308.228L381.151 308.454C380.94 315.398 381.128 322.329 381.715 329.251C381.893 331.72 382.117 334.34 382.419 337.495L382.403 337.613L382.442 337.688L382.662 340.04C383.233 346.056 383.823 352.279 384.011 358.43C384.041 359.4 384.06 360.357 384.06 361.314V361.382L384.041 361.448C383.655 362.702 383.249 363.95 382.841 365.201C381.384 369.653 379.882 374.255 379.496 379.021L379.444 379.635C379.23 380.945 379.282 382.245 379.607 383.532C379.98 384.646 380.68 385.479 381.709 386.034C383.204 386.73 384.77 387.167 386.409 387.35C388.841 387.736 391.293 387.928 393.759 387.932C395.75 387.932 397.738 387.801 399.714 387.53C401.443 387.376 403.087 386.922 404.651 386.164C405.182 385.89 405.617 385.505 405.948 385.005C406.6 383.911 406.37 382.493 406.023 381.128C405.403 379.024 404.592 377.002 403.583 375.059C403.019 373.873 402.432 372.648 401.939 371.4C400.609 368.176 399.568 364.858 398.815 361.448L398.802 361.379L402.617 326.383L405.001 304.554C405.095 303.662 405.189 302.764 405.293 301.875C405.416 300.797 405.549 299.713 405.685 298.629C405.877 297.097 406.068 295.558 406.22 294.02L406.259 293.637L406.642 293.621C411.524 293.399 414.839 289.969 416.759 287.128C420.048 282.254 421.67 276.391 422.714 271.831C423.982 266.148 424.797 260.399 425.163 254.585C425.26 253.187 425.325 251.913 425.361 250.688L425.367 250.586L425.374 250.564C425.51 246.726 425.487 242.672 425.303 237.805C425.056 231.452 424.391 224.955 423.804 219.213L423.172 213.098L423.395 212.951C426.318 210.851 428.845 208.349 430.979 205.445L433.901 202.816C435.727 201.173 437.557 199.53 439.386 197.887L440.11 197.237C441.767 195.747 443.425 194.254 445.089 192.765C445.371 192.507 445.659 192.252 445.951 192.001C446.613 191.419 447.297 190.818 447.92 190.194C449.396 188.724 450.382 186.974 450.875 184.945C451.336 182.835 451.261 180.741 450.651 178.67ZM366.178 181.195H364.706L363.236 181.757L362.6 182.241L353.625 172.125L369.467 152.853L369.902 163.665L371.131 179.013L371.459 181.757L366.178 181.195ZM424.316 194.842L422.065 194.395L426.872 160.833L436.266 178.242L424.316 194.842ZM160.29 180.924C160.527 184.138 160.433 187.343 160.005 190.537C159.613 193.281 158.526 195.708 156.745 197.824C155.263 199.516 153.456 200.712 151.322 201.404C150.245 201.757 149.136 201.937 148.004 201.937H148C147.196 201.934 146.405 201.839 145.62 201.653C144.838 201.47 144.085 201.195 143.362 200.836C142.642 200.48 141.967 200.042 141.345 199.53C140.722 199.017 140.164 198.442 139.671 197.802C136.265 193.477 135.542 187.62 135.292 183.002C134.896 175.394 134.491 168.594 134.056 162.211L133.184 162.129L132.762 163.782C130.076 174.195 127.634 184.576 125.506 194.637C123.771 202.802 122.201 211.021 120.741 218.736C119.463 225.566 118.143 232.628 116.654 239.53C115.068 246.912 113.368 253.69 111.455 260.252C111.202 261.147 110.926 262.038 110.654 262.924L110.29 264.106V264.171C108.24 270.753 105.918 277.495 103.349 284.269L103.297 284.41L103.943 286.664C104.812 289.375 105.084 292.145 104.757 294.973C104.351 297.845 103.291 300.441 101.575 302.764C100.378 304.381 98.9442 305.746 97.2737 306.863C95.6065 307.977 93.7998 308.777 91.8537 309.264L91.6201 309.319L91.5325 309.581L91.5196 309.639L91.2406 310.227C90.8935 310.972 90.5497 311.714 90.2092 312.462C86.6639 320.072 83.1024 327.843 79.3236 336.218C75.9049 343.76 72.4083 351.557 68.9279 359.4C65.9859 366.024 63.0569 372.658 60.1345 379.302C58.5873 382.826 57.0466 386.354 55.5091 389.885L53.9003 393.573C53.2159 395.16 51.8179 398.387 51.8179 398.387L51.8114 398.453C51.6978 399.557 51.6297 400.706 51.607 401.961C51.5649 407.804 52.0157 413.605 52.9629 419.371C53.3488 421.974 53.8094 424.574 54.3381 427.096L54.3836 427.318C54.8831 429.702 55.3988 432.172 55.6583 434.628C55.9891 436.529 55.801 438.378 55.0939 440.171C54.5295 441.35 53.6829 442.261 52.5477 442.905C51.2502 443.601 49.8652 443.931 48.3959 443.898C46.826 443.875 45.2982 443.604 43.8126 443.085C41.9346 442.418 40.1766 441.517 38.5385 440.38C36.9005 439.24 35.4409 437.904 34.1597 436.372C31.7562 433.534 30.0338 430.088 28.5774 425.201C26.5891 418.27 25.1035 411.231 24.1175 404.084C23.845 402.725 23.7607 401.353 23.8677 399.968C24.0559 398.384 24.5683 396.917 25.402 395.562C26.4529 394.069 27.7503 392.844 29.2943 391.881C31.6199 390.401 34.0591 389.14 36.6054 388.098L36.8097 388.01L36.8616 387.791C38.0358 382.774 39.21 377.381 40.6599 370.303C41.6265 365.567 42.6612 360.523 43.7802 355.5C43.9716 354.66 44.1565 353.814 44.3414 352.962C45.3826 348.173 46.4627 343.224 48.5807 338.818C49.7614 336.541 51.127 334.386 52.6774 332.347L53.2548 331.541C54.8928 329.362 56.1319 326.977 56.9752 324.381C57.8347 321.173 58.357 317.91 58.5386 314.591C58.6878 312.952 58.837 311.256 59.0738 309.617L59.1484 309.12L51.7822 308.95L51.646 309.084C50.8999 309.839 50.1928 310.632 49.5311 311.465C46.3589 315.408 43.9002 319.942 41.5194 324.325L41.2599 324.809C40.835 325.583 40.4036 326.36 39.9722 327.134C39.2327 328.467 38.4931 329.8 37.7731 331.139C37.4844 331.681 37.1957 332.227 36.9103 332.769C36.1123 334.275 35.2917 335.833 34.4192 337.322C32.5509 340.504 30.4263 343.613 26.8648 343.698H26.7156C22.9174 343.698 20.1538 340.21 19.1418 338.707C17.9384 336.849 17.0367 334.849 16.4334 332.717C15.8301 330.58 15.5544 328.402 15.603 326.184C15.6484 321.568 17.2216 317.325 18.5904 314.144C21.3702 307.843 24.5554 301.761 28.1493 295.895C28.6456 295.058 29.0964 294.307 29.6186 293.585C30.5333 292.311 31.6751 291.295 33.0439 290.538C34.1694 289.937 35.3663 289.662 36.6378 289.711C37.3773 289.718 38.1104 289.773 38.8434 289.871C40.6307 290.1 42.4341 290.489 44.1759 290.868C45.042 291.054 45.9048 291.24 46.7708 291.41L46.9135 291.436L47.0465 291.371C47.8509 290.975 48.6456 290.593 49.45 290.208C53.1899 288.385 56.9265 286.572 60.6599 284.763C62.9077 283.672 65.1231 282.597 67.3288 281.522L67.7472 281.32L67.5266 280.908C65.561 277.247 64.0852 274.418 62.7391 271.74C59.1516 264.638 55.4507 257.044 53.0375 249.169C52.2298 246.513 51.4805 243.642 50.6794 240.134C49.995 237.227 49.5214 234.287 49.2587 231.312C49.0154 228.146 49.1516 224.998 49.6641 221.865C50.1798 218.729 51.0556 215.705 52.2979 212.785C56.1838 203.505 62.7975 195.629 68.1267 189.809L68.2597 189.662L68.2435 189.463C68.104 187.976 68.0683 186.438 68.0359 184.952C68.0197 184.184 68.0034 183.42 67.971 182.662L66.7319 151.896C66.5503 147.529 66.3719 143.158 66.2 138.791L66.1773 138.265C66.1189 136.622 66.0476 134.976 65.9762 133.343L65.9438 132.591L65.308 132.98L65.2723 132.993L65.1685 133.049C58.4121 136.629 51.6524 140.202 44.896 143.769L32.1616 150.508L25.5252 194.019L25.7717 194.173C27.2735 195.126 28.811 196.1 30.2771 197.125L30.4522 197.246C31.7854 198.05 32.9141 199.079 33.8418 200.333C34.7079 201.891 35.2917 203.547 35.5966 205.305C35.8301 206.069 35.8918 206.846 35.7847 207.637C35.6453 208.313 35.3436 208.907 34.8798 209.417C34.5457 209.806 34.1986 210.178 33.8515 210.55L33.4266 211.011H32.9855L32.966 211.478C32.966 211.53 32.9725 211.586 32.9823 211.638C33.0601 212.654 33.1412 213.702 33.2612 214.754C33.5012 215.793 33.3942 216.792 32.9433 217.756C32.6028 218.403 32.0968 218.867 31.4253 219.147C31.1885 219.226 30.9453 219.262 30.6988 219.259C30.222 219.239 29.7516 219.174 29.2878 219.063C29.1062 219.027 28.9278 218.991 28.7526 218.958C25.8139 218.445 23.3942 217.991 21.1399 217.531C19.8651 217.269 18.5807 216.995 17.3059 216.701C16.9978 216.632 16.6832 216.57 16.3653 216.505C15.5057 216.368 14.6721 216.139 13.8612 215.816C13.1346 215.486 12.5962 214.96 12.2459 214.235C12.0448 213.761 11.8567 213.281 11.6783 212.801C10.8544 210.759 10.2835 208.653 9.95916 206.474C9.51803 202.633 9.40451 198.778 9.62183 194.917C9.64129 193.529 9.66399 192.203 9.69319 190.874C9.89429 179.742 10.3743 168.532 11.1236 157.553C11.2955 154.904 11.4901 152.066 11.7367 149.247C11.9053 147.117 12.4178 145.072 13.2709 143.119C14.9543 139.288 18.1298 136.462 21.2015 133.731L22.1843 132.853C29.5084 126.255 37.2411 120.186 45.3793 114.643C49.3268 111.958 53.5143 109.305 57.8315 106.764C60.222 105.369 62.3498 104.174 64.3317 103.112C66.5049 101.874 68.7884 100.907 71.1854 100.208C72.6742 99.8361 74.1858 99.6565 75.72 99.6761C78.117 99.7316 80.4978 99.9766 82.8559 100.411C85.334 100.816 87.8316 101.345 90.2481 101.858C91.938 102.217 93.6831 102.586 95.4151 102.913L95.7622 102.978L95.9017 102.652C97.2834 99.2841 98.4641 95.8446 99.4437 92.3365C100.683 88.002 101.571 83.5989 102.107 79.1207L102.152 78.7712L101.824 78.647C100.79 78.2388 99.8524 77.6639 99.0123 76.9289C98.1722 76.194 97.4813 75.3349 96.9364 74.3583C96.0184 72.7806 95.6292 71.0788 95.7654 69.2529C95.7654 67.5707 96.2617 66.0519 97.2543 64.6963L97.8478 64.1247L97.0369 63.9516C96.6218 62.9912 96.3817 61.9852 96.3136 60.94C96.2455 59.8947 96.3558 58.8658 96.6445 57.8598L96.7839 57.3861L96.3006 57.2947C96.1547 57.2718 96.012 57.2391 95.8692 57.1967C94.6496 56.821 93.4041 56.6251 92.1294 56.612C87.0337 56.612 83.6765 60.0678 80.1215 63.7229C78.4608 65.5292 76.6639 67.182 74.7307 68.6813C72.8916 70.0173 70.8935 71.0331 68.7333 71.7288C66.573 72.4246 64.3576 72.7676 62.0904 72.7545C58.9603 72.748 55.9535 72.1339 53.0667 70.9122C52.4114 70.6738 51.8665 70.2818 51.4319 69.7331C50.9972 69.1876 50.7345 68.567 50.6469 67.8712C50.5529 67.0742 50.6567 66.3066 50.9583 65.5684C51.26 64.827 51.7206 64.2063 52.3401 63.7066C52.9823 63.1938 53.7121 62.9357 54.5295 62.939C55.0907 62.9455 55.6259 63.0566 56.1416 63.2787C58.0715 64.1018 60.0826 64.5232 62.1779 64.5428C63.5143 64.5493 64.8215 64.3566 66.0962 63.9581C67.3742 63.5629 68.5613 62.9814 69.6609 62.2204C70.8254 61.4038 71.8893 60.4761 72.8526 59.4309L73.7089 58.5326L72.4829 58.6796C71.659 58.7874 70.8351 58.8429 70.008 58.8495C67.4488 58.8233 64.9609 58.3824 62.5509 57.5233C60.1377 56.6643 57.9256 55.4394 55.9178 53.8421C55.7037 53.6788 55.5091 53.4959 55.3339 53.2901C55.1555 53.0876 55.0031 52.8687 54.8701 52.6335C54.7403 52.3984 54.6333 52.1501 54.549 51.8953C54.4679 51.6373 54.4127 51.3727 54.3836 51.1049C54.3576 50.837 54.3544 50.5692 54.3803 50.2981C54.4063 50.0302 54.4614 49.7689 54.5392 49.5109C54.6203 49.2528 54.7241 49.0046 54.8539 48.7694C54.9836 48.5309 55.1361 48.3121 55.3112 48.1063C55.6907 47.5968 56.1643 47.195 56.7254 46.901C57.2898 46.607 57.8866 46.4535 58.5224 46.4339C59.4176 46.4437 60.2123 46.7377 60.9032 47.3126C62.1812 48.3611 63.5954 49.1679 65.1426 49.7395C66.6898 50.3111 68.2889 50.6084 69.9366 50.641C71.4027 50.6378 72.8299 50.3961 74.2182 49.9192C75.561 49.4357 76.8455 48.8217 78.0651 48.0769L79.4209 47.2767L77.851 47.244C71.899 47.1264 66.1286 43.7653 62.0158 38.0262C61.7725 37.6996 61.5746 37.3468 61.4254 36.9647C61.273 36.5858 61.1757 36.1905 61.1302 35.7855C61.0881 35.3772 61.0978 34.9722 61.1594 34.5671C61.2243 34.1621 61.3378 33.7734 61.5065 33.401C61.7725 32.7412 62.1812 32.1925 62.7358 31.7482C63.2905 31.3073 63.9133 31.0329 64.6139 30.9218C64.7112 30.9121 64.8117 30.9055 64.909 30.9055C65.4702 30.9316 65.9924 31.0852 66.4789 31.3693C66.9622 31.6535 67.3547 32.0324 67.6531 32.5126C70.4297 36.4028 74.069 38.5423 77.9062 38.5423C78.2986 38.5423 78.6879 38.5195 79.0771 38.477C81.2049 38.1308 83.2451 37.4971 85.201 36.5825C86.5536 35.9848 87.9386 35.4752 89.3561 35.0571C90.7995 34.6586 92.2656 34.4561 93.7609 34.4528C98.662 34.4528 103.381 36.7262 107.41 41.0281L107.588 41.2208L107.845 41.1522C108.454 40.9954 109.071 40.9137 109.7 40.917C110.271 40.917 110.838 40.9791 111.396 41.0966L111.675 41.1554L111.844 40.9235C112.502 40.0743 113.317 39.421 114.29 38.9702C115.263 38.5195 116.284 38.3202 117.355 38.3725C118.733 38.3855 120.067 38.6436 121.348 39.1499L121.546 39.225L121.727 39.1205C122.772 38.6077 123.875 38.3496 125.036 38.3496C125.201 38.3398 125.37 38.3366 125.538 38.3366C126.554 38.33 127.546 38.4737 128.519 38.7644C130.436 39.3459 132.058 40.3944 133.382 41.9067L133.547 42.0994L133.797 42.0537C134.095 41.9949 134.394 41.9688 134.698 41.9688C135.48 42.0014 136.229 42.1713 136.953 42.4751C137.673 42.7788 138.322 43.2002 138.892 43.7359C140.144 44.8726 141.017 46.251 141.513 47.8711L141.581 48.0867L141.792 48.1553C144.355 50.1282 146.08 53.4632 146.609 57.507C146.962 59.5713 146.836 61.6063 146.226 63.6119C145.928 64.4481 145.493 65.2026 144.919 65.8787C144.345 66.5549 143.673 67.1069 142.898 67.5348L142.671 67.6589L142.668 67.9202C142.648 69.5894 142.577 71.2585 142.457 72.8851C141.682 84.471 138.48 92.3299 132.665 96.9225C131.481 97.8828 130.174 98.621 128.743 99.1404C127.313 99.6565 125.834 99.9276 124.316 99.9439L123.553 99.9276V100.385L122.911 105.954L122.671 107.95L122.613 108.773L122.986 108.855C124.384 109.158 125.779 109.462 127.176 109.795C129.09 110.256 130.949 110.756 132.7 111.291L132.762 111.311H132.827L132.885 111.35L132.95 111.36C137.066 112.568 140.981 114.251 144.698 116.4C147.303 117.798 149.359 119.774 150.868 122.328C152.162 125.023 152.957 127.862 153.255 130.841C154.017 135.998 154.913 141.221 155.782 146.274C157.17 154.355 158.604 162.714 159.509 171.001C159.891 174.486 160.148 177.733 160.29 180.924ZM317.284 163.423C316.72 161.675 307.469 133.166 307.469 133.166C306.399 129.89 305.335 126.611 304.274 123.328C304.073 122.707 303.878 122.08 303.68 121.453C303.022 119.105 302.169 116.831 301.121 114.633C300.466 113.392 299.639 112.288 298.637 111.311C297.634 110.338 296.509 109.544 295.257 108.926C292.603 107.61 289.882 106.451 287.096 105.448C281.468 103.305 275.782 101.476 270.437 99.7871H270.424L270.356 99.7643C270.151 99.6957 269.237 99.4049 269.237 99.4049C267.975 99.013 266.71 98.6177 265.445 98.2127L265.107 98.1049L265.409 94.8385C265.409 94.7895 265.412 94.7438 265.419 94.6948V94.391L265.701 94.28C267.521 93.594 269.087 92.5292 270.408 91.092C271.578 89.7266 272.457 88.1914 273.041 86.4864C274.323 82.6614 275.189 78.7418 275.636 74.7306C276.214 70.6509 276.622 66.3295 276.853 61.8872C276.966 59.7706 277.021 58.0394 277.021 56.4454V56.0469C277.024 55.4492 277.028 54.8285 276.973 54.2341L276.924 53.7082L277.446 53.7474C277.66 53.7637 277.874 53.7735 278.088 53.7735C278.539 53.8127 278.99 53.7833 279.431 53.682C279.876 53.5841 280.294 53.4175 280.69 53.1888C281.082 52.9602 281.433 52.676 281.737 52.3363C282.046 51.9999 282.295 51.621 282.487 51.2061C283.46 48.9262 283.084 46.0975 282.594 43.6379L282.493 43.6314C281.698 44.056 280.862 44.363 279.986 44.5558L278.958 44.7811L279.516 43.8829C280.109 42.9291 280.544 41.9034 280.823 40.8125L280.738 40.7308C278.546 41.2436 276.321 41.4886 274.07 41.4658C271.069 41.4037 268.085 41.1685 265.111 40.7569C262.166 40.3454 259.204 40.1135 256.23 40.0514C255.146 40.0514 254.144 40.0971 253.165 40.1919C251.358 40.316 249.606 40.6883 247.903 41.309C246.201 41.9296 244.614 42.7723 243.145 43.8371C240.271 46.0158 238.432 48.9131 238.104 51.7875C238.036 52.5878 238.027 53.3913 238.072 54.1916C238.085 54.5934 238.098 54.9886 238.098 55.3806V62.3478L237.907 62.4817C235.205 64.3631 236.019 69.3182 237.164 72C237.874 73.5319 238.831 74.8874 240.034 76.0666L240.151 76.1777L240.167 76.341C240.333 79.4375 240.31 82.5308 240.099 85.6241C239.84 88.7337 239.451 92.8362 238.724 96.9846L238.669 97.2883L238.367 97.3439C236.116 97.7587 233.865 98.2029 231.614 98.6439L231.513 98.6569L231.468 98.6798C231.468 98.6798 230.797 98.8105 230.495 98.866C230.073 98.9411 229.648 99.0195 229.22 99.1077C224.342 99.9962 219.541 101.195 214.815 102.714C211.604 103.704 208.724 105.304 206.178 107.512C203.726 109.946 201.62 112.657 199.866 115.642C196.521 120.836 193.177 126.029 189.84 131.226L186.645 136.191C182.224 143.057 177.806 149.926 173.391 156.792C171.397 159.706 170.047 162.9 169.347 166.369C169.087 167.862 168.951 169.368 168.941 170.88L168.588 189.443C168.468 195.424 168.357 201.414 168.244 207.46C168.234 207.535 168.237 207.607 168.228 207.764C167.439 211.419 166.988 215.113 166.875 218.85C166.891 220.937 167.167 222.985 167.709 224.998L167.803 225.383C167.871 225.723 167.968 226.056 168.088 226.383C168.429 227.085 168.967 227.565 169.697 227.83C170.534 228.094 171.38 228.306 172.243 228.466C172.59 228.542 172.937 228.613 173.275 228.692C174.481 228.953 175.678 229.208 176.881 229.45C179.434 229.956 182.01 230.41 184.413 230.828L184.517 230.844C184.874 230.913 185.234 230.955 185.597 230.969C185.951 230.978 186.281 230.893 186.59 230.717C187.131 230.374 187.524 229.904 187.777 229.312C188.263 228.012 188.484 226.67 188.435 225.278C188.448 224.86 188.464 224.442 188.49 224.037L188.529 223.531L188.549 223.152L188.912 223.11L189.353 222.678C189.791 222.273 190.206 221.842 190.592 221.388C191.666 220.062 191.445 218.465 191.212 216.77C191.101 215.002 190.537 213.395 189.522 211.948C189.197 211.566 188.847 211.21 188.494 210.854C188.215 210.57 187.936 210.286 187.67 209.992L187.31 209.597C186.784 209.015 186.243 208.411 185.659 207.865L185.487 207.705L191.747 167.101L213.956 142.681L213.927 143.87C213.729 152.004 214.137 160.673 214.53 169.057L214.546 169.404C214.945 178.118 215.396 187.993 215.393 199.432C214.332 206.435 213.197 213.742 211.929 221.77C211.549 224.155 211.163 226.533 210.767 228.914C209.551 236.338 208.293 244.018 207.43 251.622C206.356 261.081 205.302 271.22 204.874 281.271C204.754 283.482 204.783 285.687 204.961 287.895C205.357 291.521 206.071 295.081 207.102 298.579C207.741 300.856 208.461 303.156 209.159 305.38C209.59 306.752 210.018 308.121 210.433 309.496C211.244 312.197 211.993 314.957 212.714 317.629C212.973 318.589 213.236 319.55 213.499 320.51C217.271 334.262 221.225 348.931 224.481 363.796C224.884 365.632 225.276 367.461 225.659 369.297L225.681 369.395L225.656 369.496C224.689 373.262 223.453 376.937 221.951 380.523C220.359 384.459 218.653 388.222 216.878 391.704C216.544 392.364 216.184 393.027 215.818 393.697C214.115 396.819 212.357 400.053 212.876 403.6C213.586 408.556 218.844 409.601 220.44 409.803C221.254 409.908 222.068 409.957 222.889 409.95C224.066 409.95 225.253 409.865 226.259 409.784C227.92 409.666 229.554 409.402 231.166 408.983C233.557 408.415 235.643 407.282 237.423 405.58C238.977 403.927 240.158 402.036 240.962 399.909C241.653 398.283 242.25 396.584 242.824 394.944C243.139 394.046 243.456 393.148 243.784 392.26C244.682 389.983 245.36 387.638 245.818 385.23C246.152 383.199 246.162 381.167 245.847 379.132C245.263 375.32 244.245 371.626 242.791 368.056C242.522 367.383 242.224 366.71 241.903 366.057L241.835 365.972L239.749 329.195L238.773 311.792C238.523 307.471 238.276 303.149 238.04 298.828L237.79 294.604L238.604 295.385C239.642 296.355 240.813 297.123 242.114 297.685L242.389 297.809L242.376 298.112C242.152 301.732 242.347 305.331 242.963 308.905C243.797 313.383 245.383 316.443 247.806 318.253C249.311 319.357 250.998 319.916 252.86 319.929C253.038 319.929 253.216 319.922 253.398 319.912C254.387 319.827 255.338 319.586 256.249 319.184C257.161 318.782 257.981 318.24 258.714 317.564C261.085 315.483 262.824 312.191 263.881 307.774C265.176 302.414 264.705 296.705 264.293 291.665L264.284 291.527L264.348 291.41C264.916 290.4 265.409 289.355 265.834 288.277C266.914 285.586 267.845 283.192 268.679 280.957C269.133 279.732 269.564 278.508 270.022 277.257V277.181L270.047 277.11C271.588 272.628 272.899 268.169 273.94 263.864C275.649 256.659 276.83 249.368 277.485 241.989C278.056 235.669 278.312 229.097 278.27 221.895V221.774C278.247 218.661 278.173 215.607 278.049 212.693C277.998 211.436 277.939 210.181 277.868 208.927L277.845 208.551L278.77 208.336C279.564 208.15 280.359 207.963 281.147 207.748L281.601 207.63C282.37 207.47 283.109 207.219 283.817 206.876C284.293 206.569 284.722 206.203 285.095 205.775L285.367 205.494C286.058 204.782 286.703 204.034 287.303 203.243C288.52 201.633 289.584 199.925 290.495 198.125L290.537 198.04L291.18 197.527C294.426 194.917 297.673 192.314 300.923 189.714C305.396 186.124 309.882 182.525 314.388 178.919C314.748 178.638 315.104 178.354 315.451 178.053C316.369 177.236 317.119 176.286 317.702 175.198C318.286 174.114 318.669 172.964 318.848 171.742C319.217 169.191 318.439 166.872 317.615 164.419L317.284 163.423ZM282.389 185.118C282.078 185.063 280.456 184.573 280.145 184.527L287.303 151.109C288.546 153.313 292.295 159.304 292.295 159.304C293.314 161.11 297.145 168.277 297.145 168.277L282.389 185.118Z" fill="#F4F4F4"/>
<path d="M425.108 250.139L425.092 250.567L402.484 250.547V250.929L402.05 251.05L401.415 251.151L401.35 250.704C400.709 246.137 400.197 242.322 399.74 238.697C399.604 237.619 399.477 236.541 399.351 235.46L399.127 233.591L407.513 229.835L407.494 229.711L399.118 233.454L399.092 233.48L398.969 233.523C399.351 236.56 399.733 239.556 400.064 242.081L400.122 242.525L368.964 246.578L368.867 246.196C368.504 244.772 368.199 243.482 367.937 242.244C366.258 234.457 365.594 226.581 365.944 218.618L365.97 218.063L366.501 218.206C369.204 218.935 379.398 221.306 397.099 221.306H398.619C406.823 221.293 414.976 220.663 423.086 219.415L423.546 219.337L423.598 219.807C424.107 224.687 424.628 229.894 424.907 235.159C425.199 240.689 425.263 245.589 425.108 250.139ZM382.741 340.921C383.38 347.513 384.038 354.33 384.073 361.033L384.076 361.343L384.362 361.447C386.555 362.186 388.81 362.519 391.121 362.44H391.286C393.681 362.515 396.017 362.182 398.295 361.441L398.567 361.343L398.59 361.055C398.661 360.079 398.784 359.086 398.901 358.122C398.959 357.649 399.017 357.172 399.069 356.698L400.135 346.899C400.449 343.989 400.77 341.075 401.091 338.165L401.146 337.671H382.43L382.741 340.921ZM298.812 111.614C296.745 109.521 293.991 108.377 291.331 107.277L290.994 107.136C288.408 106.058 285.621 104.997 282.478 103.889C278.846 102.606 275.207 101.427 270.855 100.051L270.421 99.9143L270.298 100.355C267.985 108.573 258.918 111.526 251.861 111.556H251.761C243.472 111.556 234.036 107.727 231.632 99.1793L231.519 98.7841L230.731 98.9409C229.176 99.2512 227.617 99.5615 226.075 99.8881C224.092 100.31 221.983 100.764 219.906 101.325C216.672 102.093 213.561 103.204 210.57 104.657C207.405 106.382 204.793 108.734 202.742 111.712C201.093 113.956 199.583 116.354 198.121 118.67C197.603 119.493 197.084 120.313 196.56 121.129L186.016 137.54L204.456 153.026L214.028 142.488L214.031 142.322C214.18 137.102 214.679 131.915 215.528 126.764L215.603 126.323L215.59 126.833C213.402 140.783 213.982 153.261 214.718 169.057L214.734 169.41C215.133 178.121 215.583 187.996 215.586 199.346L215.564 199.415V199.487L215.509 199.915C215 203.22 214.485 206.523 213.963 209.828L213.101 215.348L213.412 215.486C215.684 216.485 227.984 221.548 247.26 223.008C249.991 223.217 252.947 223.322 256.051 223.322C263.319 223.289 270.554 222.806 277.764 221.868L278.149 221.816L278.146 221.424C278.107 217.351 277.974 213.209 277.754 209.11L277.725 208.571L276.898 208.78C276.396 208.936 275.881 209.028 275.356 209.054C275 209.064 274.669 208.976 274.368 208.786C273.888 208.407 273.496 207.95 273.198 207.414L272.978 207.084C272.463 206.336 271.996 205.592 271.591 204.867C269.877 201.806 268.775 198.536 268.283 195.054L268.215 194.574C268.085 193.911 268.043 193.248 268.095 192.575C268.237 191.994 268.522 191.497 268.95 191.079L269.174 190.805L269.316 190.622L269.329 190.508C269.482 189.204 269.728 187.921 270.071 186.656C270.502 185.157 271.069 184.458 271.97 184.318C272.667 184.21 273.37 184.161 274.076 184.167C274.98 184.167 275.897 184.23 276.782 184.288L277.125 184.311C277.877 184.357 278.664 184.435 279.607 184.563L280.012 184.615L287.177 150.618L287.002 150.324L281.798 141.074C281.817 141.038 281.846 141.018 281.888 141.022C281.898 141.022 281.908 141.022 281.918 141.025C282.394 141.884 282.877 142.74 283.36 143.599L291.992 158.928V159.588L312.13 148.044L302.863 119.457C301.904 116.521 300.87 113.708 298.812 111.614ZM238.258 62.1908L238.777 62.096C238.887 62.0764 238.997 62.0699 239.107 62.0699C240.617 62.0699 242.992 63.5561 244.097 65.7021L244.117 65.774L244.146 65.8361C244.253 66.2672 244.415 66.6755 244.632 67.0577C244.852 67.4431 245.118 67.7894 245.436 68.0964C245.75 68.4034 246.103 68.6615 246.492 68.8705C246.881 69.0763 247.289 69.2266 247.717 69.318C247.976 69.3801 248.238 69.4193 248.501 69.4291C248.711 69.4454 248.896 69.3866 249.058 69.2527C249.266 69.0632 249.279 68.766 249.272 68.3022C249.272 68.2466 249.272 68.2009 249.272 68.1748L249.324 67.4497C249.389 66.4534 249.447 65.4474 249.505 64.4511L249.518 64.2127C249.684 59.8945 250.163 55.6123 250.96 51.366C253.267 51.0981 255.584 50.974 257.911 50.9903C264.323 50.9707 270.619 51.8331 276.795 53.5773L276.834 53.5904H276.889C277.281 53.6459 277.673 53.6753 278.071 53.6786C280.304 53.6786 281.882 52.6529 282.507 50.7976C283.084 48.6516 283.113 46.4958 282.598 44.3334L282.494 43.7716L281.979 44.0068C280.965 44.4739 279.902 44.7613 278.794 44.8756C278.771 44.8659 278.742 44.8267 278.726 44.8267H278.719C279.468 43.8467 280.045 42.7688 280.447 41.5995L280.699 40.8613L279.941 41.0148C277.997 41.3969 276.03 41.5799 274.047 41.5635C271.419 41.5276 268.801 41.3349 266.196 40.9886L265.528 40.9103C262.457 40.4922 259.372 40.2537 256.274 40.1917C250.377 40.1917 246.038 41.5374 242.623 44.4282C241.314 45.5126 240.254 46.8028 239.441 48.2988C239.023 49.073 238.706 49.8896 238.485 50.7421C238.288 51.6338 238.213 52.5353 238.258 53.4466V62.1908ZM68.55 189.753L123.907 202.547L123.822 202.972C123.002 207.111 122.16 211.465 121.318 215.91L120.559 219.944C119.509 225.526 118.424 231.301 117.241 236.956C115.683 244.452 114.056 251.19 112.277 257.557C111.72 259.53 111.137 261.519 110.492 263.642L110.372 264.037L96.643 260.918C96.643 260.918 94.9483 255.218 94.6178 254.117C94.229 252.824 93.8369 251.53 93.4481 250.237L59.3736 264.165L59.1953 263.782C57.2317 259.552 55.6408 255.692 54.3317 251.974C53.2268 248.848 52.3811 245.595 51.6131 242.535C50.8614 239.67 50.2846 236.773 49.8828 233.839C49.4519 230.759 49.3838 227.669 49.6787 224.573C49.9703 221.473 50.6151 218.455 51.6131 215.508C54.079 208.352 58.4015 201.421 65.6305 193.036C66.4373 192.095 67.3349 191.086 68.375 189.946L68.55 189.753ZM93.3703 249.982C92.3626 246.644 91.3484 243.312 90.331 239.98C89.576 237.495 88.8145 235.012 88.0466 232.536L87.9429 232.174C87.917 232.167 87.8878 232.16 87.8619 232.16C87.8392 232.157 87.823 232.164 87.8068 232.177C88.3382 233.882 88.8631 235.58 89.3751 237.272C90.655 241.437 91.9219 245.605 93.1759 249.779L93.3703 249.982Z" fill="#FFC329"/>
<mask id="mask0_2743_12410" style="mask-type:luminance" maskUnits="userSpaceOnUse" x="9" y="30" width="443" height="415">
<path d="M9 30H451.995V444.476H9V30Z" fill="white"/>
</mask>
<g mask="url(#mask0_2743_12410)">
<path d="M451.285 178.463C449.983 173.201 448.559 167.975 447.001 162.782C443.935 152.444 440.346 142.292 436.231 132.33C435.884 131.23 435.416 130.186 434.832 129.193C434.245 128.204 433.557 127.29 432.765 126.455C431.973 125.622 431.1 124.888 430.143 124.254C429.186 123.618 428.17 123.102 427.093 122.701C422.932 120.847 418.529 119.6 414.229 118.17C413.291 117.866 412.363 117.54 411.438 117.207C410.403 114.449 409.527 111.642 408.806 108.782C408.696 108.368 408.615 107.953 408.514 107.525C409.15 104.754 410.166 102.126 411.558 99.6488C412.762 97.5891 413.765 95.4348 414.56 93.1824C414.855 95.5621 415.469 97.8568 416.393 100.067C417.649 103.239 419.564 105.942 422.137 108.175C423.555 109.366 425.123 110.316 426.833 111.021C427.021 111.07 427.187 111.028 427.326 110.891C431.759 106.615 436.195 102.335 440.634 98.0592C441.261 97.4586 441.884 96.8514 442.51 96.2541C442.659 96.0909 442.692 95.9081 442.607 95.7024C442.52 95.5 442.367 95.3956 442.147 95.3923C438.519 95.5033 434.388 94.0442 432.272 90.9203C431.165 89.2719 430.37 87.4799 429.883 85.5507C429.533 83.997 429.335 82.4269 429.289 80.8372C429.059 77.1552 428.543 73.3034 426.671 70.062C426.418 69.6148 426.145 69.1872 425.846 68.7727C425.548 68.3581 425.227 67.9632 424.886 67.5845C424.542 67.2059 424.182 66.8468 423.802 66.5073C423.419 66.1711 423.023 65.8545 422.608 65.5574C422.192 65.2637 421.761 64.9927 421.316 64.7446C420.872 64.4998 420.414 64.2779 419.944 64.0787C419.476 63.8829 418.996 63.7132 418.509 63.5695C418.022 63.4259 417.526 63.3084 417.026 63.2203C416.526 63.1289 416.023 63.0701 415.514 63.0342C415.008 63.0016 414.502 62.995 413.992 63.0179C413.486 63.0407 412.98 63.093 412.477 63.1713C411.974 63.2496 411.477 63.3541 410.987 63.4879C410.497 63.6185 410.014 63.7784 409.54 63.9678C409.069 64.1538 408.605 64.366 408.154 64.601C407.706 64.8393 407.268 65.1004 406.846 65.3877C406.428 65.6717 406.022 65.9785 405.633 66.3115C403.903 65.2865 402.079 64.4737 400.161 63.8666C393.756 61.8395 386.237 62.1039 380.233 65.2963C374.791 68.1851 370.612 73.6984 369.894 79.9134C369.804 80.7099 369.774 81.5064 369.807 82.3061C369.807 82.4432 369.859 82.564 369.956 82.6619C370.053 82.7598 370.17 82.8088 370.31 82.812C371.335 82.7729 372.364 82.7304 373.383 82.6913C372.906 86.3276 372.828 89.9737 373.149 93.6296C373.328 97.3051 374.061 100.866 375.356 104.313C377.472 109.595 381.875 114.795 387.901 114.824C388.041 116.009 388.174 117.187 388.323 118.363C385.088 118.859 381.846 119.345 378.653 120.096C378.585 120.093 378.52 120.106 378.461 120.135C377.563 120.347 376.677 120.582 375.791 120.847C373.714 121.434 371.725 122.231 369.816 123.236C367.821 124.346 366.059 125.749 364.527 127.444C361.554 130.678 359.247 134.511 356.817 138.147C354.36 141.839 351.904 145.531 349.453 149.229C346.984 152.97 344.511 156.707 342.038 160.448C340.938 162.113 339.841 163.784 338.741 165.446C337.537 167.078 336.729 168.889 336.324 170.88C335.993 172.934 336.22 174.925 337.009 176.851C337.8 178.613 338.926 180.128 340.383 181.391C342.915 183.764 345.563 186.013 348.224 188.243C352.546 191.863 356.93 195.408 361.373 198.878C361.454 198.936 361.532 198.998 361.603 199.06C361.629 199.067 361.652 199.077 361.675 199.09C362.986 200.467 364.524 201.499 366.289 202.191C366.724 202.354 367.168 202.462 367.629 202.517C366.591 207.511 365.945 212.555 365.695 217.65C365.685 217.67 365.676 217.679 365.663 217.702C365.637 217.803 365.64 217.905 365.676 218.006C365.348 224.544 365.705 231.043 366.743 237.506C368.314 247.188 371.527 256.605 374.833 265.8C376.041 269.176 377.313 272.531 378.591 275.874C377.618 276.102 376.722 276.504 375.908 277.088C375.09 277.672 374.418 278.387 373.886 279.239C373.311 280.101 372.799 281.005 372.283 281.896C370.079 285.611 368.071 289.427 366.26 293.35C365.299 295.335 364.533 297.391 363.962 299.523C363.278 302.363 363.248 305.206 363.871 308.059C364.738 311.973 367.386 317.14 371.88 317.558C374.197 317.77 375.94 316.34 377.232 314.568C378.595 312.547 379.811 310.445 380.879 308.251C380.671 315.208 380.86 322.151 381.444 329.084C381.645 331.829 381.885 334.577 382.148 337.332C382.148 337.355 382.138 337.375 382.138 337.404C382.135 337.476 382.148 337.541 382.177 337.607C382.823 344.471 383.527 351.333 383.738 358.227C383.77 359.189 383.79 360.139 383.79 361.093C381.995 366.922 379.721 372.618 379.224 378.752C379.104 380.263 378.854 381.987 379.357 383.446C379.555 384.033 379.857 384.565 380.256 385.039C380.655 385.515 381.129 385.897 381.674 386.191C383.212 386.912 384.825 387.363 386.509 387.549C390.981 388.267 395.463 388.329 399.951 387.732C401.735 387.572 403.436 387.098 405.049 386.315C405.649 386.002 406.136 385.564 406.509 384.996C407.265 383.73 406.973 382.127 406.632 380.779C405.743 377.342 403.828 374.293 402.53 371.006C401.213 367.807 400.178 364.517 399.428 361.135C399.84 357.355 400.252 353.572 400.664 349.792C401.521 341.945 402.378 334.094 403.235 326.234C403.981 319.451 404.724 312.671 405.461 305.888C405.613 304.511 405.753 303.123 405.915 301.743C406.207 299.138 406.58 296.513 406.843 293.889C411.315 293.687 414.852 290.837 417.312 287.207C420.404 282.627 422.105 277.121 423.335 271.771C424.604 266.068 425.425 260.3 425.794 254.467C425.885 253.168 425.954 251.862 425.996 250.553C426.005 250.53 426.015 250.508 426.015 250.481C426.015 250.462 426.005 250.452 426.005 250.433C426.158 246.176 426.096 241.906 425.934 237.65C425.694 231.435 425.068 225.243 424.435 219.05V219.037C424.354 218.28 424.273 217.51 424.191 216.749C424.071 215.561 423.951 214.386 423.828 213.201C426.775 211.096 429.319 208.582 431.467 205.657C434.267 203.144 437.071 200.627 439.878 198.107C441.773 196.403 443.678 194.69 445.583 192.989C446.527 192.137 447.527 191.305 448.432 190.404C449.967 188.876 450.989 187.058 451.505 184.949C451.979 182.769 451.905 180.605 451.285 178.463ZM385.662 119.792C385.776 119.779 385.896 119.76 386.006 119.74C387.003 119.587 387.992 119.436 388.989 119.283C389.002 119.283 389.018 119.28 389.027 119.273C389.135 119.267 389.222 119.224 389.29 119.146C389.362 119.064 389.394 118.973 389.391 118.869C389.391 118.839 389.401 118.806 389.401 118.787C389.404 118.728 389.391 118.669 389.371 118.614C389.362 118.594 389.362 118.565 389.352 118.536C389.352 118.493 389.342 118.454 389.342 118.412C389.333 118.385 389.329 118.359 389.333 118.33C389.29 118.017 389.251 117.693 389.209 117.38C389.128 116.668 389.04 115.96 388.959 115.258C388.937 115.098 388.927 114.945 388.907 114.795C390.64 114.602 392.315 114.188 393.934 113.548C395.794 112.875 397.513 111.945 399.094 110.76C399.607 110.375 399.104 109.494 398.591 109.889C395.959 111.844 393.032 113.101 389.806 113.659C388.44 113.897 387.084 113.858 385.734 113.538C384.387 113.221 383.154 112.65 382.038 111.824C376.686 107.992 374.781 100.847 374.227 94.622C373.795 90.6266 373.85 86.641 374.399 82.6619C376.313 82.5803 378.228 82.5085 380.133 82.4367C385.312 82.2441 390.485 82.0482 395.648 81.8491C396.715 81.8099 397.783 81.7675 398.854 81.7283C400.08 86.7976 400.012 92.0367 399.912 97.217C399.912 97.3541 399.964 97.4749 400.061 97.5728C400.158 97.6707 400.275 97.7197 400.415 97.723C401.541 97.7589 402.65 97.6283 403.738 97.3378C404.727 97.0342 404.727 95.9407 404.896 95.0561C405.305 92.8691 405.597 90.6657 405.775 88.4493C406.35 87.222 407.901 85.5279 409.381 85.8347C410.75 86.1154 411.185 88.0315 411.305 89.2099C411.503 90.7278 411.24 92.1607 410.51 93.5056C410.053 94.351 409.459 95.0789 408.719 95.6861C407.982 96.2965 407.158 96.747 406.249 97.0342C406.227 97.0342 406.217 97.0538 406.197 97.0538C406.09 97.0766 406.006 97.1354 405.944 97.2235C405.883 97.3149 405.86 97.4129 405.876 97.5206C406.184 100.925 406.726 104.291 407.499 107.617C407.499 107.646 407.508 107.672 407.518 107.698C407.609 108.074 407.677 108.449 407.778 108.825C408.527 111.854 409.459 114.827 410.568 117.742C410.601 117.817 410.643 117.883 410.702 117.935C410.76 118.01 410.835 118.066 410.922 118.098C412.363 118.637 413.833 119.113 415.297 119.587C414.145 122.926 412.636 126.092 410.773 129.085C409.147 131.488 407.086 133.417 404.585 134.873C401.696 136.466 398.607 137.217 395.316 137.125C392.263 137.053 389.04 136.182 386.853 133.933C383.154 130.12 384.475 124.362 385.662 119.792ZM378.945 186.653C379.441 187.544 379.656 188.501 379.587 189.522C379.665 190.466 379.594 191.396 379.377 192.32C379.257 192.679 379.049 192.976 378.754 193.211C378.458 193.443 378.121 193.577 377.744 193.606V193.586C378.033 191.549 378.15 189.499 378.098 187.443C378.108 187.391 378.108 187.342 378.098 187.29C378.088 187.068 378.088 186.836 378.079 186.601C378.066 186.278 378.046 185.942 378.027 185.609C378.377 185.915 378.685 186.265 378.945 186.653ZM367.104 201.401C365.254 200.797 363.667 199.772 362.35 198.329C362.294 198.274 362.229 198.235 362.158 198.208C361.039 197.337 359.922 196.456 358.803 195.551C356.333 193.606 353.883 191.624 351.449 189.614C348.688 187.342 345.946 185.041 343.265 182.658C342.12 181.636 340.938 180.611 339.88 179.485C339.527 179.106 339.202 178.705 338.91 178.274C338.615 177.846 338.358 177.396 338.138 176.926C337.914 176.456 337.729 175.973 337.583 175.473C337.437 174.974 337.33 174.465 337.262 173.949C337.193 173.433 337.168 172.914 337.181 172.395C337.193 171.873 337.249 171.357 337.343 170.848C337.437 170.335 337.57 169.833 337.742 169.343C337.914 168.85 338.125 168.377 338.371 167.92C339.257 166.278 340.416 164.747 341.445 163.187C343.81 159.596 346.186 156.005 348.568 152.412C351.005 148.71 353.448 145.021 355.901 141.343C358.157 137.954 360.344 134.501 362.742 131.224C364.189 129.154 365.89 127.32 367.84 125.72C369.524 124.463 371.351 123.471 373.321 122.74C374.798 122.185 376.297 121.715 377.825 121.333C374.632 128.047 372.254 135.046 370.693 142.325C370.079 145.518 369.683 148.739 369.502 151.984L369.473 152.017C364.011 158.32 358.702 164.747 353.542 171.295L352.244 169.865L350.703 168.165C350.258 167.675 349.554 168.396 349.986 168.873C353.623 172.888 357.258 176.893 360.889 180.895C361.331 181.381 361.775 181.878 362.22 182.364C361.188 183.65 360.6 185.116 360.464 186.764C360.256 188.804 360.24 190.844 360.415 192.888C360.428 193.035 360.493 193.155 360.607 193.25C360.909 193.485 361.464 193.374 361.421 192.888C361.272 191.275 361.249 189.666 361.353 188.05C361.366 186.457 361.765 184.966 362.551 183.581C362.999 182.88 363.583 182.322 364.303 181.907C365.273 181.538 366.263 181.463 367.276 181.675C368.746 181.793 370.199 182.005 371.64 182.315C371.692 182.335 371.744 182.344 371.799 182.344C372.315 182.455 372.818 182.586 373.321 182.72C374.249 182.893 375.135 183.19 375.982 183.611C376.313 183.843 376.57 184.136 376.751 184.499C376.936 184.861 377.021 185.243 377.008 185.648C377.04 186.023 377.06 186.389 377.069 186.764C373.483 185.866 369.842 185.36 366.146 185.243C366.01 185.246 365.896 185.298 365.799 185.396C365.705 185.494 365.656 185.612 365.656 185.749C365.656 185.889 365.705 186.007 365.799 186.105C365.896 186.203 366.01 186.255 366.146 186.258C369.855 186.372 373.506 186.888 377.099 187.809C377.121 189.01 377.079 190.208 376.978 191.406C373.574 191.164 370.167 190.929 366.773 190.688C366.117 190.635 366.127 191.651 366.773 191.7C370.138 191.935 373.513 192.176 376.878 192.411C376.742 193.668 376.534 194.915 376.255 196.152H367.496C367.363 196.155 367.25 196.207 367.156 196.305C367.061 196.403 367.016 196.521 367.016 196.658C367.016 196.792 367.061 196.909 367.156 197.007C367.25 197.105 367.363 197.157 367.496 197.164H376.002C375.963 197.356 375.911 197.539 375.859 197.732C375.755 198.701 375.349 199.517 374.642 200.183C373.925 200.565 373.165 200.817 372.364 200.934C370.712 201.352 368.798 201.877 367.104 201.401ZM369.602 165.315C369.956 170.626 370.582 175.927 371.296 181.208C370.54 181.068 369.794 180.944 369.041 180.843C367.905 180.683 366.769 180.591 365.624 180.572C364.65 180.595 363.794 180.918 363.044 181.545L362.934 181.656C360.033 178.453 357.131 175.248 354.227 172.046C359.156 165.792 364.215 159.652 369.411 153.626C369.265 157.527 369.33 161.421 369.602 165.315ZM399.921 347.37C399.587 350.389 399.266 353.412 398.932 356.431C398.773 357.881 398.562 359.34 398.448 360.799C396.215 361.517 393.924 361.843 391.578 361.771C389.261 361.856 386.999 361.536 384.796 360.809C384.757 353.167 383.92 345.526 383.196 337.91H400.96C400.606 341.063 400.259 344.217 399.921 347.37ZM406.136 289.185C406.035 292.874 405.552 296.533 405.1 300.182C404.919 301.583 404.766 302.98 404.617 304.37C403.929 310.674 403.244 316.973 402.56 323.264C402.057 327.804 401.56 332.351 401.07 336.898H383.105C382.985 335.671 382.872 334.444 382.771 333.219C381.875 322.555 381.262 311.757 382.388 301.087C382.657 298.465 383.057 295.867 383.589 293.288C383.839 292.074 384.134 290.857 384.455 289.662C384.556 289.384 384.624 289.1 384.666 288.81C384.608 288.503 384.504 288.212 384.355 287.938C384.053 287.168 383.751 286.398 383.446 285.627C382.229 282.526 381.022 279.415 379.831 276.301C379.85 276.125 379.795 275.978 379.659 275.864C378.883 273.827 378.108 271.8 377.342 269.753C374.571 262.282 371.851 254.679 369.816 246.937L400.061 243.003C401.602 254.761 403.445 266.489 405.12 278.227C405.766 281.851 406.106 285.503 406.136 289.185ZM424.808 235.045C425.068 240 425.178 244.998 425.009 249.976L402.793 249.956C402.654 249.956 402.534 250.005 402.436 250.106C402.339 250.204 402.287 250.322 402.287 250.462C402.287 250.602 402.336 250.723 402.433 250.821C402.534 250.922 402.654 250.971 402.793 250.968L424.977 250.991C424.957 251.324 424.957 251.66 424.938 251.993C424.675 257.575 424.023 263.111 422.975 268.598C421.904 274.082 420.434 279.657 417.724 284.573C415.628 288.395 412.473 292.084 407.95 292.773C407.615 292.828 407.281 292.861 406.944 292.874C407.265 289.796 407.246 286.724 406.882 283.649C405.393 272.58 403.66 261.55 402.096 250.495C401.534 246.499 400.995 242.5 400.486 238.502C400.285 236.909 400.103 235.319 399.912 233.726L408.011 230.11C408.138 230.051 408.229 229.959 408.277 229.829C408.329 229.698 408.326 229.568 408.271 229.44C408.216 229.313 408.122 229.222 407.995 229.169C407.865 229.117 407.736 229.12 407.609 229.176L399.165 232.946L399.155 232.956C399.055 232.982 398.977 233.038 398.922 233.126C398.867 233.217 398.85 233.312 398.873 233.413V233.433C399.194 236.292 399.558 239.151 399.931 241.998L369.554 245.941C369.219 244.635 368.908 243.326 368.626 242.008C366.954 234.262 366.292 226.431 366.643 218.512C369.21 219.201 379.506 221.623 397.403 221.623H398.922C407.161 221.61 415.352 220.98 423.497 219.729C424.032 224.828 424.535 229.927 424.808 235.045ZM448.948 188.223C447.955 189.493 446.829 190.632 445.573 191.641C443.841 193.191 442.104 194.752 440.371 196.302C437.23 199.129 434.014 201.887 430.922 204.786C430.873 204.838 430.811 204.887 430.75 204.939C427.576 208.993 423.961 212.754 419.003 214.438C418.6 214.578 418.188 214.732 417.773 214.833C417.396 214.885 417.026 214.84 416.673 214.696C416.316 214.552 416.02 214.33 415.78 214.03C415.757 214.01 415.728 213.991 415.709 213.971L420.443 211.507C420.57 211.445 420.654 211.344 420.696 211.21C420.739 211.076 420.729 210.945 420.664 210.821C420.599 210.697 420.502 210.612 420.365 210.57C420.232 210.528 420.106 210.541 419.979 210.606L414.943 213.221C414.005 212.32 413.067 211.415 412.123 210.514L417.088 207.684C417.211 207.616 417.289 207.515 417.328 207.381C417.364 207.247 417.348 207.12 417.279 206.996C417.211 206.875 417.111 206.797 416.978 206.757C416.845 206.721 416.715 206.735 416.595 206.803L411.367 209.783C410.5 208.931 409.634 208.07 408.797 207.188L413.694 204.097C413.81 204.022 413.885 203.918 413.914 203.78C413.947 203.643 413.927 203.516 413.856 203.399C413.778 203.281 413.674 203.206 413.538 203.177C413.401 203.147 413.275 203.17 413.158 203.245L408.102 206.428C407.959 206.278 407.81 206.114 407.667 205.951C407.336 205.657 407.086 205.302 406.924 204.887C406.882 204.528 406.921 204.175 407.044 203.833C407.164 203.49 407.356 203.193 407.619 202.942C408.151 202.383 408.745 201.904 409.4 201.502C410.056 201.045 410.711 200.581 411.357 200.115C412.736 199.129 414.115 198.127 415.589 197.285C415.702 197.213 415.774 197.108 415.806 196.975C415.839 196.844 415.819 196.717 415.751 196.599C415.68 196.482 415.579 196.407 415.449 196.371C415.319 196.331 415.193 196.348 415.073 196.413C413.911 197.095 412.785 197.836 411.698 198.633C411.805 197.924 412.045 197.265 412.425 196.658C413.044 195.979 413.788 195.499 414.661 195.218C415.501 194.823 416.371 194.51 417.27 194.285C418.048 194.099 418.834 194.082 419.619 194.246C420.606 194.438 421.579 194.686 422.556 194.931C423.111 195.153 423.688 195.271 424.286 195.284C425.022 195.196 425.35 194.455 425.743 193.909C426.797 192.444 427.852 190.978 428.907 189.513C431.019 186.585 433.132 183.657 435.244 180.732L435.436 180.467C435.929 179.788 436.412 179.11 436.906 178.431C436.971 178.352 437.003 178.264 437 178.16C437 178.058 436.964 177.97 436.896 177.895C435.355 174.964 433.816 172.036 432.281 169.105C429.825 164.424 427.365 159.74 424.909 155.056C424.344 153.972 423.77 152.898 423.205 151.824C422.903 151.246 422.037 151.752 422.338 152.33C423.76 155.046 425.181 157.758 426.609 160.471L426.236 163.187C423.598 161.888 421.602 159.537 420.314 156.143C416.585 146.327 419.697 130.394 423.445 122.325C423.471 122.332 423.494 122.338 423.516 122.345C425.61 123.06 427.609 123.984 429.513 125.113C431.525 126.379 433.073 128.074 434.157 130.202C435.273 132.5 436.263 134.85 437.13 137.256C438.087 139.711 439.022 142.162 439.92 144.636C441.734 149.604 443.435 154.631 445.009 159.678C446.579 164.737 448.03 169.833 449.36 174.964C449.682 176.221 449.996 177.468 450.308 178.724C450.623 179.847 450.801 180.986 450.84 182.152C450.84 184.375 450.207 186.398 448.948 188.223ZM422.952 193.971L427.417 161.999L434.339 175.199C434.852 176.172 435.364 177.154 435.88 178.137C432.473 182.86 429.062 187.593 425.642 192.33C425.168 192.979 424.694 193.635 424.234 194.285C423.809 194.193 423.387 194.082 422.952 193.971ZM379.046 99.6815C380.295 101.137 381.84 102.13 383.68 102.658C383.809 102.701 383.907 102.782 383.972 102.903C384.037 103.021 384.05 103.148 384.014 103.279C383.975 103.412 383.9 103.51 383.78 103.579C383.663 103.648 383.54 103.667 383.407 103.634C381.882 103.197 380.522 102.453 379.328 101.402C378.711 100.958 378.231 100.4 377.887 99.7207C377.644 98.9993 378.28 98.4444 378.721 97.9678C380.032 96.7274 381.145 95.3336 382.067 93.7798C382.881 92.164 383.196 90.4536 383.014 88.6517C382.953 88.0021 383.962 88.0021 384.02 88.6517C384.134 90.1924 383.926 91.6874 383.404 93.14C382.881 94.5926 382.086 95.8722 381.019 96.982C380.486 97.5924 379.912 98.1702 379.357 98.7675C379.055 99.0907 378.711 99.2735 379.046 99.6815ZM314.572 153.11C312.385 146.399 310.204 139.681 308.023 132.957C306.956 129.683 305.891 126.406 304.83 123.125C304.003 120.122 302.941 117.201 301.647 114.367C300.968 113.091 300.112 111.948 299.08 110.943C298.045 109.938 296.88 109.115 295.591 108.479C292.921 107.153 290.182 105.988 287.378 104.983C281.868 102.884 276.244 101.069 270.623 99.2963H270.614C270.25 99.1723 269.877 99.0613 269.504 98.9405C268.235 98.5455 266.966 98.1506 265.697 97.7425C265.788 96.76 265.879 95.7775 265.967 94.795C265.967 94.7427 265.98 94.7036 265.98 94.6513C267.862 93.9365 269.488 92.8364 270.854 91.348C272.064 89.9411 272.973 88.3612 273.577 86.6051C274.875 82.7533 275.747 78.8069 276.195 74.7625C276.799 70.4962 277.192 66.1972 277.415 61.8917C277.516 60.067 277.584 58.2521 277.584 56.4274C277.584 55.6963 277.607 54.9259 277.536 54.1751C279.823 54.3481 282.03 53.6888 283.017 51.3679C284.055 48.9459 283.649 46.0375 283.146 43.5338C283.127 43.4587 283.088 43.3934 283.036 43.3347C282.984 43.2759 282.922 43.2335 282.851 43.2041C282.78 43.1715 282.705 43.1617 282.627 43.1649C282.552 43.1682 282.478 43.1911 282.413 43.2302C281.654 43.6317 280.852 43.9255 280.015 44.1116C280.631 43.116 281.086 42.0519 281.375 40.9192C281.397 40.831 281.397 40.7429 281.371 40.6548C281.349 40.5699 281.306 40.4916 281.245 40.4295C281.18 40.3643 281.105 40.3186 281.021 40.2957C280.933 40.2696 280.846 40.2663 280.758 40.2892C271.629 42.4991 262.423 38.8497 253.233 39.7408C251.387 39.8746 249.592 40.2565 247.853 40.8898C246.11 41.5263 244.491 42.3848 242.985 43.4718C240.386 45.4401 238.15 48.3779 237.767 51.7237C237.699 52.9347 237.695 54.149 237.757 55.3633V62.0941C234.846 64.1212 235.612 69.2297 236.861 72.1479C237.595 73.7343 238.585 75.1379 239.834 76.3554C239.993 79.4205 239.97 82.4856 239.763 85.5507C239.48 88.9259 239.088 92.8887 238.393 96.8612C236.125 97.279 233.86 97.723 231.591 98.1702C231.552 98.1669 231.517 98.1702 231.481 98.18C231.462 98.18 231.439 98.1995 231.419 98.2093C230.696 98.353 229.969 98.4737 229.232 98.6272C224.332 99.5183 219.51 100.723 214.766 102.244C211.498 103.262 208.564 104.888 205.968 107.13C203.489 109.592 201.36 112.327 199.582 115.34C195.168 122.182 190.758 129.03 186.351 135.878C181.928 142.74 177.509 149.604 173.095 156.466C171.067 159.43 169.698 162.674 168.984 166.196C168.721 167.711 168.581 169.239 168.568 170.779C168.448 176.962 168.331 183.144 168.218 189.33C168.098 195.31 167.981 201.296 167.874 207.289C167.867 207.381 167.864 207.472 167.864 207.564C167.072 211.242 166.621 214.964 166.504 218.724C166.517 220.846 166.8 222.932 167.351 224.978C167.452 225.465 167.582 225.941 167.744 226.408C168.137 227.244 168.763 227.815 169.626 228.122C170.824 228.474 172.031 228.765 173.254 228.993C174.465 229.258 175.662 229.509 176.872 229.754C179.381 230.25 181.899 230.697 184.417 231.131C185.261 231.392 186.085 231.34 186.887 230.971C187.51 230.58 187.967 230.048 188.256 229.369C189.032 227.694 188.892 225.739 189.012 223.934C189.022 223.774 189.042 223.601 189.055 223.428C189.152 223.415 189.236 223.369 189.304 223.297C189.905 222.742 190.476 222.158 191.018 221.541C192.206 220.072 191.975 218.339 191.732 216.586C191.612 214.732 191.015 213.048 189.94 211.536C189.356 210.847 188.681 210.24 188.075 209.571C187.409 208.84 186.767 208.102 186.04 207.423L192.248 167.211L213.578 143.784C213.386 151.68 213.747 159.769 214.181 168.984C214.584 177.784 215.048 187.747 215.048 199.253C213.919 206.692 212.763 214.131 211.582 221.574C209.998 231.516 208.217 241.42 207.078 251.425C205.958 261.27 204.943 271.183 204.517 281.087C204.397 283.313 204.427 285.539 204.608 287.765C205.011 291.415 205.728 294.999 206.766 298.521C207.792 302.18 209.002 305.797 210.099 309.436C211.199 313.086 212.156 316.768 213.162 320.437C217.102 334.78 220.96 349.142 224.147 363.668C224.55 365.502 224.942 367.327 225.325 369.162C224.361 372.906 223.135 376.558 221.635 380.12C220.107 383.903 218.432 387.621 216.58 391.26C214.665 395.021 211.874 398.944 212.53 403.413C213.114 407.48 216.729 409.517 220.477 409.994C222.45 410.196 224.423 410.186 226.393 409.974C228.08 409.853 229.742 409.582 231.38 409.161C233.843 408.57 235.998 407.399 237.838 405.646C239.432 403.948 240.645 402.013 241.476 399.835C242.544 397.322 243.358 394.717 244.306 392.171C245.218 389.87 245.902 387.5 246.363 385.068C246.701 382.992 246.71 380.913 246.392 378.834C245.805 374.985 244.776 371.264 243.309 367.663C243.027 366.962 242.716 366.263 242.381 365.584C242.375 365.578 242.372 365.571 242.372 365.564C242.271 363.779 242.17 361.997 242.07 360.221C241.807 355.671 241.551 351.124 241.294 346.577C240.96 340.708 240.629 334.838 240.298 328.969C239.973 323.172 239.649 317.375 239.318 311.578C239.068 307.259 238.821 302.941 238.585 298.622C238.523 297.587 238.461 296.553 238.403 295.531C239.477 296.536 240.691 297.329 242.041 297.91C241.817 301.563 242.015 305.193 242.634 308.8C243.3 312.368 244.65 316.177 247.651 318.419C248.502 319.046 249.433 319.507 250.442 319.807C251.451 320.107 252.483 320.225 253.535 320.163C254.576 320.074 255.573 319.82 256.527 319.402C257.484 318.981 258.347 318.416 259.116 317.708C261.998 315.185 263.549 311.352 264.425 307.693C265.707 302.402 265.295 296.837 264.85 291.454C265.425 290.429 265.928 289.368 266.363 288.271C267.339 285.839 268.297 283.398 269.212 280.943C269.666 279.716 270.101 278.492 270.523 277.255C270.552 277.206 270.572 277.157 270.585 277.101V277.091C272.084 272.734 273.405 268.304 274.492 263.813C276.208 256.592 277.393 249.284 278.048 241.887C278.652 235.195 278.876 228.477 278.834 221.766C278.834 221.734 278.843 221.704 278.843 221.665C278.834 221.665 278.834 221.655 278.834 221.645C278.814 218.613 278.739 215.581 278.613 212.551C278.564 211.295 278.503 210.038 278.431 208.781C279.418 208.546 280.407 208.324 281.384 208.06C282.342 207.864 283.266 207.56 284.156 207.149C284.772 206.738 285.324 206.251 285.807 205.69C286.512 204.965 287.17 204.202 287.78 203.399C289.01 201.766 290.091 200.04 291.016 198.218C294.452 195.46 297.892 192.708 301.332 189.956C305.807 186.369 310.285 182.778 314.773 179.191C315.146 178.897 315.519 178.604 315.883 178.29C316.84 177.438 317.626 176.449 318.236 175.317C318.846 174.187 319.245 172.983 319.43 171.71C319.861 168.7 318.765 166.004 317.846 163.196C316.759 159.831 315.665 156.469 314.572 153.11ZM238.977 50.8424C239.188 50.0231 239.493 49.2429 239.892 48.4987C240.681 47.0526 241.71 45.8057 242.975 44.7611C249.465 39.2871 258.484 40.5209 266.249 41.4251C270.864 41.9735 275.569 42.3783 280.154 41.4447C279.768 42.5709 279.213 43.6024 278.493 44.5457C278.447 44.6273 278.428 44.7122 278.428 44.8003C278.428 44.8917 278.454 44.9766 278.499 45.0549C278.545 45.1333 278.606 45.1953 278.684 45.2377C278.762 45.2834 278.847 45.3063 278.934 45.3063C280.102 45.1953 281.222 44.895 282.29 44.4053C282.799 46.4879 282.776 48.5672 282.221 50.64C281.443 52.9282 279.259 53.4472 277.072 53.1338H277.052C277.033 53.1338 277.01 53.1208 276.99 53.1208C268.459 50.7249 259.788 49.9904 250.978 50.9109H250.965C250.864 50.9174 250.776 50.9534 250.699 51.0219C250.624 51.0905 250.578 51.1753 250.562 51.2765V51.2863C249.793 55.5657 249.326 59.8777 249.154 64.2224C249.092 65.2767 249.031 66.3408 248.962 67.3952C248.94 67.6367 248.93 67.8718 248.91 68.1133C248.901 68.2471 248.94 68.8021 248.839 68.8935C248.69 69.0371 248.064 68.8935 247.882 68.8543C247.489 68.7662 247.116 68.6258 246.762 68.4332C246.405 68.2406 246.084 68.0023 245.798 67.7183C245.51 67.4344 245.266 67.1145 245.068 66.7619C244.87 66.4094 244.724 66.034 244.63 65.6423C244.627 65.6227 244.62 65.6097 244.607 65.5999C244.598 65.5803 244.598 65.5607 244.588 65.5411C243.267 62.9656 240.408 61.3433 238.766 61.6371V53.852C238.705 52.8401 238.773 51.8347 238.977 50.8424ZM238.211 97.9253C238.461 97.8764 238.714 97.8339 238.968 97.785C238.977 97.785 238.987 97.7752 238.997 97.7752C239.006 97.7752 239.016 97.7654 239.026 97.7654C239.217 97.7099 239.318 97.5859 239.328 97.39C240.064 93.2543 240.467 89.1283 240.769 85.6291C240.992 82.4334 241.005 79.2377 240.811 76.0421C240.788 75.9213 240.736 75.8201 240.648 75.7385C239.448 74.583 238.494 73.2544 237.786 71.7431C236.829 69.5234 235.742 64.1408 238.744 62.6719C239.5 62.3063 242.352 63.39 243.692 66.0046C243.884 66.713 244.202 67.356 244.646 67.9338C245.091 68.5148 245.63 68.9849 246.262 69.3504C247.067 69.7781 249.021 70.457 249.667 69.4843C250.069 68.8739 249.939 67.7902 249.988 67.0916C250.05 66.096 250.111 65.1037 250.17 64.1114C250.29 62.1137 250.432 60.1258 250.614 58.1411C250.796 56.0325 251.085 53.9434 251.481 51.8641C259.95 51.048 268.29 51.7727 276.497 54.0348C276.517 54.2078 276.526 54.3808 276.536 54.5603C276.559 55.0369 276.569 55.5233 276.578 56.0129C276.588 57.472 276.536 58.9311 276.478 60.4C276.315 64.4248 275.984 68.4495 275.501 72.4417C275.073 76.5023 274.316 80.501 273.233 84.4344C272.833 85.9163 272.272 87.333 271.539 88.6811C270.338 90.7604 268.66 92.3174 266.502 93.3554C263.799 94.5501 260.973 95.0333 258.029 94.8048C254.664 94.6415 251.279 93.9136 248.528 91.8539C248.005 91.4687 247.499 92.3501 248.015 92.7352C250.614 94.5273 253.483 95.5229 256.627 95.7155C259.389 96.0386 262.108 95.8297 264.789 95.0887C264.841 95.0789 264.889 95.0463 264.941 95.0365C264.86 95.8983 264.779 96.76 264.698 97.6316C264.688 97.7948 264.669 97.9482 264.659 98.1081C264.649 98.2583 264.701 98.3791 264.821 98.4737C264.841 98.4933 264.87 98.5031 264.889 98.526C264.922 98.5423 264.958 98.5586 264.99 98.5749C265 98.5847 265.013 98.5945 265.022 98.5945C266.645 99.1037 268.255 99.6097 269.877 100.116C267.661 108.041 258.896 110.901 251.935 110.933H251.844C243.692 110.933 234.613 107.251 232.247 99.0515C234.23 98.6663 236.219 98.2909 238.211 97.9253ZM191.401 166.643C191.333 166.719 191.294 166.807 191.281 166.905L185.014 207.524V207.534C184.979 207.662 185.005 207.776 185.083 207.877C185.092 207.9 185.115 207.91 185.125 207.929C185.135 207.939 185.135 207.949 185.154 207.959C186.452 209.147 187.614 210.524 188.811 211.801C189.934 213.139 190.564 214.68 190.697 216.423C190.956 218.074 191.281 219.811 190.031 221.136C189.739 221.44 189.447 221.737 189.142 222.031C189.275 220.477 189.324 218.923 189.285 217.366C189.282 217.229 189.23 217.111 189.132 217.017C189.035 216.919 188.918 216.873 188.782 216.873C188.646 216.873 188.526 216.919 188.428 217.017C188.331 217.111 188.282 217.229 188.276 217.366C188.308 219.109 188.247 220.849 188.097 222.586C188.036 223.519 187.964 224.462 187.916 225.406C187.909 226.13 187.86 226.855 187.773 227.573C187.666 228.291 187.406 228.947 186.987 229.542C186.767 229.848 186.478 230.061 186.121 230.185C185.764 230.309 185.404 230.315 185.044 230.211C184.651 230.149 184.249 230.067 183.853 230.008L183.924 223.206C183.927 223.062 183.879 222.941 183.778 222.84C183.681 222.739 183.561 222.69 183.421 222.687C183.282 222.687 183.161 222.736 183.064 222.834C182.964 222.935 182.915 223.056 182.918 223.196L182.847 229.826C181.487 229.591 180.118 229.349 178.755 229.085L178.514 221.988C178.511 221.851 178.463 221.734 178.362 221.636C178.265 221.541 178.148 221.492 178.012 221.492H178.002C177.859 221.499 177.742 221.551 177.648 221.655C177.551 221.756 177.505 221.877 177.505 222.018L177.749 228.892C176.298 228.608 174.867 228.304 173.426 227.978C173.426 227.968 173.436 227.958 173.436 227.949L172.923 220.953C172.91 220.816 172.852 220.702 172.748 220.611C172.644 220.519 172.521 220.48 172.384 220.487C172.245 220.496 172.131 220.555 172.041 220.66C171.946 220.764 171.907 220.888 171.914 221.025L172.407 227.746C172.037 227.665 171.664 227.583 171.291 227.492C170.343 227.27 169.276 227.097 168.74 226.166C168.552 225.726 168.422 225.269 168.348 224.795C167.851 222.99 167.575 221.146 167.523 219.272C167.579 215.381 168.02 211.536 168.851 207.737C168.864 207.717 168.851 207.707 168.851 207.684C168.864 207.662 168.87 207.632 168.873 207.606C168.974 202.556 169.071 197.513 169.165 192.47C169.295 185.648 169.425 178.819 169.558 171.984C169.568 171.439 169.577 170.88 169.587 170.332C169.629 167.391 170.201 164.554 171.301 161.829C172.034 160.128 172.92 158.512 173.962 156.981C175.058 155.281 176.146 153.587 177.246 151.883C179.43 148.488 181.617 145.093 183.804 141.695C184.55 140.54 185.284 139.384 186.03 138.238L203.742 153.081L191.401 166.643ZM239.049 324.563C239.38 330.543 239.714 336.523 240.055 342.503C240.347 347.5 240.632 352.498 240.911 357.495C241.051 360.11 241.2 362.725 241.356 365.343C241.356 365.411 241.366 365.483 241.366 365.545C238.091 370.327 231.26 370.157 226.273 368.767C223.248 354.323 219.572 340.051 215.681 325.819C213.698 318.54 211.731 311.251 209.476 304.044C207.38 297.346 205.335 290.514 205.455 283.417C205.527 279.301 205.848 275.185 206.182 271.082C206.523 266.783 206.925 262.494 207.36 258.208L243.683 263.649C243.582 264.136 243.481 264.635 243.381 265.121C242.907 267.351 242.443 269.59 241.979 271.82V271.829C241.252 275.296 240.528 278.763 239.801 282.229C239.049 285.849 238.289 289.466 237.527 293.076C237.42 293.468 237.351 293.866 237.325 294.274C237.335 295.022 237.416 295.792 237.455 296.543C237.666 300.313 237.887 304.086 238.101 307.857C238.413 313.422 238.727 318.991 239.049 324.563ZM243.894 262.657C244.831 258.188 245.763 253.716 246.694 249.248C247.158 247.038 247.622 244.815 248.083 242.608L240.207 234.689C240.107 234.595 240.055 234.474 240.055 234.337C240.055 234.196 240.107 234.076 240.207 233.981C240.304 233.88 240.421 233.827 240.564 233.827C240.704 233.827 240.824 233.88 240.921 233.981L248.719 241.805L258.321 236.403C258.441 236.338 258.571 236.321 258.704 236.361C258.837 236.396 258.938 236.475 259.006 236.596C259.074 236.72 259.087 236.85 259.051 236.984C259.012 237.121 258.935 237.222 258.815 237.294L249.082 242.768L249.021 243.042C248.336 246.307 247.661 249.571 246.976 252.835C245.798 258.44 244.89 262.814 244.89 262.814L243.894 262.657ZM269.283 277.77C268.417 280.254 267.479 282.719 266.522 285.17C265.305 288.271 264.185 291.385 261.849 293.847C260.444 295.325 258.815 296.477 256.958 297.31C255.102 298.139 253.158 298.583 251.127 298.642C248.261 298.746 245.5 298.25 242.845 297.153C242.8 297.124 242.748 297.101 242.693 297.091C241.781 296.696 240.918 296.21 240.107 295.632C239.461 295.155 238.883 294.607 238.37 293.99C238.968 291.323 239.49 288.637 240.045 285.96C240.983 281.472 241.921 276.984 242.865 272.499L269.413 277.405C269.364 277.529 269.335 277.65 269.283 277.77ZM247.369 222.435C228.054 220.976 215.694 215.865 213.617 214.954C214.402 209.927 215.197 204.897 215.976 199.87C215.995 199.72 216.015 199.566 216.034 199.413C216.044 199.393 216.034 199.384 216.034 199.374C216.047 199.341 216.054 199.308 216.054 199.273C216.054 187.727 215.593 177.752 215.187 168.945C214.454 153.162 213.88 140.703 216.054 126.836C216.073 126.699 216.044 126.572 215.96 126.461C215.879 126.347 215.768 126.282 215.632 126.259C215.492 126.236 215.369 126.268 215.256 126.35C215.145 126.435 215.077 126.546 215.058 126.683C214.253 131.837 213.773 137.021 213.617 142.234L204.427 152.33L186.585 137.377C190.031 132.027 193.481 126.67 196.93 121.31C198.959 118.17 200.893 114.935 203.109 111.926C205.124 109.004 207.688 106.696 210.797 105.002C213.763 103.566 216.849 102.469 220.055 101.709C222.09 101.16 224.147 100.713 226.211 100.279C227.882 99.923 229.576 99.5901 231.26 99.2539C233.727 108.012 243.28 111.945 251.844 111.945H251.945C259.249 111.916 268.456 108.864 270.834 100.429C274.725 101.656 278.613 102.903 282.462 104.261C285.324 105.267 288.163 106.331 290.964 107.496C293.654 108.609 296.558 109.755 298.651 111.873C300.709 113.962 301.705 116.799 302.604 119.538C303.662 122.782 304.713 126.024 305.765 129.268C307.77 135.431 309.772 141.594 311.771 147.757L292.577 158.738V158.725C289.828 153.851 287.076 148.974 284.324 144.098C283.691 142.975 283.055 141.858 282.432 140.732C282.358 140.618 282.254 140.543 282.121 140.513C281.991 140.481 281.865 140.5 281.748 140.569C281.628 140.638 281.553 140.739 281.514 140.869C281.478 141.003 281.491 141.13 281.556 141.251L286.755 150.466L286.846 150.616L279.791 184.016C278.957 183.905 278.12 183.813 277.273 183.764C275.52 183.575 273.765 183.578 272.012 183.774C270.653 183.986 270.098 185.243 269.757 186.428C269.403 187.714 269.153 189.02 269.001 190.342C268.972 190.384 268.939 190.413 268.92 190.443C268.349 190.988 267.962 191.644 267.761 192.411C267.716 193.283 267.778 194.148 267.953 195.006C268.456 198.538 269.579 201.858 271.318 204.969C271.753 205.739 272.227 206.49 272.73 207.221C273.119 207.926 273.625 208.536 274.251 209.046C275.228 209.672 276.387 209.277 277.435 209.013C277.656 213.11 277.785 217.203 277.828 221.299C275.137 221.665 260.849 223.457 247.369 222.435ZM295.007 165.103C295.569 166.105 296.143 167.11 296.708 168.112C295.75 169.206 294.793 170.303 293.836 171.396C290.694 174.974 287.556 178.555 284.425 182.132C283.763 182.903 283.088 183.663 282.423 184.424C281.878 184.322 281.332 184.241 280.79 184.159L287.589 151.945C289.039 154.52 290.496 157.092 291.954 159.668V159.678C292.969 161.483 293.988 163.291 295.007 165.103ZM316.83 175.695C316.168 176.639 315.38 177.455 314.462 178.147C310.392 181.411 306.316 184.675 302.241 187.939C298.311 191.083 294.384 194.223 290.461 197.366C290.432 197.389 290.406 197.412 290.38 197.438C290.337 197.461 290.299 197.49 290.269 197.529H290.26C290.182 197.588 290.13 197.667 290.11 197.761C288.666 200.728 286.761 203.356 284.396 205.648C283.789 206.212 283.085 206.581 282.28 206.764C281.193 207.087 280.083 207.351 278.986 207.616C277.99 207.848 276.99 208.07 275.994 208.305C275.696 208.403 275.397 208.403 275.098 208.305C274.797 208.21 274.557 208.034 274.372 207.776C273.969 207.26 273.586 206.712 273.233 206.157C276.166 205.233 279.106 204.472 281.816 202.961C281.933 202.889 282.007 202.788 282.04 202.654C282.072 202.52 282.053 202.396 281.985 202.279C281.92 202.158 281.819 202.08 281.689 202.044C281.559 202.005 281.433 202.018 281.313 202.08C278.593 203.601 275.621 204.332 272.678 205.262C272.009 204.153 271.419 203 270.906 201.806C274.099 200.751 277.263 199.759 280.125 197.915C280.667 197.559 280.164 196.687 279.609 197.043C278.188 197.96 276.689 198.721 275.108 199.322C273.606 199.899 272.055 200.366 270.533 200.865C270.108 199.772 269.76 198.659 269.484 197.52C269.536 197.497 269.582 197.471 269.627 197.438C272.126 195.45 274.865 193.818 277.545 192.085C278.09 191.732 277.584 190.857 277.042 191.213C274.391 192.917 271.72 194.549 269.231 196.485C269.082 195.734 268.952 194.983 268.861 194.236C268.819 193.808 268.761 193.374 268.748 192.937C268.748 192.411 268.93 191.957 269.293 191.579C270.361 190.081 271.659 188.827 273.194 187.818C273.307 187.743 273.379 187.642 273.411 187.508C273.443 187.374 273.424 187.25 273.356 187.133C273.284 187.015 273.184 186.937 273.054 186.901C272.924 186.865 272.798 186.882 272.678 186.947C271.763 187.502 270.945 188.174 270.221 188.964C270.341 188.295 270.471 187.636 270.643 186.986C270.74 186.48 270.906 185.997 271.136 185.537C271.344 185.233 271.613 185.008 271.947 184.861C272.282 184.714 272.629 184.665 272.992 184.717C276.182 184.597 279.346 184.845 282.481 185.455H282.491C282.679 185.524 282.838 185.481 282.965 185.325C284.951 183.062 286.93 180.807 288.9 178.555C291.82 175.228 294.738 171.902 297.645 168.579C297.694 168.54 297.733 168.491 297.766 168.436C297.947 168.233 298.129 168.021 298.311 167.819C299.034 166.986 299.761 166.167 300.475 165.344C300.91 164.848 300.193 164.13 299.771 164.626C298.986 165.517 298.2 166.418 297.415 167.313C295.961 164.747 294.52 162.181 293.07 159.619L312.093 148.743C312.112 148.811 312.135 148.873 312.154 148.945C313.222 152.229 314.29 155.509 315.357 158.787C315.893 160.419 316.415 162.061 316.951 163.702C317.509 165.194 317.979 166.715 318.359 168.266C318.606 169.555 318.596 170.845 318.33 172.134C318.067 173.42 317.564 174.608 316.83 175.695ZM259.509 79.6294C261.842 80.1942 264.156 80.1223 266.454 79.4173C267.187 79.1725 268.086 78.6959 268.225 77.857C268.397 76.832 267.408 76.0617 266.804 75.3925C264.234 72.5331 264.549 68.7923 265 65.2245C265.091 64.588 266.1 64.588 266.009 65.2245C265.671 67.0981 265.59 68.9849 265.766 70.8814C266.002 72.458 266.674 73.8159 267.781 74.9551C268.761 75.9898 269.757 77.3282 268.939 78.7775C268.164 80.1778 266.35 80.5826 264.912 80.8046C263.007 81.1081 261.115 81.0461 259.236 80.612C258.613 80.4618 258.876 79.4891 259.509 79.6294ZM131.441 80.9678C132.168 80.9221 132.856 80.7393 133.508 80.4161C134.16 80.093 134.725 79.6556 135.199 79.1039C135.793 78.5066 136.082 77.7852 136.065 76.943C135.942 76.1955 135.656 75.5165 135.212 74.9061C134.394 73.607 133.197 72.7158 132.259 71.5407C132.038 71.2992 131.853 71.0348 131.71 70.741C131.564 70.4472 131.464 70.1371 131.405 69.8172C131.347 69.4941 131.337 69.1709 131.373 68.8445C131.409 68.5181 131.49 68.2047 131.613 67.9011C131.886 67.3136 132.762 67.8293 132.479 68.4169C131.665 70.1502 133.781 71.6125 134.767 72.6865C135.906 73.78 136.666 75.0987 137.045 76.6394C137.506 79.6588 134.021 81.8099 131.441 81.9797C130.799 82.0221 130.808 81.0069 131.441 80.9678ZM160.017 170.861C158.544 157.386 155.734 144.107 153.758 130.708C153.453 127.679 152.641 124.793 151.321 122.051C149.766 119.433 147.654 117.403 144.983 115.96C141.235 113.793 137.285 112.099 133.135 110.881C133.057 110.832 132.973 110.806 132.882 110.809C131.048 110.251 129.199 109.752 127.333 109.311C125.931 108.975 124.529 108.671 123.13 108.368C123.14 108.224 123.15 108.074 123.16 107.95C123.241 107.284 123.322 106.615 123.403 105.955C123.572 104.444 123.753 102.923 123.925 101.415C123.968 101.059 124.007 100.713 124.045 100.36V100.338C125.671 100.357 127.252 100.099 128.79 99.564C130.325 99.0319 131.727 98.2518 132.992 97.2268C140.219 91.5308 142.374 81.6173 142.958 72.8888C143.078 71.247 143.149 69.5724 143.169 67.9011C143.99 67.4474 144.707 66.8599 145.314 66.1417C145.924 65.4236 146.388 64.6239 146.706 63.736C147.336 61.6665 147.472 59.5643 147.108 57.4295C146.625 53.7312 145.074 50.0622 142.072 47.7512C142.046 47.7348 142.02 47.7251 141.991 47.7185C141.472 46.0211 140.553 44.5784 139.239 43.3902C138.512 42.6884 137.668 42.1792 136.708 41.8658C135.751 41.5524 134.771 41.4676 133.771 41.6079C132.389 40.0346 130.698 38.9443 128.702 38.3339C127.514 37.9781 126.301 37.8345 125.064 37.8965C123.831 37.8998 122.663 38.1772 121.56 38.7289C118.152 37.4101 113.84 37.482 111.532 40.6548C110.276 40.3773 109.024 40.3969 107.775 40.7135C102.404 34.9881 95.865 32.8174 89.2774 34.6225C87.8561 35.0403 86.4704 35.5463 85.114 36.1436C83.1831 37.0511 81.1647 37.6811 79.0619 38.0303C74.9503 38.4841 71.0302 36.4374 68.0383 32.2494C67.6716 31.6553 67.1783 31.2016 66.5585 30.8817C65.9419 30.5651 65.2864 30.428 64.592 30.477C63.8164 30.5945 63.1187 30.898 62.5021 31.3877C61.8823 31.874 61.4247 32.4845 61.1262 33.2124C60.9412 33.6237 60.8147 34.048 60.7433 34.4919C60.6719 34.9326 60.6621 35.3798 60.7108 35.8237C60.7595 36.2709 60.8666 36.7018 61.0321 37.1196C61.1943 37.5375 61.4118 37.9226 61.6811 38.2817C65.9127 44.1801 71.8058 47.5586 77.8709 47.6794C76.6767 48.4105 75.4209 49.0112 74.1033 49.4845C69.7711 50.9631 65.1858 50.072 61.1976 46.9482C60.9672 46.7621 60.7238 46.6022 60.4609 46.4683C60.1981 46.3345 59.9255 46.2268 59.6432 46.1484C59.3609 46.0701 59.072 46.0179 58.7767 46.0015C58.4847 45.982 58.1926 45.9918 57.9006 46.0309C57.6085 46.0734 57.3262 46.1419 57.0503 46.2431C56.7713 46.341 56.5084 46.4683 56.2553 46.6217C56.0054 46.7752 55.7718 46.9547 55.5576 47.1571C55.3434 47.3562 55.1487 47.5782 54.98 47.8197C54.7853 48.0482 54.6165 48.293 54.4737 48.5542C54.3309 48.8186 54.2141 49.0928 54.1265 49.3767C54.0389 49.664 53.9805 49.9545 53.9513 50.2548C53.9221 50.5519 53.9253 50.8489 53.9578 51.1492C53.9902 51.4463 54.0519 51.7368 54.1427 52.0208C54.2336 52.308 54.3537 52.5789 54.4997 52.8401C54.6457 53.1012 54.8177 53.3428 55.0157 53.568C55.2104 53.7932 55.4278 53.9956 55.6647 54.1751C57.7091 55.8072 59.9644 57.0607 62.4242 57.9355C64.8873 58.807 67.4217 59.2542 70.034 59.2738C70.8777 59.2673 71.7214 59.2118 72.5619 59.1041C71.6144 60.1225 70.5759 61.03 69.4369 61.8297C65.6499 64.4248 60.9964 64.7806 56.3299 62.8449C55.9892 62.6849 55.6322 62.5772 55.259 62.5152C54.8891 62.4564 54.5159 62.4499 54.1427 62.4923C53.7695 62.5348 53.4061 62.6262 53.0589 62.7698C52.7084 62.9102 52.3871 63.0995 52.0886 63.3312C51.4071 63.8796 50.8976 64.5586 50.5666 65.3714C50.2356 66.1842 50.122 67.0296 50.2259 67.9011C50.2713 68.283 50.3687 68.6486 50.5179 69.0012C50.664 69.3537 50.8587 69.6801 51.0956 69.9804C51.3325 70.2807 51.6051 70.5419 51.9133 70.7638C52.2249 70.9891 52.5559 71.1653 52.9161 71.2959C55.8561 72.5363 58.9228 73.163 62.1127 73.1728C64.4297 73.1826 66.6883 72.8334 68.895 72.1218C71.0984 71.4134 73.1396 70.3787 75.0217 69.0175C76.972 67.5029 78.786 65.8382 80.4605 64.02C84.7213 59.6394 88.742 55.5037 95.7741 57.6026C95.9332 57.6483 96.0954 57.6874 96.2577 57.7135C95.9559 58.7777 95.8423 59.8614 95.9169 60.9647C95.9883 62.068 96.2447 63.1256 96.6828 64.1408C96.7412 64.2681 96.8385 64.3399 96.9748 64.3627L96.9554 64.3856C95.9039 65.8153 95.375 67.4213 95.362 69.2003C95.2192 71.1099 95.6281 72.8954 96.5919 74.5503C97.163 75.572 97.8899 76.4664 98.7661 77.2335C99.6455 78.0039 100.626 78.6012 101.709 79.0321C101.174 83.4812 100.291 87.8618 99.0614 92.1673C98.0846 95.6567 96.9099 99.0776 95.534 102.427C91.3316 101.637 87.1811 100.612 82.9592 99.923C79.1008 99.2963 74.9406 98.7283 71.1016 99.7305C68.6678 100.436 66.3508 101.415 64.1474 102.672C61.9537 103.847 59.786 105.074 57.6312 106.331C53.3866 108.825 49.2264 111.452 45.1473 114.217C36.9859 119.763 29.2333 125.844 21.8929 132.451C18.4563 135.532 14.7699 138.532 12.865 142.86C11.9921 144.861 11.4664 146.951 11.2944 149.128C11.051 151.893 10.8596 154.67 10.6778 157.438C9.92173 168.537 9.4447 179.645 9.24675 190.756C9.21754 192.104 9.19807 193.452 9.1786 194.791C8.95793 198.678 9.07151 202.553 9.51933 206.418C9.84709 208.628 10.428 210.766 11.262 212.835C11.4437 213.322 11.6351 213.808 11.8363 214.285C12.2322 215.114 12.8488 215.718 13.6828 216.1C14.8283 216.517 16.003 216.821 17.207 217.01C18.4856 217.304 19.7771 217.578 21.0557 217.843C23.5966 218.358 26.1343 218.825 28.6849 219.272C29.6325 219.569 30.5963 219.628 31.5763 219.445C32.3454 219.125 32.9295 218.6 33.3286 217.862C33.8414 216.814 33.9679 215.718 33.7116 214.578C33.5915 213.534 33.5104 212.489 33.4292 211.448C33.4195 211.415 33.4163 211.386 33.4195 211.357C33.559 211.353 33.6726 211.301 33.7602 211.193C34.2438 210.665 34.75 210.139 35.2238 209.591C35.7365 209.023 36.074 208.36 36.2298 207.606C36.3498 206.754 36.2849 205.915 36.0383 205.089C35.7268 203.284 35.1199 201.58 34.2243 199.981C33.2151 198.626 31.9852 197.513 30.5379 196.648C29.0548 195.613 27.5361 194.65 26.0142 193.687L32.5725 150.717C36.7522 148.508 40.9352 146.298 45.1149 144.088C51.8776 140.52 58.6372 136.949 65.3967 133.375C65.4552 133.352 65.5071 133.326 65.559 133.293C65.6304 134.925 65.7018 136.567 65.7602 138.209C65.9419 142.749 66.1269 147.293 66.3151 151.834C66.5358 157.337 66.7597 162.834 66.9804 168.325C67.1718 173.081 67.3633 177.83 67.5547 182.576C67.6456 184.838 67.6131 187.139 67.8273 189.398C61.5286 196.273 55.5446 203.813 51.9069 212.489C50.6542 215.44 49.7683 218.499 49.2491 221.665C48.7299 224.831 48.5904 228.014 48.8337 231.213C49.0998 234.206 49.5736 237.167 50.2648 240.092C50.9593 243.134 51.7251 246.176 52.6338 249.156C55.0416 257 58.6794 264.482 62.3658 271.78C63.917 274.862 65.5298 277.914 67.1621 280.953C64.9554 282.027 62.7422 283.104 60.5226 284.178C56.7745 285.993 53.0264 287.808 49.2783 289.629C48.4703 290.014 47.6752 290.4 46.8705 290.798C44.2192 290.279 41.5907 289.6 38.9102 289.254C36.895 289.002 34.6591 288.921 32.8354 289.975C31.4108 290.765 30.2231 291.823 29.269 293.148C28.7238 293.899 28.2501 294.689 27.7763 295.488C24.1775 301.371 20.981 307.468 18.1838 313.775C16.5028 317.688 15.2015 321.684 15.1626 325.979C15.1139 328.245 15.3962 330.464 16.0128 332.642C16.6294 334.819 17.551 336.856 18.7809 338.752C20.5916 341.439 23.4538 344.014 26.8806 343.933C30.7683 343.841 33.0269 340.375 34.8084 337.342C35.9994 335.315 37.067 333.219 38.1736 331.15C39.3126 329.031 40.5003 326.933 41.6621 324.824C44.1381 320.264 46.6271 315.612 49.8916 311.555C50.5439 310.739 51.2416 309.955 51.9782 309.214C53.7306 309.254 55.483 309.296 57.2256 309.335C57.7091 309.345 58.1829 309.355 58.6567 309.368C57.9525 314.251 58.0239 319.311 56.5733 324.054C55.7361 326.6 54.5159 328.94 52.9161 331.078C51.1345 333.389 49.5606 335.837 48.2009 338.419C45.6795 343.649 44.6313 349.557 43.3625 355.184C42.2657 360.11 41.2467 365.049 40.2407 369.984C39.04 375.824 37.8004 381.651 36.4407 387.448C33.8673 388.505 31.4075 389.778 29.0548 391.27C27.4647 392.269 26.1245 393.536 25.0374 395.073C24.1645 396.483 23.629 398.014 23.4343 399.662C23.3208 401.089 23.4051 402.499 23.6874 403.899C24.6804 411.061 26.1732 418.118 28.1592 425.068C29.2528 429.246 31.1447 433.019 33.8316 436.388C35.1394 437.955 36.6289 439.316 38.3001 440.478C39.9714 441.64 41.7659 442.557 43.687 443.23C46.5687 444.206 50.0215 444.558 52.783 443.018C53.9999 442.332 54.9086 441.353 55.5154 440.09C56.2553 438.219 56.4565 436.293 56.119 434.312C55.801 431.766 55.3596 429.239 54.7885 426.739C54.2563 424.183 53.802 421.631 53.4191 419.045C52.4845 413.31 52.0334 407.536 52.0691 401.722C52.0886 400.567 52.1502 399.411 52.2703 398.256C53.0037 396.561 53.7403 394.861 54.477 393.157C56.5019 388.525 58.5301 383.887 60.5615 379.248C63.4821 372.609 66.4157 365.979 69.359 359.359C72.7923 351.626 76.2581 343.906 79.7563 336.2C83.3422 328.261 86.9734 320.349 90.6469 312.459C91.0817 311.506 91.5231 310.563 91.9676 309.609C91.9806 309.577 91.9903 309.544 91.9968 309.508C93.9926 309.012 95.8455 308.196 97.5589 307.05C99.2724 305.908 100.742 304.507 101.972 302.849C103.731 300.463 104.818 297.799 105.237 294.862C105.561 291.97 105.286 289.14 104.409 286.365C104.208 285.666 104.007 284.958 103.806 284.26C106.314 277.65 108.618 270.964 110.718 264.208C110.744 264.162 110.763 264.116 110.776 264.067V264.015C111.159 262.758 111.565 261.492 111.925 260.225C113.921 253.383 115.634 246.46 117.137 239.484C118.626 232.581 119.927 225.638 121.225 218.695C122.747 210.655 124.289 202.618 125.993 194.621C128.176 184.29 130.597 174.017 133.245 163.804C133.388 163.259 133.528 162.7 133.667 162.152C134.141 169.066 134.556 175.989 134.907 182.922C135.189 188.142 136.056 193.749 139.382 197.964C139.726 198.414 140.105 198.835 140.514 199.227C140.923 199.619 141.361 199.978 141.825 200.301C142.289 200.624 142.776 200.911 143.286 201.159C143.795 201.407 144.318 201.616 144.86 201.783C145.398 201.949 145.95 202.073 146.508 202.155C147.069 202.236 147.631 202.276 148.196 202.269C148.76 202.263 149.322 202.214 149.88 202.122C150.438 202.028 150.986 201.894 151.522 201.714C153.732 200.993 155.607 199.756 157.145 198.006C158.976 195.826 160.095 193.325 160.511 190.505C160.946 187.28 161.043 184.048 160.803 180.804C160.65 177.477 160.378 174.164 160.017 170.861ZM127.534 126.36C127.44 127.12 127.394 127.884 127.391 128.651V128.691C127.381 129.076 127.372 129.461 127.372 129.846C127.378 131.991 127.537 134.122 127.855 136.244C127.375 136.221 126.94 136.071 126.554 135.787C126.165 135.503 125.885 135.134 125.72 134.68C125.438 133.551 125.343 132.405 125.438 131.246C125.366 130.048 125.61 128.922 126.161 127.858C126.538 127.284 126.995 126.784 127.534 126.36ZM142.309 48.8251C142.588 50.1406 142.737 51.4691 142.76 52.814C142.841 54.1164 142.702 55.3927 142.345 56.6429C142.14 57.2631 141.17 56.9954 141.371 56.3752C141.702 55.2099 141.829 54.025 141.751 52.814C141.735 51.5605 141.595 50.3201 141.339 49.096C141.196 48.4595 142.166 48.1886 142.309 48.8251ZM134.745 42.9234C135.812 44.7546 136.468 46.7262 136.714 48.8349C136.948 50.813 136.964 53.2089 135.936 54.9814C135.864 55.0956 135.76 55.1707 135.63 55.2034C135.497 55.236 135.374 55.2164 135.257 55.1479C135.137 55.0793 135.063 54.9781 135.024 54.8476C134.988 54.7137 135.001 54.5897 135.066 54.4689C135.997 52.8629 135.923 50.6237 135.705 48.8349C135.468 46.9057 134.855 45.1072 133.875 43.4359C133.81 43.3151 133.794 43.1911 133.833 43.0572C133.868 42.9267 133.946 42.8255 134.063 42.7569C134.18 42.6884 134.303 42.6688 134.436 42.7014C134.569 42.7341 134.67 42.8092 134.745 42.9234ZM122.851 39.323C127.226 41.7679 130.299 47.3693 129.192 52.4386C129.053 53.0751 128.082 52.8042 128.219 52.1676C128.42 50.9795 128.423 49.788 128.228 48.5966C128.037 47.4084 127.657 46.279 127.089 45.2181C126.025 43.0507 124.445 41.3762 122.345 40.1978C121.777 39.8812 122.287 39.0063 122.851 39.323ZM112.422 40.8865C114.995 41.8593 117.117 43.4457 118.785 45.6457C120.486 47.7185 122.037 50.134 121.784 52.938C121.725 53.5843 120.719 53.5876 120.778 52.938C121.008 50.3397 119.538 48.12 117.951 46.2137C116.426 44.2128 114.492 42.7635 112.152 41.8625C111.539 41.6569 111.805 40.6776 112.422 40.8865ZM96.8677 57.5601C96.7347 57.5209 96.6373 57.4426 96.5659 57.3251C96.4946 57.2043 96.4783 57.0737 96.514 56.9367C96.7477 56.3589 97.0527 55.8236 97.4356 55.3339C97.2247 54.4134 97.1858 53.4896 97.3156 52.5561C97.4454 51.6225 97.7342 50.7444 98.1852 49.9186C90.8416 47.9242 83.8744 49.4518 78.5102 54.2763C77.3582 55.3535 76.2678 56.4895 75.2391 57.6842C74.9211 58.04 74.6031 58.3958 74.2818 58.7483C74.1877 58.8527 74.0709 58.9082 73.9314 58.9148C73.7951 58.918 73.6718 58.8756 73.5712 58.7809C73.4673 58.6863 73.4121 58.5688 73.4089 58.4284C73.4024 58.288 73.4446 58.1673 73.5419 58.0628C73.86 57.7135 74.1747 57.361 74.4895 57.0085C75.5442 55.7844 76.6605 54.6223 77.8385 53.5223C83.5369 48.3909 90.9584 46.8045 98.7564 49.0209C99.7851 47.6402 101.125 46.7066 102.771 46.2203V46.2137C102.852 45.698 102.991 45.2051 103.192 44.7252C103.15 44.722 103.108 44.7089 103.069 44.6926C101.654 43.981 100.181 43.4391 98.6428 43.0703C97.1046 42.7014 95.5437 42.5154 93.9634 42.5088C92.383 42.5056 90.8221 42.6851 89.2839 43.0442C87.7425 43.4065 86.266 43.9386 84.8479 44.6469C83.4525 45.3748 82.1025 46.1778 80.7915 47.0526L80.0516 47.5292C79.9315 47.6043 79.805 47.6239 79.6687 47.5945C79.5357 47.5651 79.4286 47.49 79.3539 47.3725C79.2793 47.2517 79.2566 47.1244 79.289 46.9873C79.3182 46.8535 79.3929 46.7458 79.5097 46.6707L80.2496 46.1974C81.5898 45.303 82.9755 44.4837 84.4033 43.7395C85.8863 42.9952 87.4375 42.437 89.0503 42.0584C90.6631 41.6797 92.2986 41.4904 93.9569 41.4937C95.6151 41.4969 97.2507 41.6928 98.8635 42.078C100.473 42.4664 102.021 43.0311 103.504 43.7786C103.546 43.8047 103.585 43.8308 103.618 43.8668C104.344 42.6525 105.341 41.7385 106.613 41.1248C106.733 41.0595 106.859 41.0432 106.992 41.0791C107.126 41.1118 107.229 41.1901 107.301 41.3076C107.372 41.4284 107.388 41.5557 107.353 41.6928C107.317 41.8266 107.239 41.9311 107.122 42.0029C106.308 42.3815 105.617 42.9201 105.042 43.6154C104.471 44.3074 104.075 45.0908 103.854 45.9656C109.472 45.1757 115.128 49.7717 116.046 55.3111C116.153 55.9509 115.183 56.2251 115.076 55.582C114.255 50.6204 109.176 46.1811 104.043 46.9514C103.076 47.0918 102.177 47.428 101.352 47.9568C100.525 48.4856 99.8435 49.1613 99.3048 49.9839C98.8829 50.6498 98.5844 51.3679 98.4124 52.1383C98.2372 52.9086 98.1982 53.6855 98.2956 54.4689C98.3021 54.4624 98.3053 54.4559 98.3118 54.4526C100.356 53.0261 103.157 53.3036 105.292 54.3547C106.421 54.9749 107.421 55.7583 108.297 56.7082C109.17 57.658 109.871 58.7222 110.397 59.9038C110.692 60.4848 109.822 60.9973 109.527 60.4163C109.063 59.3652 108.453 58.4121 107.693 57.5536C106.934 56.6951 106.064 55.9737 105.084 55.3862C103.196 54.3645 100.668 54.038 98.8213 55.3274L98.8116 55.3339L98.7629 55.3731C98.7207 55.4123 98.6753 55.4482 98.6331 55.4873C98.5584 55.5559 98.487 55.6277 98.4156 55.7028C98.341 55.7811 98.2696 55.866 98.2015 55.9509L98.1723 55.9835C98.1755 55.9835 98.1755 55.9802 98.1625 55.9966C98.1333 56.039 98.1009 56.0814 98.0717 56.1239C97.9451 56.3099 97.8315 56.4992 97.7277 56.6951C97.6758 56.7898 97.6303 56.8844 97.5849 56.9824C97.5622 57.0313 97.5395 57.0803 97.52 57.1292L97.4973 57.1815L97.4876 57.2043C97.4454 57.3382 97.3675 57.4361 97.2474 57.5046C97.1273 57.5732 97.0008 57.5928 96.8677 57.5601ZM95.706 103.481C95.7255 103.491 95.7449 103.481 95.7547 103.481C95.8585 103.527 95.9624 103.527 96.063 103.481C96.1668 103.439 96.2382 103.364 96.2804 103.259C97.7504 99.7272 98.9998 96.117 100.028 92.4317C101.31 87.9271 102.222 83.3506 102.767 78.6959C102.787 78.5882 102.764 78.487 102.702 78.3956C102.638 78.3074 102.553 78.2519 102.446 78.2324C102.427 78.2324 102.414 78.2095 102.394 78.2095C101.554 77.9223 100.775 77.5175 100.054 76.9985C99.334 76.4762 98.7045 75.8625 98.1658 75.1509C97.6303 74.4426 97.2052 73.669 96.8969 72.8334C96.5854 71.9977 96.4037 71.1327 96.3485 70.2416C96.2998 68.1133 97.0949 63.0864 100.288 64.4868C101.083 64.8556 101.787 65.3551 102.401 65.985C103.017 66.6118 103.501 67.3299 103.854 68.1362C103.906 68.2569 103.991 68.3516 104.108 68.4169C104.377 68.8706 104.708 69.2656 105.107 69.6051C105.506 69.9445 105.951 70.2122 106.438 70.4048C106.924 70.5941 107.431 70.7018 107.953 70.7247C108.475 70.7475 108.985 70.6855 109.488 70.5386C111.967 69.5953 112.318 66.5432 111.915 64.2517C111.724 63.2333 111.425 62.2475 111.02 61.2911C111.841 61.5359 112.645 61.4804 113.427 61.1312C114.034 60.8504 114.557 60.4555 114.995 59.9528C115.433 59.4468 115.751 58.8723 115.946 58.2325C116.088 57.7396 116.157 57.2402 116.157 56.731C117.172 57.1292 118.185 57.1292 119.201 56.731C119.908 56.4764 120.479 56.039 120.914 55.4221C121.187 55.0271 121.394 54.5995 121.527 54.136C121.868 54.593 122.27 54.9847 122.738 55.3111C123.468 55.7779 124.263 55.9868 125.126 55.9411C126.129 55.9215 127.015 55.5853 127.784 54.9357C128.225 54.5505 128.559 54.087 128.793 53.5484C129.04 54.2502 129.406 54.8769 129.896 55.4351C130.386 55.9933 130.964 56.4372 131.623 56.7702C131.928 56.8877 132.239 56.953 132.564 56.9758C132.885 56.9954 133.203 56.9693 133.518 56.8942C133.833 56.8191 134.131 56.6984 134.41 56.5352C134.689 56.3719 134.939 56.1696 135.16 55.9313C135.387 56.731 135.796 57.423 136.387 58.004C136.977 58.5851 137.675 58.9833 138.473 59.1955C139.362 59.3783 140.177 59.2118 140.923 58.6961C141.024 58.6177 141.121 58.5329 141.215 58.4447C142.075 62.4825 142.364 66.5595 142.082 70.679C141.971 75.2554 141.3 79.7437 140.067 84.1504C137.922 91.2664 132.58 99.4465 124.289 99.3453C122.03 99.2278 119.859 98.7251 117.779 97.8339C115.436 96.9722 113.288 95.7612 111.331 94.2074C110.838 93.7994 110.124 94.511 110.627 94.9255C112.389 96.3487 114.317 97.4945 116.41 98.3627C118.376 99.2539 120.424 99.8708 122.556 100.217C122.728 100.246 122.897 100.246 123.069 100.269L123.039 100.36C122.757 102.792 122.485 105.224 122.193 107.646C122.163 107.911 122.121 108.165 122.092 108.426C122.092 108.459 122.082 108.488 122.082 108.531V108.57C122.076 108.576 122.072 108.583 122.072 108.59C122.072 108.609 122.063 108.619 122.063 108.632C122.063 108.622 122.066 108.619 122.072 108.619C122.056 108.665 122.046 108.707 122.043 108.753C122.043 108.772 122.053 108.802 122.053 108.834C122.053 108.844 122.053 108.844 122.063 108.854V108.893C122.063 108.903 122.072 108.916 122.072 108.926C122.092 108.975 122.115 109.02 122.144 109.066C122.144 109.076 122.154 109.086 122.163 109.095C122.199 109.138 122.244 109.167 122.293 109.187C122.303 109.197 122.313 109.2 122.322 109.197C122.352 109.223 122.381 109.239 122.413 109.249C123.633 109.513 124.863 109.774 126.083 110.058C126.022 113.505 125.356 117.145 123.38 120.014C121.378 122.923 118.013 124.068 114.625 124.323C111.081 124.558 107.654 124.016 104.351 122.701C102.835 122.175 101.447 121.415 100.187 120.416C98.9284 119.42 97.8672 118.242 97.004 116.881C94.4761 112.653 93.7297 107.862 93.376 103.024C94.1516 103.187 94.9304 103.341 95.706 103.481ZM122.426 108.276C122.426 108.283 122.423 108.286 122.413 108.286V108.276H122.426ZM66.8895 141.261C66.87 140.683 66.8473 140.105 66.8181 139.537C66.7272 137.298 66.7597 135.007 66.5552 132.764C67.717 132.157 68.8625 131.55 70.0243 130.93C70.5954 130.636 70.0924 129.755 69.518 130.058C65.2669 132.301 61.0191 134.543 56.7745 136.789C50.0117 140.357 43.2489 143.931 36.4829 147.505C34.9415 148.315 33.4 149.138 31.8586 149.947C31.8456 149.947 31.8456 149.957 31.8359 149.967C31.8164 149.98 31.8002 149.993 31.7872 150.009C31.6866 150.081 31.6315 150.179 31.6152 150.303L24.966 193.87C24.9465 193.998 24.9725 194.118 25.0471 194.223V194.236C25.0926 194.288 25.1477 194.337 25.2062 194.376C26.8287 195.391 28.461 196.423 30.0219 197.52C30.8591 198.081 31.6542 198.698 32.4005 199.374C33.1794 200.131 33.7505 201.022 34.114 202.05C34.4904 203.059 34.7922 204.087 35.0193 205.142C35.399 206.186 35.3763 207.218 34.9512 208.243C34.4969 208.971 33.955 209.62 33.3189 210.188C33.2053 208.393 33.0009 206.604 32.7023 204.828C32.5823 204.179 31.6152 204.453 31.7256 205.089C32.0209 206.878 32.2253 208.677 32.3421 210.485C32.4103 211.415 32.4914 212.349 32.5725 213.283C32.6537 214.154 32.8029 215.035 32.8159 215.907C32.8257 216.384 32.7251 216.834 32.5109 217.258C32.2999 217.683 32.0014 218.035 31.6152 218.309C30.8202 218.835 29.6812 218.42 28.8342 218.28C28.7595 218.26 28.6817 218.247 28.6038 218.238V218.218L27.614 211.03C27.5978 210.89 27.5361 210.779 27.4258 210.694C27.3155 210.606 27.1889 210.573 27.0526 210.596C26.9131 210.616 26.7995 210.681 26.7151 210.795C26.6308 210.906 26.5983 211.033 26.6178 211.174L27.5653 218.045C26.1635 217.79 24.7648 217.539 23.3727 217.265L22.0324 209.764C22.0065 209.627 21.9383 209.519 21.8215 209.441C21.7079 209.362 21.5814 209.333 21.4451 209.359C21.3088 209.385 21.2017 209.454 21.1206 209.568C21.0394 209.682 21.0135 209.809 21.0362 209.947L22.3148 217.062C22.146 217.02 21.9643 216.991 21.7923 216.961C20.4813 216.697 19.1735 216.413 17.8625 216.119C17.8657 216.08 17.8592 216.038 17.8528 215.998L16.2691 208.69C16.2432 208.553 16.1685 208.448 16.0517 208.373C15.9381 208.298 15.8116 208.275 15.6753 208.305C15.5422 208.334 15.4352 208.406 15.3605 208.523C15.2859 208.641 15.2632 208.765 15.2924 208.902L16.7949 215.865C16.1101 215.705 15.4254 215.551 14.7504 215.378C14.3253 215.287 13.9359 215.111 13.5887 214.849C13.2415 214.588 12.9624 214.265 12.7547 213.88C12.5632 213.433 12.3912 212.976 12.2095 212.532C11.4534 210.645 10.9082 208.7 10.5772 206.692C10.0742 202.739 9.9412 198.77 10.1846 194.791C10.3274 183.937 10.7233 173.084 11.3755 162.234C11.5443 159.508 11.726 156.769 11.9272 154.044C11.9921 151.533 12.2452 149.043 12.693 146.572C13.1831 144.417 14.043 142.423 15.2729 140.592C16.6326 138.744 18.187 137.083 19.9394 135.604C27.0818 128.965 34.6332 122.835 42.5967 117.217C46.5557 114.419 50.6121 111.756 54.7593 109.229C56.8427 107.963 58.9487 106.729 61.0743 105.528C63.2031 104.323 65.3383 103.106 67.5645 102.081C69.5472 101.121 71.6306 100.527 73.821 100.298C75.8005 100.165 77.7768 100.227 79.7466 100.481C81.288 100.664 82.8197 100.915 84.3384 101.19V101.199C85.4352 107.62 85.234 114.002 83.7348 120.337C82.9463 123.305 81.7358 126.086 80.1068 128.681C78.6011 131.279 76.8163 133.668 74.7589 135.849C72.4711 138.147 69.849 139.952 66.8895 141.261ZM80.2204 332.733C76.6929 340.505 73.1882 348.297 69.7095 356.108C66.6786 362.917 63.6606 369.733 60.6621 376.552C58.4879 381.478 56.3234 386.41 54.1752 391.342C53.299 393.369 52.3612 395.377 51.5337 397.413C45.3874 397.88 39.0011 393.826 37.5083 387.673C37.4986 387.621 37.4694 387.591 37.4597 387.549C39.7864 377.534 41.701 367.438 43.9077 357.404C44.5405 354.525 45.196 351.646 45.8807 348.786C46.5038 345.95 47.3345 343.175 48.3794 340.466C49.5736 337.766 51.0631 335.243 52.8447 332.893C54.49 330.784 55.8529 328.503 56.9335 326.051C59.0396 320.78 58.8287 314.953 59.6659 309.417C59.6626 309.41 59.6594 309.404 59.6562 309.397C62.8883 309.469 66.1236 309.541 69.359 309.619C73.4089 309.711 77.462 309.805 81.5184 309.903C83.4525 309.946 85.3768 309.995 87.3012 310.037C88.4727 310.057 89.6344 309.965 90.7864 309.763C87.22 317.395 83.6991 325.052 80.2204 332.733ZM104.198 289.812C104.672 292.805 104.348 295.707 103.231 298.521C102.689 299.866 101.985 301.119 101.122 302.281C100.259 303.443 99.2626 304.478 98.1333 305.382C97.004 306.286 95.7806 307.031 94.4599 307.615C93.1424 308.203 91.7697 308.611 90.3451 308.839C88.0443 309.074 85.7403 309.103 83.433 308.93C79.6849 308.839 75.9271 308.757 72.1693 308.666C68.0188 308.575 63.8586 308.48 59.6951 308.382C57.1769 308.323 54.6587 308.265 52.1373 308.212C52.0172 308.199 51.8971 308.199 51.7771 308.199C51.7446 308.199 51.7251 308.212 51.6959 308.212C48.3015 303.375 47.9673 297.294 47.7142 291.578C47.7044 291.545 47.6947 291.535 47.6947 291.516C49.8819 290.452 52.0594 289.397 54.2433 288.343C57.9914 286.518 61.7395 284.7 65.4876 282.889C66.2048 282.536 66.9284 282.19 67.6456 281.844C69.3687 285.017 71.1308 288.17 72.9351 291.304C73.2174 291.81 73.5095 292.306 73.8016 292.812C73.8729 292.929 73.9768 293.001 74.1098 293.034C74.2429 293.066 74.3662 293.047 74.483 292.978C74.5998 292.906 74.6777 292.805 74.7134 292.675C74.7491 292.541 74.7329 292.417 74.668 292.296C71.2704 286.427 68.009 280.483 64.8743 274.467C63.1414 271.131 61.4377 267.765 59.8249 264.351L92.9347 250.847C94.4761 255.956 96.0078 261.067 97.5297 266.186C99.1296 271.578 100.703 276.984 102.245 282.402C102.414 283 102.595 283.61 102.777 284.217C102.764 284.331 102.793 284.433 102.868 284.521C103.429 286.254 103.874 288.02 104.198 289.812ZM104.026 280.813C103.806 281.42 103.572 282.017 103.351 282.627C102.235 278.671 101.096 274.722 99.9376 270.775C99.029 267.684 98.0911 264.593 97.176 261.501L109.627 264.328C107.917 269.874 106.048 275.368 104.026 280.813ZM120.771 215.705C119.444 222.719 118.152 229.744 116.692 236.726C115.251 243.63 113.629 250.491 111.724 257.284C111.149 259.321 110.556 261.338 109.942 263.356L96.8418 260.385C96.1895 258.208 95.5437 256.018 94.8882 253.837C93.4669 249.124 92.0358 244.413 90.595 239.706C89.8421 237.226 89.0795 234.745 88.3104 232.267C88.278 232.156 88.239 232.035 88.2098 231.921C88.0183 231.294 87.0416 231.569 87.233 232.186C87.7555 233.88 88.2747 235.571 88.7939 237.265C90.0822 241.449 91.3576 245.641 92.6231 249.835C92.6329 249.845 92.6329 249.865 92.6426 249.874L59.3933 263.437C57.5988 259.585 55.947 255.672 54.5354 251.679C53.4483 248.608 52.624 245.445 51.8257 242.282C51.0826 239.439 50.5082 236.56 50.1026 233.645C49.6807 230.602 49.6126 227.547 49.9014 224.489C50.1902 221.427 50.8295 218.44 51.816 215.532C54.6976 207.178 60.0585 199.831 65.7699 193.221C66.6688 192.176 67.5839 191.154 68.512 190.139L123.28 202.769C122.426 207.077 121.589 211.389 120.771 215.705ZM125.739 190.981C124.954 194.569 124.217 198.179 123.484 201.776L68.8236 189.176C68.7522 187.414 68.684 185.658 68.6126 183.905C68.4309 179.364 68.2459 174.82 68.0577 170.27C67.9474 167.404 67.8273 164.535 67.7137 161.666L129.818 173.322C128.391 179.191 127.028 185.076 125.739 190.981ZM158.616 193.668C157.713 195.995 156.24 197.866 154.192 199.282C150.574 201.747 145.629 202.06 142.082 199.273C138.032 196.09 136.591 190.472 136.098 185.556C135.806 182.586 135.744 179.586 135.582 176.606C135.423 173.678 135.261 170.756 135.079 167.828C134.715 161.897 134.284 155.973 133.781 150.048C133.657 148.609 133.528 147.169 133.398 145.73C133.567 145.762 133.729 145.792 133.901 145.821C135.371 146.086 136.851 146.206 138.343 146.187C138.48 146.183 138.593 146.131 138.691 146.033C138.785 145.935 138.83 145.818 138.83 145.681C138.83 145.544 138.785 145.426 138.691 145.328C138.593 145.23 138.48 145.178 138.343 145.172C137.097 145.198 135.858 145.116 134.624 144.93C134.121 144.848 133.557 144.767 133.015 144.646C132.966 144.626 132.914 144.617 132.862 144.617C132.333 144.502 131.834 144.303 131.373 144.016C130.445 143.379 130.234 142.306 129.942 141.281C129.851 140.935 129.77 140.592 129.679 140.236H139.914C140.054 140.233 140.167 140.184 140.264 140.083C140.359 139.985 140.407 139.867 140.407 139.73C140.407 139.593 140.359 139.475 140.264 139.374C140.167 139.276 140.054 139.227 139.914 139.224H129.487C129.468 139.224 129.458 139.234 129.436 139.244C129.316 138.725 129.205 138.209 129.105 137.683C128.913 136.658 128.774 135.633 128.65 134.589C132.7 134.308 136.75 134.024 140.793 133.74C141.436 133.688 141.436 132.676 140.793 132.725C136.731 133.009 132.674 133.296 128.621 133.587C128.595 133.59 128.572 133.597 128.55 133.606C128.459 132.523 128.4 131.439 128.391 130.365C128.378 129.947 128.391 129.533 128.4 129.128C132.707 128.018 137.084 127.395 141.527 127.261C141.663 127.258 141.78 127.209 141.874 127.107C141.971 127.009 142.02 126.892 142.02 126.755C142.02 126.618 141.971 126.5 141.874 126.402C141.78 126.301 141.663 126.252 141.527 126.249C137.094 126.383 132.729 126.993 128.43 128.083C128.449 127.607 128.469 127.14 128.501 126.673C128.485 126.164 128.592 125.684 128.822 125.23C129.049 124.777 129.374 124.408 129.789 124.121C130.818 123.608 131.895 123.246 133.025 123.034C134.212 122.72 135.413 122.456 136.61 122.254C137.86 122.041 139.109 121.888 140.368 121.787C141.579 121.708 142.818 121.545 143.905 122.195C147.251 124.17 147.452 128.609 147.41 132.085C147.381 134.174 147.151 136.263 146.949 138.353C146.706 140.948 146.534 143.552 146.534 146.157C146.534 146.196 146.544 146.216 146.544 146.249C146.557 146.259 146.544 146.278 146.544 146.298C147.18 149.307 147.816 152.33 148.439 155.34C149.448 160.154 150.454 164.962 151.463 169.764C151.694 170.861 151.914 171.954 152.148 173.048C152.278 173.688 153.255 173.423 153.125 172.787C152.489 169.764 151.859 166.748 151.23 163.732C150.224 158.927 149.214 154.125 148.208 149.32C147.985 148.243 147.764 147.179 147.543 146.115C147.543 143.552 147.715 140.997 147.955 138.441C148.147 136.355 148.377 134.276 148.41 132.177C148.468 128.358 148.157 123.755 144.662 121.464C143.63 120.83 142.517 120.582 141.316 120.723C140.002 120.785 138.697 120.915 137.396 121.108C136.64 121.219 135.887 121.353 135.131 121.503C134.787 118.32 134.131 115.19 133.498 112.046C135.819 112.764 138.081 113.633 140.287 114.651C143.049 115.803 145.57 117.347 147.855 119.283C148.919 120.308 149.808 121.467 150.522 122.766C151.236 124.062 151.739 125.436 152.038 126.885C152.742 129.836 153.053 132.888 153.537 135.888C154.05 139.1 154.605 142.306 155.15 145.518C156.279 152.056 157.415 158.594 158.314 165.171C159.229 171.517 159.755 177.892 159.894 184.3C160.076 187.505 159.647 190.629 158.616 193.668Z" fill="black"/>
</g>
</svg>
