<svg width="461" height="474" viewBox="0 0 461 474" fill="none" xmlns="http://www.w3.org/2000/svg">
<g clip-path="url(#clip0_2743_12408)">
<mask id="mask0_2743_12408" style="mask-type:luminance" maskUnits="userSpaceOnUse" x="0" y="12" width="396" height="338">
<path d="M395.24 12H0V349.252H395.24V12Z" fill="black" fill-opacity="0.47"/>
</mask>
<g mask="url(#mask0_2743_12408)">
<mask id="mask1_2743_12408" style="mask-type:luminance" maskUnits="userSpaceOnUse" x="48" y="61" width="316" height="262">
<path d="M363.991 61.0624H48.999V322.16H363.991V61.0624Z" fill="white"/>
</mask>
<g mask="url(#mask1_2743_12408)">
<mask id="mask2_2743_12408" style="mask-type:luminance" maskUnits="userSpaceOnUse" x="49" y="61" width="315" height="261">
<path d="M49.3193 61.3025H363.952V321.784H49.3193V61.3025Z" fill="white"/>
</mask>
<g mask="url(#mask2_2743_12408)">
<path d="M360.08 231.172C372.138 265.699 353.311 305.202 318.452 318.081C280.094 332.29 210.221 299.059 165.132 299.059C120.039 299.059 88.4503 334.18 58.8846 308.985C29.3151 283.79 80.9427 233.131 80.9427 194.625C80.9427 156.118 49.7403 154.425 58.8846 111.832C66.4313 76.7446 104.946 45.3072 174.39 71.0017C222.357 88.7602 285.188 44.0806 289.894 111.832C286.355 207.604 344.127 182.706 360.08 231.172Z" fill="#D6FF84"/>
</g>
</g>
</g>
<mask id="mask3_2743_12408" style="mask-type:luminance" maskUnits="userSpaceOnUse" x="102" y="12" width="294" height="380">
<path d="M102.331 12.0001H395.324V391.825H102.331V12.0001Z" fill="white"/>
</mask>
<g mask="url(#mask3_2743_12408)">
<mask id="mask4_2743_12408" style="mask-type:luminance" maskUnits="userSpaceOnUse" x="102" y="10" width="295" height="382">
<path d="M169.179 10.084L396.133 45.7928L329.882 391.903L102.929 356.19L169.179 10.084Z" fill="white"/>
</mask>
<g mask="url(#mask4_2743_12408)">
<mask id="mask5_2743_12408" style="mask-type:luminance" maskUnits="userSpaceOnUse" x="102" y="12" width="294" height="380">
<path d="M395.324 12.0001H102.331V391.826H395.324V12.0001Z" fill="white"/>
</mask>
<g mask="url(#mask5_2743_12408)">
<mask id="mask6_2743_12408" style="mask-type:luminance" maskUnits="userSpaceOnUse" x="148" y="22" width="225" height="364">
<path d="M148.593 22.4861H372.193V386H148.593V22.4861Z" fill="white"/>
</mask>
<g mask="url(#mask6_2743_12408)">
<mask id="mask7_2743_12408" style="mask-type:luminance" maskUnits="userSpaceOnUse" x="102" y="10" width="295" height="382">
<path d="M169.179 10.084L396.133 45.7928L329.882 391.903L102.929 356.19L169.179 10.084Z" fill="white"/>
</mask>
<g mask="url(#mask7_2743_12408)">
<mask id="mask8_2743_12408" style="mask-type:luminance" maskUnits="userSpaceOnUse" x="103" y="10" width="294" height="382">
<path d="M396.353 45.829L169.4 10.1203L103.149 356.226L330.103 391.934L396.353 45.829Z" fill="white"/>
</mask>
<g mask="url(#mask8_2743_12408)">
<path d="M149.211 115.458L154.155 111.194C153.985 110.101 153.708 107.093 154.938 103.384C156.339 99.1693 160.033 93.23 169.701 88.8653C172.713 87.5045 176.041 87.9733 179.078 90.1943C179.851 90.7541 180.559 91.4049 181.212 92.1149L184.108 89.7665C176.99 80.168 178.586 67.0196 188.355 59.1187C188.295 58.2767 188.325 57.4256 188.485 56.5882C189.304 52.2964 192.883 48.9331 197.511 47.9955C196.246 44.6686 196.442 41.0914 198.078 37.8873C199.755 34.6059 202.736 32.1118 206.486 30.8648C211.747 29.1171 217.58 30.173 221.671 33.55C223.167 29.2673 226.736 25.8539 231.419 24.2929C239.712 21.5348 248.933 25.4033 251.975 32.9219C252.02 33.0403 252.066 33.1541 252.106 33.2724C254.47 32.0071 257.141 31.3654 259.891 31.4109C263.842 31.4747 267.546 32.9356 270.297 35.5207C273.048 38.1058 274.524 41.5101 274.454 45.101C274.413 47.0671 273.896 49.0104 272.948 50.7718C277.932 52.7106 280.824 57.4848 279.88 62.3955C279.428 64.7576 278.138 66.7966 276.346 68.3258C276.346 68.3303 276.351 68.3303 276.351 68.3303C276.672 68.5761 276.984 68.8583 277.275 69.1677C279.363 71.3705 279.609 74.8522 277.917 78.2474C276.416 81.2557 273.093 84.4825 268.259 84.5508C267.767 86.7809 266.984 88.9063 265.915 90.8815C279.664 89.548 298.513 91.0272 314.326 94.7182C335.745 99.7154 363.243 110.92 370.236 126.067C377.866 142.592 336.975 181.114 335.233 182.748C335.067 182.902 334.831 182.966 334.605 182.934C334.545 182.921 334.485 182.907 334.425 182.88C334.38 182.861 332.693 182.124 330.098 180.741C329.425 182.138 327.226 186.43 323.838 190.585C324.531 190.762 325.148 191.154 325.62 191.791C326.87 193.47 326.945 196.319 325.791 198.144C325.304 198.913 324.044 199.919 322.432 200.898C322.443 200.925 322.458 200.943 322.458 200.971L334.977 314.246C335.002 314.478 334.881 314.71 334.666 314.837C333.933 315.283 331.855 315.843 328.813 316.412L329.475 352.726C329.49 352.772 329.515 352.822 329.515 352.876L330.755 378.031C330.765 378.24 330.66 378.445 330.469 378.572C330.303 378.682 326.288 381.28 313.056 384.316C306.284 385.863 298.202 386.396 292.193 385.449C288.71 384.903 285.924 383.856 284.493 382.227C283.615 381.23 282.857 379.519 284.242 377.066C286.596 372.892 292.741 368.009 298.187 364.231C298.272 364.113 298.398 364.027 298.553 363.981C302.635 361.173 306.269 359.011 307.519 358.278L305.19 350.496L292.148 348.821C292.138 348.821 292.133 348.821 292.123 348.821C291.812 348.771 291.571 348.539 291.546 348.248L288.695 319.184C282.616 319.015 276.527 318.546 270.829 317.65C265.368 316.785 260.253 315.538 255.871 313.786C255.569 313.668 255.404 313.376 255.464 313.085C255.474 313.026 255.499 312.971 255.524 312.917C255.685 312.011 255.715 305.89 255.76 297.497C255.765 296.855 255.765 296.191 255.77 295.513L247.954 294.284L234.828 338.608C234.823 338.635 234.803 338.654 234.793 338.681L229.989 361.992C229.933 362.256 229.703 362.456 229.406 362.502C229.311 362.516 219.568 363.895 207.43 363.317C202.189 363.066 195.237 362.57 188.922 361.574C181.397 360.39 174.786 358.506 173.075 355.498C172.327 354.191 172.477 352.772 173.521 351.283C179.003 343.437 201.768 341.243 205.733 340.92C205.899 339.946 206.28 337.611 206.712 334.671L200.718 333.707C200.352 333.647 200.101 333.342 200.146 333.006L200.317 331.677C201.461 322.847 202.646 313.727 204.001 304.624C200.006 303.682 193.224 301.379 185.117 295.79C184.896 295.64 184.796 295.385 184.856 295.14L223.031 144.527C218.288 145.874 195.041 152.109 177.954 150.07C177.648 150.038 177.341 149.993 177.035 149.947C169.014 148.682 159.19 143.029 155.852 123.882C155.807 123.623 155.777 123.432 155.746 123.272C152.067 121.73 149.848 119.372 149.01 116.063C148.955 115.845 149.03 115.613 149.211 115.458ZM182.888 114.384L186.201 118.658C189.399 117.319 216.23 106.228 229.216 104.18C224.924 102.819 220.993 100.521 217.821 97.408C213.644 99.4378 208.926 100.412 204.072 100.148C203.083 100.093 202.104 99.9885 201.14 99.8383C196.442 99.101 192.12 97.1986 188.541 94.3495L184.595 97.6219C185.463 99.9794 185.719 102.41 185.152 104.453C184.545 106.647 183.315 107.798 182.115 108.399C182.467 108.613 182.758 108.877 182.974 109.2C184.118 110.934 184.073 112.741 182.888 114.384ZM185.554 82.4117C186.899 79.8358 189.063 78.3475 191.352 77.542C189.208 76.9275 186.322 75.6395 184.971 73.0454C184.314 76.1447 184.5 79.367 185.554 82.4117ZM317.393 154.967C320.038 150.662 322.894 145.924 324.962 142.451L315.786 139.538L317.393 154.967Z" fill="#010043"/>
</g>
</g>
</g>
<mask id="mask9_2743_12408" style="mask-type:luminance" maskUnits="userSpaceOnUse" x="155" y="48" width="175" height="320">
<path d="M155.019 48.1184H329.786V367.358H155.019V48.1184Z" fill="white"/>
</mask>
<g mask="url(#mask9_2743_12408)">
<mask id="mask10_2743_12408" style="mask-type:luminance" maskUnits="userSpaceOnUse" x="102" y="10" width="295" height="382">
<path d="M169.179 10.084L396.133 45.7927L329.882 391.903L102.929 356.189L169.179 10.084Z" fill="white"/>
</mask>
<g mask="url(#mask10_2743_12408)">
<mask id="mask11_2743_12408" style="mask-type:luminance" maskUnits="userSpaceOnUse" x="103" y="10" width="294" height="382">
<path d="M396.353 45.8289L169.4 10.1202L103.149 356.226L330.103 391.934L396.353 45.8289Z" fill="white"/>
</mask>
<g mask="url(#mask11_2743_12408)">
<path d="M231.184 349.253L233.308 338.954L208.093 334.894C207.677 337.753 207.305 340.028 207.135 341.043C208.279 341.353 210.678 342.222 212.596 344.311C214.067 345.917 214.443 348.129 214.534 349.208L231.104 349.235C231.134 349.235 231.159 349.249 231.184 349.253ZM169.045 116.473C169.105 117.165 169.466 117.729 170.079 118.139C167.83 118.321 165.661 118.257 163.488 117.952L165.802 116.009C166.329 116.204 166.871 116.355 167.403 116.437C167.99 116.532 168.533 116.528 169.045 116.473ZM200.042 78.0699L202.381 85.4838C203.475 88.9427 205.368 92.1786 208.289 95.6011C206.999 95.7467 205.689 95.7968 204.364 95.724C198.741 95.4191 193.591 93.1526 189.862 89.3386C188.31 87.7503 187.121 85.9844 186.252 84.1321C186.282 84.0911 186.313 84.0502 186.333 84.0001C189.043 76.7409 198.28 77.7968 200.042 78.0699ZM209.86 95.3599C213.449 94.7 216.798 93.2117 219.604 90.9589C228.293 83.9682 229.096 71.8711 221.391 63.993C218.098 60.6342 213.791 58.5725 209.248 57.858C205.016 57.1935 200.594 57.726 196.613 59.4327C196.708 61.4125 196.924 63.5652 197.687 65.991L203.731 85.1333C204.83 88.6105 206.783 91.8646 209.86 95.3599ZM217.5 64.6666C217.254 64.9351 216.813 64.9715 216.511 64.7485C216.461 64.7075 211.326 60.9346 204.484 63.9702C204.349 64.0339 204.198 64.0476 204.057 64.0248C203.842 63.993 203.651 63.8701 203.545 63.679C203.375 63.3604 203.52 62.9826 203.867 62.8279C211.512 59.4372 217.174 63.5879 217.41 63.77C217.711 63.993 217.751 64.3935 217.5 64.6666ZM209.8 76.6635C208.083 71.8211 208.952 67.2289 211.738 66.4188C214.529 65.6041 218.183 68.8719 219.905 73.7189C221.622 78.5659 220.753 83.1536 217.962 83.9637C215.176 84.7783 211.517 81.5106 209.8 76.6635ZM171.153 117.283C170.546 117.01 170.335 116.591 170.46 115.927C171.093 112.627 175.219 109.792 178.683 109.205C179.4 109.086 181.137 108.904 181.77 109.855C182.809 111.426 182.583 112.959 181.102 114.416C178.517 116.96 173.216 118.207 171.153 117.283ZM175.861 108.709C175.395 106.793 173.477 100.63 167.393 97.8904C167.037 97.7356 166.62 97.8631 166.449 98.1771C166.279 98.4911 166.419 98.8734 166.766 99.0327C172.684 101.695 174.325 108.217 174.561 109.314C173.422 109.924 172.343 110.697 171.444 111.594C169.762 108.354 166.555 103.493 161.776 101.736C161.415 101.6 161.003 101.763 160.862 102.091C160.717 102.414 160.888 102.787 161.249 102.919C165.882 104.622 168.974 109.692 170.47 112.718C169.893 113.483 169.461 114.311 169.21 115.185C168.482 115.349 167.263 115.221 166.118 114.757C166.028 114.689 165.922 114.648 165.812 114.63C165.646 114.548 165.481 114.466 165.32 114.37C162.795 112.896 159.432 107.826 159.397 107.776C159.286 107.607 159.085 107.498 158.885 107.471C158.674 107.448 158.458 107.512 158.307 107.644L155.441 110.165C155.145 106.688 155.687 96.616 170.33 90.0077C173.522 88.5649 176.373 89.8529 178.201 91.1864C182.342 94.2084 184.902 100.143 183.793 104.144C182.984 107.056 180.921 107.653 179.847 107.762C179.958 105.282 179.747 97.0711 172.609 93.5485C172.267 93.3801 171.841 93.4939 171.655 93.8034C171.469 94.1129 171.595 94.4997 171.936 94.6681C178.577 97.945 178.532 106.105 178.432 107.953C178.427 107.953 178.427 107.953 178.427 107.953C177.588 108.094 176.72 108.358 175.861 108.709ZM245.877 103.429L245.887 103.425C245.907 103.42 245.927 103.416 245.947 103.411L248.02 102.874C257.95 100.293 265.228 92.9614 267.02 83.7361C267.085 83.3902 267.447 83.1581 267.828 83.2173H267.833C267.924 83.2355 268.004 83.2628 268.074 83.3038C268.12 83.2947 268.165 83.281 268.215 83.2764C272.406 83.2355 275.318 80.3773 276.643 77.7194C278.084 74.8249 277.918 71.7938 276.211 69.996C275.965 69.7366 275.709 69.4999 275.443 69.2997C275.383 69.2496 275.338 69.1905 275.298 69.1313C272.793 70.8152 269.57 71.6163 266.262 71.0929C259.857 70.0871 255.555 64.5437 256.664 58.7409C256.705 58.5179 256.76 58.2949 256.825 58.0582C251.956 57.2071 247.805 54.126 245.912 49.9571C244.843 50.6124 243.683 51.1495 242.459 51.5591C236.631 53.4979 230.03 52.1462 225.652 48.2094C224.277 51.6365 221.416 54.4082 217.761 55.9055C220.437 57.1844 222.917 58.8911 225.04 61.0575C234.532 70.7606 233.543 85.6613 222.841 94.2676C221.667 95.2143 220.402 96.038 219.087 96.7662C225.903 103.288 236.324 105.91 245.877 103.429ZM237.223 94.659C237.539 92.9978 239.286 91.8828 241.118 92.174C242.95 92.4608 244.18 94.0446 243.864 95.7058C243.543 97.367 241.801 98.482 239.969 98.1953C238.132 97.904 236.902 96.3247 237.223 94.659ZM238.006 82.7257C238.277 82.9806 238.272 83.3811 237.996 83.6269C237.077 84.437 236.641 85.1288 236.701 85.6795C236.746 86.1437 237.153 86.5943 237.941 87.063C238.262 87.2542 238.352 87.6502 238.142 87.9414C237.981 88.1599 237.7 88.2646 237.434 88.2191C237.343 88.2054 237.253 88.1735 237.168 88.128C236.008 87.4362 235.396 86.6762 235.3 85.8024C235.2 84.833 235.757 83.8226 237.012 82.7166C237.293 82.4709 237.74 82.4754 238.006 82.7257ZM250.018 65.595C249.687 65.6542 241.896 67.1834 241.008 75.0843C240.973 75.4347 240.626 75.6896 240.24 75.6532C240.225 75.6486 240.205 75.6486 240.19 75.6441C239.828 75.5895 239.572 75.2891 239.612 74.9523C240.606 66.1047 249.652 64.3616 249.742 64.348C250.124 64.2797 250.49 64.4982 250.565 64.8441C250.646 65.19 250.4 65.5267 250.018 65.595ZM244.075 79.3533C243.964 79.6582 243.628 79.8357 243.292 79.7811C243.257 79.7766 243.222 79.7675 243.191 79.7584C242.82 79.6491 242.619 79.2896 242.745 78.9528C244.818 73.2774 252.182 71.6618 252.493 71.5981C252.87 71.5161 253.246 71.73 253.336 72.0759C253.422 72.4173 253.191 72.7586 252.809 72.836C252.739 72.8542 245.907 74.347 244.075 79.3533ZM314.02 197.138C313.679 197.302 313.543 197.685 313.724 197.999C313.829 198.181 314.015 198.299 314.226 198.331C314.372 198.354 314.527 198.335 314.668 198.267C317.81 196.788 320.566 194.353 322.86 191.745C323.492 191.682 324.035 191.932 324.456 192.501C325.405 193.775 325.46 196.114 324.577 197.512C323.327 199.487 314.628 204.084 311.661 202.859C306.787 200.857 293.991 187.117 294.513 182.374C294.885 179.043 302.655 173.277 307.299 169.831C308.975 168.584 310.26 167.628 311.038 166.941C317.002 172.958 324.085 177.427 328.884 180.081C327.975 181.965 322.253 193.261 314.02 197.138ZM255.615 106.178C252.433 106.824 249.436 106.265 246.695 104.544L248.412 104.098C255.655 102.214 261.559 97.9222 265.123 92.2332C266.127 92.124 267.171 92.0375 268.23 91.9601C267.874 94.2221 267.527 96.4977 267.191 98.7915C267.176 98.8143 267.146 98.8325 267.131 98.8598C266.789 99.4332 262 104.876 255.615 106.178ZM324.411 366.83C324.115 365.283 323.051 362.006 319.266 360.122C314.853 357.923 310.431 357.842 308.86 357.896L306.706 350.687L328.141 353.436L328.728 365.406L324.411 366.83Z" fill="#F4D1C5"/>
</g>
</g>
</g>
<mask id="mask12_2743_12408" style="mask-type:luminance" maskUnits="userSpaceOnUse" x="173" y="341" width="157" height="44">
<path d="M173.009 341.726H329.786V384.835H173.009V341.726Z" fill="white"/>
</mask>
<g mask="url(#mask12_2743_12408)">
<mask id="mask13_2743_12408" style="mask-type:luminance" maskUnits="userSpaceOnUse" x="102" y="10" width="295" height="382">
<path d="M169.179 10.0841L396.133 45.7929L329.882 391.903L102.929 356.19L169.179 10.0841Z" fill="white"/>
</mask>
<g mask="url(#mask13_2743_12408)">
<mask id="mask14_2743_12408" style="mask-type:luminance" maskUnits="userSpaceOnUse" x="103" y="10" width="294" height="382">
<path d="M396.354 45.829L169.401 10.1203L103.15 356.226L330.104 391.934L396.354 45.829Z" fill="white"/>
</mask>
<g mask="url(#mask14_2743_12408)">
<path d="M211.517 345.126C209.449 342.873 206.698 342.236 206.296 342.154C205.874 342.185 204.223 342.322 201.869 342.609C204.278 343.546 207.355 345.444 208.47 349.24C208.57 349.581 208.344 349.932 207.973 350.023C207.872 350.045 207.767 350.05 207.672 350.032C207.411 349.991 207.185 349.818 207.114 349.572C205.588 344.388 199.775 343.196 198.701 343.032C198.044 343.132 197.361 343.237 196.658 343.351C198.927 344.256 201.964 346.159 203.114 350.059C203.214 350.4 202.988 350.751 202.617 350.842C202.516 350.865 202.411 350.869 202.315 350.851C202.054 350.81 201.829 350.637 201.758 350.391C200.217 345.148 194.741 343.992 193.847 343.847C192.999 344.006 192.135 344.183 191.272 344.37C193.541 345.235 196.734 347.119 197.908 351.101C198.004 351.443 197.783 351.789 197.411 351.88C197.306 351.907 197.205 351.907 197.11 351.893C196.849 351.852 196.623 351.679 196.548 351.429C195.007 346.195 189.626 345.098 188.737 344.966C182.743 346.473 176.986 348.707 174.707 351.966C173.944 353.063 173.813 354.023 174.32 354.911C176.388 358.543 188.481 361.137 207.506 362.042C217.957 362.543 226.596 361.574 228.699 361.305L230.928 350.51L213.866 350.478C213.826 350.478 213.786 350.473 213.745 350.469C213.6 350.446 213.469 350.382 213.364 350.287C213.233 350.168 213.163 350.004 213.163 349.836C213.163 349.809 213.163 346.923 211.517 345.126ZM318.588 361.237C322.87 363.367 323.121 367.686 323.121 367.727C323.131 367.932 323.246 368.118 323.432 368.227C323.517 368.278 323.608 368.314 323.703 368.328C323.824 368.346 323.949 368.337 324.065 368.3L328.793 366.739L329.335 377.721C328.191 378.349 323.653 380.57 312.71 383.078C301.325 385.69 288.65 384.921 285.588 381.435C284.675 380.393 284.639 379.15 285.493 377.644C287.169 374.672 290.994 371.24 295.066 368.146C296.024 368.095 299.563 367.995 302.058 368.974C306.802 370.831 307.198 373.666 307.213 373.789C307.248 374.076 307.494 374.299 307.791 374.344C307.856 374.358 307.921 374.358 307.986 374.353C308.368 374.317 308.649 374.008 308.614 373.662C308.599 373.511 308.167 369.98 302.615 367.804C300.748 367.071 298.454 366.88 296.812 366.848C297.595 366.28 298.374 365.729 299.142 365.196C300.231 365.151 303.915 365.073 306.37 366.038C311.199 367.927 311.937 371.632 311.947 371.668C311.997 371.941 312.233 372.146 312.519 372.187C312.594 372.201 312.675 372.201 312.755 372.187C313.137 372.132 313.393 371.8 313.327 371.454C313.297 371.277 312.449 367.031 306.927 364.869C305.095 364.154 302.751 363.945 301.034 363.904C301.817 363.385 302.575 362.889 303.283 362.429C304.232 362.452 307.946 362.593 310.486 363.59C315.33 365.488 316.691 369.752 316.701 369.798C316.776 370.039 317.002 370.212 317.258 370.253C317.358 370.271 317.464 370.266 317.564 370.239C317.941 370.148 318.156 369.798 318.056 369.456C317.996 369.261 316.52 364.568 311.043 362.42C309.171 361.687 306.817 361.378 305.15 361.25C306.902 360.158 308.157 359.421 308.559 359.189C309.427 359.134 314.075 358.989 318.588 361.237Z" fill="#FCFACD"/>
</g>
</g>
</g>
<mask id="mask15_2743_12408" style="mask-type:luminance" maskUnits="userSpaceOnUse" x="149" y="53" width="120" height="138">
<path d="M149.877 53.944H268.102V190.262H149.877V53.944Z" fill="white"/>
</mask>
<g mask="url(#mask15_2743_12408)">
<mask id="mask16_2743_12408" style="mask-type:luminance" maskUnits="userSpaceOnUse" x="102" y="10" width="295" height="382">
<path d="M169.177 10.084L396.13 45.7928L329.879 391.903L102.926 356.19L169.177 10.084Z" fill="white"/>
</mask>
<g mask="url(#mask16_2743_12408)">
<mask id="mask17_2743_12408" style="mask-type:luminance" maskUnits="userSpaceOnUse" x="103" y="10" width="294" height="382">
<path d="M396.351 45.829L169.398 10.1203L103.147 356.226L330.101 391.934L396.351 45.829Z" fill="white"/>
</mask>
<g mask="url(#mask17_2743_12408)">
<path d="M251.01 107.557C249.414 107.307 247.883 106.743 246.412 105.896C245.308 111.362 241.694 129.303 237.101 152.387L245.654 188.291L258.615 189.665C260.227 160.611 262.782 129.763 266.848 101.181C264.784 103.229 260.819 106.419 255.925 107.416C254.233 107.762 252.592 107.808 251.01 107.557ZM182.079 93.1253L184.925 90.8133C185.337 91.3094 185.753 91.8055 186.215 92.2742C186.627 92.6975 187.059 93.0935 187.5 93.4849L184.052 96.343C183.525 95.2143 182.862 94.122 182.079 93.1253ZM189.343 60.0199C179.218 68.162 178.284 82.2525 187.264 91.4323C191.612 95.8788 197.615 98.523 204.156 98.878C210.697 99.233 217.006 97.2578 221.906 93.3119C226.81 89.3706 229.727 83.9319 230.123 77.9971C230.515 72.0669 228.336 66.3506 223.984 61.9041C215.009 52.7288 199.467 51.8823 189.343 60.0199ZM190.718 61.4262C192.204 60.2292 193.83 59.2644 195.532 58.4907C195.567 58.4724 195.597 58.4542 195.632 58.4406C204.497 54.4537 215.566 56.1195 222.438 63.1511C230.66 71.5526 229.802 84.4553 220.535 91.9101C216.053 95.5147 210.28 97.3215 204.281 96.9938C203.418 96.9483 202.57 96.8573 201.731 96.7253C196.737 95.9425 192.219 93.6669 188.816 90.1852C180.593 81.7792 181.447 68.8811 190.718 61.4262ZM155.148 112.095C155.243 112.063 155.339 112.031 155.409 111.963L156.152 111.312L158.657 109.109C159.435 110.22 161.071 112.432 162.768 114.038C163.34 114.58 163.918 115.048 164.475 115.385L156.393 122.162C153.22 120.847 151.278 118.867 150.475 116.127L155.148 112.095Z" fill="#AAFF00"/>
</g>
</g>
</g>
<mask id="mask18_2743_12408" style="mask-type:luminance" maskUnits="userSpaceOnUse" x="156" y="91" width="215" height="228">
<path d="M156.303 91.2275H370.907V318.424H156.303V91.2275Z" fill="white"/>
</mask>
<g mask="url(#mask18_2743_12408)">
<mask id="mask19_2743_12408" style="mask-type:luminance" maskUnits="userSpaceOnUse" x="102" y="10" width="295" height="382">
<path d="M169.177 10.084L396.131 45.7928L329.88 391.903L102.927 356.19L169.177 10.084Z" fill="white"/>
</mask>
<g mask="url(#mask19_2743_12408)">
<mask id="mask20_2743_12408" style="mask-type:luminance" maskUnits="userSpaceOnUse" x="103" y="10" width="294" height="382">
<path d="M396.351 45.829L169.398 10.1203L103.147 356.226L330.101 391.934L396.351 45.829Z" fill="white"/>
</mask>
<g mask="url(#mask20_2743_12408)">
<path d="M256.029 267.009L248.319 293.051L255.773 294.225C255.813 286.952 255.874 277.709 256.029 267.009ZM162.185 119.044C162.35 119.072 162.511 119.104 162.677 119.126C166.939 119.8 171.306 119.586 175.989 118.48C176.074 118.457 176.15 118.421 176.22 118.375C178.374 117.806 180.527 116.76 181.968 115.417L189.608 125.266C189.723 125.412 189.884 125.498 190.065 125.525C190.24 125.553 190.431 125.521 190.587 125.421C190.903 125.216 190.983 124.82 190.757 124.533L187.023 119.718C191.279 117.952 221.418 105.609 232.15 105.136C232.291 105.127 232.411 105.077 232.522 105.004C232.928 105.086 233.33 105.181 233.741 105.245C234.454 105.359 235.172 105.436 235.89 105.5C235.448 106.683 232.05 115.79 231.553 117.074C231.001 118.507 233.566 119.836 235.508 120.61C233.651 121.821 230.072 124.319 229.279 126.181C228.134 128.861 226.674 174.164 227.477 181.897C227.507 182.188 227.753 182.415 228.059 182.465C228.119 182.475 228.18 182.475 228.245 182.47C228.631 182.438 228.912 182.124 228.877 181.778C227.999 173.349 229.716 128.729 230.589 126.64C231.322 124.929 235.729 121.985 237.366 120.997C237.582 120.86 237.702 120.628 237.672 120.392C237.642 120.155 237.466 119.955 237.22 119.868C234.801 119.04 232.898 117.907 232.883 117.483C233.415 116.118 237.27 105.773 237.27 105.773L236.542 105.55C239.414 105.741 242.325 105.532 245.181 104.904C242.375 118.794 210.103 278.869 207.262 303.928C204.913 303.614 196.706 302.085 186.325 295.021L226.774 135.433C226.859 135.092 226.623 134.751 226.247 134.673C225.83 134.582 225.494 134.81 225.404 135.151L223.396 143.084C222.121 143.462 196.46 150.989 178.133 148.809C170.437 147.885 160.568 142.788 157.24 123.682C157.21 123.514 157.19 123.386 157.165 123.254L162.185 119.044ZM244.328 188.755C235.016 202.281 227.452 216.818 221.312 232.97C226.237 207.292 231.789 179.12 236.447 155.677L244.328 188.755ZM286.549 110.229C286.323 111.057 281.374 114.293 276.911 116.778C276.716 116.887 276.59 117.078 276.58 117.288C276.57 117.497 276.67 117.697 276.851 117.825C280.259 120.205 285.831 124.483 286.283 125.839C286.569 128.215 270.727 171.47 262.239 184.04C262.038 184.341 262.138 184.732 262.469 184.914C262.55 184.955 262.635 184.987 262.715 184.996C262.992 185.041 263.283 184.932 263.438 184.705C271.505 172.753 288.502 128.106 287.628 125.471C287.001 123.591 280.987 119.149 278.508 117.383C283.136 114.757 288.186 111.526 287.935 110.038C287.709 108.672 283.964 94.9503 283.106 91.81C293.256 92.2469 304.199 93.6715 313.977 95.9516C335.085 100.876 362.147 111.844 368.944 126.558C375.861 141.536 338.634 177.655 334.578 181.528C332.184 180.427 320.774 174.915 311.954 165.954C314.856 162.108 326.085 143.243 326.587 142.401C326.682 142.237 326.697 142.042 326.622 141.869C326.552 141.691 326.396 141.559 326.2 141.496L315.453 138.082C315.312 137.964 315.122 137.891 314.911 137.909L305.715 134.992C305.353 134.869 304.952 135.051 304.821 135.379C304.696 135.711 304.886 136.075 305.253 136.193L314.329 139.074L316.181 156.892C316.181 156.901 316.191 156.906 316.191 156.915C313.495 161.266 311.201 164.839 310.473 165.64C309.936 166.227 308.305 167.437 306.407 168.844C300.981 172.872 293.547 178.392 293.115 182.247C292.523 187.567 305.574 201.758 311.076 204.015C311.327 204.12 311.598 204.193 311.894 204.238C314.268 204.612 318.063 203.278 321.125 201.644L333.529 313.959C332.651 314.341 330.889 314.792 328.479 315.247L327.52 315.424C319.313 316.885 304.605 318.355 289.651 317.996L289.039 317.978C277.433 317.654 265.737 316.221 256.888 312.798C257.093 311.246 257.113 307.346 257.164 297.502C257.344 261.802 257.826 166.987 269.658 91.8692C273.403 91.6507 277.443 91.6143 281.64 91.7554C283.296 97.7903 286.359 109.082 286.549 110.229Z" fill="white"/>
</g>
</g>
</g>
</g>
</g>
</g>
<mask id="mask21_2743_12408" style="mask-type:luminance" maskUnits="userSpaceOnUse" x="39" y="256" width="329" height="351">
<path d="M39.3633 256.673H367.053V606.205H39.3633V256.673Z" fill="white"/>
</mask>
<g mask="url(#mask21_2743_12408)">
<mask id="mask22_2743_12408" style="mask-type:luminance" maskUnits="userSpaceOnUse" x="14" y="200" width="356" height="409">
<path d="M14.2549 275.173L230.551 200.834L369.93 534.21L153.638 608.549L14.2549 275.173Z" fill="white"/>
</mask>
<g mask="url(#mask22_2743_12408)">
<mask id="mask23_2743_12408" style="mask-type:luminance" maskUnits="userSpaceOnUse" x="14" y="200" width="356" height="409">
<path d="M14.2549 275.173L230.551 200.834L369.93 534.21L153.638 608.549L14.2549 275.173Z" fill="white"/>
</mask>
<g mask="url(#mask23_2743_12408)">
<path d="M45.4233 326.233L244.186 257.924C244.753 257.729 245.33 257.588 245.927 257.497C246.52 257.406 247.117 257.369 247.719 257.387C248.322 257.401 248.919 257.474 249.507 257.597C250.094 257.72 250.661 257.893 251.213 258.116C251.76 258.339 252.282 258.612 252.774 258.93C253.261 259.244 253.713 259.604 254.13 260C254.541 260.4 254.908 260.833 255.229 261.292C255.545 261.756 255.816 262.243 256.027 262.758L366.301 526.514C366.517 527.028 366.673 527.551 366.773 528.088C366.873 528.63 366.914 529.172 366.894 529.718C366.878 530.264 366.798 530.806 366.663 531.338C366.527 531.87 366.336 532.385 366.09 532.885C365.844 533.382 365.543 533.855 365.192 534.296C364.845 534.742 364.449 535.152 364.012 535.53C363.57 535.903 363.094 536.235 362.587 536.526C362.075 536.813 361.537 537.054 360.97 537.25L162.208 605.559C161.646 605.755 161.068 605.896 160.471 605.987C159.879 606.078 159.281 606.114 158.679 606.096C158.077 606.082 157.479 606.01 156.892 605.887C156.305 605.764 155.737 605.591 155.185 605.368C154.638 605.145 154.116 604.872 153.624 604.553C153.132 604.239 152.68 603.88 152.269 603.484C151.857 603.083 151.491 602.655 151.17 602.191C150.848 601.727 150.582 601.24 150.371 600.726L40.0923 336.97C39.8815 336.455 39.7259 335.932 39.6255 335.395C39.5251 334.853 39.4849 334.312 39.505 333.766C39.5201 333.22 39.5954 332.678 39.7309 332.145C39.8664 331.613 40.0622 331.099 40.3082 330.598C40.5541 330.102 40.8553 329.629 41.2017 329.187C41.5531 328.741 41.9496 328.332 42.3864 327.954C42.8281 327.581 43.3 327.248 43.812 326.957C44.324 326.67 44.8611 326.429 45.4233 326.233Z" fill="#AAFF00"/>
</g>
</g>
</g>
<mask id="mask24_2743_12408" style="mask-type:luminance" maskUnits="userSpaceOnUse" x="53" y="272" width="299" height="320">
<path d="M53.499 272.984H351.632V591.059H53.499V272.984Z" fill="white"/>
</mask>
<g mask="url(#mask24_2743_12408)">
<mask id="mask25_2743_12408" style="mask-type:luminance" maskUnits="userSpaceOnUse" x="14" y="200" width="356" height="409">
<path d="M14.2549 275.173L230.551 200.834L369.93 534.21L153.638 608.549L14.2549 275.173Z" fill="white"/>
</mask>
<g mask="url(#mask25_2743_12408)">
<mask id="mask26_2743_12408" style="mask-type:luminance" maskUnits="userSpaceOnUse" x="14" y="200" width="356" height="409">
<path d="M14.2549 275.173L230.551 200.834L369.93 534.21L153.638 608.549L14.2549 275.173Z" fill="white"/>
</mask>
<g mask="url(#mask26_2743_12408)">
<path d="M54.418 338.777L245.811 272.998L351.126 524.894L159.732 590.672L54.418 338.777Z" fill="white"/>
</g>
</g>
</g>
<mask id="mask27_2743_12408" style="mask-type:luminance" maskUnits="userSpaceOnUse" x="107" y="246" width="60" height="53">
<path d="M107.472 246.187H166.584V298.617H107.472V246.187Z" fill="white"/>
</mask>
<g mask="url(#mask27_2743_12408)">
<mask id="mask28_2743_12408" style="mask-type:luminance" maskUnits="userSpaceOnUse" x="14" y="200" width="356" height="409">
<path d="M14.2549 275.173L230.551 200.834L369.93 534.21L153.638 608.549L14.2549 275.173Z" fill="white"/>
</mask>
<g mask="url(#mask28_2743_12408)">
<mask id="mask29_2743_12408" style="mask-type:luminance" maskUnits="userSpaceOnUse" x="14" y="200" width="356" height="409">
<path d="M14.2549 275.173L230.551 200.834L369.93 534.21L153.638 608.549L14.2549 275.173Z" fill="white"/>
</mask>
<g mask="url(#mask29_2743_12408)">
<path d="M148.84 248.467C149.688 248.813 150.517 249.195 151.325 249.618C152.133 250.037 152.921 250.497 153.679 250.984C154.437 251.475 155.17 251.999 155.873 252.554C156.575 253.114 157.248 253.696 157.886 254.315C158.523 254.93 159.13 255.571 159.698 256.24C160.27 256.914 160.797 257.606 161.294 258.32C161.786 259.039 162.243 259.777 162.659 260.532C163.071 261.292 163.442 262.066 163.774 262.858C164.105 263.645 164.391 264.451 164.637 265.265C164.878 266.085 165.079 266.908 165.234 267.741C165.385 268.579 165.495 269.416 165.561 270.258C165.621 271.105 165.641 271.947 165.611 272.793C165.581 273.64 165.511 274.482 165.39 275.319C165.27 276.156 165.104 276.989 164.893 277.813C164.687 278.637 164.431 279.452 164.135 280.253C163.834 281.054 163.498 281.836 163.111 282.61C162.73 283.379 162.308 284.135 161.841 284.867C161.379 285.6 160.872 286.31 160.335 286.997C159.793 287.689 159.216 288.349 158.603 288.986C157.986 289.623 157.343 290.233 156.661 290.811C155.983 291.394 155.275 291.94 154.537 292.454C153.794 292.973 153.031 293.456 152.243 293.902C151.45 294.352 150.637 294.762 149.804 295.14C148.965 295.517 148.112 295.854 147.239 296.154C146.365 296.45 145.482 296.714 144.583 296.933C143.68 297.156 142.771 297.333 141.852 297.474C140.929 297.615 140.005 297.711 139.076 297.77C138.143 297.825 137.214 297.843 136.28 297.816C135.347 297.793 134.418 297.725 133.495 297.615C132.571 297.506 131.652 297.361 130.744 297.169C129.835 296.978 128.937 296.746 128.053 296.478C127.17 296.209 126.306 295.9 125.453 295.554C124.605 295.203 123.771 294.821 122.963 294.402C122.155 293.979 121.372 293.524 120.614 293.032C119.851 292.541 119.123 292.017 118.42 291.462C117.717 290.907 117.045 290.32 116.407 289.705C115.765 289.086 115.162 288.445 114.595 287.776C114.023 287.107 113.491 286.41 112.999 285.696C112.502 284.977 112.05 284.239 111.633 283.484C111.217 282.724 110.845 281.95 110.514 281.163C110.188 280.371 109.897 279.565 109.656 278.751C109.41 277.936 109.214 277.108 109.058 276.275C108.903 275.442 108.797 274.6 108.732 273.758C108.667 272.916 108.652 272.069 108.682 271.223C108.707 270.381 108.782 269.539 108.903 268.697C109.023 267.86 109.184 267.027 109.395 266.203C109.606 265.379 109.862 264.569 110.158 263.768C110.454 262.967 110.795 262.18 111.177 261.406C111.563 260.637 111.985 259.886 112.447 259.153C112.914 258.416 113.416 257.706 113.958 257.019C114.5 256.331 115.077 255.667 115.689 255.03C116.302 254.393 116.949 253.783 117.627 253.205C118.31 252.627 119.018 252.076 119.755 251.562C120.493 251.043 121.261 250.56 122.049 250.114C122.843 249.664 123.656 249.254 124.489 248.877C125.327 248.503 126.181 248.167 127.049 247.866C127.923 247.566 128.811 247.306 129.71 247.083C130.608 246.865 131.522 246.683 132.44 246.542C133.359 246.405 134.288 246.305 135.216 246.246C136.145 246.191 137.079 246.173 138.012 246.2C138.941 246.228 139.87 246.291 140.798 246.401C141.722 246.51 142.635 246.66 143.549 246.851C144.458 247.038 145.351 247.27 146.235 247.538C147.118 247.807 147.987 248.117 148.84 248.467Z" fill="black"/>
</g>
</g>
</g>
<mask id="mask30_2743_12408" style="mask-type:luminance" maskUnits="userSpaceOnUse" x="121" y="250" width="23" height="21">
<path d="M121.606 250.847H143.452V270.654H121.606V250.847Z" fill="white"/>
</mask>
<g mask="url(#mask30_2743_12408)">
<mask id="mask31_2743_12408" style="mask-type:luminance" maskUnits="userSpaceOnUse" x="14" y="200" width="356" height="409">
<path d="M14.2539 275.173L230.55 200.834L369.929 534.21L153.637 608.549L14.2539 275.173Z" fill="white"/>
</mask>
<g mask="url(#mask31_2743_12408)">
<mask id="mask32_2743_12408" style="mask-type:luminance" maskUnits="userSpaceOnUse" x="14" y="200" width="356" height="409">
<path d="M14.252 275.173L230.548 200.834L369.927 534.21L153.636 608.549L14.252 275.173Z" fill="white"/>
</mask>
<g mask="url(#mask32_2743_12408)">
<path d="M142.286 257.205C142.537 257.797 142.717 258.402 142.833 259.026C142.943 259.645 142.993 260.273 142.973 260.901C142.948 261.533 142.863 262.157 142.707 262.771C142.547 263.386 142.326 263.982 142.04 264.555C141.758 265.129 141.412 265.675 141.006 266.189C140.604 266.704 140.147 267.177 139.64 267.609C139.133 268.042 138.586 268.424 137.994 268.756C137.406 269.093 136.784 269.371 136.136 269.594C135.484 269.821 134.816 269.985 134.128 270.085C133.446 270.19 132.753 270.235 132.055 270.213C131.363 270.194 130.675 270.117 129.997 269.971C129.32 269.83 128.662 269.63 128.029 269.371C127.392 269.111 126.795 268.802 126.227 268.433C125.66 268.069 125.138 267.655 124.661 267.195C124.184 266.735 123.763 266.239 123.391 265.702C123.025 265.17 122.719 264.606 122.468 264.018C122.222 263.427 122.041 262.821 121.925 262.198C121.81 261.574 121.765 260.951 121.785 260.318C121.81 259.69 121.895 259.067 122.051 258.452C122.212 257.838 122.432 257.242 122.714 256.668C123 256.09 123.346 255.549 123.753 255.034C124.154 254.52 124.611 254.047 125.118 253.614C125.625 253.182 126.172 252.8 126.759 252.463C127.352 252.131 127.974 251.848 128.622 251.625C129.274 251.402 129.942 251.239 130.63 251.134C131.312 251.029 132.005 250.988 132.703 251.007C133.396 251.025 134.083 251.107 134.761 251.248C135.439 251.389 136.096 251.589 136.729 251.848C137.366 252.108 137.964 252.422 138.531 252.786C139.098 253.155 139.62 253.569 140.097 254.029C140.574 254.488 140.995 254.984 141.367 255.517C141.733 256.054 142.04 256.614 142.286 257.205Z" fill="white"/>
</g>
</g>
</g>
<mask id="mask33_2743_12408" style="mask-type:luminance" maskUnits="userSpaceOnUse" x="98" y="282" width="56" height="37">
<path d="M98.4766 282.305H153.734V318.423H98.4766V282.305Z" fill="white"/>
</mask>
<g mask="url(#mask33_2743_12408)">
<mask id="mask34_2743_12408" style="mask-type:luminance" maskUnits="userSpaceOnUse" x="14" y="200" width="356" height="409">
<path d="M14.2549 275.173L230.551 200.834L369.93 534.21L153.638 608.549L14.2549 275.173Z" fill="white"/>
</mask>
<g mask="url(#mask34_2743_12408)">
<mask id="mask35_2743_12408" style="mask-type:luminance" maskUnits="userSpaceOnUse" x="14" y="200" width="356" height="409">
<path d="M14.2529 275.173L230.549 200.834L369.928 534.21L153.636 608.549L14.2529 275.173Z" fill="white"/>
</mask>
<g mask="url(#mask35_2743_12408)">
<path d="M99.5137 318.082C100.663 317.19 103.6 314.66 104.724 310.441C106.3 304.51 103.093 299.809 102.48 298.944C117.248 293.761 132.012 288.572 146.78 283.388C153.827 290.675 153.697 295.763 153.346 297.92C151.473 309.157 130.23 318.765 99.5137 318.078V318.082Z" fill="black"/>
</g>
</g>
</g>
<mask id="mask36_2743_12408" style="mask-type:luminance" maskUnits="userSpaceOnUse" x="135" y="270" width="64" height="36">
<path d="M135.742 270.654H198.71V305.607H135.742V270.654Z" fill="white"/>
</mask>
<g mask="url(#mask36_2743_12408)">
<mask id="mask37_2743_12408" style="mask-type:luminance" maskUnits="userSpaceOnUse" x="14" y="200" width="356" height="409">
<path d="M14.2539 275.173L230.55 200.834L369.929 534.21L153.637 608.549L14.2539 275.173Z" fill="white"/>
</mask>
<g mask="url(#mask37_2743_12408)">
<mask id="mask38_2743_12408" style="mask-type:luminance" maskUnits="userSpaceOnUse" x="14" y="200" width="356" height="409">
<path d="M14.2539 275.173L230.55 200.834L369.929 534.21L153.637 608.549L14.2539 275.173Z" fill="white"/>
</mask>
<g mask="url(#mask38_2743_12408)">
<path d="M197.692 284.34C196.181 284.362 192.13 284.235 188.204 281.75C182.688 278.259 181.653 272.811 181.483 271.796C166.629 276.789 151.786 281.777 136.938 286.77C136.988 296.464 140.808 300.196 142.645 301.598C152.263 308.884 175.193 303.314 197.687 284.335L197.692 284.34Z" fill="black"/>
</g>
</g>
</g>
<mask id="mask39_2743_12408" style="mask-type:luminance" maskUnits="userSpaceOnUse" x="95" y="262" width="90" height="37">
<path d="M95.9062 262.498H184.575V298.617H95.9062V262.498Z" fill="white"/>
</mask>
<g mask="url(#mask39_2743_12408)">
<mask id="mask40_2743_12408" style="mask-type:luminance" maskUnits="userSpaceOnUse" x="14" y="200" width="356" height="409">
<path d="M14.2549 275.173L230.551 200.834L369.93 534.21L153.638 608.549L14.2549 275.173Z" fill="white"/>
</mask>
<g mask="url(#mask40_2743_12408)">
<mask id="mask41_2743_12408" style="mask-type:luminance" maskUnits="userSpaceOnUse" x="14" y="200" width="356" height="409">
<path d="M14.2549 275.173L230.551 200.834L369.93 534.21L153.638 608.549L14.2549 275.173Z" fill="white"/>
</mask>
<g mask="url(#mask41_2743_12408)">
<path d="M99.867 289.792L176.785 263.359C177.407 263.145 178.05 263.045 178.712 263.063C179.375 263.081 180.012 263.213 180.62 263.463C181.222 263.709 181.754 264.055 182.211 264.492C182.663 264.929 183.009 265.429 183.245 265.994C183.481 266.558 183.592 267.141 183.571 267.741C183.551 268.347 183.401 268.92 183.13 269.471C182.859 270.022 182.477 270.504 181.995 270.914C181.508 271.328 180.956 271.642 180.339 271.856L103.416 298.289C102.794 298.503 102.151 298.603 101.488 298.585C100.826 298.567 100.188 298.43 99.5809 298.184C98.9785 297.939 98.4464 297.593 97.9896 297.156C97.5378 296.719 97.1915 296.214 96.9556 295.654C96.7196 295.09 96.6092 294.507 96.6293 293.902C96.6494 293.301 96.7999 292.727 97.071 292.177C97.3421 291.626 97.7236 291.144 98.2055 290.734C98.6924 290.32 99.2446 290.006 99.867 289.792Z" fill="#D6FF84"/>
</g>
</g>
</g>
<mask id="mask42_2743_12408" style="mask-type:luminance" maskUnits="userSpaceOnUse" x="95" y="282" width="112" height="47">
<path d="M95.9062 282.305H206.421V328.909H95.9062V282.305Z" fill="white"/>
</mask>
<g mask="url(#mask42_2743_12408)">
<mask id="mask43_2743_12408" style="mask-type:luminance" maskUnits="userSpaceOnUse" x="14" y="200" width="356" height="409">
<path d="M14.2549 275.173L230.551 200.834L369.93 534.21L153.638 608.549L14.2549 275.173Z" fill="white"/>
</mask>
<g mask="url(#mask43_2743_12408)">
<mask id="mask44_2743_12408" style="mask-type:luminance" maskUnits="userSpaceOnUse" x="14" y="200" width="356" height="409">
<path d="M14.2549 275.173L230.551 200.834L369.93 534.21L153.638 608.549L14.2549 275.173Z" fill="white"/>
</mask>
<g mask="url(#mask44_2743_12408)">
<path d="M100.204 316.963L197.577 283.498C197.964 283.366 198.365 283.265 198.772 283.202C199.183 283.143 199.595 283.115 200.007 283.129C200.423 283.138 200.835 283.188 201.237 283.27C201.643 283.357 202.035 283.475 202.411 283.63C202.793 283.784 203.149 283.971 203.485 284.189C203.827 284.408 204.133 284.654 204.419 284.927C204.705 285.204 204.956 285.5 205.177 285.819C205.398 286.137 205.579 286.474 205.729 286.825V286.829C205.875 287.184 205.985 287.544 206.055 287.917C206.121 288.285 206.151 288.659 206.136 289.036C206.126 289.41 206.071 289.783 205.98 290.151C205.885 290.516 205.754 290.871 205.584 291.216C205.413 291.558 205.207 291.881 204.966 292.19C204.725 292.495 204.454 292.777 204.153 293.037C203.847 293.292 203.521 293.519 203.169 293.72C202.818 293.92 202.446 294.088 202.06 294.22L104.687 327.685C104.3 327.817 103.898 327.917 103.492 327.981C103.08 328.04 102.669 328.068 102.252 328.054C101.84 328.045 101.429 327.995 101.027 327.913C100.621 327.826 100.229 327.708 99.8525 327.553C99.471 327.399 99.1146 327.212 98.7783 326.993C98.4369 326.775 98.1257 326.529 97.8446 326.256C97.5585 325.979 97.3075 325.683 97.0866 325.364C96.8657 325.046 96.685 324.709 96.5344 324.358V324.354C96.3838 323.999 96.2784 323.639 96.2082 323.266C96.1429 322.897 96.1128 322.524 96.1278 322.146C96.1379 321.773 96.1931 321.4 96.2834 321.031C96.3788 320.667 96.5093 320.312 96.68 319.971C96.8507 319.625 97.0565 319.302 97.2974 318.992C97.5384 318.688 97.8095 318.405 98.1106 318.15C98.4118 317.891 98.7431 317.663 99.0945 317.463C99.4459 317.263 99.8123 317.095 100.204 316.963Z" fill="#D6FF84"/>
</g>
</g>
</g>
<mask id="mask45_2743_12408" style="mask-type:luminance" maskUnits="userSpaceOnUse" x="90" y="318" width="14" height="13">
<path d="M90.7646 318.424H103.615V330.075H90.7646V318.424Z" fill="white"/>
</mask>
<g mask="url(#mask45_2743_12408)">
<mask id="mask46_2743_12408" style="mask-type:luminance" maskUnits="userSpaceOnUse" x="14" y="200" width="356" height="409">
<path d="M14.2529 275.173L230.549 200.834L369.928 534.21L153.636 608.549L14.2529 275.173Z" fill="white"/>
</mask>
<g mask="url(#mask46_2743_12408)">
<mask id="mask47_2743_12408" style="mask-type:luminance" maskUnits="userSpaceOnUse" x="14" y="200" width="356" height="409">
<path d="M14.251 275.173L230.547 200.834L369.926 534.21L153.635 608.549L14.251 275.173Z" fill="white"/>
</mask>
<g mask="url(#mask47_2743_12408)">
<path d="M101.961 322.492C102.107 322.843 102.222 323.202 102.303 323.571C102.383 323.94 102.433 324.304 102.443 324.672C102.453 325.041 102.428 325.401 102.373 325.756C102.313 326.111 102.222 326.452 102.097 326.78C101.971 327.107 101.811 327.417 101.625 327.703C101.434 327.99 101.219 328.254 100.978 328.495C100.732 328.732 100.466 328.941 100.174 329.119C99.8833 329.296 99.5771 329.442 99.2508 329.551C98.9245 329.665 98.5882 329.742 98.2418 329.783C97.8954 329.824 97.5441 329.829 97.1877 329.797C96.8313 329.765 96.4749 329.697 96.1235 329.597C95.7721 329.492 95.4257 329.356 95.0944 329.187C94.7581 329.014 94.4419 328.814 94.1407 328.586C93.8345 328.354 93.5534 328.099 93.2923 327.817C93.0363 327.535 92.8004 327.23 92.5946 326.907C92.3838 326.584 92.2081 326.247 92.0625 325.897C91.9119 325.546 91.8015 325.187 91.7161 324.818C91.6358 324.449 91.5906 324.085 91.5806 323.717C91.5706 323.348 91.5906 322.988 91.6509 322.633C91.7061 322.278 91.8015 321.937 91.927 321.609C92.0524 321.282 92.2081 320.972 92.3988 320.685C92.5845 320.394 92.8004 320.135 93.0464 319.894C93.2923 319.657 93.5584 319.448 93.8495 319.27C94.1407 319.093 94.4469 318.947 94.7732 318.838C95.0944 318.724 95.4307 318.647 95.7821 318.606C96.1285 318.565 96.4799 318.56 96.8363 318.592C97.1927 318.624 97.5491 318.692 97.9005 318.792C98.2518 318.897 98.5932 319.033 98.9295 319.202C99.2608 319.37 99.5821 319.57 99.8833 319.803C100.184 320.035 100.466 320.29 100.727 320.572C100.988 320.854 101.224 321.159 101.429 321.482C101.635 321.805 101.816 322.142 101.961 322.492Z" fill="#D6FF84"/>
</g>
</g>
</g>
<mask id="mask48_2743_12408" style="mask-type:luminance" maskUnits="userSpaceOnUse" x="197" y="281" width="14" height="13">
<path d="M197.425 281.14H210.275V293.956H197.425V281.14Z" fill="white"/>
</mask>
<g mask="url(#mask48_2743_12408)">
<mask id="mask49_2743_12408" style="mask-type:luminance" maskUnits="userSpaceOnUse" x="14" y="200" width="356" height="409">
<path d="M14.2539 275.173L230.55 200.834L369.929 534.21L153.637 608.549L14.2539 275.173Z" fill="white"/>
</mask>
<g mask="url(#mask49_2743_12408)">
<mask id="mask50_2743_12408" style="mask-type:luminance" maskUnits="userSpaceOnUse" x="14" y="200" width="356" height="409">
<path d="M14.2539 275.173L230.55 200.834L369.929 534.21L153.637 608.549L14.2539 275.173Z" fill="white"/>
</mask>
<g mask="url(#mask50_2743_12408)">
<path d="M209.026 285.696C209.171 286.051 209.287 286.41 209.367 286.774C209.448 287.143 209.498 287.507 209.508 287.876C209.518 288.244 209.493 288.604 209.438 288.959C209.377 289.314 209.287 289.655 209.161 289.983C209.036 290.311 208.875 290.62 208.69 290.907C208.499 291.198 208.283 291.462 208.042 291.699C207.796 291.935 207.53 292.145 207.239 292.322C206.948 292.5 206.642 292.645 206.315 292.755C205.989 292.868 205.653 292.946 205.306 292.987C204.96 293.028 204.609 293.032 204.252 293C203.896 292.969 203.539 292.9 203.188 292.8C202.837 292.696 202.49 292.559 202.159 292.391C201.823 292.222 201.506 292.022 201.205 291.79C200.899 291.558 200.618 291.303 200.357 291.021C200.101 290.739 199.865 290.438 199.659 290.115C199.448 289.792 199.273 289.451 199.127 289.1C198.976 288.75 198.866 288.39 198.781 288.021C198.7 287.657 198.655 287.289 198.645 286.92C198.635 286.551 198.655 286.192 198.715 285.837C198.771 285.482 198.866 285.141 198.991 284.813C199.117 284.485 199.273 284.176 199.463 283.889C199.649 283.602 199.865 283.338 200.111 283.102C200.357 282.86 200.623 282.656 200.914 282.474C201.205 282.296 201.511 282.15 201.838 282.041C202.159 281.927 202.495 281.855 202.847 281.814C203.193 281.773 203.544 281.768 203.901 281.795C204.257 281.827 204.614 281.896 204.965 282C205.316 282.1 205.658 282.237 205.994 282.405C206.325 282.578 206.647 282.778 206.948 283.006C207.249 283.238 207.53 283.493 207.791 283.775C208.052 284.057 208.288 284.362 208.494 284.685C208.7 285.009 208.88 285.345 209.026 285.696Z" fill="#D6FF84"/>
</g>
</g>
</g>
<mask id="mask51_2743_12408" style="mask-type:luminance" maskUnits="userSpaceOnUse" x="161" y="375" width="114" height="88">
<path d="M161.444 375.514H274.529V462.897H161.444V375.514Z" fill="white"/>
</mask>
<g mask="url(#mask51_2743_12408)">
<mask id="mask52_2743_12408" style="mask-type:luminance" maskUnits="userSpaceOnUse" x="78" y="296" width="227" height="218">
<path d="M78.834 345.398L244.792 296.664L304.778 464.59L138.82 513.324L78.834 345.398Z" fill="white"/>
</mask>
<g mask="url(#mask52_2743_12408)">
<mask id="mask53_2743_12408" style="mask-type:luminance" maskUnits="userSpaceOnUse" x="78" y="296" width="227" height="218">
<path d="M78.835 345.398L244.793 296.664L304.779 464.59L138.821 513.324L78.835 345.398Z" fill="white"/>
</mask>
<g mask="url(#mask53_2743_12408)">
<mask id="mask54_2743_12408" style="mask-type:luminance" maskUnits="userSpaceOnUse" x="78" y="296" width="227" height="218">
<path d="M78.834 345.398L244.792 296.664L304.778 464.59L138.82 513.324L78.834 345.398Z" fill="white"/>
</mask>
<g mask="url(#mask54_2743_12408)">
<path d="M240.385 435.708C241.214 437.824 242.122 440.141 243.031 442.457C243.523 443.727 244.045 444.988 244.476 446.267C244.692 446.899 245.074 447.2 245.767 447.368C249.3 448.206 252.824 449.084 256.348 449.949C257.297 450.185 258.251 450.413 259.189 450.691C259.601 450.813 260.068 450.982 260.334 451.264C260.58 451.523 260.781 452.029 260.66 452.311C260.545 452.579 260.018 452.816 259.641 452.857C259.23 452.898 258.783 452.711 258.351 452.602C253.793 451.446 249.235 450.29 244.637 449.125C242.966 451.278 241.279 453.531 239.502 455.729C238.016 457.572 236.415 459.333 234.894 461.149C234.055 462.141 233.097 462.487 231.676 462.178C229.327 461.668 226.902 461.445 224.553 460.935C221.2 460.207 217.887 459.32 214.544 458.528C213.585 458.3 213.013 457.809 212.681 456.976C210.939 452.593 209.193 448.215 207.421 443.846C207.175 443.24 207.421 442.853 207.817 442.398C211.843 437.701 215.829 432.977 220.427 428.649C220.141 427.63 219.89 426.628 219.573 425.645C218.339 421.818 217.064 418.008 215.849 414.176C215.653 413.566 215.377 413.12 214.709 412.902C213.228 412.415 211.763 411.882 210.262 411.436C205.764 410.085 201.256 408.76 196.749 407.45C195.78 407.167 195.223 406.694 194.901 405.757C193.561 401.865 192.075 398.015 190.71 394.137C190.409 393.277 189.957 392.817 188.953 392.608C184.285 391.652 179.631 390.624 174.973 389.627C174.687 389.568 174.396 389.531 173.954 389.459C173.336 390.214 172.684 390.983 172.056 391.775C169.255 395.293 166.464 398.82 163.663 402.343C163.553 402.484 163.422 402.63 163.282 402.748C162.895 403.085 162.439 403.272 161.952 402.967C161.45 402.653 161.49 402.188 161.766 401.774C162.398 400.814 163.011 399.84 163.734 398.934C166.555 395.375 169.416 391.839 172.277 388.275C171.429 385.517 170.571 382.764 169.732 380.01C169.466 379.146 169.23 378.276 169.019 377.403C168.879 376.834 168.974 376.287 169.697 376.105C170.43 375.919 170.812 376.379 171.022 376.911C171.354 377.758 171.615 378.618 171.896 379.478C172.694 381.926 173.527 384.366 174.27 386.828C174.486 387.552 174.903 387.807 175.671 387.948C179.491 388.667 183.296 389.431 187.101 390.21C188.536 390.501 189.957 390.883 191.473 391.243C195.177 387.188 198.982 383.132 202.637 378.977C204.71 376.624 204.594 376.574 207.762 377.616C211.753 378.927 215.758 380.188 219.759 381.48C220.171 381.612 220.633 381.735 220.939 381.999C221.18 382.199 221.371 382.659 221.28 382.909C221.19 383.169 220.743 383.46 220.427 383.487C219.955 383.524 219.458 383.365 218.981 383.26C214.89 382.331 211.055 380.78 207.18 379.328C206.728 379.159 206.271 378.991 205.875 378.845C201.372 383.66 196.919 388.426 192.527 393.122C193.33 395.362 194.093 397.573 194.911 399.772C195.529 401.424 196.247 403.049 196.859 404.705C197.085 405.315 197.431 405.656 198.124 405.848C201.568 406.808 204.991 407.827 208.435 408.797C211.16 409.566 213.976 410.112 216.496 411.605C219.373 408.578 222.194 405.606 225.015 402.63C225.241 402.393 225.391 402.079 225.652 401.888C227.143 400.809 227.118 399.544 226.37 398.097C226.064 397.501 225.928 396.818 225.778 396.163C225.688 395.767 225.682 395.316 226.22 395.143C226.827 394.943 227.148 395.298 227.344 395.748C227.841 396.873 228.318 397.997 228.805 399.125C228.88 399.289 228.98 399.439 229.036 399.535C234.03 400.869 238.95 402.184 243.874 403.504C244.868 403.772 245.847 404.082 246.841 404.341C248.03 404.651 248.763 405.306 249.165 406.389C250.109 408.933 251.138 411.455 252.117 413.99C252.864 415.933 253.627 417.876 254.3 419.843C254.516 420.466 254.857 420.826 255.505 421.062C257.789 421.904 260.058 422.783 262.337 423.647C264.701 424.548 267.075 425.431 269.445 426.337C270.032 426.56 270.589 426.865 271.182 427.083C272.959 427.748 273.636 428.89 273.571 430.67C273.435 434.197 273.531 437.733 273.511 441.27C273.506 441.898 273.461 442.521 273.375 443.145C273.3 443.677 273.004 444.105 272.336 444.078C271.633 444.046 271.473 443.568 271.463 443.031C271.453 442.762 271.478 442.494 271.483 442.23C271.563 438.07 271.638 433.915 271.719 429.578C265.896 427.202 259.962 424.781 253.889 422.3C249.461 426.678 244.993 431.13 240.385 435.708ZM252.212 421.012C252.137 420.716 252.117 420.584 252.071 420.457C250.465 416.083 248.829 411.723 247.267 407.336C247.021 406.644 246.509 406.471 245.892 406.298C242.644 405.383 239.396 404.455 236.149 403.545C234.071 402.967 231.987 402.425 229.919 401.82C229.176 401.606 228.579 401.61 228.077 402.207C227.776 402.557 227.465 402.903 227.138 403.244C225.401 405.069 223.68 406.908 221.918 408.715C220.713 409.957 219.473 411.172 218.223 412.379C217.776 412.811 217.626 413.225 217.837 413.821C219.358 418.172 220.853 422.532 222.339 426.892C222.525 427.452 222.851 427.789 223.464 428.016C227.078 429.341 230.662 430.724 234.276 432.049C235.958 432.668 237.68 433.187 239.567 433.815C243.789 429.537 247.995 425.281 252.212 421.012ZM232.705 460.316C232.966 460.134 233.067 460.093 233.122 460.025C236.109 456.238 239.08 452.447 242.072 448.665C242.519 448.096 242.509 447.573 242.273 446.913C240.993 443.381 239.753 439.841 238.563 436.281C238.347 435.622 237.931 435.362 237.308 435.13C232.881 433.473 228.463 431.799 224.056 430.115C222.651 429.582 222.615 429.527 221.561 430.624C218.032 434.302 214.529 438.002 211.02 441.697C210.478 442.271 209.971 442.867 209.413 443.495C211.301 447.96 213.173 452.379 215.101 456.935C220.959 458.059 226.847 459.188 232.705 460.316Z" fill="black"/>
</g>
</g>
</g>
</g>
<mask id="mask55_2743_12408" style="mask-type:luminance" maskUnits="userSpaceOnUse" x="117" y="353" width="40" height="21">
<path d="M117.751 353.377H156.303V373.184H117.751V353.377Z" fill="white"/>
</mask>
<g mask="url(#mask55_2743_12408)">
<mask id="mask56_2743_12408" style="mask-type:luminance" maskUnits="userSpaceOnUse" x="78" y="296" width="227" height="218">
<path d="M78.833 345.399L244.791 296.664L304.777 464.59L138.819 513.324L78.833 345.399Z" fill="white"/>
</mask>
<g mask="url(#mask56_2743_12408)">
<mask id="mask57_2743_12408" style="mask-type:luminance" maskUnits="userSpaceOnUse" x="78" y="296" width="227" height="218">
<path d="M78.834 345.399L244.792 296.664L304.778 464.59L138.82 513.324L78.834 345.399Z" fill="white"/>
</mask>
<g mask="url(#mask57_2743_12408)">
<mask id="mask58_2743_12408" style="mask-type:luminance" maskUnits="userSpaceOnUse" x="78" y="296" width="227" height="218">
<path d="M78.833 345.399L244.791 296.664L304.777 464.59L138.819 513.324L78.833 345.399Z" fill="white"/>
</mask>
<g mask="url(#mask58_2743_12408)">
<path d="M134.221 355.671C133.077 356.972 131.988 358.128 130.999 359.352C128.398 362.557 125.853 365.802 123.258 369.01C122.53 369.907 121.742 370.767 120.904 371.582C120.322 372.146 119.659 372.173 119.202 371.809C118.73 371.431 118.69 370.872 119.152 370.253C120.201 368.842 121.21 367.404 122.36 366.061C125.617 362.247 128.966 358.492 132.213 354.665C133.072 353.654 134 353.381 135.286 353.773C139.447 355.033 143.618 356.276 147.785 357.523C149.798 358.124 151.816 358.711 153.818 359.339C154.421 359.525 155.013 359.78 155.55 360.09C156.278 360.518 156.459 361.146 156.112 361.696C155.786 362.215 155.219 362.379 154.431 362.129C148.859 360.34 143.282 358.542 137.71 356.754C136.596 356.39 135.476 356.057 134.221 355.671Z" fill="black"/>
</g>
</g>
</g>
</g>
<mask id="mask59_2743_12408" style="mask-type:luminance" maskUnits="userSpaceOnUse" x="157" y="359" width="17" height="16">
<path d="M157.589 359.202H173.01V374.349H157.589V359.202Z" fill="white"/>
</mask>
<g mask="url(#mask59_2743_12408)">
<mask id="mask60_2743_12408" style="mask-type:luminance" maskUnits="userSpaceOnUse" x="78" y="296" width="227" height="218">
<path d="M78.833 345.399L244.791 296.664L304.777 464.59L138.819 513.324L78.833 345.399Z" fill="white"/>
</mask>
<g mask="url(#mask60_2743_12408)">
<mask id="mask61_2743_12408" style="mask-type:luminance" maskUnits="userSpaceOnUse" x="78" y="296" width="227" height="218">
<path d="M78.834 345.399L244.792 296.664L304.778 464.59L138.82 513.324L78.834 345.399Z" fill="white"/>
</mask>
<g mask="url(#mask61_2743_12408)">
<mask id="mask62_2743_12408" style="mask-type:luminance" maskUnits="userSpaceOnUse" x="78" y="296" width="227" height="218">
<path d="M78.833 345.399L244.791 296.664L304.777 464.59L138.819 513.324L78.833 345.399Z" fill="white"/>
</mask>
<g mask="url(#mask62_2743_12408)">
<path d="M161.128 365.788C161.56 367.713 161.986 369.638 162.418 371.559C162.493 371.909 162.699 372.264 162.649 372.601C162.609 372.906 162.373 373.343 162.112 373.425C161.851 373.507 161.364 373.293 161.133 373.07C160.882 372.824 160.767 372.437 160.671 372.091C160.28 370.708 159.913 369.315 159.552 367.922C159.261 366.789 158.959 365.656 158.719 364.518C158.447 363.28 159.135 362.698 160.47 363.057C161.128 363.23 161.766 363.508 162.348 363.836C164.411 364.978 166.449 366.161 168.492 367.326C168.688 367.44 168.899 367.536 169.26 367.722C169.094 365.788 168.527 364.09 168.025 362.388C167.91 361.997 167.749 361.619 167.684 361.223C167.598 360.732 167.809 360.331 168.356 360.158C168.894 359.985 169.335 360.181 169.616 360.604C169.792 360.868 169.923 361.173 170.003 361.473C170.666 364.086 171.313 366.703 171.956 369.324C172.011 369.538 172.031 369.766 172.031 369.989C172.026 370.508 171.905 371.058 171.288 371.163C170.871 371.231 170.314 371.099 169.958 370.881C167.468 369.347 165.018 367.763 162.544 366.211C162.192 365.988 161.791 365.815 161.414 365.624C161.319 365.679 161.223 365.733 161.128 365.788Z" fill="black"/>
</g>
</g>
</g>
</g>
<mask id="mask63_2743_12408" style="mask-type:luminance" maskUnits="userSpaceOnUse" x="170" y="331" width="15" height="26">
<path d="M170.439 331.24H184.575V356.872H170.439V331.24Z" fill="white"/>
</mask>
<g mask="url(#mask63_2743_12408)">
<mask id="mask64_2743_12408" style="mask-type:luminance" maskUnits="userSpaceOnUse" x="78" y="296" width="227" height="218">
<path d="M78.834 345.399L244.792 296.664L304.778 464.59L138.82 513.324L78.834 345.399Z" fill="white"/>
</mask>
<g mask="url(#mask64_2743_12408)">
<mask id="mask65_2743_12408" style="mask-type:luminance" maskUnits="userSpaceOnUse" x="78" y="296" width="227" height="218">
<path d="M78.835 345.399L244.793 296.664L304.779 464.59L138.821 513.324L78.835 345.399Z" fill="white"/>
</mask>
<g mask="url(#mask65_2743_12408)">
<mask id="mask66_2743_12408" style="mask-type:luminance" maskUnits="userSpaceOnUse" x="78" y="296" width="227" height="218">
<path d="M78.835 345.399L244.793 296.664L304.779 464.59L138.821 513.324L78.835 345.399Z" fill="white"/>
</mask>
<g mask="url(#mask66_2743_12408)">
<path d="M181.389 337.871C181.967 339.491 182.514 341.116 183.131 342.718C183.528 343.747 183.367 344.561 182.574 345.43C179.427 348.876 176.36 352.38 173.252 355.857C172.976 356.167 172.7 356.526 172.334 356.704C172.048 356.84 171.5 356.854 171.275 356.686C171.054 356.526 170.953 356.03 171.054 355.757C171.219 355.307 171.551 354.883 171.882 354.496C174.603 351.32 177.298 348.116 180.114 345.007C180.953 344.083 181.063 343.36 180.616 342.258C179.487 339.491 178.528 336.665 177.514 333.857C177.374 333.474 177.203 333.069 177.223 332.687C177.243 332.382 177.464 331.932 177.725 331.845C177.976 331.759 178.453 331.977 178.704 332.191C178.935 332.387 179.015 332.742 179.135 333.033C179.823 334.667 180.496 336.301 181.179 337.935C181.249 337.916 181.319 337.894 181.389 337.871Z" fill="black"/>
</g>
</g>
</g>
</g>
<mask id="mask67_2743_12408" style="mask-type:luminance" maskUnits="userSpaceOnUse" x="151" y="403" width="12" height="15">
<path d="M151.163 403.476H162.729V417.458H151.163V403.476Z" fill="white"/>
</mask>
<g mask="url(#mask67_2743_12408)">
<mask id="mask68_2743_12408" style="mask-type:luminance" maskUnits="userSpaceOnUse" x="78" y="296" width="227" height="218">
<path d="M78.833 345.398L244.791 296.664L304.777 464.59L138.819 513.324L78.833 345.398Z" fill="white"/>
</mask>
<g mask="url(#mask68_2743_12408)">
<mask id="mask69_2743_12408" style="mask-type:luminance" maskUnits="userSpaceOnUse" x="78" y="296" width="227" height="218">
<path d="M78.834 345.398L244.792 296.664L304.778 464.59L138.82 513.324L78.834 345.398Z" fill="white"/>
</mask>
<g mask="url(#mask69_2743_12408)">
<mask id="mask70_2743_12408" style="mask-type:luminance" maskUnits="userSpaceOnUse" x="78" y="296" width="227" height="218">
<path d="M78.835 345.398L244.793 296.664L304.779 464.59L138.821 513.324L78.835 345.398Z" fill="white"/>
</mask>
<g mask="url(#mask70_2743_12408)">
<path d="M161.231 407.741C161.602 409.27 161.828 410.767 161.612 412.301C161.447 413.48 161 414.545 160.061 415.414C157.712 417.585 154.002 417.135 152.497 414.413C151.131 411.923 151.277 409.397 152.732 406.958C153.35 405.92 154.334 405.256 155.654 405.119C156.472 405.037 157.275 405.047 158.073 404.723C158.721 404.459 159.379 404.805 159.745 405.306C160.312 406.075 160.744 406.922 161.231 407.741ZM159.394 408.378C158.897 407.217 158.36 406.726 157.185 406.589C156.086 406.457 155.062 406.662 154.484 407.595C153.3 409.507 153.174 411.505 154.223 413.503C154.695 414.408 155.513 415 156.673 414.964C157.928 414.923 158.801 414.272 159.283 413.257C159.514 412.779 159.675 412.219 159.665 411.7C159.645 410.59 159.489 409.484 159.394 408.378Z" fill="black"/>
</g>
</g>
</g>
</g>
<mask id="mask71_2743_12408" style="mask-type:luminance" maskUnits="userSpaceOnUse" x="246" y="353" width="15" height="16">
<path d="M246.258 353.377H260.393V368.523H246.258V353.377Z" fill="white"/>
</mask>
<g mask="url(#mask71_2743_12408)">
<mask id="mask72_2743_12408" style="mask-type:luminance" maskUnits="userSpaceOnUse" x="78" y="296" width="227" height="218">
<path d="M78.833 345.399L244.791 296.664L304.777 464.59L138.819 513.324L78.833 345.399Z" fill="white"/>
</mask>
<g mask="url(#mask72_2743_12408)">
<mask id="mask73_2743_12408" style="mask-type:luminance" maskUnits="userSpaceOnUse" x="78" y="296" width="227" height="218">
<path d="M78.834 345.399L244.792 296.664L304.778 464.59L138.82 513.324L78.834 345.399Z" fill="white"/>
</mask>
<g mask="url(#mask73_2743_12408)">
<mask id="mask74_2743_12408" style="mask-type:luminance" maskUnits="userSpaceOnUse" x="78" y="296" width="227" height="218">
<path d="M78.834 345.399L244.792 296.664L304.778 464.59L138.82 513.324L78.834 345.399Z" fill="white"/>
</mask>
<g mask="url(#mask74_2743_12408)">
<path d="M255.495 360.873C255.174 360.968 254.888 361.032 254.617 361.132C253.442 361.569 252.273 362.01 251.008 362.484C251.369 363.69 251.73 364.846 252.057 366.006C252.182 366.439 252.328 366.885 252.303 367.322C252.288 367.613 251.991 367.891 251.821 368.177C251.545 368.036 251.163 367.954 251.008 367.74C250.671 367.249 250.385 366.716 250.199 366.166C249.281 363.471 248.402 360.768 247.514 358.069C247.484 357.983 247.459 357.896 247.439 357.81C247.313 357.318 247.172 356.781 247.88 356.576C248.513 356.39 248.759 356.868 248.939 357.282C249.421 358.356 249.858 359.439 250.365 360.636C251.976 360.299 253.422 359.671 254.993 358.988C254.732 357.983 254.471 357 254.225 356.003C253.994 355.07 254.13 354.619 254.692 354.533C255.576 354.401 255.761 355.042 255.942 355.589C256.981 358.715 257.995 361.847 259.009 364.982C259.104 365.274 259.18 365.619 259.099 365.906C259.019 366.211 258.793 366.634 258.532 366.707C258.286 366.775 257.774 366.521 257.619 366.284C257.272 365.751 257.041 365.151 256.82 364.559C256.374 363.376 255.967 362.188 255.495 360.873Z" fill="black"/>
</g>
</g>
</g>
</g>
<mask id="mask75_2743_12408" style="mask-type:luminance" maskUnits="userSpaceOnUse" x="264" y="447" width="12" height="14">
<path d="M264.248 447.751H275.814V460.567H264.248V447.751Z" fill="white"/>
</mask>
<g mask="url(#mask75_2743_12408)">
<mask id="mask76_2743_12408" style="mask-type:luminance" maskUnits="userSpaceOnUse" x="78" y="296" width="227" height="218">
<path d="M78.834 345.399L244.792 296.664L304.778 464.59L138.82 513.324L78.834 345.399Z" fill="white"/>
</mask>
<g mask="url(#mask76_2743_12408)">
<mask id="mask77_2743_12408" style="mask-type:luminance" maskUnits="userSpaceOnUse" x="78" y="296" width="227" height="218">
<path d="M78.835 345.399L244.793 296.664L304.779 464.59L138.821 513.324L78.835 345.399Z" fill="white"/>
</mask>
<g mask="url(#mask77_2743_12408)">
<mask id="mask78_2743_12408" style="mask-type:luminance" maskUnits="userSpaceOnUse" x="78" y="296" width="227" height="218">
<path d="M78.835 345.398L244.793 296.664L304.779 464.59L138.821 513.324L78.835 345.398Z" fill="white"/>
</mask>
<g mask="url(#mask78_2743_12408)">
<path d="M267.674 453.826C268.141 455.133 268.618 456.443 269.074 457.759C269.225 458.182 269.406 458.619 269.401 459.056C269.401 459.347 269.15 459.82 268.914 459.875C268.648 459.934 268.241 459.652 267.965 459.447C267.794 459.315 267.729 459.06 267.649 458.851C266.821 456.653 266.002 454.45 265.184 452.252C265.008 451.778 264.878 451.264 265.38 450.886C265.967 450.436 266.605 450.59 267.157 450.932C268.713 451.874 270.244 452.848 271.78 453.817C272.172 454.063 272.528 454.359 273.025 454.577C272.824 453.162 272.458 451.806 271.886 450.495C271.74 450.163 271.549 449.83 271.509 449.489C271.484 449.266 271.625 448.893 271.81 448.811C272.066 448.697 272.568 448.674 272.734 448.825C273.176 449.225 273.678 449.694 273.838 450.208C274.546 452.529 275.179 454.873 275.751 457.226C275.836 457.563 275.555 458.105 275.249 458.359C274.832 458.705 274.31 458.446 273.929 458.127C272.844 457.222 271.795 456.27 270.676 455.397C269.837 454.737 268.914 454.172 268.02 453.562C267.905 453.649 267.789 453.735 267.674 453.826Z" fill="black"/>
</g>
</g>
</g>
</g>
<mask id="mask79_2743_12408" style="mask-type:luminance" maskUnits="userSpaceOnUse" x="92" y="380" width="15" height="16">
<path d="M92.0518 380.174H106.187V395.321H92.0518V380.174Z" fill="white"/>
</mask>
<g mask="url(#mask79_2743_12408)">
<mask id="mask80_2743_12408" style="mask-type:luminance" maskUnits="userSpaceOnUse" x="78" y="296" width="227" height="218">
<path d="M78.835 345.399L244.793 296.664L304.779 464.59L138.821 513.324L78.835 345.399Z" fill="white"/>
</mask>
<g mask="url(#mask80_2743_12408)">
<mask id="mask81_2743_12408" style="mask-type:luminance" maskUnits="userSpaceOnUse" x="78" y="296" width="227" height="218">
<path d="M78.8359 345.399L244.794 296.664L304.78 464.59L138.822 513.324L78.8359 345.399Z" fill="white"/>
</mask>
<g mask="url(#mask81_2743_12408)">
<mask id="mask82_2743_12408" style="mask-type:luminance" maskUnits="userSpaceOnUse" x="78" y="296" width="227" height="218">
<path d="M78.8359 345.399L244.794 296.664L304.78 464.59L138.822 513.324L78.8359 345.399Z" fill="white"/>
</mask>
<g mask="url(#mask82_2743_12408)">
<path d="M95.4719 386.956C97.4798 386.196 99.3271 385.499 101.305 384.753C101.094 384.029 100.873 383.36 100.692 382.677C100.557 382.159 100.421 381.626 100.396 381.098C100.386 380.912 100.667 380.643 100.888 380.548C101.034 380.488 101.395 380.625 101.506 380.771C101.762 381.094 101.983 381.462 102.113 381.84C103.107 384.698 104.106 387.556 105.045 390.433C105.366 391.416 105.15 391.998 104.598 392.039C103.749 392.098 103.569 391.439 103.368 390.911C102.946 389.814 102.59 388.69 102.208 387.579C102.093 387.251 101.972 386.919 101.787 386.396C99.8742 387.065 98.0621 387.702 96.0492 388.407C96.3152 389.163 96.5712 389.868 96.8222 390.578C97.1134 391.388 97.4296 392.19 97.6756 393.009C97.8011 393.441 97.8211 393.946 97.1987 394.128C96.6013 394.306 96.2801 393.955 96.0693 393.509C95.9538 393.264 95.8383 393.013 95.753 392.758C94.8745 390.192 94.0011 387.625 93.1427 385.053C92.9871 384.584 92.8867 384.088 92.8616 383.601C92.8516 383.392 93.0976 382.996 93.2381 382.992C93.5192 382.982 93.9258 383.119 94.0563 383.319C94.3324 383.729 94.478 384.22 94.6587 384.685C94.9298 385.395 95.1757 386.114 95.4719 386.956Z" fill="black"/>
</g>
</g>
</g>
</g>
<mask id="mask83_2743_12408" style="mask-type:luminance" maskUnits="userSpaceOnUse" x="113" y="374" width="14" height="14">
<path d="M113.896 374.349H126.747V387.165H113.896V374.349Z" fill="white"/>
</mask>
<g mask="url(#mask83_2743_12408)">
<mask id="mask84_2743_12408" style="mask-type:luminance" maskUnits="userSpaceOnUse" x="78" y="296" width="227" height="218">
<path d="M78.833 345.399L244.791 296.664L304.777 464.59L138.819 513.324L78.833 345.399Z" fill="white"/>
</mask>
<g mask="url(#mask84_2743_12408)">
<mask id="mask85_2743_12408" style="mask-type:luminance" maskUnits="userSpaceOnUse" x="78" y="296" width="227" height="218">
<path d="M78.834 345.399L244.792 296.664L304.778 464.59L138.82 513.324L78.834 345.399Z" fill="white"/>
</mask>
<g mask="url(#mask85_2743_12408)">
<mask id="mask86_2743_12408" style="mask-type:luminance" maskUnits="userSpaceOnUse" x="78" y="296" width="227" height="218">
<path d="M78.834 345.399L244.792 296.664L304.778 464.59L138.82 513.324L78.834 345.399Z" fill="white"/>
</mask>
<g mask="url(#mask86_2743_12408)">
<path d="M115.212 383.224C114.876 381.772 114.635 380.138 115.057 378.486C115.775 375.7 119.083 374.308 121.909 375.582C122.371 375.791 122.807 376.055 122.652 376.592C122.496 377.148 121.984 377.161 121.457 377.098C120.875 377.025 120.287 376.92 119.705 376.92C118.154 376.925 117.326 377.539 117.025 378.923C116.708 380.352 116.849 381.785 117.371 383.151C117.983 384.748 119.549 385.363 121.296 384.766C122.551 384.339 123.39 383.465 124.112 382.486C124.278 382.263 124.394 382.013 124.539 381.781C124.815 381.353 125.207 381.071 125.754 381.312C126.276 381.54 126.311 381.999 126.196 382.473C125.659 384.689 122.29 387.001 119.78 386.874C117.552 386.755 115.955 385.531 115.212 383.224Z" fill="black"/>
</g>
</g>
</g>
</g>
<mask id="mask87_2743_12408" style="mask-type:luminance" maskUnits="userSpaceOnUse" x="171" y="314" width="15" height="17">
<path d="M171.724 314.928H185.859V330.075H171.724V314.928Z" fill="white"/>
</mask>
<g mask="url(#mask87_2743_12408)">
<mask id="mask88_2743_12408" style="mask-type:luminance" maskUnits="userSpaceOnUse" x="78" y="296" width="227" height="218">
<path d="M78.833 345.399L244.791 296.664L304.777 464.59L138.819 513.324L78.833 345.399Z" fill="white"/>
</mask>
<g mask="url(#mask88_2743_12408)">
<mask id="mask89_2743_12408" style="mask-type:luminance" maskUnits="userSpaceOnUse" x="78" y="296" width="227" height="218">
<path d="M78.834 345.399L244.792 296.664L304.778 464.59L138.82 513.324L78.834 345.399Z" fill="white"/>
</mask>
<g mask="url(#mask89_2743_12408)">
<mask id="mask90_2743_12408" style="mask-type:luminance" maskUnits="userSpaceOnUse" x="78" y="296" width="227" height="218">
<path d="M78.834 345.399L244.792 296.664L304.778 464.59L138.82 513.324L78.834 345.399Z" fill="white"/>
</mask>
<g mask="url(#mask90_2743_12408)">
<path d="M175.716 322.556C177.744 321.96 179.471 321.455 181.333 320.904C180.972 319.675 180.616 318.528 180.294 317.372C180.149 316.84 179.707 316.23 180.505 315.82C181.012 315.561 181.449 315.879 181.825 316.922C182.814 319.639 183.763 322.369 184.697 325.1C184.822 325.473 184.877 325.897 184.832 326.283C184.807 326.497 184.541 326.834 184.345 326.857C184.064 326.889 183.643 326.766 183.472 326.575C183.206 326.27 183.075 325.865 182.935 325.482C182.558 324.472 182.207 323.462 181.851 322.47C180.008 323.011 178.261 323.525 176.479 324.044C176.886 325.173 177.242 326.142 177.574 327.112C177.719 327.535 177.91 327.972 177.92 328.404C177.93 328.655 177.684 329.046 177.448 329.128C177.217 329.21 176.786 329.06 176.565 328.878C176.329 328.687 176.183 328.359 176.083 328.068C175.034 325.132 174.01 322.187 172.981 319.247C172.935 319.12 172.845 318.965 172.89 318.86C173.006 318.587 173.126 318.191 173.342 318.128C173.563 318.064 174.02 318.282 174.16 318.492C174.436 318.906 174.587 319.393 174.758 319.862C175.079 320.749 175.39 321.637 175.716 322.556Z" fill="black"/>
</g>
</g>
</g>
</g>
<mask id="mask91_2743_12408" style="mask-type:luminance" maskUnits="userSpaceOnUse" x="217" y="384" width="13" height="12">
<path d="M217.986 384.835H229.552V395.321H217.986V384.835Z" fill="white"/>
</mask>
<g mask="url(#mask91_2743_12408)">
<mask id="mask92_2743_12408" style="mask-type:luminance" maskUnits="userSpaceOnUse" x="78" y="296" width="227" height="218">
<path d="M78.833 345.399L244.791 296.664L304.777 464.59L138.819 513.324L78.833 345.399Z" fill="white"/>
</mask>
<g mask="url(#mask92_2743_12408)">
<mask id="mask93_2743_12408" style="mask-type:luminance" maskUnits="userSpaceOnUse" x="78" y="296" width="227" height="218">
<path d="M78.834 345.399L244.792 296.664L304.778 464.59L138.82 513.324L78.834 345.399Z" fill="white"/>
</mask>
<g mask="url(#mask93_2743_12408)">
<mask id="mask94_2743_12408" style="mask-type:luminance" maskUnits="userSpaceOnUse" x="78" y="296" width="227" height="218">
<path d="M78.833 345.399L244.791 296.664L304.777 464.59L138.819 513.324L78.833 345.399Z" fill="white"/>
</mask>
<g mask="url(#mask94_2743_12408)">
<path d="M226.38 389.937C226.109 388.731 225.853 387.611 225.592 386.496C225.541 386.273 225.376 386.032 225.436 385.85C225.546 385.499 225.712 385.003 226.003 384.898C226.279 384.794 226.801 385.044 227.102 385.267C227.338 385.44 227.444 385.804 227.524 386.1C227.991 387.834 228.438 389.573 228.885 391.311C228.93 391.484 228.975 391.666 228.975 391.844C229 392.818 228.287 393.259 227.328 392.786C226.159 392.212 225.044 391.552 223.915 390.92C222.916 390.364 221.927 389.796 220.687 389.095C220.813 390.414 221.244 391.439 221.51 392.49C221.646 393.009 221.812 393.537 221.832 394.06C221.842 394.301 221.581 394.706 221.36 394.756C221.119 394.816 220.742 394.597 220.502 394.42C220.331 394.297 220.251 394.042 220.18 393.828C219.573 392.08 218.981 390.333 218.388 388.58C218.333 388.412 218.298 388.23 218.293 388.052C218.243 387.133 218.875 386.56 219.854 386.801C220.647 386.987 221.41 387.352 222.123 387.729C223.438 388.43 224.713 389.195 226.008 389.923C226.043 389.946 226.104 389.932 226.38 389.937Z" fill="black"/>
</g>
</g>
</g>
</g>
<mask id="mask95_2743_12408" style="mask-type:luminance" maskUnits="userSpaceOnUse" x="269" y="460" width="14" height="15">
<path d="M269.39 460.567H282.24V474.548H269.39V460.567Z" fill="white"/>
</mask>
<g mask="url(#mask95_2743_12408)">
<mask id="mask96_2743_12408" style="mask-type:luminance" maskUnits="userSpaceOnUse" x="78" y="296" width="227" height="218">
<path d="M78.835 345.399L244.793 296.664L304.779 464.59L138.821 513.324L78.835 345.399Z" fill="white"/>
</mask>
<g mask="url(#mask96_2743_12408)">
<mask id="mask97_2743_12408" style="mask-type:luminance" maskUnits="userSpaceOnUse" x="78" y="296" width="227" height="218">
<path d="M78.8359 345.399L244.794 296.664L304.78 464.59L138.822 513.324L78.8359 345.399Z" fill="white"/>
</mask>
<g mask="url(#mask97_2743_12408)">
<mask id="mask98_2743_12408" style="mask-type:luminance" maskUnits="userSpaceOnUse" x="78" y="296" width="227" height="218">
<path d="M78.8359 345.399L244.794 296.664L304.78 464.59L138.822 513.324L78.8359 345.399Z" fill="white"/>
</mask>
<g mask="url(#mask98_2743_12408)">
<path d="M277.739 465.546C277.398 464.59 277.111 463.834 276.865 463.074C276.755 462.733 276.645 462.369 276.675 462.028C276.715 461.532 277.392 461.322 277.789 461.673C277.995 461.85 278.13 462.11 278.236 462.351C279.28 464.722 280.319 467.093 281.353 469.464C281.443 469.674 281.529 469.883 281.574 470.101C281.679 470.566 281.684 471.039 281.102 471.235C280.53 471.421 280.163 471.107 279.943 470.652C279.591 469.915 279.25 469.168 278.903 468.427C278.738 468.058 278.577 467.685 278.376 467.225C276.715 467.712 275.103 468.185 273.402 468.686C273.688 469.483 273.944 470.183 274.19 470.893C274.391 471.49 274.652 472.081 274.732 472.696C274.767 472.946 274.441 473.337 274.165 473.474C274.009 473.551 273.527 473.306 273.357 473.101C273.065 472.746 272.86 472.322 272.699 471.904C271.806 469.578 270.912 467.257 270.069 464.918C269.712 463.93 269.878 463.357 270.44 463.316C271.354 463.252 271.349 463.994 271.555 464.504C271.891 465.336 272.167 466.187 272.493 467.093C274.3 466.556 275.917 466.083 277.739 465.546Z" fill="black"/>
</g>
</g>
</g>
</g>
<mask id="mask99_2743_12408" style="mask-type:luminance" maskUnits="userSpaceOnUse" x="235" y="358" width="13" height="15">
<path d="M235.978 358.037H247.543V372.018H235.978V358.037Z" fill="white"/>
</mask>
<g mask="url(#mask99_2743_12408)">
<mask id="mask100_2743_12408" style="mask-type:luminance" maskUnits="userSpaceOnUse" x="78" y="296" width="227" height="218">
<path d="M78.833 345.398L244.791 296.664L304.777 464.59L138.819 513.324L78.833 345.398Z" fill="white"/>
</mask>
<g mask="url(#mask100_2743_12408)">
<mask id="mask101_2743_12408" style="mask-type:luminance" maskUnits="userSpaceOnUse" x="78" y="296" width="227" height="218">
<path d="M78.834 345.398L244.792 296.664L304.778 464.59L138.82 513.324L78.834 345.398Z" fill="white"/>
</mask>
<g mask="url(#mask101_2743_12408)">
<mask id="mask102_2743_12408" style="mask-type:luminance" maskUnits="userSpaceOnUse" x="78" y="296" width="227" height="218">
<path d="M78.834 345.398L244.792 296.664L304.778 464.59L138.82 513.324L78.834 345.398Z" fill="white"/>
</mask>
<g mask="url(#mask102_2743_12408)">
<path d="M243.508 360.763C243.191 360.631 243.016 360.568 242.85 360.481C241.354 359.707 240.626 359.871 239.934 361.264C238.864 363.426 238.92 365.61 240.049 367.74C240.807 369.183 241.997 369.52 243.588 368.805C244.115 368.573 244.572 368.223 245.049 367.909C245.521 367.595 245.977 367.262 246.459 366.921C247.303 367.331 247.147 367.936 246.846 368.432C245.867 370.011 244.341 370.963 242.358 371.136C240.491 371.295 239.13 370.426 238.292 368.96C236.565 365.952 236.656 362.943 238.528 360.017C239.386 358.679 240.817 358.224 242.167 358.683C243.171 359.025 243.518 359.516 243.508 360.763Z" fill="black"/>
</g>
</g>
</g>
</g>
<mask id="mask103_2743_12408" style="mask-type:luminance" maskUnits="userSpaceOnUse" x="161" y="319" width="13" height="14">
<path d="M161.444 319.589H173.01V332.405H161.444V319.589Z" fill="white"/>
</mask>
<g mask="url(#mask103_2743_12408)">
<mask id="mask104_2743_12408" style="mask-type:luminance" maskUnits="userSpaceOnUse" x="78" y="296" width="227" height="218">
<path d="M78.834 345.399L244.792 296.664L304.778 464.59L138.82 513.324L78.834 345.399Z" fill="white"/>
</mask>
<g mask="url(#mask104_2743_12408)">
<mask id="mask105_2743_12408" style="mask-type:luminance" maskUnits="userSpaceOnUse" x="78" y="296" width="227" height="218">
<path d="M78.835 345.399L244.793 296.664L304.779 464.59L138.821 513.324L78.835 345.399Z" fill="white"/>
</mask>
<g mask="url(#mask105_2743_12408)">
<mask id="mask106_2743_12408" style="mask-type:luminance" maskUnits="userSpaceOnUse" x="78" y="296" width="227" height="218">
<path d="M78.834 345.399L244.792 296.664L304.778 464.59L138.82 513.324L78.834 345.399Z" fill="white"/>
</mask>
<g mask="url(#mask106_2743_12408)">
<path d="M171.861 327.74C172.854 328.336 172.664 328.982 172.388 329.62C171.198 332.355 167.273 333.297 164.733 331.449C163.493 330.553 162.745 329.365 162.343 327.986C161.736 325.897 162.022 323.899 163.146 322.014C163.769 320.972 164.697 320.253 166.113 320.385C166.525 320.422 166.976 320.585 167.303 320.822C167.508 320.968 167.604 321.364 167.559 321.618C167.534 321.755 167.087 321.951 166.861 321.919C165.475 321.728 164.883 322.488 164.487 323.489C163.794 325.25 163.789 326.993 164.778 328.682C166.148 331.021 168.819 331.272 170.676 329.233C171.077 328.791 171.414 328.304 171.861 327.74Z" fill="black"/>
</g>
</g>
</g>
</g>
<mask id="mask107_2743_12408" style="mask-type:luminance" maskUnits="userSpaceOnUse" x="260" y="358" width="10" height="12">
<path d="M260.393 358.037H269.388V369.688H260.393V358.037Z" fill="white"/>
</mask>
<g mask="url(#mask107_2743_12408)">
<mask id="mask108_2743_12408" style="mask-type:luminance" maskUnits="userSpaceOnUse" x="78" y="296" width="227" height="218">
<path d="M78.833 345.398L244.791 296.664L304.777 464.59L138.819 513.324L78.833 345.398Z" fill="white"/>
</mask>
<g mask="url(#mask108_2743_12408)">
<mask id="mask109_2743_12408" style="mask-type:luminance" maskUnits="userSpaceOnUse" x="78" y="296" width="227" height="218">
<path d="M78.834 345.398L244.792 296.664L304.778 464.59L138.82 513.324L78.834 345.398Z" fill="white"/>
</mask>
<g mask="url(#mask109_2743_12408)">
<mask id="mask110_2743_12408" style="mask-type:luminance" maskUnits="userSpaceOnUse" x="78" y="296" width="227" height="218">
<path d="M78.834 345.398L244.792 296.664L304.778 464.59L138.82 513.324L78.834 345.398Z" fill="white"/>
</mask>
<g mask="url(#mask110_2743_12408)">
<path d="M266.684 362.702C268.481 363.653 269.139 364.832 268.802 366.389C268.481 367.872 267.281 368.933 265.745 369.097C264.234 369.256 262.728 368.669 262.186 367.577C262.734 367.495 263.23 367.381 263.732 367.358C264.224 367.34 264.721 367.458 265.208 367.445C266.533 367.39 267.492 366.025 267.01 364.914C266.779 364.386 266.282 364.19 265.7 364.386C265.61 364.418 265.53 364.468 265.449 364.518C264.952 364.841 264.41 365.187 263.903 364.605C263.431 364.058 263.918 363.622 264.229 363.162C264.536 362.707 264.812 362.224 264.982 361.719C265.063 361.482 264.912 360.95 264.787 360.927C264.46 360.868 263.983 360.918 263.763 361.114C263.381 361.441 263.135 361.901 262.874 362.324C262.628 362.72 262.312 362.998 261.81 362.839C261.303 362.684 261.228 362.252 261.343 361.837C261.679 360.645 262.407 359.717 263.722 359.289C265.354 358.756 266.98 359.88 266.89 361.46C266.86 361.851 266.759 362.247 266.684 362.702Z" fill="black"/>
</g>
</g>
</g>
</g>
<mask id="mask111_2743_12408" style="mask-type:luminance" maskUnits="userSpaceOnUse" x="188" y="321" width="10" height="12">
<path d="M188.431 321.919H197.426V332.405H188.431V321.919Z" fill="white"/>
</mask>
<g mask="url(#mask111_2743_12408)">
<mask id="mask112_2743_12408" style="mask-type:luminance" maskUnits="userSpaceOnUse" x="78" y="296" width="227" height="218">
<path d="M78.834 345.399L244.792 296.664L304.778 464.59L138.82 513.324L78.834 345.399Z" fill="white"/>
</mask>
<g mask="url(#mask112_2743_12408)">
<mask id="mask113_2743_12408" style="mask-type:luminance" maskUnits="userSpaceOnUse" x="78" y="296" width="227" height="218">
<path d="M78.835 345.399L244.793 296.664L304.779 464.59L138.821 513.324L78.835 345.399Z" fill="white"/>
</mask>
<g mask="url(#mask113_2743_12408)">
<mask id="mask114_2743_12408" style="mask-type:luminance" maskUnits="userSpaceOnUse" x="78" y="296" width="227" height="218">
<path d="M78.834 345.399L244.792 296.664L304.778 464.59L138.82 513.324L78.834 345.399Z" fill="white"/>
</mask>
<g mask="url(#mask114_2743_12408)">
<path d="M194.801 325.555C194.982 325.646 195.062 325.71 195.152 325.728C196.247 325.947 197.09 326.443 197.336 327.49C197.597 328.614 197.09 329.565 196.101 330.175C195.092 330.794 193.968 331.281 192.853 331.727C192.151 332.004 191.348 331.941 190.76 331.458C190.424 331.181 190.148 330.744 190.072 330.343C189.967 329.82 190.815 329.333 191.142 329.697C191.87 330.512 192.537 330.043 193.225 329.783C193.767 329.579 194.314 329.355 194.811 329.069C195.664 328.582 195.996 327.999 195.685 327.571C195.258 326.975 194.6 327.057 193.958 327.194C193.621 327.266 193.29 327.439 192.964 327.435C192.658 327.43 192.226 327.321 192.09 327.125C191.95 326.93 192.02 326.516 192.166 326.283C192.457 325.828 192.909 325.451 193.205 324.991C193.32 324.809 193.31 324.422 193.17 324.272C193.024 324.122 192.582 324.035 192.392 324.126C191.875 324.363 191.403 324.691 190.961 325.032C190.71 325.232 190.6 325.583 190.349 325.778C190.163 325.915 189.827 325.997 189.596 325.947C189.445 325.915 189.284 325.601 189.279 325.414C189.264 323.871 191.885 322.215 193.501 322.729C194.344 323.002 194.947 323.748 194.942 324.577C194.942 324.882 194.856 325.187 194.801 325.555Z" fill="black"/>
</g>
</g>
</g>
</g>
<mask id="mask115_2743_12408" style="mask-type:luminance" maskUnits="userSpaceOnUse" x="158" y="387" width="14" height="13">
<path d="M158.874 387.165H171.725V399.981H158.874V387.165Z" fill="white"/>
</mask>
<g mask="url(#mask115_2743_12408)">
<mask id="mask116_2743_12408" style="mask-type:luminance" maskUnits="userSpaceOnUse" x="78" y="296" width="227" height="218">
<path d="M78.834 345.399L244.792 296.664L304.778 464.59L138.82 513.324L78.834 345.399Z" fill="white"/>
</mask>
<g mask="url(#mask116_2743_12408)">
<mask id="mask117_2743_12408" style="mask-type:luminance" maskUnits="userSpaceOnUse" x="78" y="296" width="227" height="218">
<path d="M78.835 345.399L244.793 296.664L304.779 464.59L138.821 513.324L78.835 345.399Z" fill="white"/>
</mask>
<g mask="url(#mask117_2743_12408)">
<mask id="mask118_2743_12408" style="mask-type:luminance" maskUnits="userSpaceOnUse" x="78" y="296" width="227" height="218">
<path d="M78.835 345.399L244.793 296.664L304.779 464.59L138.821 513.324L78.835 345.399Z" fill="white"/>
</mask>
<g mask="url(#mask118_2743_12408)">
<path d="M170.462 387.984C170.371 388.18 170.286 388.585 170.03 388.863C167.093 391.998 164.137 395.116 161.17 398.224C160.919 398.488 160.593 398.752 160.247 398.857C159.98 398.939 159.509 398.857 159.333 398.68C159.162 398.507 159.162 398.102 159.238 397.833C159.303 397.596 159.564 397.396 159.75 397.191C162.49 394.197 165.221 391.206 167.977 388.225C168.288 387.889 168.655 387.565 169.071 387.342C169.649 387.042 170.201 387.256 170.462 387.984Z" fill="black"/>
</g>
</g>
</g>
</g>
<mask id="mask119_2743_12408" style="mask-type:luminance" maskUnits="userSpaceOnUse" x="224" y="370" width="11" height="13">
<path d="M224.411 370.853H234.692V382.504H224.411V370.853Z" fill="white"/>
</mask>
<g mask="url(#mask119_2743_12408)">
<mask id="mask120_2743_12408" style="mask-type:luminance" maskUnits="userSpaceOnUse" x="78" y="296" width="227" height="218">
<path d="M78.832 345.399L244.79 296.664L304.776 464.59L138.818 513.324L78.832 345.399Z" fill="white"/>
</mask>
<g mask="url(#mask120_2743_12408)">
<mask id="mask121_2743_12408" style="mask-type:luminance" maskUnits="userSpaceOnUse" x="78" y="296" width="227" height="218">
<path d="M78.833 345.398L244.791 296.664L304.777 464.59L138.819 513.324L78.833 345.398Z" fill="white"/>
</mask>
<g mask="url(#mask121_2743_12408)">
<mask id="mask122_2743_12408" style="mask-type:luminance" maskUnits="userSpaceOnUse" x="78" y="296" width="227" height="218">
<path d="M78.832 345.398L244.79 296.664L304.776 464.59L138.818 513.324L78.832 345.398Z" fill="white"/>
</mask>
<g mask="url(#mask122_2743_12408)">
<path d="M234.239 372.237C234.133 372.478 234.038 372.91 233.782 373.252C233.144 374.098 232.422 374.895 231.764 375.728C230.359 377.507 228.978 379.3 227.573 381.08C227.236 381.512 226.89 381.986 226.423 382.281C226.142 382.459 225.55 382.454 225.233 382.304C224.761 382.081 224.877 381.626 225.133 381.248C225.786 380.302 226.393 379.328 227.106 378.417C228.732 376.342 230.404 374.303 232.075 372.255C232.276 372.009 232.517 371.764 232.803 371.604C233.31 371.327 233.938 371.55 234.239 372.237Z" fill="black"/>
</g>
</g>
</g>
</g>
<mask id="mask123_2743_12408" style="mask-type:luminance" maskUnits="userSpaceOnUse" x="253" y="425" width="16" height="8">
<path d="M253.969 425.614H268.104V432.604H253.969V425.614Z" fill="white"/>
</mask>
<g mask="url(#mask123_2743_12408)">
<mask id="mask124_2743_12408" style="mask-type:luminance" maskUnits="userSpaceOnUse" x="78" y="296" width="227" height="218">
<path d="M78.834 345.399L244.792 296.664L304.778 464.59L138.82 513.324L78.834 345.399Z" fill="white"/>
</mask>
<g mask="url(#mask124_2743_12408)">
<mask id="mask125_2743_12408" style="mask-type:luminance" maskUnits="userSpaceOnUse" x="78" y="296" width="227" height="218">
<path d="M78.835 345.399L244.793 296.664L304.779 464.59L138.821 513.324L78.835 345.399Z" fill="white"/>
</mask>
<g mask="url(#mask125_2743_12408)">
<mask id="mask126_2743_12408" style="mask-type:luminance" maskUnits="userSpaceOnUse" x="78" y="296" width="227" height="218">
<path d="M78.834 345.399L244.792 296.664L304.778 464.59L138.82 513.324L78.834 345.399Z" fill="white"/>
</mask>
<g mask="url(#mask126_2743_12408)">
<path d="M267.938 430.734C268.194 431.444 267.903 431.89 267.321 431.912C266.939 431.931 266.533 431.853 266.171 431.735C262.633 430.624 259.104 429.5 255.58 428.358C254.997 428.167 254.27 428.008 254.405 427.22C254.496 426.688 255.133 426.515 256.162 426.824C259.671 427.871 263.17 428.945 266.658 430.042C267.18 430.21 267.632 430.565 267.938 430.734Z" fill="black"/>
</g>
</g>
</g>
</g>
<mask id="mask127_2743_12408" style="mask-type:luminance" maskUnits="userSpaceOnUse" x="199" y="401" width="17" height="8">
<path d="M199.996 401.146H215.417V408.137H199.996V401.146Z" fill="white"/>
</mask>
<g mask="url(#mask127_2743_12408)">
<mask id="mask128_2743_12408" style="mask-type:luminance" maskUnits="userSpaceOnUse" x="78" y="296" width="227" height="218">
<path d="M78.834 345.399L244.792 296.664L304.778 464.59L138.82 513.324L78.834 345.399Z" fill="white"/>
</mask>
<g mask="url(#mask128_2743_12408)">
<mask id="mask129_2743_12408" style="mask-type:luminance" maskUnits="userSpaceOnUse" x="78" y="296" width="227" height="218">
<path d="M78.835 345.399L244.793 296.664L304.779 464.59L138.821 513.324L78.835 345.399Z" fill="white"/>
</mask>
<g mask="url(#mask129_2743_12408)">
<mask id="mask130_2743_12408" style="mask-type:luminance" maskUnits="userSpaceOnUse" x="78" y="296" width="227" height="218">
<path d="M78.834 345.399L244.792 296.664L304.778 464.59L138.82 513.324L78.834 345.399Z" fill="white"/>
</mask>
<g mask="url(#mask130_2743_12408)">
<path d="M201.487 402.102C201.693 402.125 202.049 402.116 202.361 402.211C205.879 403.253 209.393 404.291 212.897 405.374C213.514 405.566 214.298 405.779 214.197 406.608C214.137 407.086 213.499 407.254 212.395 406.99C210.774 406.603 209.167 406.171 207.576 405.688C205.799 405.156 204.047 404.551 202.29 403.95C201.839 403.795 201.372 403.59 201.02 403.304C200.543 402.912 200.749 402.32 201.487 402.102Z" fill="black"/>
</g>
</g>
</g>
</g>
<mask id="mask131_2743_12408" style="mask-type:luminance" maskUnits="userSpaceOnUse" x="107" y="384" width="9" height="9">
<path d="M107.472 384.835H115.182V392.99H107.472V384.835Z" fill="white"/>
</mask>
<g mask="url(#mask131_2743_12408)">
<mask id="mask132_2743_12408" style="mask-type:luminance" maskUnits="userSpaceOnUse" x="78" y="296" width="227" height="218">
<path d="M78.834 345.399L244.792 296.664L304.778 464.59L138.82 513.324L78.834 345.399Z" fill="white"/>
</mask>
<g mask="url(#mask132_2743_12408)">
<mask id="mask133_2743_12408" style="mask-type:luminance" maskUnits="userSpaceOnUse" x="78" y="296" width="227" height="218">
<path d="M78.835 345.399L244.793 296.664L304.779 464.59L138.821 513.324L78.835 345.399Z" fill="white"/>
</mask>
<g mask="url(#mask133_2743_12408)">
<mask id="mask134_2743_12408" style="mask-type:luminance" maskUnits="userSpaceOnUse" x="78" y="296" width="227" height="218">
<path d="M78.835 345.399L244.793 296.664L304.779 464.59L138.821 513.324L78.835 345.399Z" fill="white"/>
</mask>
<g mask="url(#mask134_2743_12408)">
<path d="M112.147 389.031C111.796 389.258 111.6 389.386 111.409 389.513C111.033 389.773 110.581 389.991 110.244 389.582C110.049 389.35 110.034 388.922 110.094 388.608C110.179 388.162 110.41 387.743 110.581 387.315C110.48 387.274 110.385 387.238 110.285 387.201C110.054 387.511 109.858 387.861 109.572 388.125C109.396 388.285 109.065 388.394 108.824 388.371C108.663 388.353 108.452 388.08 108.407 387.893C108.181 386.983 109.597 385.417 110.621 385.404C111.354 385.395 111.926 385.804 112.122 386.646C112.282 387.32 112.458 387.839 113.206 388.244C114.095 388.721 114.235 389.859 113.763 390.783C113.101 392.062 110.686 393.068 109.22 392.626C108.769 392.49 108.327 392.235 107.986 391.935C107.8 391.762 107.835 391.388 107.765 391.106C108.036 391.065 108.352 390.915 108.568 390.992C109.692 391.402 110.701 391.156 111.665 390.619C112.232 390.292 112.619 389.873 112.147 389.031Z" fill="black"/>
</g>
</g>
</g>
</g>
<mask id="mask135_2743_12408" style="mask-type:luminance" maskUnits="userSpaceOnUse" x="229" y="446" width="11" height="13">
<path d="M229.552 446.586H239.832V458.237H229.552V446.586Z" fill="white"/>
</mask>
<g mask="url(#mask135_2743_12408)">
<mask id="mask136_2743_12408" style="mask-type:luminance" maskUnits="userSpaceOnUse" x="78" y="296" width="227" height="218">
<path d="M78.833 345.399L244.791 296.664L304.777 464.59L138.819 513.324L78.833 345.399Z" fill="white"/>
</mask>
<g mask="url(#mask136_2743_12408)">
<mask id="mask137_2743_12408" style="mask-type:luminance" maskUnits="userSpaceOnUse" x="78" y="296" width="227" height="218">
<path d="M78.834 345.399L244.792 296.664L304.778 464.59L138.82 513.324L78.834 345.399Z" fill="white"/>
</mask>
<g mask="url(#mask137_2743_12408)">
<mask id="mask138_2743_12408" style="mask-type:luminance" maskUnits="userSpaceOnUse" x="78" y="296" width="227" height="218">
<path d="M78.834 345.399L244.792 296.664L304.778 464.59L138.82 513.324L78.834 345.399Z" fill="white"/>
</mask>
<g mask="url(#mask138_2743_12408)">
<path d="M239.306 448.442C239.206 448.684 239.121 449.139 238.86 449.476C236.892 451.979 234.884 454.459 232.886 456.949C232.831 457.021 232.771 457.09 232.7 457.158C232.073 457.791 231.405 457.964 230.913 457.627C230.451 457.313 230.406 456.803 230.943 456.079C232.811 453.567 234.708 451.068 236.621 448.583C236.897 448.228 237.273 447.896 237.68 447.682C238.307 447.35 239.03 447.655 239.306 448.442Z" fill="black"/>
</g>
</g>
</g>
</g>
<mask id="mask139_2743_12408" style="mask-type:luminance" maskUnits="userSpaceOnUse" x="221" y="432" width="15" height="7">
<path d="M221.842 432.604H235.977V438.43H221.842V432.604Z" fill="white"/>
</mask>
<g mask="url(#mask139_2743_12408)">
<mask id="mask140_2743_12408" style="mask-type:luminance" maskUnits="userSpaceOnUse" x="78" y="296" width="227" height="218">
<path d="M78.834 345.399L244.792 296.664L304.778 464.59L138.82 513.324L78.834 345.399Z" fill="white"/>
</mask>
<g mask="url(#mask140_2743_12408)">
<mask id="mask141_2743_12408" style="mask-type:luminance" maskUnits="userSpaceOnUse" x="78" y="296" width="227" height="218">
<path d="M78.835 345.399L244.793 296.664L304.779 464.59L138.821 513.324L78.835 345.399Z" fill="white"/>
</mask>
<g mask="url(#mask141_2743_12408)">
<mask id="mask142_2743_12408" style="mask-type:luminance" maskUnits="userSpaceOnUse" x="78" y="296" width="227" height="218">
<path d="M78.834 345.399L244.792 296.664L304.778 464.59L138.82 513.324L78.834 345.399Z" fill="white"/>
</mask>
<g mask="url(#mask142_2743_12408)">
<path d="M223.082 432.9C223.313 432.941 223.704 432.968 224.066 433.077C227.429 434.092 230.787 435.126 234.145 436.159C234.522 436.277 234.898 436.395 235.235 436.573C235.737 436.837 236.098 437.21 235.837 437.783C235.586 438.339 235.054 438.402 234.477 438.311C234.381 438.298 234.286 438.28 234.191 438.248C230.842 437.201 227.484 436.159 224.146 435.085C223.599 434.907 223.072 434.607 222.635 434.261C222.123 433.847 222.309 433.173 223.082 432.9Z" fill="black"/>
</g>
</g>
</g>
</g>
<mask id="mask143_2743_12408" style="mask-type:luminance" maskUnits="userSpaceOnUse" x="211" y="443" width="7" height="11">
<path d="M211.562 443.09H217.987V453.576H211.562V443.09Z" fill="white"/>
</mask>
<g mask="url(#mask143_2743_12408)">
<mask id="mask144_2743_12408" style="mask-type:luminance" maskUnits="userSpaceOnUse" x="78" y="296" width="227" height="218">
<path d="M78.834 345.399L244.792 296.664L304.778 464.59L138.82 513.324L78.834 345.399Z" fill="white"/>
</mask>
<g mask="url(#mask144_2743_12408)">
<mask id="mask145_2743_12408" style="mask-type:luminance" maskUnits="userSpaceOnUse" x="78" y="296" width="227" height="218">
<path d="M78.835 345.399L244.793 296.664L304.779 464.59L138.821 513.324L78.835 345.399Z" fill="white"/>
</mask>
<g mask="url(#mask145_2743_12408)">
<mask id="mask146_2743_12408" style="mask-type:luminance" maskUnits="userSpaceOnUse" x="78" y="296" width="227" height="218">
<path d="M78.835 345.399L244.793 296.664L304.779 464.59L138.821 513.324L78.835 345.399Z" fill="white"/>
</mask>
<g mask="url(#mask146_2743_12408)">
<path d="M216.563 449.99C216.819 450.723 217.085 451.346 217.266 451.992C217.457 452.675 217.201 453.18 216.644 453.312C216.016 453.462 215.59 453.176 215.334 452.693C215.012 452.092 214.696 451.478 214.45 450.85C213.697 448.916 212.979 446.968 212.251 445.024C212.171 444.815 212.026 444.578 212.076 444.387C212.166 444.032 212.282 443.577 212.568 443.4C212.974 443.145 213.426 443.413 213.662 443.796C213.948 444.264 214.199 444.751 214.425 445.247C215.158 446.854 215.876 448.47 216.563 449.99Z" fill="black"/>
</g>
</g>
</g>
</g>
</g>
<defs>
<clipPath id="clip0_2743_12408">
<rect width="461" height="474" fill="white"/>
</clipPath>
</defs>
</svg>
