<svg width="1440" height="732" viewBox="0 0 1440 732" fill="none" xmlns="http://www.w3.org/2000/svg">
<path d="M0 169.363C570.805 40.6632 886.278 45.9087 1440 171.5V732C709.338 732 602.509 732 0 732V169.363Z" fill="#FFA821"/>
<path d="M952 732C952 732 934.607 656 912.37 617.775C890.133 579.551 842.012 537.612 799.785 537.612C757.557 537.612 717.059 566.448 687.2 617.775C657.34 669.103 657 732 657 732H800H952Z" fill="#F5F5F5"/>
<path d="M949.004 273.694C954.527 273.694 959.015 278.174 958.898 283.695C957.432 352.651 940.855 418.259 912.37 467.224C882.51 518.552 842.012 547.387 799.785 547.387C757.557 547.387 717.059 518.552 687.2 467.224C658.715 418.259 642.137 352.651 640.672 283.695C640.554 278.174 645.043 273.694 650.565 273.694L799.785 273.694H949.004Z" fill="#F5F5F5"/>
<path d="M870.002 327.01L835.443 349.345" stroke="#FFA821" stroke-width="10" stroke-linecap="round"/>
<path d="M719.164 327.01L753.724 349.345" stroke="#FFA821" stroke-width="10" stroke-linecap="round"/>
<path d="M876.003 362.271L835.914 350.359" stroke="#FFA821" stroke-width="10" stroke-linecap="round"/>
<path d="M713.163 362.271L753.252 350.359" stroke="#FFA821" stroke-width="10" stroke-linecap="round"/>
<path d="M747.812 461.679L754.981 458.976L764.768 454.215L774.342 470.769L791.239 452.924L801.191 464.188L812.216 449.2L824.892 464.049L832.486 451.319L842.178 456.032" stroke="#FFA821" stroke-width="16" stroke-linecap="square"/>
<path d="M1270.93 728.088C1270.93 728.088 1274.89 718.323 1263 711L1270.93 728.088Z" fill="#21B663"/>
<path d="M1270.32 725.749C1270.32 725.749 1271.98 716.164 1284.87 716.246L1270.32 725.749Z" fill="#21B663"/>
<path d="M1223.41 425.567C1223.41 425.567 1222.52 422.921 1215.67 422.944L1223.41 425.567Z" fill="#14AE5C"/>
<line x1="898.007" y1="181.609" x2="1039.8" y2="181.609" stroke="white" stroke-width="10" stroke-linecap="round"/>
<path d="M496.211 206.98V156.58H516.875C520.379 156.58 523.331 157.132 525.731 158.236C528.131 159.34 529.931 160.876 531.131 162.844C532.379 164.764 533.003 166.996 533.003 169.54C533.003 172.084 532.451 174.22 531.347 175.948C530.243 177.676 528.779 179.02 526.955 179.98C525.179 180.892 523.211 181.42 521.051 181.564L522.203 180.772C524.507 180.868 526.547 181.492 528.323 182.644C530.147 183.748 531.563 185.236 532.571 187.108C533.627 188.98 534.155 191.02 534.155 193.228C534.155 195.916 533.507 198.292 532.211 200.356C530.915 202.42 529.043 204.052 526.595 205.252C524.147 206.404 521.147 206.98 517.595 206.98H496.211ZM505.931 199.06H516.011C518.651 199.06 520.691 198.46 522.131 197.26C523.571 196.06 524.291 194.332 524.291 192.076C524.291 189.82 523.547 188.068 522.059 186.82C520.571 185.524 518.507 184.876 515.867 184.876H505.931V199.06ZM505.931 177.604H515.291C517.835 177.604 519.755 177.028 521.051 175.876C522.395 174.724 523.067 173.092 523.067 170.98C523.067 168.916 522.395 167.308 521.051 166.156C519.755 164.956 517.811 164.356 515.219 164.356H505.931V177.604ZM542.125 206.98V156.58H560.917C564.997 156.58 568.357 157.276 570.997 158.668C573.637 160.06 575.605 161.932 576.901 164.284C578.197 166.588 578.845 169.156 578.845 171.988C578.845 174.676 578.221 177.196 576.973 179.548C575.725 181.852 573.757 183.724 571.069 185.164C568.429 186.556 565.021 187.252 560.845 187.252H551.845V206.98H542.125ZM568.261 206.98L557.893 184.804H568.405L579.349 206.98H568.261ZM551.845 180.196H560.341C563.269 180.196 565.429 179.476 566.821 178.036C568.213 176.596 568.909 174.7 568.909 172.348C568.909 169.996 568.213 168.148 566.821 166.804C565.477 165.412 563.317 164.716 560.341 164.716H551.845V180.196ZM587.547 206.98V156.58H620.667V164.428H597.267V177.604H618.507V185.164H597.267V199.132H620.667V206.98H587.547ZM626.14 206.98L644.572 156.58H655.588L673.948 206.98H663.652L650.044 167.668L636.364 206.98H626.14ZM634.276 195.532L636.868 187.972H662.5L665.02 195.532H634.276ZM680.571 206.98V156.58H690.291V176.524L708.507 156.58H720.459L701.955 176.524L721.035 206.98H709.155L694.971 184.084L690.291 189.124V206.98H680.571ZM756.291 206.98V164.428H741.531V156.58H780.627V164.428H765.939V206.98H756.291ZM819.268 206.98V156.58H828.988V206.98H819.268ZM787.516 206.98V156.58H797.236V206.98H787.516ZM795.868 185.164V177.316H820.924V185.164H795.868ZM838.914 206.98V156.58H872.034V164.428H848.634V177.604H869.874V185.164H848.634V199.132H872.034V206.98H838.914ZM897.836 206.98V156.58H907.556V199.42H929.66V206.98H897.836ZM956.741 207.844C951.845 207.844 947.525 206.74 943.781 204.532C940.037 202.324 937.109 199.276 934.997 195.388C932.885 191.452 931.829 186.916 931.829 181.78C931.829 176.644 932.885 172.132 934.997 168.244C937.109 164.308 940.037 161.236 943.781 159.028C947.525 156.82 951.845 155.716 956.741 155.716C961.685 155.716 966.029 156.82 969.773 159.028C973.517 161.236 976.421 164.308 978.485 168.244C980.597 172.132 981.653 176.644 981.653 181.78C981.653 186.916 980.597 191.452 978.485 195.388C976.421 199.276 973.517 202.324 969.773 204.532C966.029 206.74 961.685 207.844 956.741 207.844ZM956.741 199.132C959.813 199.132 962.453 198.436 964.661 197.044C966.917 195.604 968.669 193.588 969.917 190.996C971.165 188.404 971.789 185.332 971.789 181.78C971.789 178.18 971.165 175.108 969.917 172.564C968.669 169.972 966.917 167.98 964.661 166.588C962.453 165.196 959.813 164.5 956.741 164.5C953.717 164.5 951.077 165.196 948.821 166.588C946.565 167.98 944.813 169.972 943.565 172.564C942.317 175.108 941.693 178.18 941.693 181.78C941.693 185.332 942.317 188.404 943.565 190.996C944.813 193.588 946.565 195.604 948.821 197.044C951.077 198.436 953.717 199.132 956.741 199.132ZM1013.2 207.844C1008.31 207.844 1003.99 206.74 1000.24 204.532C996.498 202.324 993.57 199.276 991.458 195.388C989.346 191.452 988.29 186.916 988.29 181.78C988.29 176.644 989.346 172.132 991.458 168.244C993.57 164.308 996.498 161.236 1000.24 159.028C1003.99 156.82 1008.31 155.716 1013.2 155.716C1018.15 155.716 1022.49 156.82 1026.23 159.028C1029.98 161.236 1032.88 164.308 1034.95 168.244C1037.06 172.132 1038.11 176.644 1038.11 181.78C1038.11 186.916 1037.06 191.452 1034.95 195.388C1032.88 199.276 1029.98 202.324 1026.23 204.532C1022.49 206.74 1018.15 207.844 1013.2 207.844ZM1013.2 199.132C1016.27 199.132 1018.91 198.436 1021.12 197.044C1023.38 195.604 1025.13 193.588 1026.38 190.996C1027.63 188.404 1028.25 185.332 1028.25 181.78C1028.25 178.18 1027.63 175.108 1026.38 172.564C1025.13 169.972 1023.38 167.98 1021.12 166.588C1018.91 165.196 1016.27 164.5 1013.2 164.5C1010.18 164.5 1007.54 165.196 1005.28 166.588C1003.03 167.98 1001.27 169.972 1000.03 172.564C998.778 175.108 998.154 178.18 998.154 181.78C998.154 185.332 998.778 188.404 1000.03 190.996C1001.27 193.588 1003.03 195.604 1005.28 197.044C1007.54 198.436 1010.18 199.132 1013.2 199.132ZM1046.41 206.98V156.58H1065.27C1069.35 156.58 1072.73 157.276 1075.42 158.668C1078.11 160.06 1080.1 161.932 1081.4 164.284C1082.69 166.636 1083.34 169.324 1083.34 172.348C1083.34 175.132 1082.72 177.7 1081.47 180.052C1080.22 182.404 1078.25 184.324 1075.57 185.812C1072.88 187.252 1069.45 187.972 1065.27 187.972H1056.13V206.98H1046.41ZM1056.13 180.124H1064.69C1067.81 180.124 1070.05 179.428 1071.39 178.036C1072.78 176.596 1073.48 174.7 1073.48 172.348C1073.48 169.852 1072.78 167.932 1071.39 166.588C1070.05 165.196 1067.81 164.5 1064.69 164.5H1056.13V180.124Z" fill="white"/>
<path d="M1275.55 298.389C1236.04 298.389 1204 270.543 1204 236.194C1204 201.845 1236.04 174 1275.55 174C1315.07 174 1347.11 201.845 1347.11 236.194C1347.11 270.543 1315.07 298.389 1275.55 298.389Z" fill="#FFC63F"/>
<path d="M1214.75 285.215C1219.3 269.988 1232.14 260.054 1247.66 257.877C1247.81 257.861 1247.99 257.893 1248.15 257.877C1248.37 257.807 1248.59 257.754 1248.82 257.718C1270.79 255.045 1293.02 259.885 1311.9 271.45C1316.22 274.15 1320.73 276.519 1325.41 278.539C1340.4 284.859 1356.43 288.33 1372.69 288.775C1372.82 288.775 1372.95 288.791 1373.08 288.791C1381.04 289.32 1388.65 292.292 1394.86 297.3C1401.08 302.309 1405.6 309.111 1407.81 316.781C1408.04 317.718 1407.97 318.707 1407.6 319.601C1407.24 320.496 1406.59 321.25 1405.77 321.756C1403.4 323.767 1400.59 325.198 1397.57 325.936C1391.04 327.318 1384.49 328.585 1377.92 329.734C1365.1 331.975 1352.21 333.787 1339.25 335.17C1330.67 336.092 1322.07 336.813 1313.46 337.332C1295.69 338.444 1277.84 338.715 1260.04 338.158C1251.23 337.888 1242.74 337.602 1234.67 333.708C1228.8 330.812 1223.79 326.434 1220.13 321.008C1216.67 315.796 1214.4 309.89 1213.47 303.707C1212.55 297.523 1212.98 291.212 1214.75 285.215Z" fill="#F5F5F5" fill-opacity="0.9"/>
<path d="M349.343 118.857C350.89 113.672 355.263 110.29 360.545 109.549C360.599 109.543 360.659 109.554 360.713 109.549C360.787 109.525 360.863 109.507 360.94 109.494C368.422 108.584 375.992 110.232 382.419 114.17C383.889 115.089 385.427 115.896 387.019 116.584C392.122 118.735 397.582 119.917 403.119 120.069C403.162 120.069 403.205 120.074 403.249 120.074C405.96 120.255 408.55 121.266 410.666 122.971C412.782 124.677 414.321 126.993 415.073 129.604C415.153 129.924 415.129 130.26 415.004 130.565C414.88 130.869 414.661 131.126 414.381 131.298C413.573 131.983 412.617 132.47 411.588 132.721C409.364 133.192 407.134 133.623 404.899 134.015C400.532 134.778 396.143 135.395 391.733 135.866C388.81 136.179 385.882 136.425 382.949 136.602C376.899 136.98 370.822 137.072 364.761 136.883C361.763 136.791 358.873 136.694 356.123 135.368C354.125 134.382 352.418 132.891 351.172 131.044C349.996 129.269 349.223 127.258 348.907 125.153C348.591 123.047 348.74 120.898 349.343 118.857Z" fill="#F5F5F5"/>
<path d="M221.247 395.689H0V604.784H221.247V395.689Z" fill="#F5F5F5"/>
<path d="M221 399H0V732H221V399Z" fill="#F5F5F5"/>
<path d="M71.7975 456.918H38.2759V489.301H71.7975V456.918Z" fill="#FFA821"/>
<path d="M125.805 456.918H92.283V489.301H125.805V456.918Z" fill="#FFA821"/>
<path d="M179.811 456.918H146.29V489.301H179.811V456.918Z" fill="#FFA821"/>
<path d="M72.7287 530.679H39.2072V563.062H72.7287V530.679Z" fill="#FFA821"/>
<path d="M126.736 530.679H93.2141V563.062H126.736V530.679Z" fill="#FFA821"/>
<path d="M180.743 530.679H147.221V563.062H180.743V530.679Z" fill="#FFA821"/>
<path d="M73.6601 604.442H40.1385V636.825H73.6601V604.442Z" fill="#FFA821"/>
<path d="M127.667 604.442H94.1456V636.825H127.667V604.442Z" fill="#FFA821"/>
<path d="M181.674 604.442H148.153V636.825H181.674V604.442Z" fill="#FFA821"/>
<path d="M74.5908 678.203H41.0692V710.585H74.5908V678.203Z" fill="#FFA821"/>
<path d="M128.598 678.203H95.0763V710.585H128.598V678.203Z" fill="#FFA821"/>
<path d="M182.605 678.203H149.083V710.585H182.605V678.203Z" fill="#FFA821"/>
<path d="M74.5908 678.203H41.0692V710.585H74.5908V678.203Z" fill="#FFA821"/>
<path d="M128.598 678.203H95.0763V710.585H128.598V678.203Z" fill="#FFA821"/>
<path d="M182.605 678.203H149.083V710.585H182.605V678.203Z" fill="#FFA821"/>
<path d="M1249.17 721.339C1249.17 721.339 1245.76 716.542 1255.98 712.944L1249.17 721.339Z" fill="#14AE5C"/>
<path d="M1248.07 700.841C1258.5 700.841 1266.95 693.496 1266.95 684.434C1266.95 675.373 1258.5 668.027 1248.07 668.027C1237.65 668.027 1229.2 675.373 1229.2 684.434C1229.2 693.496 1237.65 700.841 1248.07 700.841Z" fill="#14AE5C"/>
<path d="M1248.5 684H1248.53L1249 732H1248L1248.5 684Z" fill="#F0F0F0"/>
<path d="M1289.34 709.236C1296.85 709.236 1302.95 703.77 1302.95 697.026C1302.95 690.283 1296.85 684.816 1289.34 684.816C1281.82 684.816 1275.73 690.283 1275.73 697.026C1275.73 703.77 1281.82 709.236 1289.34 709.236Z" fill="#14AE5C"/>
<path d="M1289.5 697H1289.53L1290 732H1289L1289.5 697Z" fill="#F0F0F0"/>
<path d="M1271.56 680.238C1289.26 680.238 1303.61 667.938 1303.61 652.765C1303.61 637.593 1289.26 625.293 1271.56 625.293C1253.86 625.293 1239.51 637.593 1239.51 652.765C1239.51 667.938 1253.86 680.238 1271.56 680.238Z" fill="#14AE5C"/>
<path opacity="0.1" d="M1294.95 634.45C1297.89 640.449 1298.29 647.164 1296.08 653.396C1293.86 659.628 1289.17 664.97 1282.85 668.468C1276.53 671.966 1268.99 673.392 1261.57 672.49C1254.16 671.589 1247.35 668.42 1242.37 663.549C1244.17 667.214 1246.86 670.494 1250.25 673.163C1253.65 675.832 1257.68 677.826 1262.05 679.005C1266.42 680.185 1271.03 680.523 1275.56 679.996C1280.1 679.468 1284.45 678.088 1288.31 675.951C1292.17 673.814 1295.45 670.971 1297.93 667.619C1300.4 664.267 1302.01 660.487 1302.64 656.539C1303.28 652.591 1302.92 648.571 1301.59 644.757C1300.26 640.943 1297.99 637.426 1294.95 634.45Z" fill="#93FFA0"/>
<path d="M1271.5 653H1271.42L1270 732H1273L1271.5 653Z" fill="#F5F5F5"/>
<path d="M1363.97 623.043C1393.3 623.043 1417.07 598.67 1417.07 568.605C1417.07 538.539 1393.3 514.167 1363.97 514.167C1334.64 514.167 1310.86 538.539 1310.86 568.605C1310.86 598.67 1334.64 623.043 1363.97 623.043Z" fill="#14AE5C"/>
<path d="M1368 732H1360L1361.66 656.022L1362.52 616.414L1363.99 549H1364.22L1365.61 616.402L1366.4 654.756L1366.48 658.482L1368 732Z" fill="#F5F5F5"/>
<path d="M1379.41 653.629L1377.49 650.651L1363.76 656.574L1365.68 659.552L1379.41 653.629Z" fill="#F5F5F5"/>
<path d="M430.255 730.346C427.273 728.156 425.461 724.695 425.936 721.326C426.411 717.957 429.354 714.86 433.171 714.144C436.988 713.429 441.34 715.409 442.499 718.651C443.137 712.402 443.873 705.891 447.695 700.57C451.156 695.751 457.15 692.303 463.647 691.687C470.143 691.07 476.984 693.399 481.035 697.856C485.087 702.313 486.079 708.793 483.241 713.91C481.151 717.679 477.3 720.484 473.264 722.767C460.225 730.079 444.586 733.053 429.225 731.141" fill="#F5F5F5"/>
<path d="M475.489 694.291C470.129 698.087 465.211 702.331 460.807 706.964C453.915 714.189 448.338 722.289 444.271 730.983C443.973 731.617 445.158 731.893 445.452 731.266C452.108 717.137 462.733 704.683 476.355 695.045C476.967 694.612 476.096 693.862 475.489 694.291Z" fill="white"/>
<path d="M380.512 276.021L355.273 252.031C374.88 249.46 382.936 262.168 386.233 272.227C401.55 264.668 418.225 274.575 418.225 274.575L367.728 296.363C370.275 288.276 374.71 281.219 380.512 276.021Z" fill="#F5F5F5"/>
<path d="M941.123 378.57C936.638 393.946 945.751 411.23 961.457 409.846C971.042 409 980.356 406.159 988.867 401.484C997.378 396.809 1004.92 390.392 1011.06 382.599C1017.2 374.805 1021.82 365.789 1024.66 356.064C1027.5 346.339 1028.49 336.096 1027.59 325.92C1026.69 315.744 1023.91 305.834 1019.41 296.756C1014.91 287.678 1008.78 279.61 1001.37 273.012C989.218 262.201 972.565 270.767 968.081 286.142L954.602 332.356L941.123 378.57Z" fill="#F5F5F5"/>
<path d="M961.786 264.589L963.086 275.936L966.235 291.526L942.136 304.807L959.904 332.617L942.47 346.974L958.349 365.43L935.499 383.669L949.519 396.604L940.558 411.168" stroke="#FFA821" stroke-width="46" stroke-linecap="square"/>
<ellipse cx="56.3248" cy="55.9053" rx="56.3248" ry="55.9053" transform="matrix(-0.967656 -0.140199 -0.166674 1.00726 1068.44 428.007)" fill="white"/>
<ellipse cx="13.4514" cy="14.0797" rx="13.4514" ry="14.0797" transform="matrix(-0.909549 0.365484 0.319875 0.968891 1014.98 367.41)" fill="white"/>
<path d="M973.476 479.894C959.232 498.787 950.457 510.41 925.147 521.068" stroke="white" stroke-width="11" stroke-linecap="round"/>
<path d="M1036.64 378.551C1053.07 409.089 1045.1 431.565 1003.4 471.458" stroke="white" stroke-width="6" stroke-linecap="round"/>
<path d="M1006 383.467C1026.85 410.738 1022.26 434.119 986.748 480.162" stroke="white" stroke-width="6" stroke-linecap="round"/>
<path d="M1013.96 511.671C999.692 543.667 989.575 554.745 959.146 558.37" stroke="white" stroke-width="11" stroke-linecap="round"/>
<ellipse cx="13.4514" cy="14.0797" rx="13.4514" ry="14.0797" transform="matrix(-0.909549 0.365484 0.319875 0.968891 1040.84 353.057)" fill="white"/>
<ellipse cx="26.9609" cy="34.4153" rx="26.9609" ry="34.4153" transform="matrix(0.949805 0.241841 -0.258708 0.985103 1010.56 390.297)" fill="#F5F5F5"/>
<path d="M1029.36 416.081C1029.1 412.857 1026.9 409.799 1023.53 408.467C1020.44 407.242 1017.17 407.794 1014.93 409.629C1017.28 409.476 1019.76 409.844 1022.18 410.805C1025.12 411.968 1027.57 413.834 1029.36 416.081Z" fill="#FFA821"/>
<path d="M1046.36 426.292C1045.28 423.896 1043.4 421.755 1040.86 420.338C1039.37 419.505 1037.81 419.009 1036.27 418.817C1038.13 417.806 1040.55 417.792 1042.7 418.993C1045.44 420.523 1046.86 423.542 1046.36 426.292Z" fill="#FFA821"/>
<ellipse cx="14.8964" cy="8.88256" rx="14.8964" ry="8.88256" transform="matrix(0.820668 0.559248 -0.538434 0.850122 1015.85 423.344)" fill="#FFA821"/>
</svg>
