<svg width="393" height="1098" viewBox="0 0 393 1098" fill="none" xmlns="http://www.w3.org/2000/svg">
<path d="M0 35.8074C152.071 -15.6543 238.326 -8.06681 393 35.8074V890H0V35.8074Z" fill="#FFA821"/>
<path d="M306.912 368.54L286.591 349.887C302.084 347.58 308.641 357.534 311.391 365.456C323.419 359.257 336.763 366.873 336.763 366.873L297.068 384.828C298.974 378.387 302.389 372.737 306.912 368.54Z" fill="#14AE5C"/>
<path d="M399 374C349.294 374 309 333.706 309 284C309 234.294 349.294 194 399 194C448.706 194 489 234.294 489 284C489 333.706 448.706 374 399 374Z" fill="#FFC63F"/>
<path d="M254.954 323.591C257.426 315.177 264.409 309.688 272.844 308.484C272.93 308.476 273.025 308.493 273.112 308.484C273.23 308.446 273.352 308.417 273.475 308.397C285.424 306.92 297.513 309.594 307.777 315.985C310.126 317.476 312.581 318.786 315.123 319.902C323.274 323.394 331.993 325.312 340.835 325.558C340.904 325.558 340.973 325.567 341.042 325.567C345.373 325.859 349.509 327.501 352.889 330.268C356.268 333.036 358.725 336.795 359.926 341.033C360.054 341.551 360.015 342.097 359.816 342.591C359.617 343.085 359.268 343.502 358.82 343.782C357.53 344.893 356.003 345.684 354.361 346.091C350.809 346.855 347.248 347.555 343.678 348.19C336.704 349.429 329.695 350.43 322.651 351.194C317.984 351.703 313.308 352.102 308.624 352.388C298.962 353.003 289.256 353.153 279.576 352.845C274.788 352.696 270.173 352.538 265.783 350.386C262.591 348.786 259.865 346.367 257.875 343.369C255.997 340.488 254.763 337.225 254.258 333.809C253.753 330.392 253.991 326.904 254.954 323.591Z" fill="#F5F5F5"/>
<path d="M-26.4394 57.0182C-24.9864 52.1514 -20.8816 48.9762 -15.9233 48.2803C-15.8725 48.2752 -15.8166 48.2853 -15.7658 48.2803C-15.6961 48.258 -15.6248 48.241 -15.5525 48.2295C-8.52857 47.375 -1.42219 48.922 4.61096 52.6188C5.99136 53.4815 7.43485 54.2389 8.92915 54.8845C13.7201 56.9044 18.8455 58.0139 24.0428 58.1562C24.0835 58.1562 24.1241 58.1613 24.1648 58.1613C26.7103 58.3305 29.1417 59.2802 31.1281 60.881C33.1144 62.4819 34.5589 64.6561 35.265 67.1076C35.3399 67.4073 35.3172 67.7231 35.2002 68.009C35.0833 68.295 34.8782 68.5362 34.6148 68.6976C33.8565 69.3404 32.959 69.7979 31.9934 70.0337C29.9054 70.4757 27.8124 70.8804 25.7142 71.2479C21.6145 71.9642 17.4944 72.5434 13.354 72.9853C10.6107 73.28 7.8623 73.5103 5.10881 73.6763C-0.570885 74.0319 -6.27598 74.1182 -11.9659 73.9404C-14.7803 73.8541 -17.4931 73.7626 -20.0739 72.518C-21.95 71.5922 -23.5522 70.1931 -24.7223 68.4589C-25.826 66.7927 -26.5517 64.9052 -26.8483 62.9288C-27.145 60.9524 -27.0054 58.935 -26.4394 57.0182Z" fill="#F5F5F5"/>
<path d="M8.65402 365.874L-15 343.316C3.37577 340.899 10.926 352.848 14.016 362.306C28.3719 355.198 44 364.514 44 364.514L-3.32727 385C-0.939671 377.396 3.21648 370.761 8.65402 365.874Z" fill="#F5F5F5"/>
<path d="M245.309 543.367C250.463 544.986 255.881 545.593 261.251 545.154C266.621 544.714 271.84 543.236 276.608 540.805C281.377 538.373 285.602 535.035 289.043 530.981C292.484 526.928 295.072 522.238 296.662 517.18C298.251 512.121 298.809 506.793 298.305 501.5C297.8 496.207 296.243 491.053 293.722 486.331C291.201 481.609 287.765 477.412 283.611 473.98C279.457 470.549 274.666 467.949 269.511 466.329L257.41 504.848L245.309 543.367Z" fill="#F5F5F5"/>
<ellipse cx="8.10881" cy="8.53122" rx="8.10881" ry="8.53122" transform="matrix(-0.873186 0.508895 0.484688 0.861873 295.704 523.427)" fill="white"/>
<path d="M291.733 533.604C307.33 547.04 306.805 560.954 289.395 591.175" stroke="white" stroke-width="5" stroke-linecap="round"/>
<ellipse cx="34.1089" cy="33.7189" rx="34.1089" ry="33.7189" transform="matrix(-1.01117 0.0373422 -0.00569975 0.988334 344.763 564.524)" fill="white"/>
<path d="M295.16 608.436C288.22 620.801 283.942 628.41 269.343 637.226" stroke="white" stroke-width="6" stroke-linecap="round"/>
<path d="M310.199 527.516C323.382 543.3 320.674 557.054 298.832 584.403" stroke="white" stroke-width="5" stroke-linecap="round"/>
<path d="M323.341 622.368C317.683 642.259 312.522 649.698 294.061 655.022" stroke="white" stroke-width="6" stroke-linecap="round"/>
<ellipse cx="8.10881" cy="8.53122" rx="8.10881" ry="8.53122" transform="matrix(-0.873186 0.508895 0.484688 0.861873 310.274 512.431)" fill="white"/>
<ellipse cx="16.3405" cy="20.7413" rx="16.3405" ry="20.7413" transform="matrix(0.758533 -0.667799 0.62103 0.770624 284.491 553.012)" fill="#F5F5F5"/>
<path d="M310.001 552.531C309.941 550.646 308.662 548.79 306.595 547.898C304.696 547.078 302.628 547.287 301.166 548.278C302.642 548.27 304.186 548.568 305.677 549.212C307.479 549.99 308.951 551.161 310.001 552.531Z" fill="#FFA821"/>
<path d="M320.33 559.058C319.73 557.627 318.616 556.316 317.074 555.404C316.168 554.868 315.205 554.525 314.245 554.36C315.444 553.836 316.962 553.912 318.269 554.685C319.934 555.669 320.73 557.475 320.33 559.058Z" fill="#FFA821"/>
<ellipse cx="7.9751" cy="4.71225" rx="7.9751" ry="4.71225" transform="matrix(0.818583 0.580807 -0.604439 0.792288 303.662 557.975)" fill="#FFA821"/>
<path d="M252 891C252 836.1 240.463 783.449 219.928 744.629C199.393 705.809 171.541 684 142.5 684C113.459 684 85.6071 705.809 65.0718 744.629C44.5366 783.449 33 836.1 33 891L142.5 891H252Z" fill="#F5F5F5"/>
<path d="M233.942 467.702C242.222 467.412 249.187 473.892 249.276 482.176C249.963 545.943 240.773 606.703 223.322 652.74C204.507 702.374 177.632 730.827 148.609 731.841C119.585 732.854 90.7908 706.345 68.5599 658.144C47.9402 613.437 34.5337 553.466 30.771 489.807C30.2822 481.537 36.7783 474.587 45.0576 474.298L139.5 471L233.942 467.702Z" fill="#F5F5F5"/>
<path d="M47 572C39.8392 572 32.9716 566.855 27.9081 557.697C22.8446 548.538 20 536.117 20 523.165C20 510.214 22.8446 497.792 27.9081 488.634C32.9716 479.476 39.8392 475 47 475V523.165V572Z" fill="#F5F5F5"/>
<path d="M191.457 562.427L166.457 577.427" stroke="#FFA821" stroke-width="6" stroke-linecap="round"/>
<path d="M82.3412 562.427L107.341 577.427" stroke="#FFA821" stroke-width="6" stroke-linecap="round"/>
<path d="M195.798 586.108L166.798 578.108" stroke="#FFA821" stroke-width="6" stroke-linecap="round"/>
<path d="M78 586.108L107 578.108" stroke="#FFA821" stroke-width="6" stroke-linecap="round"/>
<path d="M99 658.067L103.611 656.454L109.906 653.61L116.065 663.496L126.933 652.84L133.334 659.566L140.426 650.616L148.579 659.483L153.463 651.881L159.697 654.695" stroke="#FFA821" stroke-width="11" stroke-linecap="square"/>
<path d="M375.448 764.744C393.718 764.744 408.528 737.043 408.528 702.872C408.528 668.701 393.718 641 375.448 641C357.178 641 342.368 668.701 342.368 702.872C342.368 737.043 357.178 764.744 375.448 764.744Z" fill="#14AE5C"/>
<path d="M385.096 810.692L383.904 807.726L375.353 813.625L376.545 816.592L385.096 810.692Z" fill="#F5F5F5"/>
<path d="M378.031 890.001H373.031L374.066 813.607L374.606 773.783L375.527 706H375.668L376.535 773.771L377.031 812.334L377.084 816.081L378.031 890.001Z" fill="#F5F5F5"/>
<path d="M260.251 459.502L261.185 466.225L263.34 475.475L248.048 483.107L259.663 499.72L248.643 508.05L258.965 519.112L244.516 529.689L253.599 537.469L248 546" stroke="#FFA821" stroke-width="16" stroke-linecap="square"/>
<path d="M130.428 171.981L118 160.165C127.655 158.899 131.622 165.159 133.246 170.113C140.789 166.39 149 171.269 149 171.269L124.133 182C125.388 178.017 127.571 174.542 130.428 171.981Z" fill="url(#paint0_linear_2875_5069)"/>
<path d="M12.266 148V115.8H24.87C27.1393 115.8 29.0253 116.153 30.528 116.858C32.0613 117.563 33.2113 118.545 33.978 119.802C34.7447 121.029 35.128 122.455 35.128 124.08C35.128 125.705 34.7753 127.07 34.07 128.174C33.3647 129.278 32.4293 130.121 31.264 130.704C30.1293 131.287 28.8873 131.639 27.538 131.762L28.228 131.256C29.6693 131.287 30.9573 131.67 32.092 132.406C33.2573 133.142 34.1773 134.108 34.852 135.304C35.5267 136.469 35.864 137.773 35.864 139.214C35.864 140.901 35.45 142.419 34.622 143.768C33.8247 145.087 32.644 146.129 31.08 146.896C29.516 147.632 27.5993 148 25.33 148H12.266ZM17.786 143.492H24.502C26.3113 143.492 27.722 143.063 28.734 142.204C29.746 141.345 30.252 140.149 30.252 138.616C30.252 137.083 29.7307 135.871 28.688 134.982C27.6453 134.062 26.2193 133.602 24.41 133.602H17.786V143.492ZM17.786 129.416H24.088C25.8667 129.416 27.216 129.017 28.136 128.22C29.056 127.392 29.516 126.257 29.516 124.816C29.516 123.405 29.056 122.301 28.136 121.504C27.216 120.676 25.8513 120.262 24.042 120.262H17.786V129.416ZM41.1508 148V115.8H52.6968C55.2421 115.8 57.3428 116.245 58.9988 117.134C60.6854 117.993 61.9274 119.158 62.7248 120.63C63.5528 122.071 63.9668 123.712 63.9668 125.552C63.9668 127.269 63.5681 128.864 62.7708 130.336C61.9734 131.808 60.7314 132.989 59.0448 133.878C57.3581 134.767 55.1961 135.212 52.5588 135.212H46.6708V148H41.1508ZM57.9408 148L51.1788 133.786H57.1588L64.2428 148H57.9408ZM46.6708 131.118H52.3288C54.3834 131.118 55.8861 130.627 56.8368 129.646C57.8181 128.634 58.3088 127.315 58.3088 125.69C58.3088 124.095 57.8334 122.823 56.8828 121.872C55.9321 120.891 54.4141 120.4 52.3288 120.4H46.6708V131.118ZM69.6762 148V115.8H90.4682V120.262H75.1962V129.508H89.0882V133.878H75.1962V143.538H90.4682V148H69.6762ZM94.1539 148L105.93 115.8H112.094L123.87 148H118.028L108.966 122.24L99.9039 148H94.1539ZM99.3979 140.41L100.87 136.04H116.74L118.212 140.41H99.3979ZM128.299 148V115.8H133.819V129.094L145.963 115.8H152.817L140.903 128.588L153.093 148H146.377L136.993 132.82L133.819 136.27V148H128.299ZM176.137 148V120.262H166.661V115.8H191.087V120.262H181.611V148H176.137ZM215.969 148V115.8H221.489V148H215.969ZM195.637 148V115.8H201.157V148H195.637ZM200.329 133.832V129.324H217.027V133.832H200.329ZM228.026 148V115.8H248.818V120.262H233.546V129.508H247.438V133.878H233.546V143.538H248.818V148H228.026ZM265.85 148V115.8H271.37V143.676H285.722V148H265.85ZM302.85 148.552C299.753 148.552 297.008 147.862 294.616 146.482C292.255 145.071 290.399 143.124 289.05 140.64C287.701 138.125 287.026 135.212 287.026 131.9C287.026 128.619 287.701 125.736 289.05 123.252C290.399 120.737 292.255 118.775 294.616 117.364C297.008 115.953 299.753 115.248 302.85 115.248C306.009 115.248 308.784 115.953 311.176 117.364C313.568 118.775 315.423 120.737 316.742 123.252C318.061 125.736 318.72 128.619 318.72 131.9C318.72 135.212 318.061 138.125 316.742 140.64C315.423 143.124 313.568 145.071 311.176 146.482C308.784 147.862 306.009 148.552 302.85 148.552ZM302.896 143.584C304.951 143.584 306.745 143.124 308.278 142.204C309.811 141.253 310.992 139.904 311.82 138.156C312.648 136.408 313.062 134.323 313.062 131.9C313.062 129.477 312.648 127.392 311.82 125.644C310.992 123.896 309.811 122.562 308.278 121.642C306.745 120.691 304.951 120.216 302.896 120.216C300.841 120.216 299.047 120.691 297.514 121.642C295.981 122.562 294.785 123.896 293.926 125.644C293.098 127.392 292.684 129.477 292.684 131.9C292.684 134.323 293.098 136.408 293.926 138.156C294.785 139.904 295.981 141.253 297.514 142.204C299.047 143.124 300.841 143.584 302.896 143.584ZM338.788 148.552C335.69 148.552 332.946 147.862 330.554 146.482C328.192 145.071 326.337 143.124 324.988 140.64C323.638 138.125 322.964 135.212 322.964 131.9C322.964 128.619 323.638 125.736 324.988 123.252C326.337 120.737 328.192 118.775 330.554 117.364C332.946 115.953 335.69 115.248 338.788 115.248C341.946 115.248 344.722 115.953 347.114 117.364C349.506 118.775 351.361 120.737 352.68 123.252C353.998 125.736 354.658 128.619 354.658 131.9C354.658 135.212 353.998 138.125 352.68 140.64C351.361 143.124 349.506 145.071 347.114 146.482C344.722 147.862 341.946 148.552 338.788 148.552ZM338.834 143.584C340.888 143.584 342.682 143.124 344.216 142.204C345.749 141.253 346.93 139.904 347.758 138.156C348.586 136.408 349 134.323 349 131.9C349 129.477 348.586 127.392 347.758 125.644C346.93 123.896 345.749 122.562 344.216 121.642C342.682 120.691 340.888 120.216 338.834 120.216C336.779 120.216 334.985 120.691 333.452 121.642C331.918 122.562 330.722 123.896 329.864 125.644C329.036 127.392 328.622 129.477 328.622 131.9C328.622 134.323 329.036 136.408 329.864 138.156C330.722 139.904 331.918 141.253 333.452 142.204C334.985 143.124 336.779 143.584 338.834 143.584ZM360.051 148V115.8H371.643C374.219 115.8 376.35 116.245 378.037 117.134C379.724 117.993 380.981 119.158 381.809 120.63C382.637 122.102 383.051 123.789 383.051 125.69C383.051 127.469 382.652 129.109 381.855 130.612C381.058 132.084 379.816 133.28 378.129 134.2C376.442 135.089 374.28 135.534 371.643 135.534H365.571V148H360.051ZM365.571 131.026H371.321C373.498 131.026 375.062 130.551 376.013 129.6C376.964 128.619 377.439 127.315 377.439 125.69C377.439 124.003 376.964 122.685 376.013 121.734C375.062 120.783 373.498 120.308 371.321 120.308H365.571V131.026Z" fill="white"/>
<line x1="270.5" y1="129.5" x2="377.5" y2="129.5" stroke="white" stroke-width="7" stroke-linecap="round"/>
<defs>
<linearGradient id="paint0_linear_2875_5069" x1="169.117" y1="154.865" x2="122.37" y2="181.567" gradientUnits="userSpaceOnUse">
<stop stop-color="#0AA452"/>
<stop offset="1" stop-color="white"/>
</linearGradient>
</defs>
</svg>
