<svg width="54" height="34" viewBox="0 0 54 34" fill="none" xmlns="http://www.w3.org/2000/svg">
<path d="M21.8026 9.38286V31.5816C21.8026 31.5816 21.8026 32.75 23.2862 32.75C24.7698 32.75 24.7698 31.5816 24.7698 31.5816V18.5999C24.7698 18.5999 24.7698 18.178 24.9181 18.0482C25.0665 17.9184 25.7341 17.9508 25.7341 17.9508H29.0722V31.5816C29.0722 31.5816 29.0722 32.75 30.5558 32.75C32.0394 32.75 32.0394 31.5816 32.0394 31.5816V10.0969C32.0394 10.0969 32.0276 9.67187 32.1507 9.54513C32.2738 9.41839 32.7812 9.38286 32.7812 9.38286H39.9025C39.9025 9.38286 43.9082 9.38286 47.8397 7.24087C50.9968 5.52079 52.7726 2.27535 52.7726 2.27535C52.7726 2.27535 52.7726 1.00963 52.4017 0.879817C51.9832 0.733329 51.1036 0.879817 51.1036 0.879817C51.1036 0.879817 48.8029 3.88773 46.6157 5.06643C43.5373 6.72547 39.9025 6.91633 39.9025 6.91633L30.4075 7.01369C30.4075 7.01369 29.8151 7.14812 29.5544 7.33824C29.2937 7.52835 29.0722 7.98732 29.0722 7.98732V15.3545H24.7698V8.77645C24.7698 8.66168 24.7582 8.54713 24.7351 8.43414L24.5843 7.69523L24.3247 7.33824L23.8425 7.01369L23.1378 6.91633H13.309L11.8254 6.7216L10.3047 6.49442L8.85824 6.07252L7.37464 5.29361L5.92814 4.31998L4.77835 3.34635L4.25909 2.85953L3.51729 2.01572L2.81259 1.107L2.29333 0.75H1.73698L1.14354 0.944726L0.846824 1.43154L0.772644 2.14554L1.84825 3.86562L2.99804 5.09888L4.55581 6.49442L6.22485 7.50051L8.15353 8.34432L9.97093 8.96095L13.309 9.38286H21.8026Z" fill="#14AE5C" stroke="#14AE5C" stroke-width="1.5"/>
</svg>
