<svg width="70" height="44" viewBox="0 0 70 44" fill="none" xmlns="http://www.w3.org/2000/svg">
<path d="M28.5007 12.3306V41.4665C28.5007 41.4665 28.5007 43 30.4408 43C32.3809 43 32.3809 41.4665 32.3809 41.4665V24.428C32.3809 24.428 32.3809 23.8742 32.5749 23.7039C32.7689 23.5335 33.6419 23.5761 33.6419 23.5761H38.0071V41.4665C38.0071 41.4665 38.0071 43 39.9472 43C41.8873 43 41.8873 41.4665 41.8873 41.4665V13.2677C41.8873 13.2677 41.8718 12.71 42.0328 12.5436C42.1938 12.3773 42.8573 12.3306 42.8573 12.3306H52.1698C52.1698 12.3306 57.408 12.3306 62.5492 9.51927C66.6778 7.26166 69 3.00203 69 3.00203C69 3.00203 69 1.34077 68.515 1.17039C67.9677 0.97812 66.8174 1.17039 66.8174 1.17039C66.8174 1.17039 63.8088 5.11827 60.9486 6.66531C56.923 8.84281 52.1698 9.09331 52.1698 9.09331L39.7532 9.2211C39.7532 9.2211 38.9786 9.39754 38.6377 9.64706C38.2967 9.89658 38.0071 10.499 38.0071 10.499V20.1684H32.3809V11.5347C32.3809 11.3841 32.3657 11.2337 32.3356 11.0854L32.1384 10.1156L31.7989 9.64706L31.1683 9.2211L30.2468 9.09331H17.3937L15.4536 8.83773L13.465 8.53955L11.5735 7.9858L9.63338 6.96349L7.7418 5.6856L6.23823 4.40771L5.5592 3.76876L4.58916 2.66126L3.66762 1.46856L2.98859 1H2.26106L1.48502 1.25558L1.097 1.89452L1 2.83164L2.40656 5.08925L3.91013 6.70791L5.94722 8.53955L8.12981 9.86004L10.6519 10.9675L13.0285 11.7769L17.3937 12.3306H28.5007Z" fill="#51E563" stroke="#51E563" stroke-width="1.5"/>
</svg>
